<?xml version="1.0" encoding="UTF-8" standalone="no"?>
<!DOCTYPE svg PUBLIC "-//W3C//DTD SVG 1.1//EN" "http://www.w3.org/Graphics/SVG/1.1/DTD/svg11.dtd">
<svg width="100%" height="100%" viewBox="0 0 1200 1080" version="1.1" xmlns="http://www.w3.org/2000/svg" xmlns:xlink="http://www.w3.org/1999/xlink" xml:space="preserve" xmlns:serif="http://www.serif.com/" style="fill-rule:evenodd;clip-rule:evenodd;stroke-linejoin:round;stroke-miterlimit:2;">
    <rect id="Artboard1" x="0" y="0" width="1200" height="1080" style="fill:none;"/>
    <g id="Artboard11" serif:id="Artboard1">
        <g transform="matrix(1,0,0,1.09091,-720,207.273)">
            <rect x="720" y="-190" width="1200" height="990" style="fill:rgb(46,46,46);"/>
        </g>
        <g transform="matrix(0.707107,-0.707107,0.707107,0.707107,-575.938,-155.145)">
            <path d="M-466.129,1280.63L207,607.5L207,1953.76L-466.129,1280.63Z" style="fill:rgb(51,51,51);"/>
        </g>
        <g id="aethersx2.svg">
            <g id="Aethersx2" transform="matrix(1,0,0,1,17.8621,-41.6765)">
                <path d="M464.575,840.419L477.208,806.06L484.122,806.06L496.568,840.419L490.052,840.419L486.654,830.716L474.63,830.716L471.208,840.419L464.575,840.419ZM476.224,825.982L485.036,825.982C482.224,816.966 480.779,812.31 480.7,812.013L476.224,825.982Z" style="fill:white;fill-rule:nonzero;"/>
                <path d="M511.521,840.912C507.38,840.912 504.157,839.72 501.853,837.337C499.548,834.955 498.396,831.662 498.396,827.458C498.396,823.365 499.482,820.107 501.654,817.685C503.825,815.263 506.786,814.044 510.536,814.029C514.083,814.029 516.837,815.138 518.798,817.357C520.759,819.576 521.74,822.521 521.74,826.193C521.74,826.458 521.736,826.888 521.728,827.482C521.72,828.076 521.716,828.513 521.716,828.794L504.583,828.794C504.646,831.201 505.306,833.064 506.564,834.384C507.822,835.705 509.552,836.365 511.755,836.365C514.568,836.365 517.271,835.63 519.865,834.162L520.732,838.521C518.154,840.115 515.083,840.912 511.521,840.912ZM504.7,824.927L515.95,824.927C515.95,822.833 515.474,821.224 514.521,820.099C513.568,818.974 512.247,818.412 510.56,818.412C508.982,818.412 507.65,818.958 506.564,820.052C505.478,821.146 504.857,822.771 504.7,824.927Z" style="fill:white;fill-rule:nonzero;"/>
                <path d="M537.021,840.771C535.271,840.771 533.814,840.564 532.65,840.15C531.486,839.736 530.575,839.083 529.919,838.193C529.263,837.302 528.798,836.251 528.525,835.04C528.251,833.83 528.115,832.333 528.115,830.552L528.115,818.388L523.896,818.388L524.13,815.06L528.536,814.662L530.505,807.677L534.255,807.654L534.255,814.662L540.654,814.662L540.654,818.388L534.255,818.388L534.255,830.669C534.255,832.622 534.536,834.013 535.099,834.841C535.661,835.669 536.7,836.083 538.216,836.083C539.107,836.083 540.06,836.005 541.075,835.849L541.24,840.255C541.208,840.255 541.017,840.29 540.665,840.361C540.314,840.431 539.978,840.494 539.657,840.548C539.337,840.603 538.927,840.654 538.427,840.701C537.927,840.747 537.458,840.771 537.021,840.771Z" style="fill:white;fill-rule:nonzero;"/>
                <path d="M545.552,840.419L545.552,805.169L551.693,804.771L551.693,812.201C551.693,812.56 551.669,813.556 551.622,815.189C551.575,816.822 551.552,817.654 551.552,817.685C553.599,815.247 556.349,814.029 559.802,814.029C562.677,814.029 564.907,814.853 566.493,816.501C568.079,818.15 568.872,820.685 568.872,824.107L568.872,840.419L562.732,840.419L562.732,824.787C562.732,822.677 562.396,821.13 561.724,820.146C561.052,819.162 559.911,818.669 558.302,818.669C556.927,818.669 555.708,819.017 554.646,819.712C553.583,820.408 552.786,821.302 552.255,822.396C551.88,823.833 551.693,825.708 551.693,828.021L551.693,840.419L545.552,840.419Z" style="fill:white;fill-rule:nonzero;"/>
                <path d="M586.825,840.912C582.685,840.912 579.462,839.72 577.157,837.337C574.853,834.955 573.7,831.662 573.7,827.458C573.7,823.365 574.786,820.107 576.958,817.685C579.13,815.263 582.091,814.044 585.841,814.029C589.388,814.029 592.142,815.138 594.103,817.357C596.064,819.576 597.044,822.521 597.044,826.193C597.044,826.458 597.04,826.888 597.032,827.482C597.025,828.076 597.021,828.513 597.021,828.794L579.888,828.794C579.95,831.201 580.611,833.064 581.868,834.384C583.126,835.705 584.857,836.365 587.06,836.365C589.872,836.365 592.575,835.63 595.169,834.162L596.036,838.521C593.458,840.115 590.388,840.912 586.825,840.912ZM580.005,824.927L591.255,824.927C591.255,822.833 590.779,821.224 589.825,820.099C588.872,818.974 587.552,818.412 585.865,818.412C584.286,818.412 582.954,818.958 581.868,820.052C580.782,821.146 580.161,822.771 580.005,824.927Z" style="fill:white;fill-rule:nonzero;"/>
                <path d="M602.06,840.419L602.06,814.662L607.216,814.662L608.013,818.599C609.7,815.896 612.146,814.544 615.349,814.544C616.021,814.544 616.568,814.576 616.99,814.638L616.896,819.771C616.271,819.677 615.622,819.63 614.95,819.63C612.685,819.63 610.993,820.232 609.876,821.435C608.759,822.638 608.2,824.31 608.2,826.451L608.2,840.419L602.06,840.419Z" style="fill:white;fill-rule:nonzero;"/>
                <path d="M630.958,840.888C626.818,840.888 623.107,839.935 619.825,838.029L621.372,832.99C622.841,833.802 624.439,834.458 626.165,834.958C627.892,835.458 629.575,835.708 631.216,835.708C633.232,835.708 634.755,835.275 635.786,834.408C636.818,833.54 637.333,832.294 637.333,830.669C637.333,828.513 635.896,827.021 633.021,826.193C632.818,826.13 632.247,825.962 631.31,825.689C630.372,825.415 629.493,825.15 628.673,824.892C627.853,824.634 627.263,824.435 626.904,824.294C622.294,822.669 619.99,819.638 619.99,815.201C619.99,812.091 621.095,809.693 623.306,808.005C625.517,806.318 628.45,805.474 632.107,805.474C636.247,805.474 639.818,806.326 642.818,808.029L640.896,812.669C637.833,811.294 634.99,810.607 632.365,810.607C630.474,810.607 629.048,810.939 628.087,811.603C627.126,812.267 626.615,813.372 626.552,814.919C626.552,816.826 627.497,818.068 629.388,818.646C629.763,818.787 630.685,819.091 632.154,819.56C633.622,820.029 634.575,820.333 635.013,820.474C638.154,821.505 640.4,822.787 641.751,824.318C643.103,825.849 643.779,827.982 643.779,830.716C643.779,833.982 642.622,836.494 640.31,838.251C637.997,840.009 634.88,840.888 630.958,840.888Z" style="fill:white;fill-rule:nonzero;"/>
                <path d="M645.232,840.419L657.255,822.841L646.122,806.083L653.271,806.083L661.357,818.88L669.677,806.083L676.45,806.083L665.083,822.935L677.06,840.419L669.724,840.419L661.052,827.06L652.193,840.419L645.232,840.419Z" style="fill:white;fill-rule:nonzero;"/>
                <path d="M678.818,840.419L678.677,835.357L689.529,823.076C690.872,821.638 691.853,820.314 692.47,819.103C693.087,817.892 693.396,816.615 693.396,815.271C693.396,813.787 692.911,812.603 691.943,811.72C690.974,810.837 689.7,810.396 688.122,810.396C686.669,810.396 685.236,810.665 683.822,811.205C682.407,811.744 681.247,812.419 680.341,813.232L678.583,808.591C680.927,806.529 684.224,805.497 688.474,805.497C691.849,805.497 694.564,806.345 696.618,808.04C698.673,809.736 699.7,812.13 699.7,815.224C699.7,817.412 699.118,819.497 697.954,821.482C696.79,823.466 695.2,825.505 693.185,827.599L685.45,835.802L699.302,835.802L698.88,840.419L678.818,840.419Z" style="fill:white;fill-rule:nonzero;"/>
            </g>
            <g transform="matrix(1,0,0,1,0,19.9792)">
                <g transform="matrix(1,0,0,1,346.522,249.17)">
                    <path d="M282.924,453.945C281.549,453.08 280.23,452.107 278.792,451.365C257.054,440.149 235.275,429.011 213.556,417.756C189.816,405.453 166.108,393.085 142.422,380.677C124.253,371.159 106.113,361.582 88.049,351.866C86.678,351.128 85.34,349.165 85.132,347.617C83.624,336.372 82.324,325.097 81.128,313.813C79.981,302.998 79.152,292.149 77.97,281.339C76.827,270.883 75.309,260.469 74.143,250.016C72.994,239.708 72.178,229.364 71.035,219.055C69.856,208.434 68.398,197.843 67.173,187.227C66.041,177.413 65.089,167.579 63.997,157.761C63.07,149.428 62.024,141.107 61.108,132.773C60.927,131.129 61.101,129.447 61.579,127.326C64.285,127.509 66.572,128.009 68.749,128.809C122.081,148.391 175.389,168.038 228.729,187.596C248.433,194.821 268.209,201.849 287.876,209.393C287.651,212.811 287.418,215.801 287.364,218.795C286.349,275.047 285.378,331.301 284.344,387.553C283.937,409.685 283.401,431.815 282.924,453.945Z" style="fill:rgb(233,235,247);fill-rule:nonzero;"/>
                </g>
                <g transform="matrix(1,0,0,1,346.522,249.17)">
                    <path d="M283.244,453.84C283.401,431.815 283.937,409.685 284.344,387.553C285.378,331.301 286.349,275.047 287.364,218.795C287.418,215.801 287.651,212.811 288.165,209.215C338.822,175.54 389.119,142.474 439.396,109.379C441.44,108.034 443.3,106.409 445.246,104.914C445.478,106.519 446.048,108.157 445.89,109.723C444.222,126.243 442.438,142.752 440.685,159.264C439.125,173.957 437.571,188.65 436,203.342C433.777,224.142 431.508,244.938 429.32,265.742C427.826,279.944 426.428,294.157 425.008,308.367C424.596,312.499 425.345,317.178 423.623,320.643C421.2,325.516 417.333,329.854 413.424,333.761C407.919,339.261 401.685,344.024 395.984,349.339C384.074,360.44 372.382,371.775 360.467,382.87C342.607,399.503 324.642,416.023 306.701,432.568C299.016,439.654 291.278,446.681 283.244,453.84Z" style="fill:rgb(230,231,235);fill-rule:nonzero;"/>
                </g>
                <g transform="matrix(1,0,0,1,346.522,249.17)">
                    <path d="M444.99,104.618C443.3,106.409 441.44,108.034 439.396,109.379C389.119,142.474 338.822,175.54 288.24,208.789C268.209,201.849 248.433,194.821 228.729,187.596C175.389,168.038 122.081,148.391 68.749,128.809C66.572,128.009 64.285,127.509 61.665,126.882C62.169,125.961 62.882,124.642 63.97,124.152C89.604,112.58 115.294,101.133 140.94,89.587C159.39,81.282 177.777,72.837 196.218,64.51C208.137,59.128 220.022,53.655 232.106,48.666C234.813,47.548 238.494,47.509 241.374,48.284C275.469,57.471 309.504,66.884 343.542,76.285C374.942,84.958 406.326,93.689 437.718,102.393C440.055,103.041 442.395,103.679 444.99,104.618Z" style="fill:rgb(234,238,255);fill-rule:nonzero;"/>
                </g>
            </g>
        </g>
    </g>
</svg>
