<?xml version="1.0" encoding="utf-8"?>
<svg width="100%" height="100%" viewBox="0 0 1200 1080" version="1.1" xmlns="http://www.w3.org/2000/svg" style="fill-rule:evenodd;clip-rule:evenodd;stroke-linejoin:round;stroke-miterlimit:2;">
  <path d="M 0 0 H 1200 V 1080.001 H 0 V 0 Z" style="fill:rgb(46,46,46);"/>
  <path d="M -98.576 842.013 L 574.553 168.883 L 574.553 1515.144 L -98.576 842.013 Z" style="fill: rgb(51, 51, 51); transform-box: fill-box; transform-origin: 50% 50%;" transform="matrix(0.707107, -0.707107, 0.707107, 0.707107, -0.000006, -0.000008)"/>
  <path d="M 482.437 798.743 L 495.07 764.384 L 501.984 764.384 L 514.43 798.743 L 507.914 798.743 L 504.516 789.04 L 492.492 789.04 L 489.07 798.743 L 482.437 798.743 Z M 494.086 784.306 L 502.898 784.306 C 500.086 775.29 498.641 770.634 498.562 770.337 L 494.086 784.306 Z" style="fill:white;fill-rule:nonzero;"/>
  <path d="M 529.383 799.236 C 525.242 799.236 522.019 798.044 519.715 795.661 C 517.41 793.279 516.258 789.986 516.258 785.782 C 516.258 781.689 517.344 778.431 519.516 776.009 C 521.687 773.587 524.648 772.368 528.398 772.353 C 531.945 772.353 534.699 773.462 536.66 775.681 C 538.621 777.9 539.602 780.845 539.602 784.517 C 539.602 784.782 539.598 785.212 539.59 785.806 C 539.582 786.4 539.578 786.837 539.578 787.118 L 522.445 787.118 C 522.508 789.525 523.168 791.388 524.426 792.708 C 525.684 794.029 527.414 794.689 529.617 794.689 C 532.43 794.689 535.133 793.954 537.727 792.486 L 538.594 796.845 C 536.016 798.439 532.945 799.236 529.383 799.236 Z M 522.562 783.251 L 533.812 783.251 C 533.812 781.157 533.336 779.548 532.383 778.423 C 531.43 777.298 530.109 776.736 528.422 776.736 C 526.844 776.736 525.512 777.282 524.426 778.376 C 523.34 779.47 522.719 781.095 522.562 783.251 Z" style="fill:white;fill-rule:nonzero;"/>
  <path d="M 554.883 799.095 C 553.133 799.095 551.676 798.888 550.512 798.474 C 549.348 798.06 548.437 797.407 547.781 796.517 C 547.125 795.626 546.66 794.575 546.387 793.364 C 546.113 792.154 545.977 790.657 545.977 788.876 L 545.977 776.712 L 541.758 776.712 L 541.992 773.384 L 546.398 772.986 L 548.367 766.001 L 552.117 765.978 L 552.117 772.986 L 558.516 772.986 L 558.516 776.712 L 552.117 776.712 L 552.117 788.993 C 552.117 790.946 552.398 792.337 552.961 793.165 C 553.523 793.993 554.562 794.407 556.078 794.407 C 556.969 794.407 557.922 794.329 558.937 794.173 L 559.102 798.579 C 559.07 798.579 558.879 798.614 558.527 798.685 C 558.176 798.755 557.84 798.818 557.519 798.872 C 557.199 798.927 556.789 798.978 556.289 799.025 C 555.789 799.071 555.32 799.095 554.883 799.095 Z" style="fill:white;fill-rule:nonzero;"/>
  <path d="M 563.414 798.743 L 563.414 763.493 L 569.555 763.095 L 569.555 770.525 C 569.555 770.884 569.531 771.88 569.484 773.513 C 569.437 775.146 569.414 775.978 569.414 776.009 C 571.461 773.571 574.211 772.353 577.664 772.353 C 580.539 772.353 582.769 773.177 584.355 774.825 C 585.941 776.474 586.734 779.009 586.734 782.431 L 586.734 798.743 L 580.594 798.743 L 580.594 783.111 C 580.594 781.001 580.258 779.454 579.586 778.47 C 578.914 777.486 577.773 776.993 576.164 776.993 C 574.789 776.993 573.57 777.341 572.508 778.036 C 571.445 778.732 570.648 779.626 570.117 780.72 C 569.742 782.157 569.555 784.032 569.555 786.345 L 569.555 798.743 L 563.414 798.743 Z" style="fill:white;fill-rule:nonzero;"/>
  <path d="M 604.687 799.236 C 600.547 799.236 597.324 798.044 595.019 795.661 C 592.715 793.279 591.562 789.986 591.562 785.782 C 591.562 781.689 592.648 778.431 594.82 776.009 C 596.992 773.587 599.953 772.368 603.703 772.353 C 607.25 772.353 610.004 773.462 611.965 775.681 C 613.926 777.9 614.906 780.845 614.906 784.517 C 614.906 784.782 614.902 785.212 614.894 785.806 C 614.887 786.4 614.883 786.837 614.883 787.118 L 597.75 787.118 C 597.812 789.525 598.473 791.388 599.73 792.708 C 600.988 794.029 602.719 794.689 604.922 794.689 C 607.734 794.689 610.437 793.954 613.031 792.486 L 613.898 796.845 C 611.32 798.439 608.25 799.236 604.687 799.236 Z M 597.867 783.251 L 609.117 783.251 C 609.117 781.157 608.641 779.548 607.687 778.423 C 606.734 777.298 605.414 776.736 603.727 776.736 C 602.148 776.736 600.816 777.282 599.73 778.376 C 598.644 779.47 598.023 781.095 597.867 783.251 Z" style="fill:white;fill-rule:nonzero;"/>
  <path d="M 619.922 798.743 L 619.922 772.986 L 625.078 772.986 L 625.875 776.923 C 627.562 774.22 630.008 772.868 633.211 772.868 C 633.883 772.868 634.43 772.9 634.852 772.962 L 634.758 778.095 C 634.133 778.001 633.484 777.954 632.812 777.954 C 630.547 777.954 628.855 778.556 627.738 779.759 C 626.621 780.962 626.062 782.634 626.062 784.775 L 626.062 798.743 L 619.922 798.743 Z" style="fill:white;fill-rule:nonzero;"/>
  <path d="M 648.82 799.212 C 644.68 799.212 640.969 798.259 637.687 796.353 L 639.234 791.314 C 640.703 792.126 642.301 792.782 644.027 793.282 C 645.754 793.782 647.437 794.032 649.078 794.032 C 651.094 794.032 652.617 793.599 653.648 792.732 C 654.68 791.864 655.195 790.618 655.195 788.993 C 655.195 786.837 653.758 785.345 650.883 784.517 C 650.68 784.454 650.109 784.286 649.172 784.013 C 648.234 783.739 647.355 783.474 646.535 783.216 C 645.715 782.958 645.125 782.759 644.766 782.618 C 640.156 780.993 637.852 777.962 637.852 773.525 C 637.852 770.415 638.957 768.017 641.168 766.329 C 643.379 764.642 646.312 763.798 649.969 763.798 C 654.109 763.798 657.68 764.65 660.68 766.353 L 658.758 770.993 C 655.695 769.618 652.852 768.931 650.227 768.931 C 648.336 768.931 646.91 769.263 645.949 769.927 C 644.988 770.591 644.477 771.696 644.414 773.243 C 644.414 775.15 645.359 776.392 647.25 776.97 C 647.625 777.111 648.547 777.415 650.016 777.884 C 651.484 778.353 652.437 778.657 652.875 778.798 C 656.016 779.829 658.262 781.111 659.613 782.642 C 660.965 784.173 661.641 786.306 661.641 789.04 C 661.641 792.306 660.484 794.818 658.172 796.575 C 655.859 798.333 652.742 799.212 648.82 799.212 Z" style="fill:white;fill-rule:nonzero;"/>
  <path d="M 663.094 798.743 L 675.117 781.165 L 663.984 764.407 L 671.133 764.407 L 679.219 777.204 L 687.539 764.407 L 694.312 764.407 L 682.945 781.259 L 694.922 798.743 L 687.586 798.743 L 678.914 785.384 L 670.055 798.743 L 663.094 798.743 Z" style="fill:white;fill-rule:nonzero;"/>
  <path d="M 696.68 798.743 L 696.539 793.681 L 707.391 781.4 C 708.734 779.962 709.715 778.638 710.332 777.427 C 710.949 776.216 711.258 774.939 711.258 773.595 C 711.258 772.111 710.773 770.927 709.805 770.044 C 708.836 769.161 707.562 768.72 705.984 768.72 C 704.531 768.72 703.098 768.989 701.684 769.529 C 700.269 770.068 699.109 770.743 698.203 771.556 L 696.445 766.915 C 698.789 764.853 702.086 763.821 706.336 763.821 C 709.711 763.821 712.426 764.669 714.48 766.364 C 716.535 768.06 717.562 770.454 717.562 773.548 C 717.562 775.736 716.98 777.821 715.816 779.806 C 714.652 781.79 713.062 783.829 711.047 785.923 L 703.312 794.126 L 717.164 794.126 L 716.742 798.743 L 696.68 798.743 Z" style="fill:white;fill-rule:nonzero;"/>
  <path d="M 629.446 723.094 C 628.071 722.229 626.752 721.256 625.314 720.514 C 603.576 709.298 581.797 698.16 560.078 686.905 C 536.338 674.602 512.63 662.234 488.944 649.826 C 470.775 640.308 452.635 630.731 434.571 621.015 C 433.2 620.277 431.862 618.314 431.654 616.766 C 430.146 605.521 428.846 594.246 427.65 582.962 C 426.503 572.147 425.674 561.298 424.492 550.488 C 423.349 540.032 421.831 529.618 420.665 519.165 C 419.516 508.857 418.7 498.513 417.557 488.204 C 416.378 477.583 414.92 466.992 413.695 456.376 C 412.563 446.562 411.611 436.728 410.519 426.91 C 409.592 418.577 408.546 410.256 407.63 401.922 C 407.449 400.278 407.623 398.596 408.101 396.475 C 410.807 396.658 413.094 397.158 415.271 397.958 C 468.603 417.54 521.911 437.187 575.251 456.745 C 594.955 463.97 614.731 470.998 634.398 478.542 C 634.173 481.96 633.94 484.95 633.886 487.944 C 632.871 544.196 631.9 600.45 630.866 656.702 C 630.459 678.834 629.923 700.964 629.446 723.094 Z" style="fill:rgb(233,235,247);fill-rule:nonzero;"/>
  <path d="M 629.766 722.989 C 629.923 700.964 630.459 678.834 630.866 656.702 C 631.9 600.45 632.871 544.196 633.886 487.944 C 633.94 484.95 634.173 481.96 634.687 478.364 C 685.344 444.689 735.641 411.623 785.918 378.528 C 787.962 377.183 789.822 375.558 791.768 374.063 C 792 375.668 792.57 377.306 792.412 378.872 C 790.744 395.392 788.96 411.901 787.207 428.413 C 785.647 443.106 784.093 457.799 782.522 472.491 C 780.299 493.291 778.03 514.087 775.842 534.891 C 774.348 549.093 772.95 563.306 771.53 577.516 C 771.118 581.648 771.867 586.327 770.145 589.792 C 767.722 594.665 763.855 599.003 759.946 602.91 C 754.441 608.41 748.207 613.173 742.506 618.488 C 730.596 629.589 718.904 640.924 706.989 652.019 C 689.129 668.652 671.164 685.172 653.223 701.717 C 645.538 708.803 637.8 715.83 629.766 722.989 Z" style="fill:rgb(230,231,235);fill-rule:nonzero;"/>
  <path d="M 791.512 373.767 C 789.822 375.558 787.962 377.183 785.918 378.528 C 735.641 411.623 685.344 444.689 634.762 477.938 C 614.731 470.998 594.955 463.97 575.251 456.745 C 521.911 437.187 468.603 417.54 415.271 397.958 C 413.094 397.158 410.807 396.658 408.187 396.031 C 408.691 395.11 409.404 393.791 410.492 393.301 C 436.126 381.729 461.816 370.282 487.462 358.736 C 505.912 350.431 524.299 341.986 542.74 333.659 C 554.659 328.277 566.544 322.804 578.628 317.815 C 581.335 316.697 585.016 316.658 587.896 317.433 C 621.991 326.62 656.026 336.033 690.064 345.434 C 721.464 354.107 752.848 362.838 784.24 371.542 C 786.577 372.19 788.917 372.828 791.512 373.767 Z" style="fill:rgb(234,238,255);fill-rule:nonzero;"/>
</svg>