<?xml version="1.0" encoding="UTF-8" standalone="no"?>
<!DOCTYPE svg PUBLIC "-//W3C//DTD SVG 1.1//EN" "http://www.w3.org/Graphics/SVG/1.1/DTD/svg11.dtd">
<svg width="100%" height="100%" viewBox="0 0 1200 1080" version="1.1" xmlns="http://www.w3.org/2000/svg" xmlns:xlink="http://www.w3.org/1999/xlink" xml:space="preserve" xmlns:serif="http://www.serif.com/" style="fill-rule:evenodd;clip-rule:evenodd;stroke-linejoin:round;stroke-miterlimit:2;">
    <g transform="matrix(1,0,0,1.09091,-720,207.273)">
        <rect x="720" y="-190" width="1200" height="990" style="fill:rgb(46,46,46);"/>
    </g>
    <g transform="matrix(0.707107,-0.707107,0.707107,0.707107,-575.938,-155.145)">
        <path d="M-466.129,1280.63L207,607.5L207,1953.76L-466.129,1280.63Z" style="fill:rgb(51,51,51);"/>
    </g>
    <g id="AetherSX2">
        <g id="Text-Template" serif:id="Text Template" transform="matrix(1,0,0,1,14.6837,-61.2735)">
            <path d="M372.4,840.419L394.858,779.336L407.15,779.336L429.275,840.419L417.691,840.419L411.65,823.169L390.275,823.169L384.191,840.419L372.4,840.419ZM393.108,814.753L408.775,814.753C403.775,798.725 401.205,790.447 401.066,789.919L393.108,814.753Z" style="fill:white;fill-rule:nonzero;"/>
            <path d="M455.858,841.294C448.497,841.294 442.768,839.176 438.67,834.94C434.573,830.704 432.525,824.85 432.525,817.378C432.525,810.1 434.455,804.308 438.316,800.003C442.177,795.697 447.441,793.53 454.108,793.503C460.414,793.503 465.309,795.475 468.795,799.419C472.282,803.364 474.025,808.6 474.025,815.128C474.025,815.6 474.018,816.364 474.004,817.419C473.99,818.475 473.983,819.253 473.983,819.753L443.525,819.753C443.636,824.03 444.809,827.343 447.045,829.69C449.282,832.037 452.358,833.211 456.275,833.211C461.275,833.211 466.08,831.905 470.691,829.294L472.233,837.044C467.65,839.878 462.191,841.294 455.858,841.294ZM443.733,812.878L463.733,812.878C463.733,809.155 462.886,806.294 461.191,804.294C459.497,802.294 457.15,801.294 454.15,801.294C451.344,801.294 448.976,802.267 447.045,804.211C445.115,806.155 444.011,809.044 443.733,812.878Z" style="fill:white;fill-rule:nonzero;"/>
            <path d="M501.191,841.044C498.08,841.044 495.49,840.676 493.42,839.94C491.351,839.204 489.733,838.044 488.566,836.461C487.4,834.878 486.573,833.01 486.087,830.857C485.601,828.704 485.358,826.044 485.358,822.878L485.358,801.253L477.858,801.253L478.275,795.336L486.108,794.628L489.608,782.211L496.275,782.169L496.275,794.628L507.65,794.628L507.65,801.253L496.275,801.253L496.275,823.086C496.275,826.558 496.775,829.03 497.775,830.503C498.775,831.975 500.622,832.711 503.316,832.711C504.9,832.711 506.594,832.572 508.4,832.294L508.691,840.128C508.636,840.128 508.295,840.19 507.67,840.315C507.045,840.44 506.448,840.551 505.879,840.649C505.309,840.746 504.58,840.836 503.691,840.919C502.802,841.003 501.969,841.044 501.191,841.044Z" style="fill:white;fill-rule:nonzero;"/>
            <path d="M516.358,840.419L516.358,777.753L527.275,777.044L527.275,790.253C527.275,790.892 527.233,792.662 527.15,795.565C527.066,798.468 527.025,799.947 527.025,800.003C530.664,795.669 535.552,793.503 541.691,793.503C546.802,793.503 550.768,794.968 553.587,797.899C556.407,800.829 557.816,805.336 557.816,811.419L557.816,840.419L546.9,840.419L546.9,812.628C546.9,808.878 546.302,806.128 545.108,804.378C543.914,802.628 541.886,801.753 539.025,801.753C536.58,801.753 534.414,802.371 532.525,803.607C530.636,804.843 529.219,806.433 528.275,808.378C527.608,810.933 527.275,814.267 527.275,818.378L527.275,840.419L516.358,840.419Z" style="fill:white;fill-rule:nonzero;"/>
            <path d="M589.733,841.294C582.372,841.294 576.643,839.176 572.545,834.94C568.448,830.704 566.4,824.85 566.4,817.378C566.4,810.1 568.33,804.308 572.191,800.003C576.052,795.697 581.316,793.53 587.983,793.503C594.289,793.503 599.184,795.475 602.67,799.419C606.157,803.364 607.9,808.6 607.9,815.128C607.9,815.6 607.893,816.364 607.879,817.419C607.865,818.475 607.858,819.253 607.858,819.753L577.4,819.753C577.511,824.03 578.684,827.343 580.92,829.69C583.157,832.037 586.233,833.211 590.15,833.211C595.15,833.211 599.955,831.905 604.566,829.294L606.108,837.044C601.525,839.878 596.066,841.294 589.733,841.294ZM577.608,812.878L597.608,812.878C597.608,809.155 596.761,806.294 595.066,804.294C593.372,802.294 591.025,801.294 588.025,801.294C585.219,801.294 582.851,802.267 580.92,804.211C578.99,806.155 577.886,809.044 577.608,812.878Z" style="fill:white;fill-rule:nonzero;"/>
            <path d="M616.816,840.419L616.816,794.628L625.983,794.628L627.4,801.628C630.4,796.822 634.747,794.419 640.441,794.419C641.636,794.419 642.608,794.475 643.358,794.586L643.191,803.711C642.08,803.544 640.927,803.461 639.733,803.461C635.705,803.461 632.698,804.53 630.712,806.669C628.726,808.808 627.733,811.78 627.733,815.586L627.733,840.419L616.816,840.419Z" style="fill:white;fill-rule:nonzero;"/>
            <path d="M668.191,841.253C660.83,841.253 654.233,839.558 648.4,836.169L651.15,827.211C653.761,828.655 656.601,829.822 659.67,830.711C662.74,831.6 665.733,832.044 668.65,832.044C672.233,832.044 674.941,831.274 676.775,829.732C678.608,828.19 679.525,825.975 679.525,823.086C679.525,819.253 676.969,816.6 671.858,815.128C671.497,815.017 670.483,814.718 668.816,814.232C667.15,813.746 665.587,813.274 664.129,812.815C662.67,812.357 661.622,812.003 660.983,811.753C652.789,808.864 648.691,803.475 648.691,795.586C648.691,790.058 650.657,785.794 654.587,782.794C658.518,779.794 663.733,778.294 670.233,778.294C677.594,778.294 683.941,779.808 689.275,782.836L685.858,791.086C680.414,788.642 675.358,787.419 670.691,787.419C667.33,787.419 664.795,788.01 663.087,789.19C661.379,790.371 660.469,792.336 660.358,795.086C660.358,798.475 662.039,800.683 665.4,801.711C666.066,801.961 667.705,802.503 670.316,803.336C672.927,804.169 674.622,804.711 675.4,804.961C680.983,806.794 684.976,809.072 687.379,811.794C689.782,814.517 690.983,818.308 690.983,823.169C690.983,828.975 688.927,833.44 684.816,836.565C680.705,839.69 675.164,841.253 668.191,841.253Z" style="fill:white;fill-rule:nonzero;"/>
            <path d="M693.566,840.419L714.941,809.169L695.15,779.378L707.858,779.378L722.233,802.128L737.025,779.378L749.066,779.378L728.858,809.336L750.15,840.419L737.108,840.419L721.691,816.669L705.941,840.419L693.566,840.419Z" style="fill:white;fill-rule:nonzero;"/>
            <path d="M753.275,840.419L753.025,831.419L772.316,809.586C774.705,807.03 776.448,804.676 777.545,802.524C778.643,800.371 779.191,798.1 779.191,795.711C779.191,793.072 778.33,790.968 776.608,789.399C774.886,787.829 772.622,787.044 769.816,787.044C767.233,787.044 764.684,787.524 762.17,788.482C759.657,789.44 757.594,790.642 755.983,792.086L752.858,783.836C757.025,780.169 762.886,778.336 770.441,778.336C776.441,778.336 781.268,779.843 784.92,782.857C788.573,785.871 790.4,790.128 790.4,795.628C790.4,799.517 789.365,803.225 787.295,806.753C785.226,810.28 782.4,813.905 778.816,817.628L765.066,832.211L789.691,832.211L788.941,840.419L753.275,840.419Z" style="fill:white;fill-rule:nonzero;"/>
        </g>
        <g transform="matrix(1,0,0,1,346.522,219.17)">
            <path d="M282.924,453.945C281.549,453.08 280.23,452.107 278.792,451.365C257.054,440.149 235.275,429.011 213.556,417.756C189.816,405.453 166.108,393.085 142.422,380.677C124.253,371.159 106.113,361.582 88.049,351.866C86.678,351.128 85.34,349.165 85.132,347.617C83.624,336.372 82.324,325.097 81.128,313.813C79.981,302.998 79.152,292.149 77.97,281.339C76.827,270.883 75.309,260.469 74.143,250.016C72.994,239.708 72.178,229.364 71.035,219.055C69.856,208.434 68.398,197.843 67.173,187.227C66.041,177.413 65.089,167.579 63.997,157.761C63.07,149.428 62.024,141.107 61.108,132.773C60.927,131.129 61.101,129.447 61.579,127.326C64.285,127.509 66.572,128.009 68.749,128.809C122.081,148.391 175.389,168.038 228.729,187.596C248.433,194.821 268.209,201.849 287.876,209.393C287.651,212.811 287.418,215.801 287.364,218.795C286.349,275.047 285.378,331.301 284.344,387.553C283.937,409.685 283.401,431.815 282.924,453.945Z" style="fill:rgb(233,235,247);fill-rule:nonzero;"/>
        </g>
        <g transform="matrix(1,0,0,1,346.522,219.17)">
            <path d="M283.244,453.84C283.401,431.815 283.937,409.685 284.344,387.553C285.378,331.301 286.349,275.047 287.364,218.795C287.418,215.801 287.651,212.811 288.165,209.215C338.822,175.54 389.119,142.474 439.396,109.379C441.44,108.034 443.3,106.409 445.246,104.914C445.478,106.519 446.048,108.157 445.89,109.723C444.222,126.243 442.438,142.752 440.685,159.264C439.125,173.957 437.571,188.65 436,203.342C433.777,224.142 431.508,244.938 429.32,265.742C427.826,279.944 426.428,294.157 425.008,308.367C424.596,312.499 425.345,317.178 423.623,320.643C421.2,325.516 417.333,329.854 413.424,333.761C407.919,339.261 401.685,344.024 395.984,349.339C384.074,360.44 372.382,371.775 360.467,382.87C342.607,399.503 324.642,416.023 306.701,432.568C299.016,439.654 291.278,446.681 283.244,453.84Z" style="fill:rgb(230,231,235);fill-rule:nonzero;"/>
        </g>
        <g transform="matrix(1,0,0,1,346.522,219.17)">
            <path d="M444.99,104.618C443.3,106.409 441.44,108.034 439.396,109.379C389.119,142.474 338.822,175.54 288.24,208.789C268.209,201.849 248.433,194.821 228.729,187.596C175.389,168.038 122.081,148.391 68.749,128.809C66.572,128.009 64.285,127.509 61.665,126.882C62.169,125.961 62.882,124.642 63.97,124.152C89.604,112.58 115.294,101.133 140.94,89.587C159.39,81.282 177.777,72.837 196.218,64.51C208.137,59.128 220.022,53.655 232.106,48.666C234.813,47.548 238.494,47.509 241.374,48.284C275.469,57.471 309.504,66.884 343.542,76.285C374.942,84.958 406.326,93.689 437.718,102.393C440.055,103.041 442.395,103.679 444.99,104.618Z" style="fill:rgb(234,238,255);fill-rule:nonzero;"/>
        </g>
    </g>
</svg>
