<?xml version="1.0" encoding="utf-8"?>
<svg width="100%" height="100%" viewBox="0 0 1200 1080" version="1.1" xmlns="http://www.w3.org/2000/svg" style="fill-rule:evenodd;clip-rule:evenodd;stroke-linejoin:round;stroke-miterlimit:2;">
  <path d="M 0 0 H 1200 V 1080 H 0 V 0 Z" style="fill:rgb(46,46,46);"/>
  <path d="M -98.576 842.013 L 574.553 168.883 L 574.553 1515.14 L -98.576 842.013 Z" style="fill: rgb(51, 51, 51); transform-box: fill-box; transform-origin: 50% 50%;" transform="matrix(0.707107, -0.707107, 0.707107, 0.707107, 0.000004, -0.000003)"/>
  <path d="M 400.535 749.261 C 395.519 749.261 391.543 747.682 388.605 744.526 C 385.668 741.37 384.199 737.011 384.199 731.448 C 384.199 726.167 385.734 721.929 388.805 718.733 C 391.875 715.538 395.894 713.94 400.863 713.94 C 404.879 713.94 408.277 714.87 411.059 716.729 L 409.066 721.534 C 406.394 719.893 403.707 719.073 401.004 719.073 C 397.848 719.073 395.352 720.21 393.516 722.483 C 391.68 724.757 390.762 727.807 390.762 731.636 C 390.762 735.604 391.648 738.675 393.422 740.846 C 395.195 743.018 397.723 744.104 401.004 744.104 C 403.879 744.104 406.73 743.386 409.559 741.948 L 410.402 746.917 C 407.777 748.479 404.488 749.261 400.535 749.261 Z" style="fill:white;fill-rule:nonzero;"/>
  <path d="M 422.262 749.261 C 419.871 749.261 417.937 748.6 416.461 747.28 C 414.984 745.96 414.246 744.057 414.246 741.573 C 414.246 738.901 415.121 736.921 416.871 735.632 C 418.621 734.343 421.262 733.526 424.793 733.182 C 425.277 733.12 425.801 733.057 426.363 732.995 C 426.926 732.932 427.559 732.87 428.262 732.807 C 428.965 732.745 429.519 732.69 429.926 732.643 L 429.926 731.284 C 429.926 729.721 429.566 728.585 428.848 727.874 C 428.129 727.163 427.035 726.807 425.566 726.807 C 423.473 726.807 420.887 727.393 417.809 728.565 C 417.793 728.518 417.535 727.807 417.035 726.432 C 416.535 725.057 416.277 724.354 416.262 724.323 C 419.293 723.026 422.574 722.378 426.105 722.378 C 429.574 722.378 432.098 723.132 433.676 724.639 C 435.254 726.147 436.043 728.589 436.043 731.964 L 436.043 748.768 L 431.496 748.768 C 431.48 748.706 431.309 748.182 430.98 747.198 C 430.652 746.214 430.488 745.69 430.488 745.628 C 429.207 746.878 427.953 747.796 426.727 748.382 C 425.5 748.968 424.012 749.261 422.262 749.261 Z M 423.926 744.901 C 425.348 744.901 426.586 744.561 427.641 743.882 C 428.695 743.202 429.449 742.378 429.902 741.409 L 429.902 736.44 C 429.855 736.44 429.445 736.471 428.672 736.534 C 427.898 736.596 427.48 736.628 427.418 736.628 C 424.934 736.846 423.113 737.315 421.957 738.034 C 420.801 738.753 420.223 739.909 420.223 741.503 C 420.223 742.596 420.543 743.436 421.184 744.022 C 421.824 744.608 422.738 744.901 423.926 744.901 Z" style="fill:white;fill-rule:nonzero;"/>
  <path d="M 451.254 749.12 C 449.488 749.12 448.023 748.913 446.859 748.499 C 445.695 748.085 444.777 747.425 444.105 746.518 C 443.434 745.612 442.965 744.534 442.699 743.284 C 442.434 742.034 442.301 740.479 442.301 738.62 L 442.301 713.518 L 448.441 713.12 L 448.441 738.503 C 448.441 740.815 448.715 742.382 449.262 743.202 C 449.809 744.022 450.871 744.432 452.449 744.432 C 453.23 744.432 454.223 744.346 455.426 744.175 L 455.59 748.557 C 455.574 748.557 455.383 748.596 455.016 748.675 C 454.648 748.753 454.297 748.819 453.961 748.874 C 453.625 748.929 453.199 748.983 452.684 749.038 C 452.168 749.093 451.691 749.12 451.254 749.12 Z" style="fill:white;fill-rule:nonzero;"/>
  <path d="M 458.777 748.768 L 458.777 723.011 L 464.918 723.011 L 464.918 748.768 L 458.777 748.768 Z M 458.777 719.261 L 458.777 714.011 L 464.941 714.011 L 464.941 719.261 L 458.777 719.261 Z" style="fill:white;fill-rule:nonzero;"/>
  <path d="M 485.121 749.261 C 483.371 749.261 481.781 748.874 480.352 748.1 C 478.922 747.327 477.887 746.448 477.246 745.464 L 476.637 748.745 L 471.316 748.745 L 471.316 713.518 L 477.457 713.12 L 477.457 721.089 C 477.457 722.636 477.41 724.393 477.316 726.362 C 479.348 723.706 481.996 722.378 485.262 722.378 C 488.543 722.378 491.117 723.596 492.984 726.034 C 494.852 728.471 495.785 731.659 495.785 735.596 C 495.785 739.69 494.82 742.991 492.891 745.499 C 490.961 748.007 488.371 749.261 485.121 749.261 Z M 483.644 744.596 C 485.473 744.596 486.934 743.823 488.027 742.276 C 489.121 740.729 489.668 738.534 489.668 735.69 C 489.668 732.831 489.133 730.667 488.062 729.198 C 486.992 727.729 485.543 726.995 483.715 726.995 C 479.559 726.995 477.457 729.8 477.41 735.409 C 477.41 738.565 477.934 740.886 478.98 742.37 C 480.027 743.854 481.582 744.596 483.644 744.596 Z" style="fill:white;fill-rule:nonzero;"/>
  <path d="M 500.824 748.768 L 500.824 723.011 L 505.98 723.011 L 506.777 726.948 C 508.465 724.245 510.91 722.893 514.113 722.893 C 514.785 722.893 515.332 722.925 515.754 722.987 L 515.66 728.12 C 515.035 728.026 514.387 727.979 513.715 727.979 C 511.449 727.979 509.758 728.581 508.641 729.784 C 507.523 730.987 506.965 732.659 506.965 734.8 L 506.965 748.768 L 500.824 748.768 Z" style="fill:white;fill-rule:nonzero;"/>
  <path d="M 526.137 749.261 C 523.746 749.261 521.812 748.6 520.336 747.28 C 518.859 745.96 518.121 744.057 518.121 741.573 C 518.121 738.901 518.996 736.921 520.746 735.632 C 522.496 734.343 525.137 733.526 528.668 733.182 C 529.152 733.12 529.676 733.057 530.238 732.995 C 530.801 732.932 531.434 732.87 532.137 732.807 C 532.84 732.745 533.394 732.69 533.801 732.643 L 533.801 731.284 C 533.801 729.721 533.441 728.585 532.723 727.874 C 532.004 727.163 530.91 726.807 529.441 726.807 C 527.348 726.807 524.762 727.393 521.684 728.565 C 521.668 728.518 521.41 727.807 520.91 726.432 C 520.41 725.057 520.152 724.354 520.137 724.323 C 523.168 723.026 526.449 722.378 529.98 722.378 C 533.449 722.378 535.973 723.132 537.551 724.639 C 539.129 726.147 539.918 728.589 539.918 731.964 L 539.918 748.768 L 535.371 748.768 C 535.355 748.706 535.184 748.182 534.855 747.198 C 534.527 746.214 534.363 745.69 534.363 745.628 C 533.082 746.878 531.828 747.796 530.602 748.382 C 529.375 748.968 527.887 749.261 526.137 749.261 Z M 527.801 744.901 C 529.223 744.901 530.461 744.561 531.516 743.882 C 532.57 743.202 533.324 742.378 533.777 741.409 L 533.777 736.44 C 533.73 736.44 533.32 736.471 532.547 736.534 C 531.773 736.596 531.355 736.628 531.293 736.628 C 528.809 736.846 526.988 737.315 525.832 738.034 C 524.676 738.753 524.098 739.909 524.098 741.503 C 524.098 742.596 524.418 743.436 525.059 744.022 C 525.699 744.608 526.613 744.901 527.801 744.901 Z" style="fill:white;fill-rule:nonzero;"/>
  <path d="M 556.394 749.12 C 554.644 749.12 553.187 748.913 552.023 748.499 C 550.859 748.085 549.949 747.432 549.293 746.542 C 548.637 745.651 548.172 744.6 547.898 743.389 C 547.625 742.179 547.488 740.682 547.488 738.901 L 547.488 726.737 L 543.269 726.737 L 543.504 723.409 L 547.91 723.011 L 549.879 716.026 L 553.629 716.003 L 553.629 723.011 L 560.027 723.011 L 560.027 726.737 L 553.629 726.737 L 553.629 739.018 C 553.629 740.971 553.91 742.362 554.473 743.19 C 555.035 744.018 556.074 744.432 557.59 744.432 C 558.48 744.432 559.434 744.354 560.449 744.198 L 560.613 748.604 C 560.582 748.604 560.391 748.639 560.039 748.71 C 559.687 748.78 559.352 748.843 559.031 748.897 C 558.711 748.952 558.301 749.003 557.801 749.05 C 557.301 749.096 556.832 749.12 556.394 749.12 Z" style="fill:white;fill-rule:nonzero;"/>
  <path d="M 576.621 749.261 C 572.48 749.261 569.258 748.069 566.953 745.686 C 564.648 743.304 563.496 740.011 563.496 735.807 C 563.496 731.714 564.582 728.456 566.754 726.034 C 568.926 723.612 571.887 722.393 575.637 722.378 C 579.184 722.378 581.937 723.487 583.898 725.706 C 585.859 727.925 586.84 730.87 586.84 734.542 C 586.84 734.807 586.836 735.237 586.828 735.831 C 586.82 736.425 586.816 736.862 586.816 737.143 L 569.684 737.143 C 569.746 739.55 570.406 741.413 571.664 742.733 C 572.922 744.054 574.652 744.714 576.855 744.714 C 579.668 744.714 582.371 743.979 584.965 742.511 L 585.832 746.87 C 583.254 748.464 580.184 749.261 576.621 749.261 Z M 569.801 733.276 L 581.051 733.276 C 581.051 731.182 580.574 729.573 579.621 728.448 C 578.668 727.323 577.348 726.761 575.66 726.761 C 574.082 726.761 572.75 727.307 571.664 728.401 C 570.578 729.495 569.957 731.12 569.801 733.276 Z" style="fill:white;fill-rule:nonzero;"/>
  <path d="M 620.426 749.261 C 615.191 749.261 611.102 747.682 608.156 744.526 C 605.211 741.37 603.738 737.05 603.738 731.565 C 603.738 728.081 604.426 725.014 605.801 722.366 C 607.176 719.718 609.199 717.651 611.871 716.167 C 614.543 714.682 617.699 713.94 621.34 713.94 C 625.512 713.94 629.09 714.839 632.074 716.636 L 630.012 721.37 C 627.168 719.839 624.316 719.073 621.457 719.073 C 617.988 719.073 615.262 720.198 613.277 722.448 C 611.293 724.698 610.301 727.761 610.301 731.636 C 610.301 735.479 611.184 738.518 612.949 740.753 C 614.715 742.987 617.301 744.104 620.707 744.104 C 622.894 744.104 624.879 743.761 626.66 743.073 L 626.66 735.104 L 619.465 735.104 L 619.512 730.112 L 632.637 730.112 L 632.637 746.682 C 630.512 747.557 628.5 748.206 626.602 748.628 C 624.703 749.05 622.644 749.261 620.426 749.261 Z" style="fill:white;fill-rule:nonzero;"/>
  <path d="M 645.668 749.261 C 643.277 749.261 641.344 748.6 639.867 747.28 C 638.391 745.96 637.652 744.057 637.652 741.573 C 637.652 738.901 638.527 736.921 640.277 735.632 C 642.027 734.343 644.668 733.526 648.199 733.182 C 648.684 733.12 649.207 733.057 649.769 732.995 C 650.332 732.932 650.965 732.87 651.668 732.807 C 652.371 732.745 652.926 732.69 653.332 732.643 L 653.332 731.284 C 653.332 729.721 652.973 728.585 652.254 727.874 C 651.535 727.163 650.441 726.807 648.973 726.807 C 646.879 726.807 644.293 727.393 641.215 728.565 C 641.199 728.518 640.941 727.807 640.441 726.432 C 639.941 725.057 639.684 724.354 639.668 724.323 C 642.699 723.026 645.98 722.378 649.512 722.378 C 652.98 722.378 655.504 723.132 657.082 724.639 C 658.66 726.147 659.449 728.589 659.449 731.964 L 659.449 748.768 L 654.902 748.768 C 654.887 748.706 654.715 748.182 654.387 747.198 C 654.059 746.214 653.894 745.69 653.894 745.628 C 652.613 746.878 651.359 747.796 650.133 748.382 C 648.906 748.968 647.418 749.261 645.668 749.261 Z M 647.332 744.901 C 648.754 744.901 649.992 744.561 651.047 743.882 C 652.102 743.202 652.855 742.378 653.309 741.409 L 653.309 736.44 C 653.262 736.44 652.852 736.471 652.078 736.534 C 651.305 736.596 650.887 736.628 650.824 736.628 C 648.34 736.846 646.519 737.315 645.363 738.034 C 644.207 738.753 643.629 739.909 643.629 741.503 C 643.629 742.596 643.949 743.436 644.59 744.022 C 645.23 744.608 646.144 744.901 647.332 744.901 Z" style="fill:white;fill-rule:nonzero;"/>
  <path d="M 665.637 748.768 L 665.637 723.011 L 670.605 723.011 L 671.309 726.292 C 671.621 725.901 671.922 725.554 672.211 725.249 C 672.5 724.944 672.898 724.6 673.406 724.218 C 673.914 723.835 674.453 723.518 675.023 723.268 C 675.594 723.018 676.297 722.807 677.133 722.636 C 677.969 722.464 678.863 722.378 679.816 722.378 C 681.863 722.378 683.5 722.792 684.727 723.62 C 685.953 724.448 686.816 725.417 687.316 726.526 C 688.238 725.198 689.434 724.175 690.902 723.456 C 692.371 722.737 694.004 722.378 695.801 722.378 C 698.754 722.378 700.922 723.214 702.305 724.886 C 703.687 726.557 704.379 729.034 704.379 732.315 L 704.379 748.768 L 698.215 748.768 L 698.215 734.143 C 698.215 731.628 697.937 729.811 697.383 728.694 C 696.828 727.577 695.769 727.018 694.207 727.018 C 691.816 727.018 690.098 728.096 689.051 730.253 C 688.613 731.206 688.316 732.354 688.16 733.698 L 688.16 748.768 L 682.019 748.768 L 682.019 733.862 C 682.019 731.565 681.715 729.854 681.105 728.729 C 680.496 727.604 679.394 727.042 677.801 727.042 C 676.504 727.042 675.387 727.37 674.449 728.026 C 673.512 728.682 672.801 729.542 672.316 730.604 C 671.957 732.182 671.777 734.073 671.777 736.276 L 671.777 748.768 L 665.637 748.768 Z" style="fill:white;fill-rule:nonzero;"/>
  <path d="M 722.332 749.261 C 718.191 749.261 714.969 748.069 712.664 745.686 C 710.359 743.304 709.207 740.011 709.207 735.807 C 709.207 731.714 710.293 728.456 712.465 726.034 C 714.637 723.612 717.598 722.393 721.348 722.378 C 724.894 722.378 727.648 723.487 729.609 725.706 C 731.57 727.925 732.551 730.87 732.551 734.542 C 732.551 734.807 732.547 735.237 732.539 735.831 C 732.531 736.425 732.527 736.862 732.527 737.143 L 715.394 737.143 C 715.457 739.55 716.117 741.413 717.375 742.733 C 718.633 744.054 720.363 744.714 722.566 744.714 C 725.379 744.714 728.082 743.979 730.676 742.511 L 731.543 746.87 C 728.965 748.464 725.894 749.261 722.332 749.261 Z M 715.512 733.276 L 726.762 733.276 C 726.762 731.182 726.285 729.573 725.332 728.448 C 724.379 727.323 723.059 726.761 721.371 726.761 C 719.793 726.761 718.461 727.307 717.375 728.401 C 716.289 729.495 715.668 731.12 715.512 733.276 Z" style="fill:white;fill-rule:nonzero;"/>
  <path d="M 737.543 759.479 L 737.543 723.011 L 742.816 723.011 L 743.473 726.62 C 744.316 725.261 745.437 724.21 746.836 723.468 C 748.234 722.725 749.793 722.354 751.512 722.354 C 753.621 722.354 755.477 722.94 757.078 724.112 C 758.68 725.284 759.894 726.882 760.723 728.905 C 761.551 730.929 761.965 733.214 761.965 735.761 C 761.965 739.745 761 742.991 759.07 745.499 C 757.141 748.007 754.527 749.261 751.23 749.261 C 749.605 749.261 748.133 748.936 746.812 748.288 C 745.492 747.639 744.387 746.761 743.496 745.651 C 743.621 747.901 743.684 749.167 743.684 749.448 L 743.684 759.175 L 737.543 759.479 Z M 749.918 744.573 C 751.746 744.573 753.187 743.807 754.242 742.276 C 755.297 740.745 755.824 738.557 755.824 735.714 C 755.824 732.823 755.293 730.651 754.23 729.198 C 753.168 727.745 751.691 727.018 749.801 727.018 C 745.738 727.018 743.684 729.784 743.637 735.315 C 743.637 738.503 744.164 740.843 745.219 742.335 C 746.273 743.827 747.84 744.573 749.918 744.573 Z" style="fill:white;fill-rule:nonzero;"/>
  <path d="M 773.684 749.261 C 771.293 749.261 769.359 748.6 767.883 747.28 C 766.406 745.96 765.668 744.057 765.668 741.573 C 765.668 738.901 766.543 736.921 768.293 735.632 C 770.043 734.343 772.684 733.526 776.215 733.182 C 776.699 733.12 777.223 733.057 777.785 732.995 C 778.348 732.932 778.98 732.87 779.684 732.807 C 780.387 732.745 780.941 732.69 781.348 732.643 L 781.348 731.284 C 781.348 729.721 780.988 728.585 780.269 727.874 C 779.551 727.163 778.457 726.807 776.988 726.807 C 774.894 726.807 772.309 727.393 769.23 728.565 C 769.215 728.518 768.957 727.807 768.457 726.432 C 767.957 725.057 767.699 724.354 767.684 724.323 C 770.715 723.026 773.996 722.378 777.527 722.378 C 780.996 722.378 783.519 723.132 785.098 724.639 C 786.676 726.147 787.465 728.589 787.465 731.964 L 787.465 748.768 L 782.918 748.768 C 782.902 748.706 782.73 748.182 782.402 747.198 C 782.074 746.214 781.91 745.69 781.91 745.628 C 780.629 746.878 779.375 747.796 778.148 748.382 C 776.922 748.968 775.434 749.261 773.684 749.261 Z M 775.348 744.901 C 776.769 744.901 778.008 744.561 779.062 743.882 C 780.117 743.202 780.871 742.378 781.324 741.409 L 781.324 736.44 C 781.277 736.44 780.867 736.471 780.094 736.534 C 779.32 736.596 778.902 736.628 778.84 736.628 C 776.355 736.846 774.535 737.315 773.379 738.034 C 772.223 738.753 771.644 739.909 771.644 741.503 C 771.644 742.596 771.965 743.436 772.605 744.022 C 773.246 744.608 774.16 744.901 775.348 744.901 Z" style="fill:white;fill-rule:nonzero;"/>
  <path d="M 803.238 749.261 C 799.879 749.261 797.238 748.026 795.316 745.557 C 793.394 743.089 792.434 739.792 792.434 735.667 C 792.434 731.667 793.391 728.452 795.305 726.022 C 797.219 723.593 799.855 722.378 803.215 722.378 C 806.871 722.378 809.457 723.675 810.973 726.268 C 810.816 724.737 810.738 723.261 810.738 721.839 L 810.738 713.518 L 816.879 713.12 L 816.879 748.768 L 811.559 748.768 L 810.879 745.253 C 810.613 745.675 810.367 746.038 810.141 746.343 C 809.914 746.647 809.582 746.999 809.144 747.397 C 808.707 747.796 808.234 748.116 807.727 748.358 C 807.219 748.6 806.578 748.811 805.805 748.991 C 805.031 749.171 804.176 749.261 803.238 749.261 Z M 804.691 744.596 C 808.816 744.596 810.91 741.792 810.973 736.182 C 810.973 733.011 810.441 730.698 809.379 729.245 C 808.316 727.792 806.73 727.065 804.621 727.065 C 802.777 727.065 801.305 727.804 800.203 729.28 C 799.102 730.757 798.551 732.932 798.551 735.807 C 798.551 738.667 799.102 740.846 800.203 742.346 C 801.305 743.846 802.801 744.596 804.691 744.596 Z" style="fill:white;fill-rule:nonzero;"/>
  <path d="M 513.4 400 C 447.15 400 393.4 453.75 393.4 520 C 393.4 586.25 447.15 640 513.4 640 L 673.4 640 C 739.65 640 793.4 586.25 793.4 520 C 793.4 453.75 739.65 400 673.4 400 L 513.4 400 Z M 703.4 465 C 717.114 465 728.4 476.286 728.4 490 C 728.4 503.714 717.114 515 703.4 515 C 689.686 515 678.4 503.714 678.4 490 C 678.4 476.286 689.686 465 703.4 465 Z M 638.4 550 C 638.4 536.286 649.686 525 663.4 525 C 677.114 525 688.4 536.286 688.4 550 C 688.4 563.714 677.114 575 663.4 575 C 649.686 575 638.4 563.714 638.4 550 Z M 498.4 485 C 498.4 476.688 505.087 470 513.4 470 C 521.712 470 528.4 476.688 528.4 485 L 528.4 505 L 548.4 505 C 556.712 505 563.4 511.688 563.4 520 C 563.4 528.313 556.712 535 548.4 535 L 528.4 535 L 528.4 555 C 528.4 563.313 521.712 570 513.4 570 C 505.087 570 498.4 563.313 498.4 555 L 498.4 535 L 478.4 535 C 470.087 535 463.4 528.313 463.4 520 C 463.4 511.688 470.087 505 478.4 505 L 498.4 505 L 498.4 485 Z" style="fill:white;fill-rule:nonzero;"/>
  <path d="M 573.4 487.694 C 573.4 490.46 575.634 492.694 578.4 492.694 L 586.947 492.694 C 588.869 497.116 593.275 500.194 598.4 500.194 C 603.525 500.194 607.931 497.116 609.853 492.694 L 648.4 492.694 C 651.166 492.694 653.4 490.46 653.4 487.694 C 653.4 484.928 651.166 482.694 648.4 482.694 L 609.853 482.694 C 607.931 478.272 603.525 475.194 598.4 475.194 C 593.275 475.194 588.869 478.272 586.947 482.694 L 578.4 482.694 C 575.634 482.694 573.4 484.928 573.4 487.694 Z M 593.4 487.694 C 593.4 484.951 595.657 482.694 598.4 482.694 C 601.143 482.694 603.4 484.951 603.4 487.694 C 603.4 490.437 601.143 492.694 598.4 492.694 C 595.657 492.694 593.4 490.437 593.4 487.694 Z M 623.4 462.694 C 623.4 459.951 625.657 457.694 628.4 457.694 C 631.143 457.694 633.4 459.951 633.4 462.694 C 633.4 465.437 631.143 467.694 628.4 467.694 C 625.657 467.694 623.4 465.437 623.4 462.694 Z M 628.4 450.194 C 623.275 450.194 618.869 453.272 616.947 457.694 L 578.4 457.694 C 575.634 457.694 573.4 459.928 573.4 462.694 C 573.4 465.46 575.634 467.694 578.4 467.694 L 616.947 467.694 C 618.869 472.116 623.275 475.194 628.4 475.194 C 633.525 475.194 637.931 472.116 639.853 467.694 L 648.4 467.694 C 651.166 467.694 653.4 465.46 653.4 462.694 C 653.4 459.928 651.166 457.694 648.4 457.694 L 639.853 457.694 C 637.931 453.272 633.525 450.194 628.4 450.194 Z M 603.4 442.694 C 600.657 442.694 598.4 440.437 598.4 437.694 C 598.4 434.951 600.657 432.694 603.4 432.694 C 606.143 432.694 608.4 434.951 608.4 437.694 C 608.4 440.437 606.143 442.694 603.4 442.694 Z M 614.853 432.694 C 612.931 428.272 608.525 425.194 603.4 425.194 C 598.275 425.194 593.869 428.272 591.947 432.694 L 578.4 432.694 C 575.634 432.694 573.4 434.928 573.4 437.694 C 573.4 440.46 575.634 442.694 578.4 442.694 L 591.947 442.694 C 593.869 447.116 598.275 450.194 603.4 450.194 C 608.525 450.194 612.931 447.116 614.853 442.694 L 648.4 442.694 C 651.166 442.694 653.4 440.46 653.4 437.694 C 653.4 434.928 651.166 432.694 648.4 432.694 L 614.853 432.694 Z" style="fill:rgb(46,46,46);fill-rule:nonzero;"/>
</svg>