<?xml version="1.0" encoding="UTF-8" standalone="no"?>
<!DOCTYPE svg PUBLIC "-//W3C//DTD SVG 1.1//EN" "http://www.w3.org/Graphics/SVG/1.1/DTD/svg11.dtd">
<svg width="100%" height="100%" viewBox="0 0 1200 1080" version="1.1" xmlns="http://www.w3.org/2000/svg" xmlns:xlink="http://www.w3.org/1999/xlink" xml:space="preserve" xmlns:serif="http://www.serif.com/" style="fill-rule:evenodd;clip-rule:evenodd;stroke-linejoin:round;stroke-miterlimit:2;">
    <rect id="Artboard1" x="0" y="0" width="1200" height="1080" style="fill:none;"/>
    <g id="Artboard11" serif:id="Artboard1">
        <g transform="matrix(1,0,0,1.09091,-720,207.273)">
            <rect x="720" y="-190" width="1200" height="990" style="fill:rgb(46,46,46);"/>
        </g>
        <g transform="matrix(0.707107,-0.707107,0.707107,0.707107,-575.938,-155.145)">
            <path d="M-466.129,1280.63L207,607.5L207,1953.76L-466.129,1280.63Z" style="fill:rgb(51,51,51);"/>
        </g>
        <g id="cemu.svg">
            <g transform="matrix(1,0,0,1,17.8621,-41.6765)">
                <path d="M534.243,840.912C529.228,840.912 525.251,839.333 522.314,836.177C519.376,833.021 517.907,828.662 517.907,823.099C517.907,817.818 519.443,813.58 522.513,810.384C525.583,807.189 529.603,805.591 534.572,805.591C538.587,805.591 541.986,806.521 544.767,808.38L542.775,813.185C540.103,811.544 537.415,810.724 534.712,810.724C531.556,810.724 529.06,811.861 527.224,814.134C525.388,816.408 524.47,819.458 524.47,823.287C524.47,827.255 525.357,830.326 527.13,832.497C528.904,834.669 531.431,835.755 534.712,835.755C537.587,835.755 540.439,835.037 543.267,833.599L544.111,838.568C541.486,840.13 538.197,840.912 534.243,840.912Z" style="fill:white;fill-rule:nonzero;"/>
                <path d="M549.759,840.419L549.759,806.083L570.572,806.083L570.314,811.122L556.111,811.122L556.111,819.982L569.611,819.982L569.611,825.021L556.111,825.021L556.111,835.357L570.829,835.357L570.618,840.419L549.759,840.419Z" style="fill:white;fill-rule:nonzero;"/>
                <path d="M576.759,840.419L576.759,806.083L584.259,806.083L594.642,830.88L605.095,806.083L612.501,806.083L612.501,840.419L606.642,840.419L606.642,823.451L606.829,813.724L605.962,816.302L597.173,838.076L591.736,838.076L583.134,816.185L582.267,813.607L582.478,823.544L582.478,840.419L576.759,840.419Z" style="fill:white;fill-rule:nonzero;"/>
                <path d="M633.314,840.912C628.814,840.912 625.4,839.79 623.072,837.548C620.743,835.306 619.579,832.146 619.579,828.068L619.579,806.083L625.954,806.083L625.954,827.529C625.954,830.388 626.536,832.474 627.7,833.787C628.865,835.099 630.775,835.755 633.431,835.755C636.04,835.755 637.931,835.095 639.103,833.775C640.275,832.455 640.861,830.365 640.861,827.505L640.861,806.083L647.212,806.083L647.212,828.115C647.212,832.162 646.025,835.306 643.65,837.548C641.275,839.79 637.829,840.912 633.314,840.912Z" style="fill:white;fill-rule:nonzero;"/>
            </g>
            <g transform="matrix(0.790632,0,0,0.790632,130.875,116.761)">
                <g transform="matrix(2.08715,0,0,2.08715,-823.401,-267.372)">
                    <path d="M646.567,281.433L646.567,363.2C646.567,417.733 711.033,409.933 711.033,371.733L711.033,281.5L646.567,281.5L646.567,281.433Z" style="fill:white;fill-rule:nonzero;"/>
                </g>
                <g transform="matrix(2.08715,0,0,2.08715,-823.401,-267.372)">
                    <path d="M590.6,281.433C572.933,281.433 557.6,292.6 557.6,310.033L557.6,420.533C557.6,447.5 576.267,463.5 603.5,463.5L758.4,463.5C781.367,463.5 800,447.6 800,424.767L800,311.5C800,297.767 789.733,282.833 777.067,282.833L741.233,282.833L741.233,376.133C741.233,446.867 617.867,446.267 617.867,377.467L617.867,281.467L590.6,281.467L590.6,281.433Z" style="fill:white;fill-rule:nonzero;"/>
                </g>
            </g>
        </g>
    </g>
</svg>
