<?xml version="1.0" encoding="utf-8"?>
<svg width="100%" height="100%" viewBox="0 0 1200 1080" version="1.1" xmlns="http://www.w3.org/2000/svg" style="fill-rule:evenodd;clip-rule:evenodd;stroke-linejoin:round;stroke-miterlimit:2;">
  <rect id="Artboard1" x="0" y="0" width="1200" height="1080" style="fill:none;"/>
  <rect width="1200" height="1080.001" style="fill:rgb(46,46,46);"/>
  <path d="M -98.576 842.013 L 574.553 168.883 L 574.553 1515.144 L -98.576 842.013 Z" style="fill: rgb(51, 51, 51); transform-box: fill-box; transform-origin: 50% 50%;" transform="matrix(0.707107, -0.707107, 0.707107, 0.707107, -0.000006, -0.000008)"/>
  <path d="M 552.105 799.236 C 547.09 799.236 543.113 797.657 540.176 794.501 C 537.238 791.345 535.769 786.986 535.769 781.423 C 535.769 776.142 537.305 771.904 540.375 768.708 C 543.445 765.513 547.465 763.915 552.434 763.915 C 556.449 763.915 559.848 764.845 562.629 766.704 L 560.637 771.509 C 557.965 769.868 555.277 769.048 552.574 769.048 C 549.418 769.048 546.922 770.185 545.086 772.458 C 543.25 774.732 542.332 777.782 542.332 781.611 C 542.332 785.579 543.219 788.65 544.992 790.821 C 546.766 792.993 549.293 794.079 552.574 794.079 C 555.449 794.079 558.301 793.361 561.129 791.923 L 561.973 796.892 C 559.348 798.454 556.059 799.236 552.105 799.236 Z" style="fill:white;fill-rule:nonzero;"/>
  <path d="M 567.621 798.743 L 567.621 764.407 L 588.434 764.407 L 588.176 769.446 L 573.973 769.446 L 573.973 778.306 L 587.473 778.306 L 587.473 783.345 L 573.973 783.345 L 573.973 793.681 L 588.691 793.681 L 588.48 798.743 L 567.621 798.743 Z" style="fill:white;fill-rule:nonzero;"/>
  <path d="M 594.621 798.743 L 594.621 764.407 L 602.121 764.407 L 612.504 789.204 L 622.957 764.407 L 630.363 764.407 L 630.363 798.743 L 624.504 798.743 L 624.504 781.775 L 624.691 772.048 L 623.824 774.626 L 615.035 796.4 L 609.598 796.4 L 600.996 774.509 L 600.129 771.931 L 600.34 781.868 L 600.34 798.743 L 594.621 798.743 Z" style="fill:white;fill-rule:nonzero;"/>
  <path d="M 651.176 799.236 C 646.676 799.236 643.262 798.114 640.934 795.872 C 638.605 793.63 637.441 790.47 637.441 786.392 L 637.441 764.407 L 643.816 764.407 L 643.816 785.853 C 643.816 788.712 644.398 790.798 645.562 792.111 C 646.727 793.423 648.637 794.079 651.293 794.079 C 653.902 794.079 655.793 793.419 656.965 792.099 C 658.137 790.779 658.723 788.689 658.723 785.829 L 658.723 764.407 L 665.074 764.407 L 665.074 786.439 C 665.074 790.486 663.887 793.63 661.512 795.872 C 659.137 798.114 655.691 799.236 651.176 799.236 Z" style="fill:white;fill-rule:nonzero;"/>
  <path d="M 546.811 369.78 L 546.811 504.709 C 546.811 594.697 653.191 581.826 653.191 518.79 L 653.191 369.89 L 546.811 369.89 L 546.811 369.78 Z" style="fill:white;fill-rule:nonzero;"/>
  <path d="M 454.457 369.78 C 425.303 369.78 400.001 388.207 400.001 416.974 L 400.001 599.318 C 400.001 643.818 430.805 670.221 475.744 670.221 L 731.355 670.221 C 769.254 670.221 800.002 643.983 800.002 606.305 L 800.002 419.395 C 800.002 396.733 783.059 372.09 762.158 372.09 L 703.026 372.09 L 703.026 526.05 C 703.026 642.773 499.452 641.783 499.452 528.252 L 499.452 369.836 L 454.457 369.836 L 454.457 369.78 Z" style="fill:white;fill-rule:nonzero;"/>
</svg>