<?xml version="1.0" encoding="utf-8"?>
<svg width="100%" height="100%" viewBox="0 0 1200 1080" version="1.1" xmlns="http://www.w3.org/2000/svg" style="fill-rule:evenodd;clip-rule:evenodd;stroke-linejoin:round;stroke-miterlimit:2;">
  <path d="M 0 0 H 1200 V 1080.001 H 0 V 0 Z" style="fill:rgb(46,46,46);"/>
  <path d="M -98.576 842.013 L 574.553 168.883 L 574.553 1515.144 L -98.576 842.013 Z" style="fill: rgb(51, 51, 51); transform-box: fill-box; transform-origin: 50% 50%;" transform="matrix(0.707107, -0.707107, 0.707107, 0.707107, -0.000002, -0.000008)"/>
  <path d="M 520.324 793.657 L 524.871 793.657 Q 530.754 793.657 533.824 790.575 Q 536.894 787.493 536.894 781.587 Q 536.894 775.259 533.73 772.388 Q 530.566 769.516 524.191 769.516 L 520.324 769.516 Z M 513.973 798.743 L 513.973 764.407 L 523.91 764.407 Q 528.41 764.407 531.973 765.438 Q 535.535 766.47 538.101 768.544 Q 540.668 770.618 542.039 773.888 Q 543.41 777.157 543.41 781.446 Q 543.41 789.766 538.394 794.255 Q 533.379 798.743 524.496 798.743 Z M 560.062 794.571 Q 563.179 794.571 564.749 792.298 Q 566.32 790.024 566.32 785.782 Q 566.32 781.493 564.749 779.243 Q 563.179 776.993 560.015 776.993 Q 556.898 776.993 555.316 779.255 Q 553.734 781.516 553.734 785.806 Q 553.734 790.024 555.327 792.298 Q 556.921 794.571 560.062 794.571 Z M 559.898 799.235 Q 554.179 799.235 550.898 795.532 Q 547.616 791.829 547.616 785.782 Q 547.616 779.548 550.898 775.95 Q 554.179 772.352 560.155 772.352 Q 565.921 772.352 569.191 776.02 Q 572.46 779.688 572.46 785.782 Q 572.46 791.946 569.155 795.591 Q 565.851 799.235 559.898 799.235 Z M 586.486 799.095 Q 583.837 799.095 582.091 798.474 Q 580.345 797.852 579.337 796.493 Q 578.33 795.134 577.931 793.259 Q 577.533 791.384 577.533 788.595 L 577.533 763.493 L 583.673 763.095 L 583.673 788.477 Q 583.673 791.946 584.494 793.177 Q 585.314 794.407 587.681 794.407 Q 588.853 794.407 590.658 794.149 L 590.822 798.532 Q 590.798 798.532 590.248 798.649 Q 589.697 798.766 589.193 798.849 Q 588.689 798.931 587.916 799.013 Q 587.142 799.095 586.486 799.095 Z M 593.864 809.454 L 593.864 772.985 L 599.137 772.985 L 599.794 776.595 Q 601.059 774.556 603.157 773.442 Q 605.254 772.329 607.833 772.329 Q 610.997 772.329 613.399 774.087 Q 615.801 775.845 617.044 778.88 Q 618.286 781.915 618.286 785.735 Q 618.286 791.712 615.391 795.474 Q 612.497 799.235 607.551 799.235 Q 605.114 799.235 603.133 798.263 Q 601.153 797.29 599.817 795.626 Q 600.004 799.001 600.004 799.423 L 600.004 809.149 Z M 606.239 794.548 Q 608.981 794.548 610.563 792.251 Q 612.145 789.954 612.145 785.688 Q 612.145 781.352 610.551 779.173 Q 608.958 776.993 606.122 776.993 Q 600.028 776.993 599.958 785.29 Q 599.958 790.071 601.54 792.309 Q 603.122 794.548 606.239 794.548 Z M 623.309 798.743 L 623.309 763.493 L 629.45 763.095 L 629.45 770.524 Q 629.45 771.063 629.379 773.513 Q 629.309 775.962 629.309 776.009 Q 632.379 772.352 637.559 772.352 Q 641.872 772.352 644.25 774.825 Q 646.629 777.298 646.629 782.431 L 646.629 798.743 L 640.489 798.743 L 640.489 783.11 Q 640.489 779.946 639.481 778.47 Q 638.473 776.993 636.059 776.993 Q 633.997 776.993 632.403 778.036 Q 630.809 779.079 630.012 780.72 Q 629.45 782.876 629.45 786.345 L 629.45 798.743 Z M 652.809 798.743 L 652.809 772.985 L 658.949 772.985 L 658.949 798.743 Z M 652.809 769.235 L 652.809 763.985 L 658.973 763.985 L 658.973 769.235 Z M 665.346 798.743 L 665.346 772.985 L 670.291 772.985 L 670.971 776.243 Q 674.908 772.352 679.713 772.352 Q 684.213 772.352 686.451 774.942 Q 688.69 777.532 688.69 782.454 L 688.69 798.743 L 682.526 798.743 L 682.526 783.204 Q 682.502 780.087 681.518 778.54 Q 680.533 776.993 677.979 776.993 Q 675.986 776.993 674.334 778.013 Q 672.682 779.032 671.932 780.579 Q 671.486 782.407 671.486 786.204 L 671.486 798.743 Z" style="fill: rgb(255, 255, 255); text-wrap-mode: nowrap;"/>
  <path d="M 837.878 638.054 C 813.022 592.187 791.643 559.398 756.025 526.099 C 744.569 515.385 733.718 505.814 722.418 497.222 L 722.429 497.225 C 722.429 497.225 722.34 497.163 722.175 497.041 C 721.973 496.888 721.767 496.731 721.565 496.577 C 717.369 493.34 699.568 478.36 705.894 461.823 C 712.833 443.673 751.924 435.562 751.924 435.562 C 751.924 435.562 732.762 429.053 699.233 431.202 C 667.767 433.222 639.496 451.622 634.209 454.209 C 617.261 449.357 597.926 445.08 575.314 441.243 C 497.098 427.973 430.9 449.127 397.683 472.183 C 354.146 502.398 355.351 530.557 351.762 544.64 C 349.179 554.776 322.916 574.907 331.843 585.874 C 337.413 592.716 355.948 583.425 370.901 577.275 C 386.621 570.808 387.833 567.29 430.796 560.88 C 450.562 557.932 471.364 557.084 486.851 556.954 C 492.878 569.682 507.863 595.84 533.826 608.387 C 568.88 625.329 612.674 625.116 612.674 625.116 C 612.674 625.116 587.507 614.662 572.025 599.18 C 561.49 588.644 558.968 572.641 558.431 563.491 L 558.525 563.499 C 583.892 568.319 606.048 571.796 659.036 592.09 C 705.4 609.847 737.068 635.668 737.068 635.668 C 737.068 635.668 704.506 595.065 649.556 567.962 C 604.436 545.706 567.389 534.712 516.062 532.222 C 459.958 529.501 418.619 536.704 418.619 536.704 C 418.619 536.704 419.776 511.775 462.13 491.909 C 498.961 474.631 556.903 471.74 623.398 488.704 C 717.345 512.672 749.386 553.48 789.797 595.654 C 832.808 640.541 870 716.082 870 716.082 C 870 716.082 858.533 676.168 837.878 638.057 L 837.878 638.054 Z" style="fill:white;fill-rule:nonzero;"/>
</svg>