<?xml version="1.0" encoding="utf-8"?>
<svg width="100%" height="100%" viewBox="0 0 1200 1080" version="1.1" xmlns="http://www.w3.org/2000/svg" style="fill-rule:evenodd;clip-rule:evenodd;stroke-linejoin:round;stroke-miterlimit:2;">
  <path d="M 0 0 H 1200 V 1080.001 H 0 V 0 Z" style="fill:rgb(46,46,46);"/>
  <path d="M -98.576 842.013 L 574.553 168.883 L 574.553 1515.144 L -98.576 842.013 Z" style="fill: rgb(51, 51, 51); transform-box: fill-box; transform-origin: 50% 50%;" transform="matrix(0.707107, -0.707107, 0.707107, 0.707107, -0.000002, -0.000008)"/>
  <path d="M 475.008 793.657 L 479.555 793.657 C 483.477 793.657 486.461 792.63 488.508 790.575 C 490.555 788.521 491.578 785.525 491.578 781.587 C 491.578 777.368 490.523 774.302 488.414 772.388 C 486.305 770.474 483.125 769.517 478.875 769.517 L 475.008 769.517 L 475.008 793.657 Z M 468.656 798.743 L 468.656 764.407 L 478.594 764.407 C 481.594 764.407 484.281 764.751 486.656 765.439 C 489.031 766.126 491.074 767.161 492.785 768.544 C 494.496 769.927 495.809 771.708 496.723 773.888 C 497.637 776.068 498.094 778.587 498.094 781.446 C 498.094 786.993 496.422 791.263 493.078 794.255 C 489.734 797.247 485.102 798.743 479.18 798.743 L 468.656 798.743 Z" style="fill:white;fill-rule:nonzero;"/>
  <path d="M 522.117 796.728 C 520.07 798.4 517.375 799.236 514.031 799.236 C 510.687 799.236 507.996 798.4 505.957 796.728 C 503.918 795.056 502.898 792.603 502.898 789.368 L 502.898 772.986 L 509.062 772.986 L 509.062 789.134 C 509.062 791.056 509.465 792.446 510.269 793.306 C 511.074 794.165 512.352 794.595 514.102 794.595 C 515.82 794.595 517.074 794.169 517.863 793.318 C 518.652 792.466 519.047 791.071 519.047 789.134 L 519.047 772.986 L 525.187 772.986 L 525.187 789.368 C 525.187 792.587 524.164 795.04 522.117 796.728 Z" style="fill:white;fill-rule:nonzero;"/>
  <path d="M 542.062 799.236 C 538.125 799.236 535.059 798.064 532.863 795.72 C 530.668 793.376 529.57 790.025 529.57 785.665 C 529.57 781.446 530.723 778.173 533.027 775.845 C 535.332 773.517 538.367 772.353 542.133 772.353 C 545.148 772.353 547.695 773.001 549.773 774.298 L 548.32 778.681 C 546.195 777.571 544.219 777.017 542.391 777.017 C 540.312 777.017 538.676 777.759 537.48 779.243 C 536.285 780.728 535.687 782.892 535.687 785.736 C 535.687 788.611 536.277 790.798 537.457 792.298 C 538.637 793.798 540.305 794.548 542.461 794.548 C 544.711 794.548 546.875 793.884 548.953 792.556 L 549.539 797.22 C 548.461 797.939 547.344 798.454 546.187 798.767 C 545.031 799.079 543.656 799.236 542.062 799.236 Z" style="fill:white;fill-rule:nonzero;"/>
  <path d="M 554.414 798.743 L 554.414 763.493 L 560.555 763.095 L 560.555 778.915 L 560.414 784.118 C 560.43 784.103 560.59 783.946 560.894 783.65 C 561.199 783.353 561.367 783.189 561.398 783.157 C 562.258 782.142 563.191 781.095 564.199 780.017 C 565.207 778.939 566.48 777.618 568.019 776.056 C 569.559 774.493 570.562 773.47 571.031 772.986 L 578.344 772.986 L 567.75 783.954 L 579.023 798.743 L 571.594 798.743 L 563.109 787.048 L 560.555 789.064 L 560.555 798.743 L 554.414 798.743 Z" style="fill:white;fill-rule:nonzero;"/>
  <path d="M 590.133 799.212 C 586.336 799.212 583.297 798.564 581.016 797.267 L 581.648 792.65 C 582.68 793.212 583.992 793.716 585.586 794.161 C 587.18 794.607 588.633 794.829 589.945 794.829 C 591.305 794.829 592.363 794.575 593.121 794.068 C 593.879 793.56 594.266 792.814 594.281 791.829 C 594.281 790.939 593.926 790.236 593.215 789.72 C 592.504 789.204 591.148 788.564 589.148 787.798 C 588.461 787.548 588.016 787.384 587.812 787.306 C 585.437 786.384 583.727 785.357 582.68 784.224 C 581.633 783.091 581.109 781.556 581.109 779.618 C 581.109 777.275 581.957 775.478 583.652 774.228 C 585.348 772.978 587.711 772.353 590.742 772.353 C 594.023 772.353 596.906 772.97 599.391 774.204 L 597.867 778.446 C 595.414 777.306 593.078 776.736 590.859 776.736 C 589.625 776.736 588.66 776.943 587.965 777.357 C 587.269 777.771 586.922 778.4 586.922 779.243 C 586.922 780.04 587.258 780.661 587.93 781.107 C 588.602 781.552 589.914 782.134 591.867 782.853 C 591.93 782.868 592.133 782.939 592.477 783.064 C 592.82 783.189 593.086 783.29 593.273 783.368 C 595.633 784.228 597.367 785.255 598.477 786.45 C 599.586 787.646 600.141 789.204 600.141 791.126 C 600.125 793.704 599.25 795.696 597.516 797.103 C 595.781 798.509 593.32 799.212 590.133 799.212 Z" style="fill:white;fill-rule:nonzero;"/>
  <path d="M 615.281 799.095 C 613.531 799.095 612.074 798.888 610.91 798.474 C 609.746 798.06 608.836 797.407 608.18 796.517 C 607.523 795.626 607.059 794.575 606.785 793.364 C 606.512 792.154 606.375 790.657 606.375 788.876 L 606.375 776.712 L 602.156 776.712 L 602.391 773.384 L 606.797 772.986 L 608.766 766.001 L 612.516 765.978 L 612.516 772.986 L 618.914 772.986 L 618.914 776.712 L 612.516 776.712 L 612.516 788.993 C 612.516 790.946 612.797 792.337 613.359 793.165 C 613.922 793.993 614.961 794.407 616.477 794.407 C 617.367 794.407 618.32 794.329 619.336 794.173 L 619.5 798.579 C 619.469 798.579 619.277 798.614 618.926 798.685 C 618.574 798.755 618.238 798.818 617.918 798.872 C 617.598 798.927 617.187 798.978 616.687 799.025 C 616.187 799.071 615.719 799.095 615.281 799.095 Z" style="fill:white;fill-rule:nonzero;"/>
  <path d="M 630.586 799.236 C 628.195 799.236 626.262 798.575 624.785 797.255 C 623.309 795.935 622.57 794.032 622.57 791.548 C 622.57 788.876 623.445 786.896 625.195 785.607 C 626.945 784.318 629.586 783.501 633.117 783.157 C 633.602 783.095 634.125 783.032 634.687 782.97 C 635.25 782.907 635.883 782.845 636.586 782.782 C 637.289 782.72 637.844 782.665 638.25 782.618 L 638.25 781.259 C 638.25 779.696 637.891 778.56 637.172 777.849 C 636.453 777.138 635.359 776.782 633.891 776.782 C 631.797 776.782 629.211 777.368 626.133 778.54 C 626.117 778.493 625.859 777.782 625.359 776.407 C 624.859 775.032 624.602 774.329 624.586 774.298 C 627.617 773.001 630.898 772.353 634.43 772.353 C 637.898 772.353 640.422 773.107 642 774.614 C 643.578 776.122 644.367 778.564 644.367 781.939 L 644.367 798.743 L 639.82 798.743 C 639.805 798.681 639.633 798.157 639.305 797.173 C 638.977 796.189 638.812 795.665 638.812 795.603 C 637.531 796.853 636.277 797.771 635.051 798.357 C 633.824 798.943 632.336 799.236 630.586 799.236 Z M 632.25 794.876 C 633.672 794.876 634.91 794.536 635.965 793.857 C 637.019 793.177 637.773 792.353 638.227 791.384 L 638.227 786.415 C 638.18 786.415 637.769 786.446 636.996 786.509 C 636.223 786.571 635.805 786.603 635.742 786.603 C 633.258 786.821 631.437 787.29 630.281 788.009 C 629.125 788.728 628.547 789.884 628.547 791.478 C 628.547 792.571 628.867 793.411 629.508 793.997 C 630.148 794.583 631.062 794.876 632.25 794.876 Z" style="fill:white;fill-rule:nonzero;"/>
  <path d="M 660.844 799.095 C 659.094 799.095 657.637 798.888 656.473 798.474 C 655.309 798.06 654.398 797.407 653.742 796.517 C 653.086 795.626 652.621 794.575 652.348 793.364 C 652.074 792.154 651.937 790.657 651.937 788.876 L 651.937 776.712 L 647.719 776.712 L 647.953 773.384 L 652.359 772.986 L 654.328 766.001 L 658.078 765.978 L 658.078 772.986 L 664.477 772.986 L 664.477 776.712 L 658.078 776.712 L 658.078 788.993 C 658.078 790.946 658.359 792.337 658.922 793.165 C 659.484 793.993 660.523 794.407 662.039 794.407 C 662.93 794.407 663.883 794.329 664.898 794.173 L 665.062 798.579 C 665.031 798.579 664.84 798.614 664.488 798.685 C 664.137 798.755 663.801 798.818 663.48 798.872 C 663.16 798.927 662.75 798.978 662.25 799.025 C 661.75 799.071 661.281 799.095 660.844 799.095 Z" style="fill:white;fill-rule:nonzero;"/>
  <path d="M 669.516 798.743 L 669.516 772.986 L 675.656 772.986 L 675.656 798.743 L 669.516 798.743 Z M 669.516 769.236 L 669.516 763.986 L 675.68 763.986 L 675.68 769.236 L 669.516 769.236 Z" style="fill:white;fill-rule:nonzero;"/>
  <path d="M 693.281 794.571 C 695.359 794.571 696.922 793.814 697.969 792.298 C 699.016 790.782 699.539 788.611 699.539 785.782 C 699.539 782.923 699.016 780.743 697.969 779.243 C 696.922 777.743 695.344 776.993 693.234 776.993 C 691.156 776.993 689.59 777.747 688.535 779.255 C 687.48 780.763 686.953 782.946 686.953 785.806 C 686.953 788.618 687.484 790.782 688.547 792.298 C 689.609 793.814 691.187 794.571 693.281 794.571 Z M 693.117 799.236 C 689.305 799.236 686.305 798.001 684.117 795.532 C 681.93 793.064 680.836 789.814 680.836 785.782 C 680.836 781.626 681.93 778.349 684.117 775.95 C 686.305 773.552 689.391 772.353 693.375 772.353 C 697.219 772.353 700.23 773.575 702.41 776.021 C 704.59 778.466 705.68 781.72 705.68 785.782 C 705.68 789.892 704.578 793.161 702.375 795.591 C 700.172 798.021 697.086 799.236 693.117 799.236 Z" style="fill:white;fill-rule:nonzero;"/>
  <path d="M 710.695 798.743 L 710.695 772.986 L 715.641 772.986 L 716.32 776.243 C 718.945 773.65 721.859 772.353 725.062 772.353 C 728.062 772.353 730.309 773.216 731.801 774.943 C 733.293 776.669 734.039 779.173 734.039 782.454 L 734.039 798.743 L 727.875 798.743 L 727.875 783.204 C 727.859 781.126 727.523 779.571 726.867 778.54 C 726.211 777.509 725.031 776.993 723.328 776.993 C 722 776.993 720.785 777.333 719.684 778.013 C 718.582 778.693 717.781 779.548 717.281 780.579 C 716.984 781.798 716.836 783.673 716.836 786.204 L 716.836 798.743 L 710.695 798.743 Z" style="fill:white;fill-rule:nonzero;"/>
  <path d="M 622.595 552.949 L 595.494 568.589 L 595.494 599.1 L 622.595 614.766 L 649.7 630.411 L 676.801 614.766 L 676.801 584.26 L 649.7 568.589 L 622.595 552.949 Z" style="fill:rgb(119,119,119);fill-rule:nonzero;"/>
  <path d="M 622.595 552.941 L 595.494 568.58 L 622.595 584.251 L 649.7 599.892 L 676.801 584.251 L 649.7 568.58 L 622.595 552.941 Z" style="fill:white;fill-rule:nonzero;"/>
  <path d="M 622.595 464.726 L 649.7 480.375 L 649.7 568.589 L 622.595 584.239 L 595.494 568.589 L 595.494 480.375 L 622.595 464.726 Z" style="fill:rgb(238,238,238);fill-rule:nonzero;"/>
  <path d="M 649.7 630.411 L 676.801 614.766 L 676.801 584.251 L 649.7 599.892 L 649.7 630.411 Z" style="fill:rgb(238,238,238);fill-rule:nonzero;"/>
  <path d="M 622.595 464.726 L 622.595 584.239 L 595.494 568.589 L 595.494 480.375 L 622.595 464.726 Z" style="fill:rgb(119,119,119);fill-rule:nonzero;"/>
  <path d="M 532.494 612.536 L 505.392 628.176 L 505.392 658.686 L 532.494 674.357 L 559.599 689.998 L 586.699 674.357 L 586.699 643.846 L 559.599 628.176 L 532.494 612.536 Z" style="fill:rgb(119,119,119);fill-rule:nonzero;"/>
  <path d="M 559.599 689.998 L 586.699 674.357 L 586.699 643.839 L 559.599 659.482 L 559.599 689.998 Z" style="fill:rgb(238,238,238);fill-rule:nonzero;"/>
  <path d="M 532.494 612.527 L 505.392 628.171 L 532.494 643.839 L 559.599 659.482 L 586.699 643.839 L 559.599 628.171 L 532.494 612.527 Z" style="fill:white;fill-rule:nonzero;"/>
  <path d="M 532.494 524.318 L 559.599 539.962 L 559.599 628.176 L 532.494 643.825 L 505.392 628.176 L 505.392 539.962 L 532.494 524.318 Z" style="fill:rgb(238,238,238);fill-rule:nonzero;"/>
  <path d="M 532.494 524.318 L 532.494 643.825 L 505.392 628.176 L 505.392 539.962 L 532.494 524.318 Z" style="fill:rgb(119,119,119);fill-rule:nonzero;"/>
  <path d="M 541.433 262.336 L 685.596 345.566 L 685.596 512.033 L 541.433 595.264 L 397.27 512.033 L 397.27 345.566 L 541.433 262.336 Z" style="fill:rgb(238,238,238);fill-rule:nonzero;"/>
  <path d="M 397.27 345.557 L 397.27 512.033 L 541.433 595.264 L 541.433 428.809 L 397.27 345.557 Z" style="fill:rgb(170,170,170);fill-rule:nonzero;"/>
  <path d="M 541.433 262.331 L 397.27 345.557 L 541.433 428.809 L 685.596 345.557 L 541.433 262.331 Z" style="fill:white;fill-rule:nonzero;"/>
  <path d="M 631.535 190.008 L 757.677 262.837 L 757.677 408.492 L 631.535 481.321 L 505.392 408.492 L 505.392 262.837 L 631.535 190.008 Z" style="fill:rgb(238,238,238);fill-rule:nonzero;"/>
  <path d="M 649.555 367.849 L 676.585 351.632 L 676.585 388.122 L 649.555 404.343 L 649.555 367.849 Z" style="fill:rgb(62,62,62);fill-rule:nonzero;"/>
  <path d="M 505.392 262.825 L 505.392 408.479 L 631.535 481.334 L 631.535 335.654 L 505.392 262.825 Z" style="fill:rgb(170,170,170);fill-rule:nonzero;"/>
  <path d="M 631.535 190 L 505.392 262.825 L 631.535 335.654 L 757.677 262.825 L 631.535 190 Z" style="fill:white;fill-rule:nonzero;"/>
  <path d="M 712.626 334.096 L 739.657 317.88 L 739.657 354.369 L 712.626 370.585 L 712.626 334.096 Z" style="fill:rgb(62,62,62);fill-rule:nonzero;"/>
  <path d="M 730.646 406.969 L 730.646 479.051 L 658.565 443.01 L 658.565 418.984 L 730.646 406.969 Z" style="fill:rgb(119,119,119);fill-rule:nonzero;"/>
  <path d="M 730.646 406.969 L 730.646 479.051 L 802.728 443.01 L 802.728 418.984 L 730.646 406.969 Z" style="fill:rgb(238,238,238);fill-rule:nonzero;"/>
  <path d="M 730.651 382.974 L 802.728 419.015 L 730.651 455.055 L 658.57 419.015 L 730.651 382.974 Z" style="fill:rgb(170,170,170);fill-rule:nonzero;"/>
  <path d="M 442.321 215.367 L 487.372 241.382 L 487.372 293.401 L 442.321 319.411 L 397.27 293.401 L 397.27 241.382 L 442.321 215.367 Z" style="fill:rgb(238,238,238);fill-rule:nonzero;"/>
  <path d="M 397.27 241.377 L 397.27 293.401 L 442.321 319.402 C 442.321 319.411 442.321 267.4 442.321 267.4 L 397.27 241.377 Z" style="fill:rgb(170,170,170);fill-rule:nonzero;"/>
  <path d="M 442.321 215.376 L 397.27 241.377 L 442.321 267.4 L 487.372 241.377 L 442.321 215.376 Z" style="fill:white;fill-rule:nonzero;"/>
</svg>