<?xml version="1.0" encoding="UTF-8" standalone="no"?>
<!DOCTYPE svg PUBLIC "-//W3C//DTD SVG 1.1//EN" "http://www.w3.org/Graphics/SVG/1.1/DTD/svg11.dtd">
<svg width="100%" height="100%" viewBox="0 0 1200 1080" version="1.1" xmlns="http://www.w3.org/2000/svg" xmlns:xlink="http://www.w3.org/1999/xlink" xml:space="preserve" xmlns:serif="http://www.serif.com/" style="fill-rule:evenodd;clip-rule:evenodd;stroke-linejoin:round;stroke-miterlimit:2;">
    <rect id="Artboard1" x="0" y="0" width="1200" height="1080" style="fill:none;"/>
    <g id="Artboard11" serif:id="Artboard1">
        <g transform="matrix(1,0,0,1.09091,-720,207.273)">
            <rect x="720" y="-190" width="1200" height="990" style="fill:rgb(46,46,46);"/>
        </g>
        <g transform="matrix(0.707107,-0.707107,0.707107,0.707107,-575.938,-155.145)">
            <path d="M-466.129,1280.63L207,607.5L207,1953.76L-466.129,1280.63Z" style="fill:rgb(51,51,51);"/>
        </g>
        <g id="file-manager.svg">
            <g transform="matrix(1,0,0,1,17.8621,-41.6765)">
                <path d="M438.7,840.419L438.7,806.083L459.021,806.083L458.786,811.122L445.005,811.122L445.005,820.872L458.107,820.872L458.107,825.865L445.005,825.865L445.005,840.419L438.7,840.419Z" style="fill:white;fill-rule:nonzero;"/>
                <path d="M464.107,840.419L464.107,814.662L470.247,814.662L470.247,840.419L464.107,840.419ZM464.107,810.912L464.107,805.662L470.271,805.662L470.271,810.912L464.107,810.912Z" style="fill:white;fill-rule:nonzero;"/>
                <path d="M485.669,840.771C483.904,840.771 482.439,840.564 481.275,840.15C480.111,839.736 479.193,839.076 478.521,838.169C477.849,837.263 477.38,836.185 477.115,834.935C476.849,833.685 476.716,832.13 476.716,830.271L476.716,805.169L482.857,804.771L482.857,830.154C482.857,832.466 483.13,834.033 483.677,834.853C484.224,835.673 485.286,836.083 486.865,836.083C487.646,836.083 488.638,835.997 489.841,835.826L490.005,840.208C489.99,840.208 489.798,840.247 489.431,840.326C489.064,840.404 488.712,840.47 488.376,840.525C488.04,840.58 487.615,840.634 487.099,840.689C486.583,840.744 486.107,840.771 485.669,840.771Z" style="fill:white;fill-rule:nonzero;"/>
                <path d="M504.818,840.912C500.677,840.912 497.454,839.72 495.15,837.337C492.845,834.955 491.693,831.662 491.693,827.458C491.693,823.365 492.779,820.107 494.95,817.685C497.122,815.263 500.083,814.044 503.833,814.029C507.38,814.029 510.134,815.138 512.095,817.357C514.056,819.576 515.036,822.521 515.036,826.193C515.036,826.458 515.032,826.888 515.025,827.482C515.017,828.076 515.013,828.513 515.013,828.794L497.88,828.794C497.943,831.201 498.603,833.064 499.861,834.384C501.118,835.705 502.849,836.365 505.052,836.365C507.865,836.365 510.568,835.63 513.161,834.162L514.029,838.521C511.45,840.115 508.38,840.912 504.818,840.912ZM497.997,824.927L509.247,824.927C509.247,822.833 508.771,821.224 507.818,820.099C506.865,818.974 505.544,818.412 503.857,818.412C502.279,818.412 500.947,818.958 499.861,820.052C498.775,821.146 498.154,822.771 497.997,824.927Z" style="fill:white;fill-rule:nonzero;"/>
                <path d="M533.294,840.419L533.294,806.083L540.794,806.083L551.177,830.88L561.63,806.083L569.036,806.083L569.036,840.419L563.177,840.419L563.177,823.451L563.365,813.724L562.497,816.302L553.708,838.076L548.271,838.076L539.669,816.185L538.802,813.607L539.013,823.544L539.013,840.419L533.294,840.419Z" style="fill:white;fill-rule:nonzero;"/>
                <path d="M582.654,840.912C580.263,840.912 578.329,840.251 576.853,838.931C575.376,837.611 574.638,835.708 574.638,833.224C574.638,830.552 575.513,828.572 577.263,827.283C579.013,825.994 581.654,825.177 585.185,824.833C585.669,824.771 586.193,824.708 586.755,824.646C587.318,824.583 587.95,824.521 588.654,824.458C589.357,824.396 589.911,824.341 590.318,824.294L590.318,822.935C590.318,821.372 589.958,820.236 589.24,819.525C588.521,818.814 587.427,818.458 585.958,818.458C583.865,818.458 581.279,819.044 578.2,820.216C578.185,820.169 577.927,819.458 577.427,818.083C576.927,816.708 576.669,816.005 576.654,815.974C579.685,814.677 582.966,814.029 586.497,814.029C589.966,814.029 592.49,814.783 594.068,816.29C595.646,817.798 596.435,820.24 596.435,823.615L596.435,840.419L591.888,840.419C591.872,840.357 591.7,839.833 591.372,838.849C591.044,837.865 590.88,837.341 590.88,837.279C589.599,838.529 588.345,839.447 587.118,840.033C585.892,840.619 584.404,840.912 582.654,840.912ZM584.318,836.552C585.74,836.552 586.978,836.212 588.032,835.533C589.087,834.853 589.841,834.029 590.294,833.06L590.294,828.091C590.247,828.091 589.837,828.122 589.064,828.185C588.29,828.247 587.872,828.279 587.81,828.279C585.325,828.497 583.505,828.966 582.349,829.685C581.193,830.404 580.615,831.56 580.615,833.154C580.615,834.247 580.935,835.087 581.575,835.673C582.216,836.259 583.13,836.552 584.318,836.552Z" style="fill:white;fill-rule:nonzero;"/>
                <path d="M602.622,840.419L602.622,814.662L607.568,814.662L608.247,817.919C610.872,815.326 613.786,814.029 616.99,814.029C619.99,814.029 622.236,814.892 623.728,816.619C625.22,818.345 625.966,820.849 625.966,824.13L625.966,840.419L619.802,840.419L619.802,824.88C619.786,822.802 619.45,821.247 618.794,820.216C618.138,819.185 616.958,818.669 615.255,818.669C613.927,818.669 612.712,819.009 611.611,819.689C610.509,820.369 609.708,821.224 609.208,822.255C608.911,823.474 608.763,825.349 608.763,827.88L608.763,840.419L602.622,840.419Z" style="fill:white;fill-rule:nonzero;"/>
                <path d="M638.81,840.912C636.419,840.912 634.486,840.251 633.009,838.931C631.532,837.611 630.794,835.708 630.794,833.224C630.794,830.552 631.669,828.572 633.419,827.283C635.169,825.994 637.81,825.177 641.341,824.833C641.825,824.771 642.349,824.708 642.911,824.646C643.474,824.583 644.107,824.521 644.81,824.458C645.513,824.396 646.068,824.341 646.474,824.294L646.474,822.935C646.474,821.372 646.115,820.236 645.396,819.525C644.677,818.814 643.583,818.458 642.115,818.458C640.021,818.458 637.435,819.044 634.357,820.216C634.341,820.169 634.083,819.458 633.583,818.083C633.083,816.708 632.825,816.005 632.81,815.974C635.841,814.677 639.122,814.029 642.654,814.029C646.122,814.029 648.646,814.783 650.224,816.29C651.802,817.798 652.591,820.24 652.591,823.615L652.591,840.419L648.044,840.419C648.029,840.357 647.857,839.833 647.529,838.849C647.2,837.865 647.036,837.341 647.036,837.279C645.755,838.529 644.501,839.447 643.275,840.033C642.048,840.619 640.56,840.912 638.81,840.912ZM640.474,836.552C641.896,836.552 643.134,836.212 644.189,835.533C645.243,834.853 645.997,834.029 646.45,833.06L646.45,828.091C646.404,828.091 645.993,828.122 645.22,828.185C644.447,828.247 644.029,828.279 643.966,828.279C641.482,828.497 639.661,828.966 638.505,829.685C637.349,830.404 636.771,831.56 636.771,833.154C636.771,834.247 637.091,835.087 637.732,835.673C638.372,836.259 639.286,836.552 640.474,836.552Z" style="fill:white;fill-rule:nonzero;"/>
                <path d="M663.935,851.951L663.583,846.982L666.7,846.982C670.31,846.982 672.833,846.501 674.271,845.54C675.708,844.58 676.427,842.818 676.427,840.255C676.427,839.208 676.38,838.076 676.286,836.857C675.88,837.419 675.493,837.884 675.126,838.251C674.759,838.619 674.298,838.982 673.743,839.341C673.189,839.701 672.525,839.97 671.751,840.15C670.978,840.33 670.099,840.419 669.115,840.419C665.708,840.419 662.907,839.193 660.712,836.74C658.517,834.287 657.419,831.122 657.419,827.247C657.419,825.185 657.724,823.306 658.333,821.611C658.943,819.915 659.771,818.521 660.818,817.427C661.865,816.333 663.072,815.494 664.439,814.908C665.806,814.322 667.263,814.029 668.81,814.029C672.263,814.029 674.833,815.287 676.521,817.802L676.943,814.662L682.427,814.662L682.427,838.591C682.427,839.872 682.365,841.025 682.24,842.048C682.115,843.072 681.896,844.056 681.583,845.001C681.271,845.947 680.861,846.771 680.353,847.474C679.845,848.177 679.208,848.818 678.443,849.396C677.677,849.974 676.775,850.447 675.736,850.814C674.697,851.181 673.49,851.462 672.115,851.658C670.74,851.853 669.193,851.951 667.474,851.951L663.935,851.951ZM670.099,836.13C674.333,836.13 676.474,833.294 676.521,827.622L676.521,826.732C676.49,824.185 675.958,822.216 674.927,820.826C673.896,819.435 672.388,818.732 670.404,818.716C668.154,818.716 666.45,819.486 665.294,821.025C664.138,822.564 663.56,824.638 663.56,827.247C663.56,829.763 664.142,831.872 665.306,833.576C666.47,835.279 668.068,836.13 670.099,836.13Z" style="fill:white;fill-rule:nonzero;"/>
                <path d="M700.38,840.912C696.24,840.912 693.017,839.72 690.712,837.337C688.407,834.955 687.255,831.662 687.255,827.458C687.255,823.365 688.341,820.107 690.513,817.685C692.685,815.263 695.646,814.044 699.396,814.029C702.943,814.029 705.697,815.138 707.657,817.357C709.618,819.576 710.599,822.521 710.599,826.193C710.599,826.458 710.595,826.888 710.587,827.482C710.579,828.076 710.575,828.513 710.575,828.794L693.443,828.794C693.505,831.201 694.165,833.064 695.423,834.384C696.681,835.705 698.411,836.365 700.615,836.365C703.427,836.365 706.13,835.63 708.724,834.162L709.591,838.521C707.013,840.115 703.943,840.912 700.38,840.912ZM693.56,824.927L704.81,824.927C704.81,822.833 704.333,821.224 703.38,820.099C702.427,818.974 701.107,818.412 699.419,818.412C697.841,818.412 696.509,818.958 695.423,820.052C694.337,821.146 693.716,822.771 693.56,824.927Z" style="fill:white;fill-rule:nonzero;"/>
                <path d="M715.615,840.419L715.615,814.662L720.771,814.662L721.568,818.599C723.255,815.896 725.7,814.544 728.904,814.544C729.575,814.544 730.122,814.576 730.544,814.638L730.45,819.771C729.825,819.677 729.177,819.63 728.505,819.63C726.24,819.63 724.548,820.232 723.431,821.435C722.314,822.638 721.755,824.31 721.755,826.451L721.755,840.419L715.615,840.419Z" style="fill:white;fill-rule:nonzero;"/>
            </g>
            <g transform="matrix(0.625,0,0,0.625,400,360)">
                <path d="M128,0C92.7,0 64,28.7 64,64L64,288L19.2,288C8.6,288 0,296.6 0,307.2C0,349.6 34.4,384 76.8,384L320,384L320,288L128,288L128,64L448,64L448,96L512,96L512,64C512,28.7 483.3,0 448,0L128,0ZM512,128L400,128C373.5,128 352,149.5 352,176L352,464C352,490.5 373.5,512 400,512L592,512C618.5,512 640,490.5 640,464L640,256L544,256C526.3,256 512,241.7 512,224L512,128ZM544,128L544,224L640,224L544,128Z" style="fill:white;fill-rule:nonzero;"/>
            </g>
        </g>
    </g>
</svg>
