<?xml version="1.0" encoding="utf-8"?>
<svg width="100%" height="100%" viewBox="0 0 1200 1080" version="1.1" xmlns="http://www.w3.org/2000/svg" style="fill-rule:evenodd;clip-rule:evenodd;stroke-linejoin:round;stroke-miterlimit:2;">
  <path d="M 0 0 H 1200 V 1080.001 H 0 V 0 Z" style="fill:rgb(46,46,46);"/>
  <path d="M -98.576 842.013 L 574.553 168.883 L 574.553 1515.144 L -98.576 842.013 Z" style="fill: rgb(51, 51, 51); transform-box: fill-box; transform-origin: 50% 50%;" transform="matrix(0.707107, -0.707107, 0.707107, 0.707107, -0.000006, -0.000008)"/>
  <path d="M 456.562 798.743 L 456.562 764.407 L 476.883 764.407 L 476.648 769.446 L 462.867 769.446 L 462.867 779.196 L 475.969 779.196 L 475.969 784.189 L 462.867 784.189 L 462.867 798.743 L 456.562 798.743 Z" style="fill:white;fill-rule:nonzero;"/>
  <path d="M 481.969 798.743 L 481.969 772.986 L 488.109 772.986 L 488.109 798.743 L 481.969 798.743 Z M 481.969 769.236 L 481.969 763.986 L 488.133 763.986 L 488.133 769.236 L 481.969 769.236 Z" style="fill:white;fill-rule:nonzero;"/>
  <path d="M 503.531 799.095 C 501.766 799.095 500.301 798.888 499.137 798.474 C 497.973 798.06 497.055 797.4 496.383 796.493 C 495.711 795.587 495.242 794.509 494.977 793.259 C 494.711 792.009 494.578 790.454 494.578 788.595 L 494.578 763.493 L 500.719 763.095 L 500.719 788.478 C 500.719 790.79 500.992 792.357 501.539 793.177 C 502.086 793.997 503.148 794.407 504.727 794.407 C 505.508 794.407 506.5 794.321 507.703 794.15 L 507.867 798.532 C 507.852 798.532 507.66 798.571 507.293 798.65 C 506.926 798.728 506.574 798.794 506.238 798.849 C 505.902 798.904 505.477 798.958 504.961 799.013 C 504.445 799.068 503.969 799.095 503.531 799.095 Z" style="fill:white;fill-rule:nonzero;"/>
  <path d="M 522.68 799.236 C 518.539 799.236 515.316 798.044 513.012 795.661 C 510.707 793.279 509.555 789.986 509.555 785.782 C 509.555 781.689 510.641 778.431 512.812 776.009 C 514.984 773.587 517.945 772.368 521.695 772.353 C 525.242 772.353 527.996 773.462 529.957 775.681 C 531.918 777.9 532.898 780.845 532.898 784.517 C 532.898 784.782 532.894 785.212 532.887 785.806 C 532.879 786.4 532.875 786.837 532.875 787.118 L 515.742 787.118 C 515.805 789.525 516.465 791.388 517.723 792.708 C 518.98 794.029 520.711 794.689 522.914 794.689 C 525.727 794.689 528.43 793.954 531.023 792.486 L 531.891 796.845 C 529.312 798.439 526.242 799.236 522.68 799.236 Z M 515.859 783.251 L 527.109 783.251 C 527.109 781.157 526.633 779.548 525.68 778.423 C 524.727 777.298 523.406 776.736 521.719 776.736 C 520.141 776.736 518.809 777.282 517.723 778.376 C 516.637 779.47 516.016 781.095 515.859 783.251 Z" style="fill:white;fill-rule:nonzero;"/>
  <path d="M 551.156 798.743 L 551.156 764.407 L 558.656 764.407 L 569.039 789.204 L 579.492 764.407 L 586.898 764.407 L 586.898 798.743 L 581.039 798.743 L 581.039 781.775 L 581.227 772.048 L 580.359 774.626 L 571.57 796.4 L 566.133 796.4 L 557.531 774.509 L 556.664 771.931 L 556.875 781.868 L 556.875 798.743 L 551.156 798.743 Z" style="fill:white;fill-rule:nonzero;"/>
  <path d="M 600.516 799.236 C 598.125 799.236 596.191 798.575 594.715 797.255 C 593.238 795.935 592.5 794.032 592.5 791.548 C 592.5 788.876 593.375 786.896 595.125 785.607 C 596.875 784.318 599.516 783.501 603.047 783.157 C 603.531 783.095 604.055 783.032 604.617 782.97 C 605.18 782.907 605.812 782.845 606.516 782.782 C 607.219 782.72 607.773 782.665 608.18 782.618 L 608.18 781.259 C 608.18 779.696 607.82 778.56 607.102 777.849 C 606.383 777.138 605.289 776.782 603.82 776.782 C 601.727 776.782 599.141 777.368 596.062 778.54 C 596.047 778.493 595.789 777.782 595.289 776.407 C 594.789 775.032 594.531 774.329 594.516 774.298 C 597.547 773.001 600.828 772.353 604.359 772.353 C 607.828 772.353 610.352 773.107 611.93 774.614 C 613.508 776.122 614.297 778.564 614.297 781.939 L 614.297 798.743 L 609.75 798.743 C 609.734 798.681 609.562 798.157 609.234 797.173 C 608.906 796.189 608.742 795.665 608.742 795.603 C 607.461 796.853 606.207 797.771 604.98 798.357 C 603.754 798.943 602.266 799.236 600.516 799.236 Z M 602.18 794.876 C 603.602 794.876 604.84 794.536 605.894 793.857 C 606.949 793.177 607.703 792.353 608.156 791.384 L 608.156 786.415 C 608.109 786.415 607.699 786.446 606.926 786.509 C 606.152 786.571 605.734 786.603 605.672 786.603 C 603.187 786.821 601.367 787.29 600.211 788.009 C 599.055 788.728 598.477 789.884 598.477 791.478 C 598.477 792.571 598.797 793.411 599.437 793.997 C 600.078 794.583 600.992 794.876 602.18 794.876 Z" style="fill:white;fill-rule:nonzero;"/>
  <path d="M 620.484 798.743 L 620.484 772.986 L 625.43 772.986 L 626.109 776.243 C 628.734 773.65 631.648 772.353 634.852 772.353 C 637.852 772.353 640.098 773.216 641.59 774.943 C 643.082 776.669 643.828 779.173 643.828 782.454 L 643.828 798.743 L 637.664 798.743 L 637.664 783.204 C 637.648 781.126 637.312 779.571 636.656 778.54 C 636 777.509 634.82 776.993 633.117 776.993 C 631.789 776.993 630.574 777.333 629.473 778.013 C 628.371 778.693 627.57 779.548 627.07 780.579 C 626.773 781.798 626.625 783.673 626.625 786.204 L 626.625 798.743 L 620.484 798.743 Z" style="fill:white;fill-rule:nonzero;"/>
  <path d="M 656.672 799.236 C 654.281 799.236 652.348 798.575 650.871 797.255 C 649.394 795.935 648.656 794.032 648.656 791.548 C 648.656 788.876 649.531 786.896 651.281 785.607 C 653.031 784.318 655.672 783.501 659.203 783.157 C 659.687 783.095 660.211 783.032 660.773 782.97 C 661.336 782.907 661.969 782.845 662.672 782.782 C 663.375 782.72 663.93 782.665 664.336 782.618 L 664.336 781.259 C 664.336 779.696 663.977 778.56 663.258 777.849 C 662.539 777.138 661.445 776.782 659.977 776.782 C 657.883 776.782 655.297 777.368 652.219 778.54 C 652.203 778.493 651.945 777.782 651.445 776.407 C 650.945 775.032 650.687 774.329 650.672 774.298 C 653.703 773.001 656.984 772.353 660.516 772.353 C 663.984 772.353 666.508 773.107 668.086 774.614 C 669.664 776.122 670.453 778.564 670.453 781.939 L 670.453 798.743 L 665.906 798.743 C 665.891 798.681 665.719 798.157 665.391 797.173 C 665.062 796.189 664.898 795.665 664.898 795.603 C 663.617 796.853 662.363 797.771 661.137 798.357 C 659.91 798.943 658.422 799.236 656.672 799.236 Z M 658.336 794.876 C 659.758 794.876 660.996 794.536 662.051 793.857 C 663.105 793.177 663.859 792.353 664.312 791.384 L 664.312 786.415 C 664.266 786.415 663.855 786.446 663.082 786.509 C 662.309 786.571 661.891 786.603 661.828 786.603 C 659.344 786.821 657.523 787.29 656.367 788.009 C 655.211 788.728 654.633 789.884 654.633 791.478 C 654.633 792.571 654.953 793.411 655.594 793.997 C 656.234 794.583 657.148 794.876 658.336 794.876 Z" style="fill:white;fill-rule:nonzero;"/>
  <path d="M 681.797 810.275 L 681.445 805.306 L 684.562 805.306 C 688.172 805.306 690.695 804.825 692.133 803.864 C 693.57 802.904 694.289 801.142 694.289 798.579 C 694.289 797.532 694.242 796.4 694.148 795.181 C 693.742 795.743 693.355 796.208 692.988 796.575 C 692.621 796.943 692.16 797.306 691.605 797.665 C 691.051 798.025 690.387 798.294 689.613 798.474 C 688.84 798.654 687.961 798.743 686.977 798.743 C 683.57 798.743 680.769 797.517 678.574 795.064 C 676.379 792.611 675.281 789.446 675.281 785.571 C 675.281 783.509 675.586 781.63 676.195 779.935 C 676.805 778.239 677.633 776.845 678.68 775.751 C 679.727 774.657 680.934 773.818 682.301 773.232 C 683.668 772.646 685.125 772.353 686.672 772.353 C 690.125 772.353 692.695 773.611 694.383 776.126 L 694.805 772.986 L 700.289 772.986 L 700.289 796.915 C 700.289 798.196 700.227 799.349 700.102 800.372 C 699.977 801.396 699.758 802.38 699.445 803.325 C 699.133 804.271 698.723 805.095 698.215 805.798 C 697.707 806.501 697.07 807.142 696.305 807.72 C 695.539 808.298 694.637 808.771 693.598 809.138 C 692.559 809.505 691.352 809.786 689.977 809.982 C 688.602 810.177 687.055 810.275 685.336 810.275 L 681.797 810.275 Z M 687.961 794.454 C 692.195 794.454 694.336 791.618 694.383 785.946 L 694.383 785.056 C 694.352 782.509 693.82 780.54 692.789 779.15 C 691.758 777.759 690.25 777.056 688.266 777.04 C 686.016 777.04 684.312 777.81 683.156 779.349 C 682 780.888 681.422 782.962 681.422 785.571 C 681.422 788.087 682.004 790.196 683.168 791.9 C 684.332 793.603 685.93 794.454 687.961 794.454 Z" style="fill:white;fill-rule:nonzero;"/>
  <path d="M 718.242 799.236 C 714.102 799.236 710.879 798.044 708.574 795.661 C 706.269 793.279 705.117 789.986 705.117 785.782 C 705.117 781.689 706.203 778.431 708.375 776.009 C 710.547 773.587 713.508 772.368 717.258 772.353 C 720.805 772.353 723.559 773.462 725.519 775.681 C 727.48 777.9 728.461 780.845 728.461 784.517 C 728.461 784.782 728.457 785.212 728.449 785.806 C 728.441 786.4 728.437 786.837 728.437 787.118 L 711.305 787.118 C 711.367 789.525 712.027 791.388 713.285 792.708 C 714.543 794.029 716.273 794.689 718.477 794.689 C 721.289 794.689 723.992 793.954 726.586 792.486 L 727.453 796.845 C 724.875 798.439 721.805 799.236 718.242 799.236 Z M 711.422 783.251 L 722.672 783.251 C 722.672 781.157 722.195 779.548 721.242 778.423 C 720.289 777.298 718.969 776.736 717.281 776.736 C 715.703 776.736 714.371 777.282 713.285 778.376 C 712.199 779.47 711.578 781.095 711.422 783.251 Z" style="fill:white;fill-rule:nonzero;"/>
  <path d="M 733.477 798.743 L 733.477 772.986 L 738.633 772.986 L 739.43 776.923 C 741.117 774.22 743.562 772.868 746.766 772.868 C 747.437 772.868 747.984 772.9 748.406 772.962 L 748.312 778.095 C 747.687 778.001 747.039 777.954 746.367 777.954 C 744.102 777.954 742.41 778.556 741.293 779.759 C 740.176 780.962 739.617 782.634 739.617 784.775 L 739.617 798.743 L 733.477 798.743 Z" style="fill:white;fill-rule:nonzero;"/>
  <path d="M 480 360 C 457.938 360 440 377.938 440 400 L 440 540 L 412 540 C 405.375 540 400 545.375 400 552 C 400 578.5 421.5 600 448 600 L 600 600 L 600 540 L 480 540 L 480 400 L 680 400 L 680 420 L 720 420 L 720 400 C 720 377.938 702.063 360 680 360 L 480 360 Z M 720 440 L 650 440 C 633.438 440 620 453.438 620 470 L 620 650 C 620 666.563 633.438 680 650 680 L 770 680 C 786.563 680 800 666.563 800 650 L 800 520 L 740 520 C 728.938 520 720 511.063 720 500 L 720 440 Z M 740 440 L 740 500 L 800 500 L 740 440 Z" style="fill:white;fill-rule:nonzero;"/>
</svg>