<?xml version="1.0" encoding="UTF-8" standalone="no"?>
<!DOCTYPE svg PUBLIC "-//W3C//DTD SVG 1.1//EN" "http://www.w3.org/Graphics/SVG/1.1/DTD/svg11.dtd">
<svg width="100%" height="100%" viewBox="0 0 1200 1080" version="1.1" xmlns="http://www.w3.org/2000/svg" xmlns:xlink="http://www.w3.org/1999/xlink" xml:space="preserve" xmlns:serif="http://www.serif.com/" style="fill-rule:evenodd;clip-rule:evenodd;stroke-linejoin:round;stroke-miterlimit:2;">
    <rect id="Artboard1" x="0" y="0" width="1200" height="1080" style="fill:none;"/>
    <g id="Artboard11" serif:id="Artboard1">
        <g transform="matrix(1,0,0,1.09091,-720,207.273)">
            <rect x="720" y="-190" width="1200" height="990" style="fill:rgb(46,46,46);"/>
        </g>
        <g transform="matrix(0.707107,-0.707107,0.707107,0.707107,-575.938,-155.145)">
            <path d="M-466.129,1280.63L207,607.5L207,1953.76L-466.129,1280.63Z" style="fill:rgb(51,51,51);"/>
        </g>
        <g id="hatari.svg">
            <g transform="matrix(1,0,0,1,17.8621,-41.6765)">
                <path d="M517.122,840.419L517.122,806.083L523.474,806.083L523.474,820.122L538.99,820.122L538.99,806.083L545.341,806.083L545.341,840.419L538.99,840.419L538.99,825.138L523.474,825.138L523.474,840.419L517.122,840.419Z" style="fill:white;fill-rule:nonzero;"/>
                <path d="M558.958,840.912C556.568,840.912 554.634,840.251 553.157,838.931C551.681,837.611 550.943,835.708 550.943,833.224C550.943,830.552 551.818,828.572 553.568,827.283C555.318,825.994 557.958,825.177 561.49,824.833C561.974,824.771 562.497,824.708 563.06,824.646C563.622,824.583 564.255,824.521 564.958,824.458C565.661,824.396 566.216,824.341 566.622,824.294L566.622,822.935C566.622,821.372 566.263,820.236 565.544,819.525C564.825,818.814 563.732,818.458 562.263,818.458C560.169,818.458 557.583,819.044 554.505,820.216C554.49,820.169 554.232,819.458 553.732,818.083C553.232,816.708 552.974,816.005 552.958,815.974C555.99,814.677 559.271,814.029 562.802,814.029C566.271,814.029 568.794,814.783 570.372,816.29C571.95,817.798 572.74,820.24 572.74,823.615L572.74,840.419L568.193,840.419C568.177,840.357 568.005,839.833 567.677,838.849C567.349,837.865 567.185,837.341 567.185,837.279C565.904,838.529 564.65,839.447 563.423,840.033C562.197,840.619 560.708,840.912 558.958,840.912ZM560.622,836.552C562.044,836.552 563.282,836.212 564.337,835.533C565.392,834.853 566.146,834.029 566.599,833.06L566.599,828.091C566.552,828.091 566.142,828.122 565.368,828.185C564.595,828.247 564.177,828.279 564.115,828.279C561.63,828.497 559.81,828.966 558.654,829.685C557.497,830.404 556.919,831.56 556.919,833.154C556.919,834.247 557.24,835.087 557.88,835.673C558.521,836.259 559.435,836.552 560.622,836.552Z" style="fill:white;fill-rule:nonzero;"/>
                <path d="M589.216,840.771C587.466,840.771 586.009,840.564 584.845,840.15C583.681,839.736 582.771,839.083 582.115,838.193C581.458,837.302 580.993,836.251 580.72,835.04C580.447,833.83 580.31,832.333 580.31,830.552L580.31,818.388L576.091,818.388L576.325,815.06L580.732,814.662L582.7,807.677L586.45,807.654L586.45,814.662L592.849,814.662L592.849,818.388L586.45,818.388L586.45,830.669C586.45,832.622 586.732,834.013 587.294,834.841C587.857,835.669 588.896,836.083 590.411,836.083C591.302,836.083 592.255,836.005 593.271,835.849L593.435,840.255C593.404,840.255 593.212,840.29 592.861,840.361C592.509,840.431 592.173,840.494 591.853,840.548C591.532,840.603 591.122,840.654 590.622,840.701C590.122,840.747 589.654,840.771 589.216,840.771Z" style="fill:white;fill-rule:nonzero;"/>
                <path d="M604.521,840.912C602.13,840.912 600.197,840.251 598.72,838.931C597.243,837.611 596.505,835.708 596.505,833.224C596.505,830.552 597.38,828.572 599.13,827.283C600.88,825.994 603.521,825.177 607.052,824.833C607.536,824.771 608.06,824.708 608.622,824.646C609.185,824.583 609.818,824.521 610.521,824.458C611.224,824.396 611.779,824.341 612.185,824.294L612.185,822.935C612.185,821.372 611.825,820.236 611.107,819.525C610.388,818.814 609.294,818.458 607.825,818.458C605.732,818.458 603.146,819.044 600.068,820.216C600.052,820.169 599.794,819.458 599.294,818.083C598.794,816.708 598.536,816.005 598.521,815.974C601.552,814.677 604.833,814.029 608.365,814.029C611.833,814.029 614.357,814.783 615.935,816.29C617.513,817.798 618.302,820.24 618.302,823.615L618.302,840.419L613.755,840.419C613.74,840.357 613.568,839.833 613.24,838.849C612.911,837.865 612.747,837.341 612.747,837.279C611.466,838.529 610.212,839.447 608.986,840.033C607.759,840.619 606.271,840.912 604.521,840.912ZM606.185,836.552C607.607,836.552 608.845,836.212 609.9,835.533C610.954,834.853 611.708,834.029 612.161,833.06L612.161,828.091C612.115,828.091 611.704,828.122 610.931,828.185C610.157,828.247 609.74,828.279 609.677,828.279C607.193,828.497 605.372,828.966 604.216,829.685C603.06,830.404 602.482,831.56 602.482,833.154C602.482,834.247 602.802,835.087 603.443,835.673C604.083,836.259 604.997,836.552 606.185,836.552Z" style="fill:white;fill-rule:nonzero;"/>
                <path d="M624.513,840.419L624.513,814.662L629.669,814.662L630.466,818.599C632.154,815.896 634.599,814.544 637.802,814.544C638.474,814.544 639.021,814.576 639.443,814.638L639.349,819.771C638.724,819.677 638.075,819.63 637.404,819.63C635.138,819.63 633.447,820.232 632.329,821.435C631.212,822.638 630.654,824.31 630.654,826.451L630.654,840.419L624.513,840.419Z" style="fill:white;fill-rule:nonzero;"/>
                <path d="M643.333,840.419L643.333,814.662L649.474,814.662L649.474,840.419L643.333,840.419ZM643.333,810.912L643.333,805.662L649.497,805.662L649.497,810.912L643.333,810.912Z" style="fill:white;fill-rule:nonzero;"/>
            </g>
            <g transform="matrix(6.67635,0,0,6.67635,-2723.96,-1951.35)">
                <path d="M474.575,341.706L492.751,341.706L492.751,361.077L502.905,361.077L502.905,341.706L521.167,341.706L521.167,398.623L502.905,398.623L502.905,377.546L492.751,377.546L492.751,398.623L474.575,398.623L474.575,341.706Z" style="fill:white;fill-rule:nonzero;"/>
            </g>
        </g>
    </g>
</svg>
