<?xml version="1.0" encoding="utf-8"?>
<svg width="100%" height="100%" viewBox="0 0 1200 1080" version="1.1" xmlns="http://www.w3.org/2000/svg" style="fill-rule:evenodd;clip-rule:evenodd;stroke-linejoin:round;stroke-miterlimit:2;">
  <rect id="Artboard1" x="0" y="0" width="1200" height="1080" style="fill:none;"/>
  <rect width="1200" height="1080.001" style="fill:rgb(46,46,46);"/>
  <path d="M -98.576 842.013 L 574.553 168.883 L 574.553 1515.144 L -98.576 842.013 Z" style="fill: rgb(51, 51, 51); transform-box: fill-box; transform-origin: 50% 50%;" transform="matrix(0.707107, -0.707107, 0.707107, 0.707107, -0.000006, -0.000008)"/>
  <path d="M 534.984 798.743 L 534.984 764.407 L 541.336 764.407 L 541.336 778.446 L 556.852 778.446 L 556.852 764.407 L 563.203 764.407 L 563.203 798.743 L 556.852 798.743 L 556.852 783.462 L 541.336 783.462 L 541.336 798.743 L 534.984 798.743 Z" style="fill:white;fill-rule:nonzero;"/>
  <path d="M 576.82 799.236 C 574.43 799.236 572.496 798.575 571.019 797.255 C 569.543 795.935 568.805 794.032 568.805 791.548 C 568.805 788.876 569.68 786.896 571.43 785.607 C 573.18 784.318 575.82 783.501 579.352 783.157 C 579.836 783.095 580.359 783.032 580.922 782.97 C 581.484 782.907 582.117 782.845 582.82 782.782 C 583.523 782.72 584.078 782.665 584.484 782.618 L 584.484 781.259 C 584.484 779.696 584.125 778.56 583.406 777.849 C 582.687 777.138 581.594 776.782 580.125 776.782 C 578.031 776.782 575.445 777.368 572.367 778.54 C 572.352 778.493 572.094 777.782 571.594 776.407 C 571.094 775.032 570.836 774.329 570.82 774.298 C 573.852 773.001 577.133 772.353 580.664 772.353 C 584.133 772.353 586.656 773.107 588.234 774.614 C 589.812 776.122 590.602 778.564 590.602 781.939 L 590.602 798.743 L 586.055 798.743 C 586.039 798.681 585.867 798.157 585.539 797.173 C 585.211 796.189 585.047 795.665 585.047 795.603 C 583.766 796.853 582.512 797.771 581.285 798.357 C 580.059 798.943 578.57 799.236 576.82 799.236 Z M 578.484 794.876 C 579.906 794.876 581.144 794.536 582.199 793.857 C 583.254 793.177 584.008 792.353 584.461 791.384 L 584.461 786.415 C 584.414 786.415 584.004 786.446 583.23 786.509 C 582.457 786.571 582.039 786.603 581.977 786.603 C 579.492 786.821 577.672 787.29 576.516 788.009 C 575.359 788.728 574.781 789.884 574.781 791.478 C 574.781 792.571 575.102 793.411 575.742 793.997 C 576.383 794.583 577.297 794.876 578.484 794.876 Z" style="fill:white;fill-rule:nonzero;"/>
  <path d="M 607.078 799.095 C 605.328 799.095 603.871 798.888 602.707 798.474 C 601.543 798.06 600.633 797.407 599.977 796.517 C 599.32 795.626 598.855 794.575 598.582 793.364 C 598.309 792.154 598.172 790.657 598.172 788.876 L 598.172 776.712 L 593.953 776.712 L 594.187 773.384 L 598.594 772.986 L 600.562 766.001 L 604.312 765.978 L 604.312 772.986 L 610.711 772.986 L 610.711 776.712 L 604.312 776.712 L 604.312 788.993 C 604.312 790.946 604.594 792.337 605.156 793.165 C 605.719 793.993 606.758 794.407 608.273 794.407 C 609.164 794.407 610.117 794.329 611.133 794.173 L 611.297 798.579 C 611.266 798.579 611.074 798.614 610.723 798.685 C 610.371 798.755 610.035 798.818 609.715 798.872 C 609.394 798.927 608.984 798.978 608.484 799.025 C 607.984 799.071 607.516 799.095 607.078 799.095 Z" style="fill:white;fill-rule:nonzero;"/>
  <path d="M 622.383 799.236 C 619.992 799.236 618.059 798.575 616.582 797.255 C 615.105 795.935 614.367 794.032 614.367 791.548 C 614.367 788.876 615.242 786.896 616.992 785.607 C 618.742 784.318 621.383 783.501 624.914 783.157 C 625.398 783.095 625.922 783.032 626.484 782.97 C 627.047 782.907 627.68 782.845 628.383 782.782 C 629.086 782.72 629.641 782.665 630.047 782.618 L 630.047 781.259 C 630.047 779.696 629.687 778.56 628.969 777.849 C 628.25 777.138 627.156 776.782 625.687 776.782 C 623.594 776.782 621.008 777.368 617.93 778.54 C 617.914 778.493 617.656 777.782 617.156 776.407 C 616.656 775.032 616.398 774.329 616.383 774.298 C 619.414 773.001 622.695 772.353 626.227 772.353 C 629.695 772.353 632.219 773.107 633.797 774.614 C 635.375 776.122 636.164 778.564 636.164 781.939 L 636.164 798.743 L 631.617 798.743 C 631.602 798.681 631.43 798.157 631.102 797.173 C 630.773 796.189 630.609 795.665 630.609 795.603 C 629.328 796.853 628.074 797.771 626.848 798.357 C 625.621 798.943 624.133 799.236 622.383 799.236 Z M 624.047 794.876 C 625.469 794.876 626.707 794.536 627.762 793.857 C 628.816 793.177 629.57 792.353 630.023 791.384 L 630.023 786.415 C 629.977 786.415 629.566 786.446 628.793 786.509 C 628.019 786.571 627.602 786.603 627.539 786.603 C 625.055 786.821 623.234 787.29 622.078 788.009 C 620.922 788.728 620.344 789.884 620.344 791.478 C 620.344 792.571 620.664 793.411 621.305 793.997 C 621.945 794.583 622.859 794.876 624.047 794.876 Z" style="fill:white;fill-rule:nonzero;"/>
  <path d="M 642.375 798.743 L 642.375 772.986 L 647.531 772.986 L 648.328 776.923 C 650.016 774.22 652.461 772.868 655.664 772.868 C 656.336 772.868 656.883 772.9 657.305 772.962 L 657.211 778.095 C 656.586 778.001 655.937 777.954 655.266 777.954 C 653 777.954 651.309 778.556 650.191 779.759 C 649.074 780.962 648.516 782.634 648.516 784.775 L 648.516 798.743 L 642.375 798.743 Z" style="fill:white;fill-rule:nonzero;"/>
  <path d="M 661.195 798.743 L 661.195 772.986 L 667.336 772.986 L 667.336 798.743 L 661.195 798.743 Z M 661.195 769.236 L 661.195 763.986 L 667.359 763.986 L 667.359 769.236 L 661.195 769.236 Z" style="fill:white;fill-rule:nonzero;"/>
  <path d="M 444.469 329.999 L 565.818 329.999 L 565.818 459.326 L 633.61 459.326 L 633.61 329.999 L 755.533 329.999 L 755.533 709.997 L 633.61 709.997 L 633.61 569.279 L 565.818 569.279 L 565.818 709.997 L 444.469 709.997 L 444.469 329.999 Z" style="fill:white;fill-rule:nonzero;"/>
</svg>