<?xml version="1.0" encoding="utf-8"?>
<svg width="100%" height="100%" viewBox="0 0 1200 1080" version="1.1" xmlns="http://www.w3.org/2000/svg" style="fill-rule:evenodd;clip-rule:evenodd;stroke-linejoin:round;stroke-miterlimit:2;">
  <path d="M 0 0 H 1200 V 1080.001 H 0 V 0 Z" style="fill:rgb(46,46,46);"/>
  <path d="M -98.576 842.013 L 574.553 168.883 L 574.553 1515.144 L -98.576 842.013 Z" style="fill: rgb(51, 51, 51); transform-box: fill-box; transform-origin: 50% 50%;" transform="matrix(0.707107, -0.707107, 0.707107, 0.707107, -0.000006, -0.000008)"/>
  <path d="M 668.673 328.476 C 656.637 338.512 639.878 338.281 623.376 338.644 L 623.376 367.571 L 631.052 367.571 C 644.711 367.571 647.88 370.92 647.88 385.161 L 647.88 405.649 C 639.794 401.3 631.387 394.769 612.444 394.769 C 588.679 394.769 570.221 407.19 555.199 423.342 L 555.199 515.667 C 555.199 521.607 567.09 530.714 577.672 530.714 L 577.672 550.947 C 553.347 541.533 537.813 509.852 537.813 476.824 C 537.813 458.097 545.796 439.008 555.199 423.342 L 555.199 399.499 L 533.95 399.499 C 530.392 399.499 530.05 399.579 529.069 399.752 L 478.432 408.699 L 479.145 433.407 L 486.363 433.407 C 496.96 433.407 502.037 440.953 502.582 448.66 L 507.055 511.802 C 507.591 519.402 501.596 526.036 493.99 526.036 C 486.469 526.036 477.619 531.533 478.281 539.255 L 483.058 594.771 C 483.607 601.178 485.978 609.362 497.295 609.362 L 698.669 609.362 C 711.777 609.362 716.861 605.056 717.479 597.414 L 722.105 540.424 C 722.892 530.664 716.321 527.856 708.785 526.393 C 697.618 524.225 695.945 516.073 696.483 503.464 L 703.956 328.476 L 668.673 328.476 Z M 622.662 427.104 C 633.395 427.104 641.158 435.171 648.133 442.051 L 648.133 512.513 C 640.302 520.42 629.476 528.477 618.495 528.477 C 598.739 528.477 590.026 499.787 590.026 482.315 C 590.026 459.038 601.565 427.104 622.662 427.104 Z M 622.41 556.591 C 634.057 556.656 646.305 560.718 646.305 575.86 L 622.459 575.86 L 622.511 566.2 C 622.511 564.858 620.6 563.759 619.055 563.759 C 617.105 563.759 614.58 564.339 614.58 566.403 L 614.58 590.197 C 614.58 591.85 615.41 593.856 618.75 593.856 C 620.514 593.856 622.41 593.141 622.41 590.908 L 622.41 582.57 L 645.794 582.57 C 645.794 599.684 630.587 600.566 617.63 600.566 C 597.818 600.566 592.211 595.529 592.211 587.959 L 592.211 569.302 C 592.211 557.106 609.526 556.643 620.071 556.643 C 620.838 556.613 621.633 556.587 622.41 556.591 Z M 545.744 557.099 L 584.28 557.659 L 584.28 566.861 L 569.181 566.861 L 569.181 574.181 L 584.433 574.181 L 584.433 581.807 L 569.486 581.656 L 569.741 591.163 L 586.416 591.163 L 586.262 600.058 L 548.031 600.058 L 545.744 557.099 Z M 707.668 557.607 L 704.769 599.805 L 682.043 599.805 L 682.754 582.265 L 677.011 582.265 L 675.79 600.058 L 653.168 600.058 L 654.03 557.862 L 678.18 557.659 L 677.469 573.318 L 683.213 573.318 L 683.721 557.709 L 707.668 557.607 Z M 490.228 557.811 L 540.863 557.811 L 540.863 567.166 L 527.9 567.166 L 529.069 600.212 L 506.343 600.212 L 504.919 566.557 L 490.786 566.557 L 490.228 557.811 Z" style="fill:white;fill-rule:nonzero;"/>
  <path d="M 555.8 355.2 C 555.8 372.911 541.445 387.269 523.734 387.269 C 506.024 387.269 491.668 372.911 491.668 355.2 C 491.668 337.492 506.024 323.134 523.734 323.134 C 541.445 323.134 555.8 337.492 555.8 355.2 Z" style="fill:white;fill-rule:nonzero;"/>
  <path d="M 599.977 257.061 C 492.004 257.078 434.532 309.323 439.426 364.076 L 461.388 609.122 C 464.11 629.351 488.327 634.476 490.164 650.098 L 492.605 671.045 C 493.921 675.963 500.841 678.314 500.841 681.466 L 500.841 686.042 C 500.841 689.521 495.603 690.794 495.603 693.21 L 495.603 698.498 C 495.603 702.43 505.467 705.506 505.467 708.768 L 505.467 711.868 C 505.467 715.197 498.858 715.141 498.858 719.341 L 498.858 724.274 C 498.858 729.593 512.736 730.114 512.736 736.221 C 512.736 741.738 506.076 739.25 506.076 743.642 L 506.076 749.338 C 506.076 751.865 509.751 755.235 512.635 755.235 L 518.076 755.235 C 520.782 755.235 522.109 755.762 524.176 756.657 C 540.851 763.886 565.87 775.622 570.236 775.622 C 571.648 775.622 572.651 775.429 573.844 775.213 C 578.001 777.613 580.833 782.941 588.081 782.941 L 611.924 782.941 C 619.172 782.941 622.004 777.613 626.159 775.213 C 627.352 775.429 628.357 775.622 629.769 775.622 C 634.133 775.622 659.154 763.886 675.829 756.657 C 677.894 755.762 679.223 755.235 681.93 755.235 L 687.368 755.235 C 690.254 755.235 693.927 751.865 693.927 749.338 L 693.927 743.642 C 693.927 739.25 687.269 741.738 687.269 736.221 C 687.269 730.114 701.147 729.593 701.147 724.274 L 701.147 719.341 C 701.147 715.141 694.538 715.197 694.538 711.868 L 694.538 708.768 C 694.538 705.506 704.4 702.43 704.4 698.498 L 704.4 693.21 C 704.4 690.794 699.164 689.521 699.164 686.042 L 699.164 681.466 C 699.164 678.314 706.082 675.963 707.4 671.045 L 709.841 650.098 C 711.678 634.476 735.893 629.351 738.615 609.122 L 760.577 364.076 C 765.471 309.323 708.001 257.078 600.028 257.061 L 599.977 257.061 Z M 600.333 274.093 L 600.536 274.093 C 720.599 274.093 752.238 324.371 747.359 377.55 L 727.227 597.276 C 726.784 602.109 727.078 606.134 724.583 608.869 C 715.744 618.553 704.528 622.572 698.3 638.252 C 694.778 647.117 692.893 662.504 684.065 662.504 L 676.082 662.504 C 670.079 662.504 665.585 667.91 664.746 671.045 C 658.268 695.221 641.796 722.605 600.789 722.901 C 600.567 722.903 600.355 722.901 600.13 722.901 C 559.117 722.609 542.652 695.223 536.173 671.045 C 535.334 667.91 530.788 662.504 524.785 662.504 L 516.805 662.504 C 507.974 662.504 506.089 647.117 502.568 638.252 C 496.34 622.572 485.123 618.553 476.284 608.869 C 473.79 606.134 474.136 602.109 473.692 597.276 L 453.509 377.55 C 448.63 324.371 480.268 274.093 600.333 274.093 Z" style="fill:white;fill-rule:nonzero;"/>
</svg>