<?xml version="1.0" encoding="UTF-8" standalone="no"?>
<!DOCTYPE svg PUBLIC "-//W3C//DTD SVG 1.1//EN" "http://www.w3.org/Graphics/SVG/1.1/DTD/svg11.dtd">
<svg width="100%" height="100%" viewBox="0 0 1200 1080" version="1.1" xmlns="http://www.w3.org/2000/svg" xmlns:xlink="http://www.w3.org/1999/xlink" xml:space="preserve" xmlns:serif="http://www.serif.com/" style="fill-rule:evenodd;clip-rule:evenodd;stroke-linejoin:round;stroke-miterlimit:2;">
    <g transform="matrix(1,0,0,1.09091,-720,207.273)">
        <rect x="720" y="-190" width="1200" height="990" style="fill:rgb(46,46,46);"/>
    </g>
    <g transform="matrix(0.707107,-0.707107,0.707107,0.707107,-575.938,-155.145)">
        <path d="M-466.129,1280.63L207,607.5L207,1953.76L-466.129,1280.63Z" style="fill:rgb(51,51,51);"/>
    </g>
    <g transform="matrix(1.31222,0,0,1.31222,-144.108,-100.494)">
        <g transform="matrix(0.164733,0,0,0.164733,-28.3454,-141.771)">
            <path d="M3931.36,2890.7C3875.68,2937.13 3798.15,2936.06 3721.81,2937.74L3721.81,3071.56L3757.32,3071.56C3820.51,3071.56 3835.17,3087.05 3835.17,3152.93L3835.17,3247.71C3797.76,3227.59 3758.87,3197.38 3671.24,3197.38C3561.3,3197.38 3475.91,3254.84 3406.42,3329.56L3406.42,3756.66C3406.42,3784.14 3461.43,3826.27 3510.38,3826.27L3510.38,3919.87C3397.85,3876.32 3325.99,3729.76 3325.99,3576.97C3325.99,3490.34 3362.92,3402.03 3406.42,3329.56L3406.42,3219.26L3308.12,3219.26C3291.66,3219.26 3290.08,3219.63 3285.54,3220.43L3051.29,3261.82L3054.59,3376.12L3087.98,3376.12C3137,3376.12 3160.49,3411.03 3163.01,3446.68L3183.7,3738.78C3186.18,3773.94 3158.45,3804.63 3123.26,3804.63C3088.47,3804.63 3047.53,3830.06 3050.59,3865.78L3072.69,4122.6C3075.23,4152.24 3086.2,4190.1 3138.55,4190.1L4070.12,4190.1C4130.76,4190.1 4154.28,4170.18 4157.14,4134.83L4178.54,3871.19C4182.18,3826.04 4151.78,3813.05 4116.92,3806.28C4065.26,3796.25 4057.52,3758.54 4060.01,3700.21L4094.58,2890.7L3931.36,2890.7ZM3718.51,3346.96C3768.16,3346.96 3804.07,3384.28 3836.34,3416.11L3836.34,3742.07C3800.11,3778.65 3750.03,3815.92 3699.23,3815.92C3607.84,3815.92 3567.53,3683.2 3567.53,3602.37C3567.53,3494.69 3620.91,3346.96 3718.51,3346.96ZM3717.34,3945.98C3771.22,3946.28 3827.88,3965.07 3827.88,4035.12L3717.57,4035.12L3717.81,3990.43C3717.81,3984.22 3708.97,3979.14 3701.82,3979.14C3692.8,3979.14 3681.12,3981.82 3681.12,3991.37L3681.12,4101.44C3681.12,4109.09 3684.96,4118.37 3700.41,4118.37C3708.57,4118.37 3717.34,4115.06 3717.34,4104.73L3717.34,4066.16L3825.52,4066.16C3825.52,4145.33 3755.17,4149.41 3695.23,4149.41C3603.58,4149.41 3577.64,4126.11 3577.64,4091.09L3577.64,4004.78C3577.64,3948.36 3657.74,3946.22 3706.52,3946.22C3710.07,3946.08 3713.75,3945.96 3717.34,3945.98L3717.34,3945.98ZM3362.68,3948.33L3540.95,3950.92L3540.95,3993.49L3471.1,3993.49L3471.1,4027.35L3541.66,4027.35L3541.66,4062.63L3472.51,4061.93L3473.69,4105.91L3550.83,4105.91L3550.12,4147.06L3373.26,4147.06L3362.68,3948.33L3362.68,3948.33ZM4111.75,3950.68L4098.34,4145.89L3993.21,4145.89L3996.5,4064.75L3969.93,4064.75L3964.28,4147.06L3859.63,4147.06L3863.62,3951.86L3975.34,3950.92L3972.05,4023.36L3998.62,4023.36L4000.97,3951.15L4111.75,3950.68ZM3105.86,3951.62L3340.1,3951.62L3340.1,3994.9L3280.13,3994.9L3285.54,4147.77L3180.41,4147.77L3173.82,3992.08L3108.44,3992.08L3105.86,3951.62Z" style="fill:white;fill-rule:nonzero;"/>
            <path d="M3409.2,3014.33C3409.2,3096.26 3342.79,3162.68 3260.86,3162.68C3178.93,3162.68 3112.52,3096.26 3112.52,3014.33C3112.52,2932.41 3178.93,2865.99 3260.86,2865.99C3342.79,2865.99 3409.2,2932.41 3409.2,3014.33Z" style="fill:white;fill-rule:nonzero;"/>
        </g>
        <g transform="matrix(0.164733,0,0,0.164733,59.0379,46.8451)">
            <path d="M3083.11,1415.35C2583.62,1415.43 2317.75,1657.12 2340.39,1910.41L2441.99,3044.01C2454.58,3137.59 2566.61,3161.3 2575.11,3233.57L2586.4,3330.47C2592.49,3353.22 2624.5,3364.1 2624.5,3378.68L2624.5,3399.85C2624.5,3415.94 2600.27,3421.83 2600.27,3433.01L2600.27,3457.47C2600.27,3475.66 2645.9,3489.89 2645.9,3504.98L2645.9,3519.32C2645.9,3534.72 2615.33,3534.46 2615.33,3553.89L2615.33,3576.71C2615.33,3601.32 2679.53,3603.73 2679.53,3631.98C2679.53,3657.5 2648.72,3645.99 2648.72,3666.31L2648.72,3692.66C2648.72,3704.35 2665.72,3719.94 2679.06,3719.94L2704.23,3719.94C2716.75,3719.94 2722.89,3722.38 2732.45,3726.52C2809.59,3759.96 2925.33,3814.25 2945.53,3814.25C2952.06,3814.25 2956.7,3813.36 2962.22,3812.36C2981.45,3823.46 2994.55,3848.11 3028.08,3848.11L3138.38,3848.11C3171.91,3848.11 3185.01,3823.46 3204.23,3812.36C3209.75,3813.36 3214.4,3814.25 3220.93,3814.25C3241.12,3814.25 3356.87,3759.96 3434.01,3726.52C3443.56,3722.38 3449.71,3719.94 3462.23,3719.94L3487.39,3719.94C3500.74,3719.94 3517.73,3704.35 3517.73,3692.66L3517.73,3666.31C3517.73,3645.99 3486.93,3657.5 3486.93,3631.98C3486.93,3603.73 3551.13,3601.32 3551.13,3576.71L3551.13,3553.89C3551.13,3534.46 3520.56,3534.72 3520.56,3519.32L3520.56,3504.98C3520.56,3489.89 3566.18,3475.66 3566.18,3457.47L3566.18,3433.01C3566.18,3421.83 3541.96,3415.94 3541.96,3399.85L3541.96,3378.68C3541.96,3364.1 3573.96,3353.22 3580.06,3330.47L3591.35,3233.57C3599.85,3161.3 3711.87,3137.59 3724.46,3044.01L3826.06,1910.41C3848.7,1657.12 3582.84,1415.43 3083.35,1415.35L3083.11,1415.35ZM3084.76,1494.14L3085.7,1494.14C3641.12,1494.14 3787.48,1726.73 3764.91,1972.74L3671.78,2989.21C3669.73,3011.57 3671.09,3030.19 3659.55,3042.84C3618.66,3087.64 3566.77,3106.23 3537.96,3178.77C3521.67,3219.78 3512.95,3290.96 3472.11,3290.96L3435.18,3290.96C3407.41,3290.96 3386.62,3315.97 3382.74,3330.47C3352.77,3442.31 3276.57,3568.99 3086.87,3570.36C3085.84,3570.37 3084.86,3570.36 3083.82,3570.36C2894.09,3569.01 2817.92,3442.32 2787.95,3330.47C2784.07,3315.97 2763.04,3290.96 2735.27,3290.96L2698.35,3290.96C2657.5,3290.96 2648.78,3219.78 2632.49,3178.77C2603.68,3106.23 2551.79,3087.64 2510.9,3042.84C2499.36,3030.19 2500.96,3011.57 2498.91,2989.21L2405.54,1972.74C2382.97,1726.73 2529.33,1494.14 3084.76,1494.14Z" style="fill:white;fill-rule:nonzero;"/>
        </g>
    </g>
</svg>
