<?xml version="1.0" encoding="utf-8"?>
<svg width="100%" height="100%" viewBox="0 0 1200 1080" version="1.1" xmlns="http://www.w3.org/2000/svg" style="fill-rule:evenodd;clip-rule:evenodd;stroke-linejoin:round;stroke-miterlimit:2;">
  <rect width="1200" height="1080.001" style="fill:rgb(46,46,46);"/>
  <path d="M -98.576 842.013 L 574.553 168.883 L 574.553 1515.144 L -98.576 842.013 Z" style="fill: rgb(51, 51, 51); transform-box: fill-box; transform-origin: 50% 50%;" transform="matrix(0.707107, -0.707107, 0.707107, 0.707107, -0.000006, -0.000008)"/>
  <rect x="405.785" y="764.407" width="6.352" height="34.336" style="fill:white;fill-rule:nonzero;"/>
  <path d="M 419.144 798.743 L 419.144 772.986 L 424.09 772.986 L 424.769 776.243 C 427.394 773.65 430.309 772.353 433.512 772.353 C 436.512 772.353 438.758 773.216 440.25 774.943 C 441.742 776.669 442.488 779.173 442.488 782.454 L 442.488 798.743 L 436.324 798.743 L 436.324 783.204 C 436.309 781.126 435.973 779.571 435.316 778.54 C 434.66 777.509 433.48 776.993 431.777 776.993 C 430.449 776.993 429.234 777.333 428.133 778.013 C 427.031 778.693 426.23 779.548 425.73 780.579 C 425.434 781.798 425.285 783.673 425.285 786.204 L 425.285 798.743 L 419.144 798.743 Z" style="fill:white;fill-rule:nonzero;"/>
  <path d="M 456.762 799.212 C 452.965 799.212 449.926 798.564 447.644 797.267 L 448.277 792.65 C 449.309 793.212 450.621 793.716 452.215 794.161 C 453.809 794.607 455.262 794.829 456.574 794.829 C 457.934 794.829 458.992 794.575 459.75 794.068 C 460.508 793.56 460.894 792.814 460.91 791.829 C 460.91 790.939 460.555 790.236 459.844 789.72 C 459.133 789.204 457.777 788.564 455.777 787.798 C 455.09 787.548 454.644 787.384 454.441 787.306 C 452.066 786.384 450.355 785.357 449.309 784.224 C 448.262 783.091 447.738 781.556 447.738 779.618 C 447.738 777.275 448.586 775.478 450.281 774.228 C 451.977 772.978 454.34 772.353 457.371 772.353 C 460.652 772.353 463.535 772.97 466.019 774.204 L 464.496 778.446 C 462.043 777.306 459.707 776.736 457.488 776.736 C 456.254 776.736 455.289 776.943 454.594 777.357 C 453.898 777.771 453.551 778.4 453.551 779.243 C 453.551 780.04 453.887 780.661 454.559 781.107 C 455.23 781.552 456.543 782.134 458.496 782.853 C 458.559 782.868 458.762 782.939 459.105 783.064 C 459.449 783.189 459.715 783.29 459.902 783.368 C 462.262 784.228 463.996 785.255 465.105 786.45 C 466.215 787.646 466.769 789.204 466.769 791.126 C 466.754 793.704 465.879 795.696 464.144 797.103 C 462.41 798.509 459.949 799.212 456.762 799.212 Z" style="fill:white;fill-rule:nonzero;"/>
  <path d="M 481.91 799.095 C 480.16 799.095 478.703 798.888 477.539 798.474 C 476.375 798.06 475.465 797.407 474.809 796.517 C 474.152 795.626 473.687 794.575 473.414 793.364 C 473.141 792.154 473.004 790.657 473.004 788.876 L 473.004 776.712 L 468.785 776.712 L 469.019 773.384 L 473.426 772.986 L 475.394 766.001 L 479.144 765.978 L 479.144 772.986 L 485.543 772.986 L 485.543 776.712 L 479.144 776.712 L 479.144 788.993 C 479.144 790.946 479.426 792.337 479.988 793.165 C 480.551 793.993 481.59 794.407 483.105 794.407 C 483.996 794.407 484.949 794.329 485.965 794.173 L 486.129 798.579 C 486.098 798.579 485.906 798.614 485.555 798.685 C 485.203 798.755 484.867 798.818 484.547 798.872 C 484.227 798.927 483.816 798.978 483.316 799.025 C 482.816 799.071 482.348 799.095 481.91 799.095 Z" style="fill:white;fill-rule:nonzero;"/>
  <path d="M 497.215 799.236 C 494.824 799.236 492.891 798.575 491.414 797.255 C 489.937 795.935 489.199 794.032 489.199 791.548 C 489.199 788.876 490.074 786.896 491.824 785.607 C 493.574 784.318 496.215 783.501 499.746 783.157 C 500.23 783.095 500.754 783.032 501.316 782.97 C 501.879 782.907 502.512 782.845 503.215 782.782 C 503.918 782.72 504.473 782.665 504.879 782.618 L 504.879 781.259 C 504.879 779.696 504.519 778.56 503.801 777.849 C 503.082 777.138 501.988 776.782 500.519 776.782 C 498.426 776.782 495.84 777.368 492.762 778.54 C 492.746 778.493 492.488 777.782 491.988 776.407 C 491.488 775.032 491.23 774.329 491.215 774.298 C 494.246 773.001 497.527 772.353 501.059 772.353 C 504.527 772.353 507.051 773.107 508.629 774.614 C 510.207 776.122 510.996 778.564 510.996 781.939 L 510.996 798.743 L 506.449 798.743 C 506.434 798.681 506.262 798.157 505.934 797.173 C 505.605 796.189 505.441 795.665 505.441 795.603 C 504.16 796.853 502.906 797.771 501.68 798.357 C 500.453 798.943 498.965 799.236 497.215 799.236 Z M 498.879 794.876 C 500.301 794.876 501.539 794.536 502.594 793.857 C 503.648 793.177 504.402 792.353 504.855 791.384 L 504.855 786.415 C 504.809 786.415 504.398 786.446 503.625 786.509 C 502.852 786.571 502.434 786.603 502.371 786.603 C 499.887 786.821 498.066 787.29 496.91 788.009 C 495.754 788.728 495.176 789.884 495.176 791.478 C 495.176 792.571 495.496 793.411 496.137 793.997 C 496.777 794.583 497.691 794.876 498.879 794.876 Z" style="fill:white;fill-rule:nonzero;"/>
  <path d="M 526.207 799.095 C 524.441 799.095 522.977 798.888 521.812 798.474 C 520.648 798.06 519.73 797.4 519.059 796.493 C 518.387 795.587 517.918 794.509 517.652 793.259 C 517.387 792.009 517.254 790.454 517.254 788.595 L 517.254 763.493 L 523.394 763.095 L 523.394 788.478 C 523.394 790.79 523.668 792.357 524.215 793.177 C 524.762 793.997 525.824 794.407 527.402 794.407 C 528.184 794.407 529.176 794.321 530.379 794.15 L 530.543 798.532 C 530.527 798.532 530.336 798.571 529.969 798.65 C 529.602 798.728 529.25 798.794 528.914 798.849 C 528.578 798.904 528.152 798.958 527.637 799.013 C 527.121 799.068 526.644 799.095 526.207 799.095 Z" style="fill:white;fill-rule:nonzero;"/>
  <path d="M 542.613 799.095 C 540.848 799.095 539.383 798.888 538.219 798.474 C 537.055 798.06 536.137 797.4 535.465 796.493 C 534.793 795.587 534.324 794.509 534.059 793.259 C 533.793 792.009 533.66 790.454 533.66 788.595 L 533.66 763.493 L 539.801 763.095 L 539.801 788.478 C 539.801 790.79 540.074 792.357 540.621 793.177 C 541.168 793.997 542.23 794.407 543.809 794.407 C 544.59 794.407 545.582 794.321 546.785 794.15 L 546.949 798.532 C 546.934 798.532 546.742 798.571 546.375 798.65 C 546.008 798.728 545.656 798.794 545.32 798.849 C 544.984 798.904 544.559 798.958 544.043 799.013 C 543.527 799.068 543.051 799.095 542.613 799.095 Z" style="fill:white;fill-rule:nonzero;"/>
  <path d="M 572.965 799.095 C 571.215 799.095 569.758 798.888 568.594 798.474 C 567.43 798.06 566.519 797.407 565.863 796.517 C 565.207 795.626 564.742 794.575 564.469 793.364 C 564.195 792.154 564.059 790.657 564.059 788.876 L 564.059 776.712 L 559.84 776.712 L 560.074 773.384 L 564.48 772.986 L 566.449 766.001 L 570.199 765.978 L 570.199 772.986 L 576.598 772.986 L 576.598 776.712 L 570.199 776.712 L 570.199 788.993 C 570.199 790.946 570.48 792.337 571.043 793.165 C 571.605 793.993 572.644 794.407 574.16 794.407 C 575.051 794.407 576.004 794.329 577.019 794.173 L 577.184 798.579 C 577.152 798.579 576.961 798.614 576.609 798.685 C 576.258 798.755 575.922 798.818 575.602 798.872 C 575.281 798.927 574.871 798.978 574.371 799.025 C 573.871 799.071 573.402 799.095 572.965 799.095 Z" style="fill:white;fill-rule:nonzero;"/>
  <path d="M 592.512 794.571 C 594.59 794.571 596.152 793.814 597.199 792.298 C 598.246 790.782 598.769 788.611 598.769 785.782 C 598.769 782.923 598.246 780.743 597.199 779.243 C 596.152 777.743 594.574 776.993 592.465 776.993 C 590.387 776.993 588.82 777.747 587.766 779.255 C 586.711 780.763 586.184 782.946 586.184 785.806 C 586.184 788.618 586.715 790.782 587.777 792.298 C 588.84 793.814 590.418 794.571 592.512 794.571 Z M 592.348 799.236 C 588.535 799.236 585.535 798.001 583.348 795.532 C 581.16 793.064 580.066 789.814 580.066 785.782 C 580.066 781.626 581.16 778.349 583.348 775.95 C 585.535 773.552 588.621 772.353 592.605 772.353 C 596.449 772.353 599.461 773.575 601.641 776.021 C 603.82 778.466 604.91 781.72 604.91 785.782 C 604.91 789.892 603.809 793.161 601.605 795.591 C 599.402 798.021 596.316 799.236 592.348 799.236 Z" style="fill:white;fill-rule:nonzero;"/>
  <rect x="623.355" y="764.407" width="6.352" height="34.336" style="fill:white;fill-rule:nonzero;"/>
  <path d="M 636.715 798.743 L 636.715 772.986 L 641.66 772.986 L 642.34 776.243 C 644.965 773.65 647.879 772.353 651.082 772.353 C 654.082 772.353 656.328 773.216 657.82 774.943 C 659.312 776.669 660.059 779.173 660.059 782.454 L 660.059 798.743 L 653.894 798.743 L 653.894 783.204 C 653.879 781.126 653.543 779.571 652.887 778.54 C 652.23 777.509 651.051 776.993 649.348 776.993 C 648.019 776.993 646.805 777.333 645.703 778.013 C 644.602 778.693 643.801 779.548 643.301 780.579 C 643.004 781.798 642.855 783.673 642.855 786.204 L 642.855 798.743 L 636.715 798.743 Z" style="fill:white;fill-rule:nonzero;"/>
  <path d="M 676.394 799.095 C 674.644 799.095 673.187 798.888 672.023 798.474 C 670.859 798.06 669.949 797.407 669.293 796.517 C 668.637 795.626 668.172 794.575 667.898 793.364 C 667.625 792.154 667.488 790.657 667.488 788.876 L 667.488 776.712 L 663.269 776.712 L 663.504 773.384 L 667.91 772.986 L 669.879 766.001 L 673.629 765.978 L 673.629 772.986 L 680.027 772.986 L 680.027 776.712 L 673.629 776.712 L 673.629 788.993 C 673.629 790.946 673.91 792.337 674.473 793.165 C 675.035 793.993 676.074 794.407 677.59 794.407 C 678.48 794.407 679.434 794.329 680.449 794.173 L 680.613 798.579 C 680.582 798.579 680.391 798.614 680.039 798.685 C 679.687 798.755 679.352 798.818 679.031 798.872 C 678.711 798.927 678.301 798.978 677.801 799.025 C 677.301 799.071 676.832 799.095 676.394 799.095 Z" style="fill:white;fill-rule:nonzero;"/>
  <path d="M 696.621 799.236 C 692.48 799.236 689.258 798.044 686.953 795.661 C 684.648 793.279 683.496 789.986 683.496 785.782 C 683.496 781.689 684.582 778.431 686.754 776.009 C 688.926 773.587 691.887 772.368 695.637 772.353 C 699.184 772.353 701.937 773.462 703.898 775.681 C 705.859 777.9 706.84 780.845 706.84 784.517 C 706.84 784.782 706.836 785.212 706.828 785.806 C 706.82 786.4 706.816 786.837 706.816 787.118 L 689.684 787.118 C 689.746 789.525 690.406 791.388 691.664 792.708 C 692.922 794.029 694.652 794.689 696.855 794.689 C 699.668 794.689 702.371 793.954 704.965 792.486 L 705.832 796.845 C 703.254 798.439 700.184 799.236 696.621 799.236 Z M 689.801 783.251 L 701.051 783.251 C 701.051 781.157 700.574 779.548 699.621 778.423 C 698.668 777.298 697.348 776.736 695.66 776.736 C 694.082 776.736 692.75 777.282 691.664 778.376 C 690.578 779.47 689.957 781.095 689.801 783.251 Z" style="fill:white;fill-rule:nonzero;"/>
  <path d="M 711.855 798.743 L 711.855 772.986 L 717.012 772.986 L 717.809 776.923 C 719.496 774.22 721.941 772.868 725.144 772.868 C 725.816 772.868 726.363 772.9 726.785 772.962 L 726.691 778.095 C 726.066 778.001 725.418 777.954 724.746 777.954 C 722.48 777.954 720.789 778.556 719.672 779.759 C 718.555 780.962 717.996 782.634 717.996 784.775 L 717.996 798.743 L 711.855 798.743 Z" style="fill:white;fill-rule:nonzero;"/>
  <path d="M 730.535 798.743 L 730.535 772.986 L 735.48 772.986 L 736.16 776.243 C 738.785 773.65 741.699 772.353 744.902 772.353 C 747.902 772.353 750.148 773.216 751.641 774.943 C 753.133 776.669 753.879 779.173 753.879 782.454 L 753.879 798.743 L 747.715 798.743 L 747.715 783.204 C 747.699 781.126 747.363 779.571 746.707 778.54 C 746.051 777.509 744.871 776.993 743.168 776.993 C 741.84 776.993 740.625 777.333 739.523 778.013 C 738.422 778.693 737.621 779.548 737.121 780.579 C 736.824 781.798 736.676 783.673 736.676 786.204 L 736.676 798.743 L 730.535 798.743 Z" style="fill:white;fill-rule:nonzero;"/>
  <path d="M 766.723 799.236 C 764.332 799.236 762.398 798.575 760.922 797.255 C 759.445 795.935 758.707 794.032 758.707 791.548 C 758.707 788.876 759.582 786.896 761.332 785.607 C 763.082 784.318 765.723 783.501 769.254 783.157 C 769.738 783.095 770.262 783.032 770.824 782.97 C 771.387 782.907 772.019 782.845 772.723 782.782 C 773.426 782.72 773.98 782.665 774.387 782.618 L 774.387 781.259 C 774.387 779.696 774.027 778.56 773.309 777.849 C 772.59 777.138 771.496 776.782 770.027 776.782 C 767.934 776.782 765.348 777.368 762.269 778.54 C 762.254 778.493 761.996 777.782 761.496 776.407 C 760.996 775.032 760.738 774.329 760.723 774.298 C 763.754 773.001 767.035 772.353 770.566 772.353 C 774.035 772.353 776.559 773.107 778.137 774.614 C 779.715 776.122 780.504 778.564 780.504 781.939 L 780.504 798.743 L 775.957 798.743 C 775.941 798.681 775.769 798.157 775.441 797.173 C 775.113 796.189 774.949 795.665 774.949 795.603 C 773.668 796.853 772.414 797.771 771.187 798.357 C 769.961 798.943 768.473 799.236 766.723 799.236 Z M 768.387 794.876 C 769.809 794.876 771.047 794.536 772.102 793.857 C 773.156 793.177 773.91 792.353 774.363 791.384 L 774.363 786.415 C 774.316 786.415 773.906 786.446 773.133 786.509 C 772.359 786.571 771.941 786.603 771.879 786.603 C 769.394 786.821 767.574 787.29 766.418 788.009 C 765.262 788.728 764.684 789.884 764.684 791.478 C 764.684 792.571 765.004 793.411 765.644 793.997 C 766.285 794.583 767.199 794.876 768.387 794.876 Z" style="fill:white;fill-rule:nonzero;"/>
  <path d="M 795.715 799.095 C 793.949 799.095 792.484 798.888 791.32 798.474 C 790.156 798.06 789.238 797.4 788.566 796.493 C 787.894 795.587 787.426 794.509 787.16 793.259 C 786.894 792.009 786.762 790.454 786.762 788.595 L 786.762 763.493 L 792.902 763.095 L 792.902 788.478 C 792.902 790.79 793.176 792.357 793.723 793.177 C 794.269 793.997 795.332 794.407 796.91 794.407 C 797.691 794.407 798.684 794.321 799.887 794.15 L 800.051 798.532 C 800.035 798.532 799.844 798.571 799.477 798.65 C 799.109 798.728 798.758 798.794 798.422 798.849 C 798.086 798.904 797.66 798.958 797.144 799.013 C 796.629 799.068 796.152 799.095 795.715 799.095 Z" style="fill:white;fill-rule:nonzero;"/>
  <path d="M 400 395 C 400 367.422 422.422 345 450 345 L 750 345 C 777.578 345 800 367.422 800 395 L 800 539.062 C 786.719 527.187 769.219 520 750 520 L 450 520 C 430.781 520 413.281 527.187 400 539.062 L 400 395 Z M 450 545 L 750 545 C 777.578 545 800 567.422 800 595 L 800 645 C 800 672.578 777.578 695 750 695 L 450 695 C 422.422 695 400 672.578 400 645 L 400 595 C 400 567.422 422.422 545 450 545 Z M 650 645 C 663.715 645 675 633.715 675 620 C 675 606.285 663.715 595 650 595 C 636.285 595 625 606.285 625 620 C 625 633.715 636.285 645 650 645 Z M 750 620 C 750 606.285 738.715 595 725 595 C 711.285 595 700 606.285 700 620 C 700 633.715 711.285 645 725 645 C 738.715 645 750 633.715 750 620 Z" style="fill:white;fill-rule:nonzero;"/>
</svg>