<?xml version="1.0" encoding="UTF-8" standalone="no"?>
<!DOCTYPE svg PUBLIC "-//W3C//DTD SVG 1.1//EN" "http://www.w3.org/Graphics/SVG/1.1/DTD/svg11.dtd">
<svg width="100%" height="100%" viewBox="0 0 1200 1080" version="1.1" xmlns="http://www.w3.org/2000/svg" xmlns:xlink="http://www.w3.org/1999/xlink" xml:space="preserve" xmlns:serif="http://www.serif.com/" style="fill-rule:evenodd;clip-rule:evenodd;stroke-linejoin:round;stroke-miterlimit:2;">
    <g transform="matrix(1,0,0,1.09091,-720,207.273)">
        <rect x="720" y="-190" width="1200" height="990" style="fill:rgb(46,46,46);"/>
    </g>
    <g transform="matrix(0.707107,-0.707107,0.707107,0.707107,-575.938,-155.145)">
        <path d="M-466.129,1280.63L207,607.5L207,1953.76L-466.129,1280.63Z" style="fill:rgb(51,51,51);"/>
    </g>
    <g transform="matrix(0.848214,0,0,0.848214,382.141,252.878)">
        <g id="Install-JELOS" serif:id="Install JELOS">
            <path d="M0,96C0,60.7 28.7,32 64,32L448,32C483.3,32 512,60.7 512,96L512,280.4C495,265.2 472.6,256 448,256L64,256C39.4,256 17,265.2 0,280.4L0,96ZM64,288L448,288C483.3,288 512,316.7 512,352L512,416C512,451.3 483.3,480 448,480L64,480C28.7,480 0,451.3 0,416L0,352C0,316.7 28.7,288 64,288ZM320,416C337.555,416 352,401.555 352,384C352,366.445 337.555,352 320,352C302.445,352 288,366.445 288,384C288,401.555 302.445,416 320,416ZM448,384C448,366.445 433.555,352 416,352C398.445,352 384,366.445 384,384C384,401.555 398.445,416 416,416C433.555,416 448,401.555 448,384Z" style="fill:white;fill-rule:nonzero;"/>
        </g>
    </g>
    <g id="Install-ROCKNIX" serif:id="Install ROCKNIX" transform="matrix(1,0,0,1,14.6837,-61.2735)">
        <g transform="matrix(85.3333,0,0,85.3333,912.816,840.419)">
        </g>
        <text x="253.358px" y="840.419px" style="font-family:'Oxygen-Bold', 'Oxygen';font-weight:700;font-size:85.333px;fill:white;">Install R<tspan x="591.525px " y="840.419px ">O</tspan>CK<tspan x="767.275px " y="840.419px ">N</tspan>IX</text>
    </g>
</svg>
