<?xml version="1.0" encoding="UTF-8" standalone="no"?>
<!DOCTYPE svg PUBLIC "-//W3C//DTD SVG 1.1//EN" "http://www.w3.org/Graphics/SVG/1.1/DTD/svg11.dtd">
<svg width="100%" height="100%" viewBox="0 0 1200 1080" version="1.1" xmlns="http://www.w3.org/2000/svg" xmlns:xlink="http://www.w3.org/1999/xlink" xml:space="preserve" xmlns:serif="http://www.serif.com/" style="fill-rule:evenodd;clip-rule:evenodd;stroke-linejoin:round;stroke-miterlimit:2;">
    <rect id="Artboard1" x="0" y="0" width="1200" height="1080" style="fill:none;"/>
    <g id="Artboard11" serif:id="Artboard1">
        <g transform="matrix(1,0,0,1.09091,-720,207.273)">
            <rect x="720" y="-190" width="1200" height="990" style="fill:rgb(46,46,46);"/>
        </g>
        <g transform="matrix(0.707107,-0.707107,0.707107,0.707107,-575.938,-155.145)">
            <path d="M-466.129,1280.63L207,607.5L207,1953.76L-466.129,1280.63Z" style="fill:rgb(51,51,51);"/>
        </g>
        <g id="install-rocknix.svg">
            <g transform="matrix(1,0,0,1,17.8621,-41.6765)">
                <rect x="387.923" y="806.083" width="6.352" height="34.336" style="fill:white;fill-rule:nonzero;"/>
                <path d="M401.282,840.419L401.282,814.662L406.228,814.662L406.907,817.919C409.532,815.326 412.447,814.029 415.65,814.029C418.65,814.029 420.896,814.892 422.388,816.619C423.88,818.345 424.626,820.849 424.626,824.13L424.626,840.419L418.462,840.419L418.462,824.88C418.447,822.802 418.111,821.247 417.454,820.216C416.798,819.185 415.618,818.669 413.915,818.669C412.587,818.669 411.372,819.009 410.271,819.689C409.169,820.369 408.368,821.224 407.868,822.255C407.572,823.474 407.423,825.349 407.423,827.88L407.423,840.419L401.282,840.419Z" style="fill:white;fill-rule:nonzero;"/>
                <path d="M438.9,840.888C435.103,840.888 432.064,840.24 429.782,838.943L430.415,834.326C431.447,834.888 432.759,835.392 434.353,835.837C435.947,836.283 437.4,836.505 438.712,836.505C440.072,836.505 441.13,836.251 441.888,835.744C442.646,835.236 443.032,834.49 443.048,833.505C443.048,832.615 442.693,831.912 441.982,831.396C441.271,830.88 439.915,830.24 437.915,829.474C437.228,829.224 436.782,829.06 436.579,828.982C434.204,828.06 432.493,827.033 431.447,825.9C430.4,824.767 429.876,823.232 429.876,821.294C429.876,818.951 430.724,817.154 432.419,815.904C434.115,814.654 436.478,814.029 439.509,814.029C442.79,814.029 445.673,814.646 448.157,815.88L446.634,820.122C444.181,818.982 441.845,818.412 439.626,818.412C438.392,818.412 437.427,818.619 436.732,819.033C436.036,819.447 435.689,820.076 435.689,820.919C435.689,821.716 436.025,822.337 436.697,822.783C437.368,823.228 438.681,823.81 440.634,824.529C440.697,824.544 440.9,824.615 441.243,824.74C441.587,824.865 441.853,824.966 442.04,825.044C444.4,825.904 446.134,826.931 447.243,828.126C448.353,829.322 448.907,830.88 448.907,832.802C448.892,835.38 448.017,837.372 446.282,838.779C444.548,840.185 442.087,840.888 438.9,840.888Z" style="fill:white;fill-rule:nonzero;"/>
                <path d="M464.048,840.771C462.298,840.771 460.841,840.564 459.677,840.15C458.513,839.736 457.603,839.083 456.947,838.193C456.29,837.302 455.825,836.251 455.552,835.04C455.279,833.83 455.142,832.333 455.142,830.552L455.142,818.388L450.923,818.388L451.157,815.06L455.564,814.662L457.532,807.677L461.282,807.654L461.282,814.662L467.681,814.662L467.681,818.388L461.282,818.388L461.282,830.669C461.282,832.622 461.564,834.013 462.126,834.841C462.689,835.669 463.728,836.083 465.243,836.083C466.134,836.083 467.087,836.005 468.103,835.849L468.267,840.255C468.236,840.255 468.044,840.29 467.693,840.361C467.341,840.431 467.005,840.494 466.685,840.548C466.365,840.603 465.954,840.654 465.454,840.701C464.954,840.747 464.486,840.771 464.048,840.771Z" style="fill:white;fill-rule:nonzero;"/>
                <path d="M479.353,840.912C476.962,840.912 475.029,840.251 473.552,838.931C472.075,837.611 471.337,835.708 471.337,833.224C471.337,830.552 472.212,828.572 473.962,827.283C475.712,825.994 478.353,825.177 481.884,824.833C482.368,824.771 482.892,824.708 483.454,824.646C484.017,824.583 484.65,824.521 485.353,824.458C486.056,824.396 486.611,824.341 487.017,824.294L487.017,822.935C487.017,821.372 486.657,820.236 485.939,819.525C485.22,818.814 484.126,818.458 482.657,818.458C480.564,818.458 477.978,819.044 474.9,820.216C474.884,820.169 474.626,819.458 474.126,818.083C473.626,816.708 473.368,816.005 473.353,815.974C476.384,814.677 479.665,814.029 483.197,814.029C486.665,814.029 489.189,814.783 490.767,816.29C492.345,817.798 493.134,820.24 493.134,823.615L493.134,840.419L488.587,840.419C488.572,840.357 488.4,839.833 488.072,838.849C487.743,837.865 487.579,837.341 487.579,837.279C486.298,838.529 485.044,839.447 483.818,840.033C482.591,840.619 481.103,840.912 479.353,840.912ZM481.017,836.552C482.439,836.552 483.677,836.212 484.732,835.533C485.786,834.853 486.54,834.029 486.993,833.06L486.993,828.091C486.947,828.091 486.536,828.122 485.763,828.185C484.99,828.247 484.572,828.279 484.509,828.279C482.025,828.497 480.204,828.966 479.048,829.685C477.892,830.404 477.314,831.56 477.314,833.154C477.314,834.247 477.634,835.087 478.275,835.673C478.915,836.259 479.829,836.552 481.017,836.552Z" style="fill:white;fill-rule:nonzero;"/>
                <path d="M508.345,840.771C506.579,840.771 505.115,840.564 503.95,840.15C502.786,839.736 501.868,839.076 501.197,838.169C500.525,837.263 500.056,836.185 499.79,834.935C499.525,833.685 499.392,832.13 499.392,830.271L499.392,805.169L505.532,804.771L505.532,830.154C505.532,832.466 505.806,834.033 506.353,834.853C506.9,835.673 507.962,836.083 509.54,836.083C510.322,836.083 511.314,835.997 512.517,835.826L512.681,840.208C512.665,840.208 512.474,840.247 512.107,840.326C511.74,840.404 511.388,840.47 511.052,840.525C510.716,840.58 510.29,840.634 509.775,840.689C509.259,840.744 508.782,840.771 508.345,840.771Z" style="fill:white;fill-rule:nonzero;"/>
                <path d="M524.751,840.771C522.986,840.771 521.521,840.564 520.357,840.15C519.193,839.736 518.275,839.076 517.603,838.169C516.931,837.263 516.462,836.185 516.197,834.935C515.931,833.685 515.798,832.13 515.798,830.271L515.798,805.169L521.939,804.771L521.939,830.154C521.939,832.466 522.212,834.033 522.759,834.853C523.306,835.673 524.368,836.083 525.947,836.083C526.728,836.083 527.72,835.997 528.923,835.826L529.087,840.208C529.072,840.208 528.88,840.247 528.513,840.326C528.146,840.404 527.794,840.47 527.458,840.525C527.122,840.58 526.697,840.634 526.181,840.689C525.665,840.744 525.189,840.771 524.751,840.771Z" style="fill:white;fill-rule:nonzero;"/>
                <path d="M555.103,840.771C553.353,840.771 551.896,840.564 550.732,840.15C549.568,839.736 548.657,839.083 548.001,838.193C547.345,837.302 546.88,836.251 546.607,835.04C546.333,833.83 546.197,832.333 546.197,830.552L546.197,818.388L541.978,818.388L542.212,815.06L546.618,814.662L548.587,807.677L552.337,807.654L552.337,814.662L558.736,814.662L558.736,818.388L552.337,818.388L552.337,830.669C552.337,832.622 552.618,834.013 553.181,834.841C553.743,835.669 554.782,836.083 556.298,836.083C557.189,836.083 558.142,836.005 559.157,835.849L559.322,840.255C559.29,840.255 559.099,840.29 558.747,840.361C558.396,840.431 558.06,840.494 557.74,840.548C557.419,840.603 557.009,840.654 556.509,840.701C556.009,840.747 555.54,840.771 555.103,840.771Z" style="fill:white;fill-rule:nonzero;"/>
                <path d="M574.65,836.247C576.728,836.247 578.29,835.49 579.337,833.974C580.384,832.458 580.907,830.287 580.907,827.458C580.907,824.599 580.384,822.419 579.337,820.919C578.29,819.419 576.712,818.669 574.603,818.669C572.525,818.669 570.958,819.423 569.904,820.931C568.849,822.439 568.322,824.622 568.322,827.482C568.322,830.294 568.853,832.458 569.915,833.974C570.978,835.49 572.556,836.247 574.65,836.247ZM574.486,840.912C570.673,840.912 567.673,839.677 565.486,837.208C563.298,834.74 562.204,831.49 562.204,827.458C562.204,823.302 563.298,820.025 565.486,817.626C567.673,815.228 570.759,814.029 574.743,814.029C578.587,814.029 581.599,815.251 583.779,817.697C585.958,820.142 587.048,823.396 587.048,827.458C587.048,831.568 585.947,834.837 583.743,837.267C581.54,839.697 578.454,840.912 574.486,840.912Z" style="fill:white;fill-rule:nonzero;"/>
                <rect x="605.493" y="806.083" width="6.352" height="34.336" style="fill:white;fill-rule:nonzero;"/>
                <path d="M618.853,840.419L618.853,814.662L623.798,814.662L624.478,817.919C627.103,815.326 630.017,814.029 633.22,814.029C636.22,814.029 638.466,814.892 639.958,816.619C641.45,818.345 642.197,820.849 642.197,824.13L642.197,840.419L636.032,840.419L636.032,824.88C636.017,822.802 635.681,821.247 635.025,820.216C634.368,819.185 633.189,818.669 631.486,818.669C630.157,818.669 628.943,819.009 627.841,819.689C626.74,820.369 625.939,821.224 625.439,822.255C625.142,823.474 624.993,825.349 624.993,827.88L624.993,840.419L618.853,840.419Z" style="fill:white;fill-rule:nonzero;"/>
                <path d="M658.532,840.771C656.782,840.771 655.325,840.564 654.161,840.15C652.997,839.736 652.087,839.083 651.431,838.193C650.775,837.302 650.31,836.251 650.036,835.04C649.763,833.83 649.626,832.333 649.626,830.552L649.626,818.388L645.407,818.388L645.642,815.06L650.048,814.662L652.017,807.677L655.767,807.654L655.767,814.662L662.165,814.662L662.165,818.388L655.767,818.388L655.767,830.669C655.767,832.622 656.048,834.013 656.611,834.841C657.173,835.669 658.212,836.083 659.728,836.083C660.618,836.083 661.572,836.005 662.587,835.849L662.751,840.255C662.72,840.255 662.529,840.29 662.177,840.361C661.825,840.431 661.49,840.494 661.169,840.548C660.849,840.603 660.439,840.654 659.939,840.701C659.439,840.747 658.97,840.771 658.532,840.771Z" style="fill:white;fill-rule:nonzero;"/>
                <path d="M678.759,840.912C674.618,840.912 671.396,839.72 669.091,837.337C666.786,834.955 665.634,831.662 665.634,827.458C665.634,823.365 666.72,820.107 668.892,817.685C671.064,815.263 674.025,814.044 677.775,814.029C681.322,814.029 684.075,815.138 686.036,817.357C687.997,819.576 688.978,822.521 688.978,826.193C688.978,826.458 688.974,826.888 688.966,827.482C688.958,828.076 688.954,828.513 688.954,828.794L671.822,828.794C671.884,831.201 672.544,833.064 673.802,834.384C675.06,835.705 676.79,836.365 678.993,836.365C681.806,836.365 684.509,835.63 687.103,834.162L687.97,838.521C685.392,840.115 682.322,840.912 678.759,840.912ZM671.939,824.927L683.189,824.927C683.189,822.833 682.712,821.224 681.759,820.099C680.806,818.974 679.486,818.412 677.798,818.412C676.22,818.412 674.888,818.958 673.802,820.052C672.716,821.146 672.095,822.771 671.939,824.927Z" style="fill:white;fill-rule:nonzero;"/>
                <path d="M693.993,840.419L693.993,814.662L699.15,814.662L699.947,818.599C701.634,815.896 704.079,814.544 707.282,814.544C707.954,814.544 708.501,814.576 708.923,814.638L708.829,819.771C708.204,819.677 707.556,819.63 706.884,819.63C704.618,819.63 702.927,820.232 701.81,821.435C700.693,822.638 700.134,824.31 700.134,826.451L700.134,840.419L693.993,840.419Z" style="fill:white;fill-rule:nonzero;"/>
                <path d="M712.673,840.419L712.673,814.662L717.618,814.662L718.298,817.919C720.923,815.326 723.837,814.029 727.04,814.029C730.04,814.029 732.286,814.892 733.779,816.619C735.271,818.345 736.017,820.849 736.017,824.13L736.017,840.419L729.853,840.419L729.853,824.88C729.837,822.802 729.501,821.247 728.845,820.216C728.189,819.185 727.009,818.669 725.306,818.669C723.978,818.669 722.763,819.009 721.661,819.689C720.56,820.369 719.759,821.224 719.259,822.255C718.962,823.474 718.814,825.349 718.814,827.88L718.814,840.419L712.673,840.419Z" style="fill:white;fill-rule:nonzero;"/>
                <path d="M748.861,840.912C746.47,840.912 744.536,840.251 743.06,838.931C741.583,837.611 740.845,835.708 740.845,833.224C740.845,830.552 741.72,828.572 743.47,827.283C745.22,825.994 747.861,825.177 751.392,824.833C751.876,824.771 752.4,824.708 752.962,824.646C753.525,824.583 754.157,824.521 754.861,824.458C755.564,824.396 756.118,824.341 756.525,824.294L756.525,822.935C756.525,821.372 756.165,820.236 755.447,819.525C754.728,818.814 753.634,818.458 752.165,818.458C750.072,818.458 747.486,819.044 744.407,820.216C744.392,820.169 744.134,819.458 743.634,818.083C743.134,816.708 742.876,816.005 742.861,815.974C745.892,814.677 749.173,814.029 752.704,814.029C756.173,814.029 758.697,814.783 760.275,816.29C761.853,817.798 762.642,820.24 762.642,823.615L762.642,840.419L758.095,840.419C758.079,840.357 757.907,839.833 757.579,838.849C757.251,837.865 757.087,837.341 757.087,837.279C755.806,838.529 754.552,839.447 753.325,840.033C752.099,840.619 750.611,840.912 748.861,840.912ZM750.525,836.552C751.947,836.552 753.185,836.212 754.24,835.533C755.294,834.853 756.048,834.029 756.501,833.06L756.501,828.091C756.454,828.091 756.044,828.122 755.271,828.185C754.497,828.247 754.079,828.279 754.017,828.279C751.532,828.497 749.712,828.966 748.556,829.685C747.4,830.404 746.822,831.56 746.822,833.154C746.822,834.247 747.142,835.087 747.782,835.673C748.423,836.259 749.337,836.552 750.525,836.552Z" style="fill:white;fill-rule:nonzero;"/>
                <path d="M777.853,840.771C776.087,840.771 774.622,840.564 773.458,840.15C772.294,839.736 771.376,839.076 770.704,838.169C770.032,837.263 769.564,836.185 769.298,834.935C769.032,833.685 768.9,832.13 768.9,830.271L768.9,805.169L775.04,804.771L775.04,830.154C775.04,832.466 775.314,834.033 775.861,834.853C776.407,835.673 777.47,836.083 779.048,836.083C779.829,836.083 780.822,835.997 782.025,835.826L782.189,840.208C782.173,840.208 781.982,840.247 781.615,840.326C781.247,840.404 780.896,840.47 780.56,840.525C780.224,840.58 779.798,840.634 779.282,840.689C778.767,840.744 778.29,840.771 777.853,840.771Z" style="fill:white;fill-rule:nonzero;"/>
            </g>
            <g transform="matrix(0.78125,0,0,0.78125,400,320)">
                <path d="M0,96C0,60.7 28.7,32 64,32L448,32C483.3,32 512,60.7 512,96L512,280.4C495,265.2 472.6,256 448,256L64,256C39.4,256 17,265.2 0,280.4L0,96ZM64,288L448,288C483.3,288 512,316.7 512,352L512,416C512,451.3 483.3,480 448,480L64,480C28.7,480 0,451.3 0,416L0,352C0,316.7 28.7,288 64,288ZM320,416C337.555,416 352,401.555 352,384C352,366.445 337.555,352 320,352C302.445,352 288,366.445 288,384C288,401.555 302.445,416 320,416ZM448,384C448,366.445 433.555,352 416,352C398.445,352 384,366.445 384,384C384,401.555 398.445,416 416,416C433.555,416 448,401.555 448,384Z" style="fill:white;fill-rule:nonzero;"/>
            </g>
        </g>
    </g>
</svg>
