<?xml version="1.0" encoding="UTF-8" standalone="no"?>
<!DOCTYPE svg PUBLIC "-//W3C//DTD SVG 1.1//EN" "http://www.w3.org/Graphics/SVG/1.1/DTD/svg11.dtd">
<svg width="100%" height="100%" viewBox="0 0 1200 1080" version="1.1" xmlns="http://www.w3.org/2000/svg" xmlns:xlink="http://www.w3.org/1999/xlink" xml:space="preserve" xmlns:serif="http://www.serif.com/" style="fill-rule:evenodd;clip-rule:evenodd;stroke-linejoin:round;stroke-miterlimit:2;">
    <g transform="matrix(1,0,0,1.09091,-720,207.273)">
        <rect x="720" y="-190" width="1200" height="990" style="fill:rgb(46,46,46);"/>
    </g>
    <g transform="matrix(0.707107,-0.707107,0.707107,0.707107,-575.938,-155.145)">
        <path d="M-466.129,1280.63L207,607.5L207,1953.76L-466.129,1280.63Z" style="fill:rgb(51,51,51);"/>
    </g>
    <g id="Install-ROCKNIX" serif:id="Install ROCKNIX">
        <g transform="matrix(0.848214,0,0,0.848214,382.141,252.878)">
            <path d="M0,96C0,60.7 28.7,32 64,32L448,32C483.3,32 512,60.7 512,96L512,280.4C495,265.2 472.6,256 448,256L64,256C39.4,256 17,265.2 0,280.4L0,96ZM64,288L448,288C483.3,288 512,316.7 512,352L512,416C512,451.3 483.3,480 448,480L64,480C28.7,480 0,451.3 0,416L0,352C0,316.7 28.7,288 64,288ZM320,416C337.555,416 352,401.555 352,384C352,366.445 337.555,352 320,352C302.445,352 288,366.445 288,384C288,401.555 302.445,416 320,416ZM448,384C448,366.445 433.555,352 416,352C398.445,352 384,366.445 384,384C384,401.555 398.445,416 416,416C433.555,416 448,401.555 448,384Z" style="fill:white;fill-rule:nonzero;"/>
        </g>
        <g id="Install-ROCKNIX" serif:id="Install ROCKNIX" transform="matrix(1,0,0,1,14.6837,-61.2735)">
            <rect x="260.233" y="779.378" width="11.292" height="61.042" style="fill:white;fill-rule:nonzero;"/>
            <path d="M283.983,840.419L283.983,794.628L292.775,794.628L293.983,800.419C298.65,795.808 303.83,793.503 309.525,793.503C314.858,793.503 318.851,795.037 321.504,798.107C324.157,801.176 325.483,805.628 325.483,811.461L325.483,840.419L314.525,840.419L314.525,812.794C314.497,809.1 313.9,806.336 312.733,804.503C311.566,802.669 309.469,801.753 306.441,801.753C304.08,801.753 301.92,802.357 299.962,803.565C298.004,804.774 296.58,806.294 295.691,808.128C295.164,810.294 294.9,813.628 294.9,818.128L294.9,840.419L283.983,840.419Z" style="fill:white;fill-rule:nonzero;"/>
            <path d="M350.858,841.253C344.108,841.253 338.705,840.1 334.65,837.794L335.775,829.586C337.608,830.586 339.941,831.482 342.775,832.274C345.608,833.065 348.191,833.461 350.525,833.461C352.941,833.461 354.823,833.01 356.17,832.107C357.518,831.204 358.205,829.878 358.233,828.128C358.233,826.544 357.601,825.294 356.337,824.378C355.073,823.461 352.664,822.322 349.108,820.961C347.886,820.517 347.094,820.225 346.733,820.086C342.511,818.447 339.469,816.621 337.608,814.607C335.747,812.593 334.816,809.864 334.816,806.419C334.816,802.253 336.323,799.058 339.337,796.836C342.351,794.614 346.552,793.503 351.941,793.503C357.775,793.503 362.9,794.6 367.316,796.794L364.608,804.336C360.247,802.308 356.094,801.294 352.15,801.294C349.955,801.294 348.24,801.662 347.004,802.399C345.768,803.135 345.15,804.253 345.15,805.753C345.15,807.169 345.747,808.274 346.941,809.065C348.136,809.857 350.469,810.892 353.941,812.169C354.052,812.197 354.414,812.322 355.025,812.544C355.636,812.767 356.108,812.947 356.441,813.086C360.636,814.614 363.719,816.44 365.691,818.565C367.664,820.69 368.65,823.461 368.65,826.878C368.622,831.461 367.066,835.003 363.983,837.503C360.9,840.003 356.525,841.253 350.858,841.253Z" style="fill:white;fill-rule:nonzero;"/>
            <path d="M395.566,841.044C392.455,841.044 389.865,840.676 387.795,839.94C385.726,839.204 384.108,838.044 382.941,836.461C381.775,834.878 380.948,833.01 380.462,830.857C379.976,828.704 379.733,826.044 379.733,822.878L379.733,801.253L372.233,801.253L372.65,795.336L380.483,794.628L383.983,782.211L390.65,782.169L390.65,794.628L402.025,794.628L402.025,801.253L390.65,801.253L390.65,823.086C390.65,826.558 391.15,829.03 392.15,830.503C393.15,831.975 394.997,832.711 397.691,832.711C399.275,832.711 400.969,832.572 402.775,832.294L403.066,840.128C403.011,840.128 402.67,840.19 402.045,840.315C401.42,840.44 400.823,840.551 400.254,840.649C399.684,840.746 398.955,840.836 398.066,840.919C397.177,841.003 396.344,841.044 395.566,841.044Z" style="fill:white;fill-rule:nonzero;"/>
            <path d="M422.775,841.294C418.525,841.294 415.087,840.121 412.462,837.774C409.837,835.426 408.525,832.044 408.525,827.628C408.525,822.878 410.08,819.357 413.191,817.065C416.302,814.774 420.997,813.322 427.275,812.711C428.136,812.6 429.066,812.489 430.066,812.378C431.066,812.267 432.191,812.155 433.441,812.044C434.691,811.933 435.677,811.836 436.4,811.753L436.4,809.336C436.4,806.558 435.761,804.537 434.483,803.274C433.205,802.01 431.261,801.378 428.65,801.378C424.927,801.378 420.33,802.419 414.858,804.503C414.83,804.419 414.372,803.155 413.483,800.711C412.594,798.267 412.136,797.017 412.108,796.961C417.497,794.655 423.33,793.503 429.608,793.503C435.775,793.503 440.261,794.843 443.066,797.524C445.872,800.204 447.275,804.544 447.275,810.544L447.275,840.419L439.191,840.419C439.164,840.308 438.858,839.378 438.275,837.628C437.691,835.878 437.4,834.947 437.4,834.836C435.122,837.058 432.893,838.69 430.712,839.732C428.532,840.774 425.886,841.294 422.775,841.294ZM425.733,833.544C428.261,833.544 430.462,832.94 432.337,831.732C434.212,830.524 435.552,829.058 436.358,827.336L436.358,818.503C436.275,818.503 435.545,818.558 434.17,818.669C432.795,818.78 432.052,818.836 431.941,818.836C427.525,819.225 424.289,820.058 422.233,821.336C420.177,822.614 419.15,824.669 419.15,827.503C419.15,829.447 419.719,830.94 420.858,831.982C421.997,833.024 423.622,833.544 425.733,833.544Z" style="fill:white;fill-rule:nonzero;"/>
            <path d="M474.316,841.044C471.177,841.044 468.573,840.676 466.504,839.94C464.434,839.204 462.802,838.03 461.608,836.419C460.414,834.808 459.58,832.892 459.108,830.669C458.636,828.447 458.4,825.683 458.4,822.378L458.4,777.753L469.316,777.044L469.316,822.169C469.316,826.28 469.802,829.065 470.775,830.524C471.747,831.982 473.636,832.711 476.441,832.711C477.83,832.711 479.594,832.558 481.733,832.253L482.025,840.044C481.997,840.044 481.657,840.114 481.004,840.253C480.351,840.392 479.726,840.51 479.129,840.607C478.532,840.704 477.775,840.801 476.858,840.899C475.941,840.996 475.094,841.044 474.316,841.044Z" style="fill:white;fill-rule:nonzero;"/>
            <path d="M503.483,841.044C500.344,841.044 497.74,840.676 495.67,839.94C493.601,839.204 491.969,838.03 490.775,836.419C489.58,834.808 488.747,832.892 488.275,830.669C487.802,828.447 487.566,825.683 487.566,822.378L487.566,777.753L498.483,777.044L498.483,822.169C498.483,826.28 498.969,829.065 499.941,830.524C500.914,831.982 502.802,832.711 505.608,832.711C506.997,832.711 508.761,832.558 510.9,832.253L511.191,840.044C511.164,840.044 510.823,840.114 510.17,840.253C509.518,840.392 508.893,840.51 508.295,840.607C507.698,840.704 506.941,840.801 506.025,840.899C505.108,840.996 504.261,841.044 503.483,841.044Z" style="fill:white;fill-rule:nonzero;"/>
            <path d="M539.9,840.419L539.9,779.211L562.525,779.211C565.608,779.211 568.282,779.35 570.545,779.628C572.809,779.905 574.962,780.412 577.004,781.149C579.045,781.885 580.698,782.878 581.962,784.128C583.226,785.378 584.226,787.01 584.962,789.024C585.698,791.037 586.066,793.419 586.066,796.169C586.066,804.28 582.386,809.614 575.025,812.169C576.525,813.864 578.386,817.003 580.608,821.586L589.691,840.419L577.358,840.419L570.233,824.461C567.539,818.739 565.872,815.35 565.233,814.294C564.761,814.267 563.191,814.253 560.525,814.253L551.066,814.169L551.066,840.419L539.9,840.419ZM563.525,806.086C567.858,806.086 570.969,805.315 572.858,803.774C574.747,802.232 575.691,799.753 575.691,796.336C575.691,793.336 574.733,791.128 572.816,789.711C570.9,788.294 567.969,787.586 564.025,787.586L551.066,787.586L551.066,806.044C551.483,806.044 553.552,806.051 557.275,806.065C560.997,806.079 563.08,806.086 563.525,806.086Z" style="fill:white;fill-rule:nonzero;"/>
            <path d="M612.025,826.294C615.052,830.155 619.525,832.086 625.441,832.086C631.358,832.086 635.823,830.162 638.837,826.315C641.851,822.468 643.358,817.03 643.358,810.003C643.358,802.892 641.851,797.378 638.837,793.461C635.823,789.544 631.372,787.586 625.483,787.586C619.566,787.586 615.087,789.551 612.045,793.482C609.004,797.412 607.483,802.919 607.483,810.003C607.483,817.003 608.997,822.433 612.025,826.294ZM625.4,841.294C616.205,841.294 608.948,838.51 603.629,832.94C598.309,827.371 595.65,819.683 595.65,809.878C595.65,800.017 598.316,792.322 603.65,786.794C608.983,781.267 616.247,778.503 625.441,778.503C634.636,778.503 641.886,781.274 647.191,786.815C652.497,792.357 655.15,800.058 655.15,809.919C655.15,819.669 652.483,827.336 647.15,832.919C641.816,838.503 634.566,841.294 625.4,841.294Z" style="fill:white;fill-rule:nonzero;"/>
            <path d="M692.483,841.294C683.566,841.294 676.497,838.489 671.275,832.878C666.052,827.267 663.441,819.517 663.441,809.628C663.441,800.239 666.17,792.704 671.629,787.024C677.087,781.343 684.233,778.503 693.066,778.503C700.205,778.503 706.247,780.155 711.191,783.461L707.65,792.003C702.9,789.086 698.122,787.628 693.316,787.628C687.705,787.628 683.268,789.649 680.004,793.69C676.74,797.732 675.108,803.155 675.108,809.961C675.108,817.017 676.684,822.475 679.837,826.336C682.99,830.197 687.483,832.128 693.316,832.128C698.427,832.128 703.497,830.85 708.525,828.294L710.025,837.128C705.358,839.905 699.511,841.294 692.483,841.294Z" style="fill:white;fill-rule:nonzero;"/>
            <path d="M720.025,840.419L720.025,779.378L731.358,779.378L731.358,806.878C733.33,804.267 737.365,799.392 743.462,792.253C749.559,785.114 753.191,780.822 754.358,779.378L767.733,779.378L744.65,806.836L769.191,840.419L755.941,840.419L736.025,813.044L731.358,816.961L731.358,840.419L720.025,840.419Z" style="fill:white;fill-rule:nonzero;"/>
            <path d="M773.858,840.419L773.858,779.378L785.858,779.378C788.025,782.767 792.427,789.6 799.066,799.878C805.705,810.155 809.747,816.405 811.191,818.628C811.608,819.267 812.323,820.343 813.337,821.857C814.351,823.371 815.066,824.447 815.483,825.086C815.289,815.558 815.191,810.614 815.191,810.253L815.191,779.378L825.483,779.378L825.483,840.419L813.316,840.419L785.775,797.503L783.775,794.211C783.997,801.544 784.108,806.697 784.108,809.669L784.108,840.419L773.858,840.419Z" style="fill:white;fill-rule:nonzero;"/>
            <rect x="838.9" y="779.378" width="11.292" height="61.042" style="fill:white;fill-rule:nonzero;"/>
            <path d="M856.65,840.419L878.025,809.169L858.233,779.378L870.941,779.378L885.316,802.128L900.108,779.378L912.15,779.378L891.941,809.336L913.233,840.419L900.191,840.419L884.775,816.669L869.025,840.419L856.65,840.419Z" style="fill:white;fill-rule:nonzero;"/>
        </g>
    </g>
</svg>
