<?xml version="1.0" encoding="utf-8"?>
<svg width="100%" height="100%" viewBox="0 0 1200 1080" version="1.1" xmlns="http://www.w3.org/2000/svg" style="fill-rule:evenodd;clip-rule:evenodd;stroke-linejoin:round;stroke-miterlimit:2;">
  <path d="M 0 0 H 1200 V 1080.001 H 0 V 0 Z" style="fill:rgb(46,46,46);"/>
  <path d="M -98.576 842.013 L 574.553 168.883 L 574.553 1515.144 L -98.576 842.013 Z" style="fill: rgb(51, 51, 51); transform-box: fill-box; transform-origin: 50% 50%;" transform="matrix(0.707107, -0.707107, 0.707107, 0.707107, 0.000004, -0.000001)"/>
  <path d="M 363.258 793.657 L 367.805 793.657 C 371.727 793.657 374.711 792.63 376.758 790.575 C 378.805 788.521 379.828 785.525 379.828 781.587 C 379.828 777.368 378.773 774.302 376.664 772.388 C 374.555 770.474 371.375 769.517 367.125 769.517 L 363.258 769.517 L 363.258 793.657 Z M 356.906 798.743 L 356.906 764.407 L 366.844 764.407 C 369.844 764.407 372.531 764.751 374.906 765.439 C 377.281 766.126 379.324 767.161 381.035 768.544 C 382.746 769.927 384.059 771.708 384.973 773.888 C 385.887 776.068 386.344 778.587 386.344 781.446 C 386.344 786.993 384.672 791.263 381.328 794.255 C 377.984 797.247 373.352 798.743 367.43 798.743 L 356.906 798.743 Z" style="fill:white;fill-rule:nonzero;"/>
  <path d="M 391.922 798.743 L 391.922 772.986 L 398.062 772.986 L 398.062 798.743 L 391.922 798.743 Z M 391.922 769.236 L 391.922 763.986 L 398.086 763.986 L 398.086 769.236 L 391.922 769.236 Z" style="fill:white;fill-rule:nonzero;"/>
  <path d="M 404.484 798.743 L 404.484 772.986 L 409.641 772.986 L 410.437 776.923 C 412.125 774.22 414.57 772.868 417.773 772.868 C 418.445 772.868 418.992 772.9 419.414 772.962 L 419.32 778.095 C 418.695 778.001 418.047 777.954 417.375 777.954 C 415.109 777.954 413.418 778.556 412.301 779.759 C 411.184 780.962 410.625 782.634 410.625 784.775 L 410.625 798.743 L 404.484 798.743 Z" style="fill:white;fill-rule:nonzero;"/>
  <path d="M 433.453 799.095 C 431.703 799.095 430.246 798.888 429.082 798.474 C 427.918 798.06 427.008 797.407 426.352 796.517 C 425.695 795.626 425.23 794.575 424.957 793.364 C 424.684 792.154 424.547 790.657 424.547 788.876 L 424.547 776.712 L 420.328 776.712 L 420.562 773.384 L 424.969 772.986 L 426.937 766.001 L 430.687 765.978 L 430.687 772.986 L 437.086 772.986 L 437.086 776.712 L 430.687 776.712 L 430.687 788.993 C 430.687 790.946 430.969 792.337 431.531 793.165 C 432.094 793.993 433.133 794.407 434.648 794.407 C 435.539 794.407 436.492 794.329 437.508 794.173 L 437.672 798.579 C 437.641 798.579 437.449 798.614 437.098 798.685 C 436.746 798.755 436.41 798.818 436.09 798.872 C 435.769 798.927 435.359 798.978 434.859 799.025 C 434.359 799.071 433.891 799.095 433.453 799.095 Z" style="fill:white;fill-rule:nonzero;"/>
  <path d="M 443.344 809.595 C 442.344 809.595 441.281 809.532 440.156 809.407 L 439.852 804.65 C 440.57 804.728 441.484 804.767 442.594 804.767 C 444.016 804.767 445.156 804.486 446.016 803.923 C 446.875 803.361 447.586 802.361 448.148 800.923 C 448.211 800.767 448.523 799.884 449.086 798.275 L 438.727 772.986 L 445.289 772.986 L 452.062 791.665 C 452.562 789.806 453.684 786.353 455.426 781.306 C 457.168 776.259 458.125 773.486 458.297 772.986 L 464.859 772.986 C 457.719 791.861 454.117 801.376 454.055 801.532 C 452.945 804.423 451.547 806.489 449.859 807.732 C 448.172 808.974 446 809.595 443.344 809.595 Z" style="fill:white;fill-rule:nonzero;"/>
  <path d="M 473.133 798.743 L 465.328 772.986 L 471.586 772.986 L 476.531 791.876 C 476.641 791.517 477.531 788.446 479.203 782.665 C 480.875 776.884 481.82 773.657 482.039 772.986 L 488.344 772.986 C 488.547 773.642 489.445 776.837 491.039 782.571 C 492.633 788.306 493.492 791.384 493.617 791.806 L 498.703 772.986 L 504.867 772.986 L 496.805 798.743 L 490.687 798.743 C 490.484 798.071 489.535 794.673 487.84 788.548 C 486.144 782.423 485.227 779.118 485.086 778.634 C 484.773 779.775 483.777 783.212 482.098 788.946 C 480.418 794.681 479.445 797.946 479.18 798.743 L 473.133 798.743 Z" style="fill:white;fill-rule:nonzero;"/>
  <path d="M 514.969 799.236 C 512.578 799.236 510.644 798.575 509.168 797.255 C 507.691 795.935 506.953 794.032 506.953 791.548 C 506.953 788.876 507.828 786.896 509.578 785.607 C 511.328 784.318 513.969 783.501 517.5 783.157 C 517.984 783.095 518.508 783.032 519.07 782.97 C 519.633 782.907 520.266 782.845 520.969 782.782 C 521.672 782.72 522.227 782.665 522.633 782.618 L 522.633 781.259 C 522.633 779.696 522.273 778.56 521.555 777.849 C 520.836 777.138 519.742 776.782 518.273 776.782 C 516.18 776.782 513.594 777.368 510.516 778.54 C 510.5 778.493 510.242 777.782 509.742 776.407 C 509.242 775.032 508.984 774.329 508.969 774.298 C 512 773.001 515.281 772.353 518.812 772.353 C 522.281 772.353 524.805 773.107 526.383 774.614 C 527.961 776.122 528.75 778.564 528.75 781.939 L 528.75 798.743 L 524.203 798.743 C 524.187 798.681 524.016 798.157 523.687 797.173 C 523.359 796.189 523.195 795.665 523.195 795.603 C 521.914 796.853 520.66 797.771 519.434 798.357 C 518.207 798.943 516.719 799.236 514.969 799.236 Z M 516.633 794.876 C 518.055 794.876 519.293 794.536 520.348 793.857 C 521.402 793.177 522.156 792.353 522.609 791.384 L 522.609 786.415 C 522.562 786.415 522.152 786.446 521.379 786.509 C 520.605 786.571 520.187 786.603 520.125 786.603 C 517.641 786.821 515.82 787.29 514.664 788.009 C 513.508 788.728 512.93 789.884 512.93 791.478 C 512.93 792.571 513.25 793.411 513.891 793.997 C 514.531 794.583 515.445 794.876 516.633 794.876 Z" style="fill:white;fill-rule:nonzero;"/>
  <path d="M 541.898 798.743 L 531.633 772.986 L 538.148 772.986 C 538.398 773.689 539.191 775.872 540.527 779.536 C 541.863 783.2 542.75 785.696 543.187 787.025 C 544.078 789.618 544.719 791.579 545.109 792.907 C 545.109 792.892 545.242 792.384 545.508 791.384 C 545.773 790.384 546.027 789.443 546.269 788.56 C 546.512 787.677 546.664 787.142 546.727 786.954 C 546.742 786.923 547.457 784.767 548.871 780.486 C 550.285 776.204 551.125 773.704 551.391 772.986 L 557.859 772.986 L 548.109 798.743 L 541.898 798.743 Z" style="fill:white;fill-rule:nonzero;"/>
  <path d="M 572.789 799.236 C 568.648 799.236 565.426 798.044 563.121 795.661 C 560.816 793.279 559.664 789.986 559.664 785.782 C 559.664 781.689 560.75 778.431 562.922 776.009 C 565.094 773.587 568.055 772.368 571.805 772.353 C 575.352 772.353 578.105 773.462 580.066 775.681 C 582.027 777.9 583.008 780.845 583.008 784.517 C 583.008 784.782 583.004 785.212 582.996 785.806 C 582.988 786.4 582.984 786.837 582.984 787.118 L 565.852 787.118 C 565.914 789.525 566.574 791.388 567.832 792.708 C 569.09 794.029 570.82 794.689 573.023 794.689 C 575.836 794.689 578.539 793.954 581.133 792.486 L 582 796.845 C 579.422 798.439 576.352 799.236 572.789 799.236 Z M 565.969 783.251 L 577.219 783.251 C 577.219 781.157 576.742 779.548 575.789 778.423 C 574.836 777.298 573.516 776.736 571.828 776.736 C 570.25 776.736 568.918 777.282 567.832 778.376 C 566.746 779.47 566.125 781.095 565.969 783.251 Z" style="fill:white;fill-rule:nonzero;"/>
  <path d="M 601.266 798.743 L 601.266 764.407 L 608.766 764.407 L 619.148 789.204 L 629.602 764.407 L 637.008 764.407 L 637.008 798.743 L 631.148 798.743 L 631.148 781.775 L 631.336 772.048 L 630.469 774.626 L 621.68 796.4 L 616.242 796.4 L 607.641 774.509 L 606.773 771.931 L 606.984 781.868 L 606.984 798.743 L 601.266 798.743 Z" style="fill:white;fill-rule:nonzero;"/>
  <path d="M 654.258 799.236 C 652.023 799.236 650.012 798.88 648.223 798.169 C 646.434 797.458 644.984 796.364 643.875 794.888 C 642.766 793.411 642.211 791.657 642.211 789.626 C 642.211 785.517 644.234 782.564 648.281 780.767 C 644.672 779.048 642.867 776.361 642.867 772.704 C 642.867 771.267 643.164 769.978 643.758 768.837 C 644.352 767.696 645.168 766.763 646.207 766.036 C 647.246 765.31 648.449 764.759 649.816 764.384 C 651.184 764.009 652.664 763.821 654.258 763.821 C 657.57 763.821 660.293 764.595 662.426 766.142 C 664.559 767.689 665.625 769.876 665.625 772.704 C 665.625 776.314 663.953 779.001 660.609 780.767 C 664.375 782.595 666.258 785.556 666.258 789.65 C 666.258 791.681 665.707 793.435 664.605 794.911 C 663.504 796.388 662.059 797.478 660.269 798.181 C 658.48 798.884 656.477 799.236 654.258 799.236 Z M 649.617 793.54 C 650.742 794.493 652.289 794.97 654.258 794.97 C 656.227 794.97 657.766 794.493 658.875 793.54 C 659.984 792.587 660.539 791.243 660.539 789.509 C 660.539 787.79 659.961 786.368 658.805 785.243 C 657.648 784.118 656.133 783.314 654.258 782.829 C 652.336 783.314 650.801 784.118 649.652 785.243 C 648.504 786.368 647.93 787.798 647.93 789.532 C 647.93 791.251 648.492 792.587 649.617 793.54 Z M 654.258 779.173 C 656.18 778.736 657.656 777.974 658.687 776.888 C 659.719 775.802 660.234 774.415 660.234 772.728 C 660.234 771.321 659.672 770.189 658.547 769.329 C 657.422 768.47 655.992 768.04 654.258 768.04 C 652.539 768.04 651.109 768.47 649.969 769.329 C 648.828 770.189 648.258 771.321 648.258 772.728 C 648.258 774.415 648.789 775.806 649.852 776.9 C 650.914 777.993 652.383 778.751 654.258 779.173 Z" style="fill:white;fill-rule:nonzero;"/>
  <path d="M 690.703 798.743 L 690.703 769.493 L 680.695 769.493 L 680.695 764.407 L 707.039 764.407 L 707.039 769.493 L 697.078 769.493 L 697.078 798.743 L 690.703 798.743 Z" style="fill:white;fill-rule:nonzero;"/>
  <path d="M 710.508 798.743 L 710.508 772.986 L 715.664 772.986 L 716.461 776.923 C 718.148 774.22 720.594 772.868 723.797 772.868 C 724.469 772.868 725.016 772.9 725.437 772.962 L 725.344 778.095 C 724.719 778.001 724.07 777.954 723.398 777.954 C 721.133 777.954 719.441 778.556 718.324 779.759 C 717.207 780.962 716.648 782.634 716.648 784.775 L 716.648 798.743 L 710.508 798.743 Z" style="fill:white;fill-rule:nonzero;"/>
  <path d="M 735.82 799.236 C 733.43 799.236 731.496 798.575 730.019 797.255 C 728.543 795.935 727.805 794.032 727.805 791.548 C 727.805 788.876 728.68 786.896 730.43 785.607 C 732.18 784.318 734.82 783.501 738.352 783.157 C 738.836 783.095 739.359 783.032 739.922 782.97 C 740.484 782.907 741.117 782.845 741.82 782.782 C 742.523 782.72 743.078 782.665 743.484 782.618 L 743.484 781.259 C 743.484 779.696 743.125 778.56 742.406 777.849 C 741.687 777.138 740.594 776.782 739.125 776.782 C 737.031 776.782 734.445 777.368 731.367 778.54 C 731.352 778.493 731.094 777.782 730.594 776.407 C 730.094 775.032 729.836 774.329 729.82 774.298 C 732.852 773.001 736.133 772.353 739.664 772.353 C 743.133 772.353 745.656 773.107 747.234 774.614 C 748.812 776.122 749.602 778.564 749.602 781.939 L 749.602 798.743 L 745.055 798.743 C 745.039 798.681 744.867 798.157 744.539 797.173 C 744.211 796.189 744.047 795.665 744.047 795.603 C 742.766 796.853 741.512 797.771 740.285 798.357 C 739.059 798.943 737.57 799.236 735.82 799.236 Z M 737.484 794.876 C 738.906 794.876 740.144 794.536 741.199 793.857 C 742.254 793.177 743.008 792.353 743.461 791.384 L 743.461 786.415 C 743.414 786.415 743.004 786.446 742.23 786.509 C 741.457 786.571 741.039 786.603 740.977 786.603 C 738.492 786.821 736.672 787.29 735.516 788.009 C 734.359 788.728 733.781 789.884 733.781 791.478 C 733.781 792.571 734.102 793.411 734.742 793.997 C 735.383 794.583 736.297 794.876 737.484 794.876 Z" style="fill:white;fill-rule:nonzero;"/>
  <path d="M 767.062 799.236 C 763.125 799.236 760.059 798.064 757.863 795.72 C 755.668 793.376 754.57 790.025 754.57 785.665 C 754.57 781.446 755.723 778.173 758.027 775.845 C 760.332 773.517 763.367 772.353 767.133 772.353 C 770.148 772.353 772.695 773.001 774.773 774.298 L 773.32 778.681 C 771.195 777.571 769.219 777.017 767.391 777.017 C 765.312 777.017 763.676 777.759 762.48 779.243 C 761.285 780.728 760.687 782.892 760.687 785.736 C 760.687 788.611 761.277 790.798 762.457 792.298 C 763.637 793.798 765.305 794.548 767.461 794.548 C 769.711 794.548 771.875 793.884 773.953 792.556 L 774.539 797.22 C 773.461 797.939 772.344 798.454 771.187 798.767 C 770.031 799.079 768.656 799.236 767.062 799.236 Z" style="fill:white;fill-rule:nonzero;"/>
  <path d="M 779.414 798.743 L 779.414 763.493 L 785.555 763.095 L 785.555 778.915 L 785.414 784.118 C 785.43 784.103 785.59 783.946 785.894 783.65 C 786.199 783.353 786.367 783.189 786.398 783.157 C 787.258 782.142 788.191 781.095 789.199 780.017 C 790.207 778.939 791.48 777.618 793.019 776.056 C 794.559 774.493 795.562 773.47 796.031 772.986 L 803.344 772.986 L 792.75 783.954 L 804.023 798.743 L 796.594 798.743 L 788.109 787.048 L 785.555 789.064 L 785.555 798.743 L 779.414 798.743 Z" style="fill:white;fill-rule:nonzero;"/>
  <path d="M 817.922 799.236 C 813.781 799.236 810.559 798.044 808.254 795.661 C 805.949 793.279 804.797 789.986 804.797 785.782 C 804.797 781.689 805.883 778.431 808.055 776.009 C 810.227 773.587 813.187 772.368 816.937 772.353 C 820.484 772.353 823.238 773.462 825.199 775.681 C 827.16 777.9 828.141 780.845 828.141 784.517 C 828.141 784.782 828.137 785.212 828.129 785.806 C 828.121 786.4 828.117 786.837 828.117 787.118 L 810.984 787.118 C 811.047 789.525 811.707 791.388 812.965 792.708 C 814.223 794.029 815.953 794.689 818.156 794.689 C 820.969 794.689 823.672 793.954 826.266 792.486 L 827.133 796.845 C 824.555 798.439 821.484 799.236 817.922 799.236 Z M 811.102 783.251 L 822.352 783.251 C 822.352 781.157 821.875 779.548 820.922 778.423 C 819.969 777.298 818.648 776.736 816.961 776.736 C 815.383 776.736 814.051 777.282 812.965 778.376 C 811.879 779.47 811.258 781.095 811.102 783.251 Z" style="fill:white;fill-rule:nonzero;"/>
  <path d="M 833.156 798.743 L 833.156 772.986 L 838.312 772.986 L 839.109 776.923 C 840.797 774.22 843.242 772.868 846.445 772.868 C 847.117 772.868 847.664 772.9 848.086 772.962 L 847.992 778.095 C 847.367 778.001 846.719 777.954 846.047 777.954 C 843.781 777.954 842.09 778.556 840.973 779.759 C 839.855 780.962 839.297 782.634 839.297 784.775 L 839.297 798.743 L 833.156 798.743 Z" style="fill:white;fill-rule:nonzero;"/>
  <path d="M 670.344 521.254 C 671.29 521.251 672.237 521.249 673.212 521.247 C 676.361 521.24 679.511 521.241 682.662 521.242 C 684.929 521.239 687.196 521.236 689.463 521.232 C 695.608 521.223 701.753 521.221 707.898 521.22 C 711.742 521.219 715.585 521.217 719.429 521.216 C 732.16 521.207 744.89 521.202 757.621 521.203 L 761.776 521.203 C 772.884 521.203 783.993 521.194 795.101 521.18 C 806.531 521.165 817.961 521.159 829.391 521.159 C 835.799 521.16 842.206 521.157 848.614 521.147 C 854.644 521.138 860.674 521.138 866.704 521.145 C 868.909 521.146 871.114 521.143 873.319 521.137 C 911.892 521.039 911.892 521.039 926.217 534.906 C 934.993 544.548 936.291 556.469 936.3 568.993 C 936.312 569.874 936.324 570.754 936.337 571.661 C 936.362 583.205 933.556 594.518 925.29 603.069 L 923.321 603.069 L 923.321 605.037 C 918.775 607.311 914.228 609.584 909.543 611.926 C 913.116 614.837 913.116 614.837 916.125 616.048 C 923.313 619.981 928.637 625.237 932.179 632.594 C 932.922 633.934 932.922 633.934 933.678 635.3 C 939.213 647.482 938.139 665.658 934.209 678.203 C 929.791 689.246 923.799 696.543 913.111 701.792 C 904.808 705.079 896.179 705.714 887.334 705.677 C 886.346 705.681 885.358 705.685 884.339 705.689 C 881.059 705.699 877.78 705.695 874.5 705.691 C 872.135 705.695 869.771 705.7 867.406 705.706 C 861.668 705.718 855.931 705.721 850.194 705.719 C 845.525 705.717 840.858 705.719 836.19 705.723 C 835.19 705.724 835.19 705.724 834.17 705.725 C 832.816 705.726 831.462 705.727 830.108 705.728 C 817.429 705.738 804.751 705.736 792.073 705.73 C 780.501 705.726 768.928 705.736 757.356 705.755 C 745.444 705.774 733.533 705.783 721.622 705.779 C 714.947 705.777 708.271 705.779 701.596 705.793 C 695.315 705.805 689.034 705.803 682.753 705.79 C 680.456 705.789 678.16 705.791 675.863 705.799 C 645.01 705.901 645.01 705.901 632.998 697.547 C 632.395 697.159 631.793 696.769 631.172 696.367 C 623.272 690.56 618.983 680.405 617.251 670.975 C 615.174 655.458 615.233 639.177 624.987 626.228 C 630.42 619.741 635.637 616.291 643.823 613.895 L 643.823 611.926 C 643.018 611.744 643.018 611.744 642.197 611.557 C 634.024 609.322 628.551 605.055 624.091 597.833 C 618.926 588.215 616.883 579.525 617.005 568.686 C 617.014 567.818 617.022 566.95 617.03 566.056 C 617.24 553.875 619.749 542.678 628.2 533.318 C 639.898 522.71 655.315 521.227 670.344 521.254 Z M 659.263 561.12 C 655.161 567.501 654.626 574.269 656.056 581.625 C 657.727 587.011 660.855 590.117 665.475 593.228 C 671.657 596.473 678.758 596.326 685.594 596.312 C 686.81 596.315 686.81 596.315 688.051 596.319 C 690.753 596.325 693.457 596.324 696.159 596.324 C 698.103 596.327 700.047 596.33 701.99 596.334 C 707.261 596.342 712.532 596.344 717.803 596.345 C 721.098 596.345 724.393 596.347 727.688 596.35 C 739.192 596.359 750.696 596.363 762.2 596.363 C 772.911 596.362 783.622 596.373 794.334 596.388 C 803.541 596.4 812.747 596.406 821.954 596.405 C 827.448 596.405 832.942 596.408 838.436 596.418 C 843.605 596.428 848.774 596.428 853.943 596.421 C 855.835 596.42 857.728 596.422 859.62 596.428 C 876.719 597.069 876.719 597.069 891.829 590.275 C 892.925 589.392 892.925 589.392 894.043 588.492 C 898.328 583.136 898.372 576.17 897.733 569.608 C 896.611 563.841 894.118 560.59 889.584 556.941 C 885.487 554.25 881.114 554.7 876.412 554.701 C 875.53 554.697 874.648 554.694 873.74 554.69 C 870.773 554.68 867.806 554.676 864.839 554.672 C 862.716 554.666 860.595 554.659 858.472 554.652 C 852.697 554.635 846.922 554.624 841.147 554.617 C 837.541 554.612 833.934 554.606 830.327 554.6 C 819.047 554.581 807.767 554.566 796.486 554.558 C 783.458 554.549 770.43 554.523 757.401 554.484 C 747.336 554.453 737.27 554.439 727.204 554.435 C 721.19 554.433 715.177 554.425 709.163 554.4 C 703.505 554.377 697.847 554.372 692.19 554.383 C 690.114 554.383 688.038 554.377 685.962 554.364 C 683.126 554.346 680.291 554.353 677.456 554.367 C 676.635 554.356 675.815 554.345 674.97 554.333 C 668.306 554.407 664.009 556.245 659.263 561.12 Z M 659.932 634.92 C 655.665 640.027 653.987 646.541 654.334 653.103 C 655.285 659.515 657.8 664.495 662.522 669.007 C 668.327 671.653 673.039 672.387 679.367 672.334 C 680.671 672.341 680.671 672.341 682.002 672.348 C 684.9 672.36 687.797 672.351 690.694 672.341 C 692.779 672.346 694.862 672.351 696.947 672.357 C 702.596 672.371 708.244 672.366 713.893 672.356 C 719.807 672.349 725.723 672.356 731.638 672.36 C 741.57 672.366 751.502 672.359 761.434 672.344 C 772.913 672.328 784.392 672.333 795.871 672.35 C 805.732 672.363 815.593 672.365 825.454 672.358 C 831.341 672.353 837.228 672.352 843.115 672.362 C 848.65 672.371 854.184 672.365 859.718 672.347 C 861.748 672.344 863.778 672.345 865.809 672.351 C 868.581 672.359 871.353 672.349 874.126 672.334 C 875.328 672.344 875.328 672.344 876.556 672.355 C 882.84 672.29 887.051 670.641 892.506 667.47 C 896.824 662.917 898.893 656.984 899.21 650.739 C 898.892 644.543 896.333 639.553 892.629 634.685 C 885.269 629.124 875.948 628.508 867.002 628.519 C 866.202 628.516 865.402 628.513 864.578 628.51 C 861.907 628.501 859.235 628.5 856.563 628.498 C 854.644 628.495 852.724 628.489 850.805 628.484 C 845.595 628.471 840.385 628.465 835.175 628.46 C 831.917 628.457 828.658 628.453 825.4 628.449 C 815.193 628.435 804.987 628.426 794.781 628.422 C 783.019 628.418 771.259 628.4 759.497 628.372 C 750.394 628.351 741.29 628.341 732.186 628.339 C 726.755 628.338 721.324 628.332 715.893 628.315 C 710.779 628.299 705.665 628.297 700.551 628.306 C 698.682 628.306 696.813 628.302 694.944 628.292 C 676.424 627.748 676.424 627.748 659.932 634.92 Z" style="fill:white;fill-rule:nonzero;"/>
  <path d="M 280.628 521.115 C 282.043 521.1 282.043 521.1 283.485 521.087 C 284.493 521.088 285.501 521.089 286.539 521.089 C 287.586 521.085 288.634 521.081 289.712 521.076 C 291.925 521.071 294.137 521.07 296.348 521.075 C 299.722 521.078 303.095 521.054 306.468 521.03 C 308.622 521.028 310.774 521.027 312.927 521.028 C 314.433 521.014 314.433 521.014 315.969 521 C 322.391 521.041 327.783 521.469 332.699 526.045 C 333.169 526.699 333.64 527.354 334.125 528.028 C 334.693 528.812 335.261 529.597 335.847 530.404 C 339.381 535.577 342.873 540.775 346.313 546.012 C 347.977 548.535 349.66 551.046 351.342 553.557 C 355.326 559.503 359.237 565.491 363.094 571.521 C 366.711 577.167 370.432 582.74 374.167 588.307 C 381.053 598.571 387.837 608.901 394.604 619.243 C 400.541 628.316 406.511 637.366 412.549 646.372 C 413.985 648.524 415.42 650.677 416.854 652.831 C 417.749 654.172 417.749 654.172 418.661 655.541 C 419.533 656.848 419.533 656.848 420.422 658.181 C 421.145 659.226 421.868 660.27 422.613 661.345 C 424.358 664.086 424.358 664.086 424.358 666.055 L 426.327 666.055 C 426.59 665.502 426.855 664.951 427.127 664.382 C 431.833 655.263 438.123 646.833 443.833 638.312 C 445.587 635.692 447.336 633.066 449.085 630.441 C 450.357 628.534 451.628 626.628 452.899 624.72 C 453.488 623.837 454.078 622.952 454.685 622.041 C 458.154 616.835 461.627 611.63 465.105 606.429 C 475.42 590.999 475.42 590.999 485.51 575.42 C 488.675 570.484 491.952 565.621 495.217 560.751 C 496.37 559.025 497.522 557.296 498.672 555.568 C 499.488 554.345 500.305 553.123 501.123 551.902 C 503.471 548.394 505.786 544.869 508.069 541.318 C 508.581 540.529 509.093 539.741 509.621 538.929 C 510.611 537.406 511.592 535.876 512.564 534.342 C 515.756 529.455 519.691 523.627 525.539 521.819 C 527.87 521.349 530.006 521.246 532.383 521.226 C 533.31 521.217 534.236 521.208 535.191 521.198 C 536.185 521.194 537.18 521.189 538.205 521.185 C 539.748 521.177 539.748 521.177 541.322 521.168 C 543.498 521.158 545.674 521.153 547.849 521.149 C 551.172 521.139 554.493 521.108 557.815 521.078 C 559.931 521.071 562.046 521.066 564.161 521.062 C 565.648 521.044 565.648 521.044 567.163 521.026 C 572.383 521.041 576.471 521.131 580.838 524.337 C 582.92 528.316 583.056 531.753 583.063 536.199 C 583.067 536.886 583.071 537.574 583.075 538.282 C 583.085 540.579 583.081 542.875 583.077 545.172 C 583.081 546.821 583.087 548.47 583.093 550.119 C 583.105 554.595 583.105 559.07 583.103 563.545 C 583.102 567.283 583.107 571.019 583.112 574.756 C 583.123 583.573 583.123 592.389 583.117 601.206 C 583.111 610.3 583.123 619.393 583.145 628.488 C 583.161 636.297 583.167 644.107 583.164 651.916 C 583.162 656.58 583.165 661.244 583.179 665.907 C 583.191 670.292 583.189 674.678 583.176 679.063 C 583.174 680.672 583.177 682.28 583.185 683.888 C 583.195 686.087 583.187 688.283 583.175 690.482 L 583.175 694.206 C 582.768 697.903 581.765 700.283 579.854 703.452 C 575.167 706.974 568.258 705.743 562.693 705.728 C 561.485 705.744 560.276 705.76 559.031 705.777 C 557.866 705.777 556.701 705.778 555.5 705.779 C 554.438 705.781 553.375 705.784 552.281 705.788 C 548.93 705.369 547.119 704.476 544.424 702.468 C 540.125 696.018 541.306 687.313 541.27 679.83 C 541.26 678.551 541.25 677.274 541.241 675.957 C 541.214 672.471 541.193 668.984 541.174 665.498 C 541.152 661.847 541.126 658.197 541.099 654.547 C 541.05 647.643 541.005 640.738 540.963 633.834 C 540.914 625.97 540.861 618.107 540.806 610.243 C 540.694 594.074 540.589 577.904 540.488 561.735 C 539.883 562.679 539.277 563.621 538.653 564.594 C 537.85 565.845 537.046 567.097 536.242 568.347 C 535.845 568.967 535.447 569.587 535.037 570.226 C 532.105 574.791 529.123 579.317 526.095 583.817 C 521.448 590.753 516.869 597.732 512.317 604.73 C 507.053 612.819 501.751 620.878 496.377 628.894 C 493.887 632.611 491.409 636.336 488.929 640.059 C 487.062 642.86 485.193 645.66 483.32 648.455 C 479.464 654.212 475.682 660.011 471.948 665.848 C 468.951 670.523 465.877 675.143 462.778 679.752 C 460.938 682.535 459.148 685.344 457.37 688.166 C 447.7 703.446 447.7 703.446 440.105 705.42 C 435.76 705.792 431.417 705.787 427.058 705.786 C 424.986 705.79 422.917 705.826 420.845 705.862 C 413.509 705.926 407.863 705.758 401.723 701.484 C 399.578 699.285 399.578 699.285 397.909 696.809 C 397.263 695.859 396.616 694.909 395.949 693.93 C 393.198 689.642 390.459 685.347 387.799 681.001 C 384.077 674.924 380.107 669.019 376.135 663.102 C 374.76 661.046 373.385 658.989 372.011 656.932 C 371.312 655.887 370.614 654.842 369.895 653.766 C 362.82 643.171 355.797 632.545 348.854 621.863 C 343.666 613.889 338.403 605.966 333.108 598.062 C 331.29 595.345 329.479 592.626 327.666 589.906 C 327.052 588.985 326.439 588.065 325.806 587.115 C 317.017 573.933 317.017 573.933 308.229 560.751 C 308.228 561.461 308.226 562.172 308.225 562.904 C 308.189 580.195 308.13 597.484 308.048 614.775 C 308.009 623.135 307.977 631.496 307.962 639.858 C 307.949 647.145 307.923 654.433 307.881 661.72 C 307.858 665.579 307.842 669.438 307.843 673.297 C 307.844 676.929 307.826 680.562 307.795 684.194 C 307.783 686.162 307.79 688.13 307.797 690.097 C 307.777 691.859 307.777 691.859 307.756 693.656 C 307.751 695.184 307.751 695.184 307.745 696.743 C 307.111 700.259 305.793 701.911 303.308 704.436 C 298.421 706.066 293.356 705.644 288.239 705.666 C 287.128 705.687 286.018 705.707 284.873 705.728 C 274.297 705.778 274.297 705.778 269.847 702.468 C 267.484 698.974 267.629 695.765 267.623 691.628 C 267.619 690.933 267.615 690.237 267.611 689.522 C 267.601 687.192 267.605 684.863 267.609 682.534 C 267.604 680.864 267.599 679.194 267.593 677.524 C 267.581 672.987 267.58 668.451 267.583 663.915 C 267.584 660.129 267.579 656.343 267.574 652.557 C 267.563 643.626 267.563 634.695 267.569 625.764 C 267.575 616.547 267.562 607.33 267.541 598.115 C 267.525 590.203 267.518 582.293 267.522 574.382 C 267.524 569.656 267.521 564.93 267.507 560.205 C 267.494 555.761 267.496 551.318 267.509 546.874 C 267.512 545.243 267.509 543.613 267.501 541.981 C 267.49 539.755 267.498 537.53 267.511 535.303 L 267.511 531.527 C 267.909 528.004 268.698 526.156 270.831 523.353 C 274.123 521.56 276.914 521.135 280.628 521.115 Z" style="fill:white;fill-rule:nonzero;"/>
  <path d="M 547.427 296.069 L 547.427 241 L 882.427 241 L 937.496 296.069 L 937.496 488.808 L 900.784 488.808 L 804.414 392.439 L 786.057 392.439 L 786.057 488.808 L 742.462 488.808 L 547.427 296.069 Z" style="fill:white;fill-rule:nonzero;"/>
  <path d="M 267.496 433.739 L 267.496 241 L 464.825 241 L 611.674 387.849 L 611.674 488.808 L 322.565 488.808 L 267.496 433.739 Z" style="fill:white;fill-rule:nonzero;"/>
</svg>