<?xml version="1.0" encoding="utf-8"?>
<svg width="100%" height="100%" viewBox="0 0 1200 1080" version="1.1" xmlns="http://www.w3.org/2000/svg" style="fill-rule:evenodd;clip-rule:evenodd;stroke-linejoin:round;stroke-miterlimit:2;">
  <path d="M 0 0 H 1200 V 1080.001 H 0 V 0 Z" style="fill:rgb(46,46,46);"/>
  <path d="M -98.576 842.013 L 574.553 168.883 L 574.553 1515.144 L -98.576 842.013 Z" style="fill: rgb(51, 51, 51); transform-box: fill-box; transform-origin: 50% 50%;" transform="matrix(0.707107, -0.707107, 0.707107, 0.707107, 0.000004, -0.000001)"/>
  <path d="M 500.695 798.743 L 500.695 764.407 L 508.195 764.407 L 518.578 789.204 L 529.031 764.407 L 536.437 764.407 L 536.437 798.743 L 530.578 798.743 L 530.578 781.775 L 530.766 772.048 L 529.898 774.626 L 521.109 796.4 L 515.672 796.4 L 507.07 774.509 L 506.203 771.931 L 506.414 781.868 L 506.414 798.743 L 500.695 798.743 Z" style="fill:white;fill-rule:nonzero;"/>
  <path d="M 555.164 799.236 C 551.023 799.236 547.801 798.044 545.496 795.661 C 543.191 793.279 542.039 789.986 542.039 785.782 C 542.039 781.689 543.125 778.431 545.297 776.009 C 547.469 773.587 550.43 772.368 554.18 772.353 C 557.727 772.353 560.48 773.462 562.441 775.681 C 564.402 777.9 565.383 780.845 565.383 784.517 C 565.383 784.782 565.379 785.212 565.371 785.806 C 565.363 786.4 565.359 786.837 565.359 787.118 L 548.227 787.118 C 548.289 789.525 548.949 791.388 550.207 792.708 C 551.465 794.029 553.195 794.689 555.398 794.689 C 558.211 794.689 560.914 793.954 563.508 792.486 L 564.375 796.845 C 561.797 798.439 558.727 799.236 555.164 799.236 Z M 548.344 783.251 L 559.594 783.251 C 559.594 781.157 559.117 779.548 558.164 778.423 C 557.211 777.298 555.891 776.736 554.203 776.736 C 552.625 776.736 551.293 777.282 550.207 778.376 C 549.121 779.47 548.5 781.095 548.344 783.251 Z" style="fill:white;fill-rule:nonzero;"/>
  <path d="M 579.398 799.095 C 577.633 799.095 576.168 798.888 575.004 798.474 C 573.84 798.06 572.922 797.4 572.25 796.493 C 571.578 795.587 571.109 794.509 570.844 793.259 C 570.578 792.009 570.445 790.454 570.445 788.595 L 570.445 763.493 L 576.586 763.095 L 576.586 788.478 C 576.586 790.79 576.859 792.357 577.406 793.177 C 577.953 793.997 579.016 794.407 580.594 794.407 C 581.375 794.407 582.367 794.321 583.57 794.15 L 583.734 798.532 C 583.719 798.532 583.527 798.571 583.16 798.65 C 582.793 798.728 582.441 798.794 582.105 798.849 C 581.769 798.904 581.344 798.958 580.828 799.013 C 580.312 799.068 579.836 799.095 579.398 799.095 Z" style="fill:white;fill-rule:nonzero;"/>
  <path d="M 597.867 794.571 C 599.945 794.571 601.508 793.814 602.555 792.298 C 603.602 790.782 604.125 788.611 604.125 785.782 C 604.125 782.923 603.602 780.743 602.555 779.243 C 601.508 777.743 599.93 776.993 597.82 776.993 C 595.742 776.993 594.176 777.747 593.121 779.255 C 592.066 780.763 591.539 782.946 591.539 785.806 C 591.539 788.618 592.07 790.782 593.133 792.298 C 594.195 793.814 595.773 794.571 597.867 794.571 Z M 597.703 799.236 C 593.891 799.236 590.891 798.001 588.703 795.532 C 586.516 793.064 585.422 789.814 585.422 785.782 C 585.422 781.626 586.516 778.349 588.703 775.95 C 590.891 773.552 593.977 772.353 597.961 772.353 C 601.805 772.353 604.816 773.575 606.996 776.021 C 609.176 778.466 610.266 781.72 610.266 785.782 C 610.266 789.892 609.164 793.161 606.961 795.591 C 604.758 798.021 601.672 799.236 597.703 799.236 Z" style="fill:white;fill-rule:nonzero;"/>
  <path d="M 615.281 798.743 L 615.281 772.986 L 620.227 772.986 L 620.906 776.243 C 623.531 773.65 626.445 772.353 629.648 772.353 C 632.648 772.353 634.894 773.216 636.387 774.943 C 637.879 776.669 638.625 779.173 638.625 782.454 L 638.625 798.743 L 632.461 798.743 L 632.461 783.204 C 632.445 781.126 632.109 779.571 631.453 778.54 C 630.797 777.509 629.617 776.993 627.914 776.993 C 626.586 776.993 625.371 777.333 624.269 778.013 C 623.168 778.693 622.367 779.548 621.867 780.579 C 621.57 781.798 621.422 783.673 621.422 786.204 L 621.422 798.743 L 615.281 798.743 Z" style="fill:white;fill-rule:nonzero;"/>
  <path d="M 651.633 793.657 L 656.18 793.657 C 660.102 793.657 663.086 792.63 665.133 790.575 C 667.18 788.521 668.203 785.525 668.203 781.587 C 668.203 777.368 667.148 774.302 665.039 772.388 C 662.93 770.474 659.75 769.517 655.5 769.517 L 651.633 769.517 L 651.633 793.657 Z M 645.281 798.743 L 645.281 764.407 L 655.219 764.407 C 658.219 764.407 660.906 764.751 663.281 765.439 C 665.656 766.126 667.699 767.161 669.41 768.544 C 671.121 769.927 672.434 771.708 673.348 773.888 C 674.262 776.068 674.719 778.587 674.719 781.446 C 674.719 786.993 673.047 791.263 669.703 794.255 C 666.359 797.247 661.727 798.743 655.805 798.743 L 645.281 798.743 Z" style="fill:white;fill-rule:nonzero;"/>
  <path d="M 690.375 799.212 C 686.234 799.212 682.523 798.259 679.242 796.353 L 680.789 791.314 C 682.258 792.126 683.855 792.782 685.582 793.282 C 687.309 793.782 688.992 794.032 690.633 794.032 C 692.648 794.032 694.172 793.599 695.203 792.732 C 696.234 791.864 696.75 790.618 696.75 788.993 C 696.75 786.837 695.312 785.345 692.437 784.517 C 692.234 784.454 691.664 784.286 690.727 784.013 C 689.789 783.739 688.91 783.474 688.09 783.216 C 687.269 782.958 686.68 782.759 686.32 782.618 C 681.711 780.993 679.406 777.962 679.406 773.525 C 679.406 770.415 680.512 768.017 682.723 766.329 C 684.934 764.642 687.867 763.798 691.523 763.798 C 695.664 763.798 699.234 764.65 702.234 766.353 L 700.312 770.993 C 697.25 769.618 694.406 768.931 691.781 768.931 C 689.891 768.931 688.465 769.263 687.504 769.927 C 686.543 770.591 686.031 771.696 685.969 773.243 C 685.969 775.15 686.914 776.392 688.805 776.97 C 689.18 777.111 690.102 777.415 691.57 777.884 C 693.039 778.353 693.992 778.657 694.43 778.798 C 697.57 779.829 699.816 781.111 701.168 782.642 C 702.519 784.173 703.195 786.306 703.195 789.04 C 703.195 792.306 702.039 794.818 699.727 796.575 C 697.414 798.333 694.297 799.212 690.375 799.212 Z" style="fill:white;fill-rule:nonzero;"/>
  <path d="M 515.583 244.448 C 546.653 213.377 562.189 197.841 580.36 192.717 C 593.202 189.095 606.799 189.095 619.64 192.717 C 637.812 197.841 653.347 213.377 684.418 244.448 L 795.553 355.583 C 826.624 386.653 842.159 402.189 847.284 420.36 C 850.906 433.202 850.906 446.799 847.284 459.64 C 842.159 477.812 826.624 493.347 795.553 524.418 L 684.418 635.553 C 653.347 666.624 637.812 682.159 619.64 687.284 C 606.799 690.906 593.202 690.906 580.36 687.284 C 562.189 682.159 546.653 666.624 515.583 635.553 L 404.448 524.418 C 373.377 493.347 357.841 477.812 352.717 459.64 C 349.095 446.799 349.095 433.202 352.717 420.36 C 357.841 402.189 373.377 386.653 404.448 355.583 L 515.583 244.448 Z" style="fill:rgb(119,119,119);"/>
  <path d="M 529.587 274.576 C 555.478 248.684 568.425 235.738 583.568 231.467 C 594.27 228.449 605.6 228.449 616.301 231.467 C 631.444 235.738 644.39 248.684 670.283 274.576 L 765.5 369.794 C 791.392 395.687 804.339 408.633 808.609 423.776 C 811.627 434.477 811.627 445.808 808.609 456.509 C 804.339 471.652 791.392 484.599 765.5 510.49 L 670.283 605.709 C 644.39 631.601 631.444 644.547 616.301 648.818 C 605.6 651.836 594.27 651.836 583.568 648.818 C 568.425 644.547 555.478 631.601 529.587 605.709 L 434.368 510.49 C 408.477 484.599 395.53 471.652 391.259 456.509 C 388.242 445.808 388.242 434.477 391.259 423.776 C 395.53 408.633 408.476 395.687 434.368 369.794 L 529.587 274.576 Z" style="fill:rgb(170,170,170);"/>
  <path d="M 541.394 291.007 C 562.971 269.43 573.759 258.642 586.378 255.083 C 595.296 252.568 604.738 252.568 613.656 255.083 C 626.275 258.642 637.064 269.431 658.64 291.007 L 749.027 381.394 C 770.603 402.971 781.392 413.759 784.951 426.378 C 787.466 435.295 787.466 444.738 784.951 453.655 C 781.392 466.275 770.603 477.064 749.027 498.64 L 658.64 589.027 C 637.063 610.603 626.275 621.392 613.656 624.951 C 604.738 627.466 595.296 627.466 586.378 624.951 C 573.759 621.392 562.97 610.603 541.394 589.027 L 451.007 498.64 C 429.43 477.063 418.642 466.275 415.083 453.655 C 412.568 444.738 412.568 435.295 415.083 426.378 C 418.642 413.759 429.431 402.97 451.007 381.394 L 541.394 291.007 Z" style="fill:white;"/>
  <path d="M 541.801 491.821 C 541.801 491.821 533.88 498.207 524.748 500.348 C 519.524 501.571 511.394 501.205 507.694 497.505 L 450.847 440.658 C 447.147 436.958 446.781 428.828 448.004 423.605 C 450.145 414.473 456.531 406.55 456.531 406.55 L 564.54 298.541 C 564.54 298.541 572.463 292.155 581.594 290.014 C 586.818 288.79 594.949 289.157 598.649 292.857 L 655.496 349.704 C 659.195 353.403 659.562 361.534 658.337 366.757 C 656.198 375.889 649.81 383.812 649.81 383.812 L 541.801 491.821 Z" style="fill:rgb(204,204,204);"/>
  <path d="M 634.22 586.248 C 634.22 586.248 626.297 592.635 617.165 594.775 C 611.942 595.999 603.811 595.633 600.111 591.933 L 543.264 535.086 C 539.565 531.386 539.198 523.255 540.422 518.032 C 542.563 508.9 548.949 500.978 548.949 500.978 L 656.958 392.969 C 656.958 392.969 664.881 386.582 674.012 384.442 C 679.236 383.217 687.366 383.584 691.066 387.284 L 747.913 444.131 C 751.613 447.83 751.979 455.961 750.756 461.185 C 748.615 470.316 742.229 478.239 742.229 478.239 L 634.22 586.248 Z" style="fill:rgb(204,204,204);"/>
  <path d="M 546.424 451.471 C 546.424 451.471 541.877 455.137 536.636 456.365 C 533.638 457.068 528.972 456.858 526.848 454.734 L 494.221 422.107 C 492.098 419.984 491.887 415.318 492.59 412.319 C 493.818 407.078 497.484 402.531 497.484 402.531 L 559.476 340.54 C 559.476 340.54 564.022 336.874 569.264 335.646 C 572.261 334.943 576.928 335.154 579.052 337.277 L 611.678 369.904 C 613.802 372.028 614.012 376.694 613.31 379.692 C 612.082 384.933 608.416 389.48 608.416 389.48 L 546.424 451.471 Z" style="fill:rgb(51,51,51);"/>
  <path d="M 690.336 457.982 C 694.261 461.906 700.623 461.906 704.548 457.982 L 715.459 447.071 C 719.384 443.147 719.384 436.783 715.459 432.859 L 704.548 421.948 C 700.623 418.024 694.261 418.024 690.336 421.948 L 679.425 432.859 C 675.5 436.783 675.5 443.147 679.425 447.071 L 690.336 457.982 Z" style="fill:rgb(51,51,51);"/>
  <path d="M 587.835 558.474 C 591.759 562.398 598.122 562.398 602.046 558.474 L 612.958 547.562 C 616.882 543.638 616.882 537.275 612.958 533.351 L 602.046 522.44 C 598.122 518.516 591.759 518.516 587.835 522.44 L 576.924 533.351 C 572.999 537.275 572.999 543.638 576.924 547.563 L 587.835 558.474 Z" style="fill:rgb(51,51,51);"/>
</svg>