<?xml version="1.0" encoding="UTF-8" standalone="no"?>
<!DOCTYPE svg PUBLIC "-//W3C//DTD SVG 1.1//EN" "http://www.w3.org/Graphics/SVG/1.1/DTD/svg11.dtd">
<svg width="100%" height="100%" viewBox="0 0 1200 1080" version="1.1" xmlns="http://www.w3.org/2000/svg" xmlns:xlink="http://www.w3.org/1999/xlink" xml:space="preserve" xmlns:serif="http://www.serif.com/" style="fill-rule:evenodd;clip-rule:evenodd;stroke-linejoin:round;stroke-miterlimit:2;">
    <rect id="Artboard1" x="0" y="0" width="1200" height="1080" style="fill:none;"/>
    <g id="Artboard11" serif:id="Artboard1">
        <g transform="matrix(1,0,0,1.09091,-720,207.273)">
            <rect x="720" y="-190" width="1200" height="990" style="fill:rgb(46,46,46);"/>
        </g>
        <g transform="matrix(0.707107,-0.707107,0.707107,0.707107,-575.938,-155.145)">
            <path d="M-466.129,1280.63L207,607.5L207,1953.76L-466.129,1280.63Z" style="fill:rgb(51,51,51);"/>
        </g>
        <g id="moonlight.svg">
            <g transform="matrix(1,0,0,1,17.8621,-41.6765)">
                <path d="M468.396,840.419L468.396,806.083L475.896,806.083L486.279,830.88L496.732,806.083L504.138,806.083L504.138,840.419L498.279,840.419L498.279,823.451L498.466,813.724L497.599,816.302L488.81,838.076L483.372,838.076L474.771,816.185L473.904,813.607L474.115,823.544L474.115,840.419L468.396,840.419Z" style="fill:white;fill-rule:nonzero;"/>
                <path d="M522.185,836.247C524.263,836.247 525.825,835.49 526.872,833.974C527.919,832.458 528.443,830.287 528.443,827.458C528.443,824.599 527.919,822.419 526.872,820.919C525.825,819.419 524.247,818.669 522.138,818.669C520.06,818.669 518.493,819.423 517.439,820.931C516.384,822.439 515.857,824.622 515.857,827.482C515.857,830.294 516.388,832.458 517.45,833.974C518.513,835.49 520.091,836.247 522.185,836.247ZM522.021,840.912C518.208,840.912 515.208,839.677 513.021,837.208C510.833,834.74 509.74,831.49 509.74,827.458C509.74,823.302 510.833,820.025 513.021,817.626C515.208,815.228 518.294,814.029 522.279,814.029C526.122,814.029 529.134,815.251 531.314,817.697C533.493,820.142 534.583,823.396 534.583,827.458C534.583,831.568 533.482,834.837 531.279,837.267C529.075,839.697 525.99,840.912 522.021,840.912Z" style="fill:white;fill-rule:nonzero;"/>
                <path d="M550.825,836.247C552.904,836.247 554.466,835.49 555.513,833.974C556.56,832.458 557.083,830.287 557.083,827.458C557.083,824.599 556.56,822.419 555.513,820.919C554.466,819.419 552.888,818.669 550.779,818.669C548.7,818.669 547.134,819.423 546.079,820.931C545.025,822.439 544.497,824.622 544.497,827.482C544.497,830.294 545.029,832.458 546.091,833.974C547.154,835.49 548.732,836.247 550.825,836.247ZM550.661,840.912C546.849,840.912 543.849,839.677 541.661,837.208C539.474,834.74 538.38,831.49 538.38,827.458C538.38,823.302 539.474,820.025 541.661,817.626C543.849,815.228 546.935,814.029 550.919,814.029C554.763,814.029 557.775,815.251 559.954,817.697C562.134,820.142 563.224,823.396 563.224,827.458C563.224,831.568 562.122,834.837 559.919,837.267C557.716,839.697 554.63,840.912 550.661,840.912Z" style="fill:white;fill-rule:nonzero;"/>
                <path d="M568.24,840.419L568.24,814.662L573.185,814.662L573.865,817.919C576.49,815.326 579.404,814.029 582.607,814.029C585.607,814.029 587.853,814.892 589.345,816.619C590.837,818.345 591.583,820.849 591.583,824.13L591.583,840.419L585.419,840.419L585.419,824.88C585.404,822.802 585.068,821.247 584.411,820.216C583.755,819.185 582.575,818.669 580.872,818.669C579.544,818.669 578.329,819.009 577.228,819.689C576.126,820.369 575.325,821.224 574.825,822.255C574.529,823.474 574.38,825.349 574.38,827.88L574.38,840.419L568.24,840.419Z" style="fill:white;fill-rule:nonzero;"/>
                <path d="M606.654,840.771C604.888,840.771 603.423,840.564 602.259,840.15C601.095,839.736 600.177,839.076 599.505,838.169C598.833,837.263 598.365,836.185 598.099,834.935C597.833,833.685 597.7,832.13 597.7,830.271L597.7,805.169L603.841,804.771L603.841,830.154C603.841,832.466 604.115,834.033 604.661,834.853C605.208,835.673 606.271,836.083 607.849,836.083C608.63,836.083 609.622,835.997 610.825,835.826L610.99,840.208C610.974,840.208 610.782,840.247 610.415,840.326C610.048,840.404 609.697,840.47 609.361,840.525C609.025,840.58 608.599,840.634 608.083,840.689C607.568,840.744 607.091,840.771 606.654,840.771Z" style="fill:white;fill-rule:nonzero;"/>
                <path d="M614.177,840.419L614.177,814.662L620.318,814.662L620.318,840.419L614.177,840.419ZM614.177,810.912L614.177,805.662L620.341,805.662L620.341,810.912L614.177,810.912Z" style="fill:white;fill-rule:nonzero;"/>
                <path d="M631.872,851.951L631.521,846.982L634.638,846.982C638.247,846.982 640.771,846.501 642.208,845.54C643.646,844.58 644.365,842.818 644.365,840.255C644.365,839.208 644.318,838.076 644.224,836.857C643.818,837.419 643.431,837.884 643.064,838.251C642.697,838.619 642.236,838.982 641.681,839.341C641.126,839.701 640.462,839.97 639.689,840.15C638.915,840.33 638.036,840.419 637.052,840.419C633.646,840.419 630.845,839.193 628.65,836.74C626.454,834.287 625.357,831.122 625.357,827.247C625.357,825.185 625.661,823.306 626.271,821.611C626.88,819.915 627.708,818.521 628.755,817.427C629.802,816.333 631.009,815.494 632.376,814.908C633.743,814.322 635.2,814.029 636.747,814.029C640.2,814.029 642.771,815.287 644.458,817.802L644.88,814.662L650.365,814.662L650.365,838.591C650.365,839.872 650.302,841.025 650.177,842.048C650.052,843.072 649.833,844.056 649.521,845.001C649.208,845.947 648.798,846.771 648.29,847.474C647.782,848.177 647.146,848.818 646.38,849.396C645.615,849.974 644.712,850.447 643.673,850.814C642.634,851.181 641.427,851.462 640.052,851.658C638.677,851.853 637.13,851.951 635.411,851.951L631.872,851.951ZM638.036,836.13C642.271,836.13 644.411,833.294 644.458,827.622L644.458,826.732C644.427,824.185 643.896,822.216 642.865,820.826C641.833,819.435 640.325,818.732 638.341,818.716C636.091,818.716 634.388,819.486 633.232,821.025C632.075,822.564 631.497,824.638 631.497,827.247C631.497,829.763 632.079,831.872 633.243,833.576C634.407,835.279 636.005,836.13 638.036,836.13Z" style="fill:white;fill-rule:nonzero;"/>
                <path d="M656.411,840.419L656.411,805.169L662.552,804.771L662.552,812.201C662.552,812.56 662.529,813.556 662.482,815.189C662.435,816.822 662.411,817.654 662.411,817.685C664.458,815.247 667.208,814.029 670.661,814.029C673.536,814.029 675.767,814.853 677.353,816.501C678.939,818.15 679.732,820.685 679.732,824.107L679.732,840.419L673.591,840.419L673.591,824.787C673.591,822.677 673.255,821.13 672.583,820.146C671.911,819.162 670.771,818.669 669.161,818.669C667.786,818.669 666.568,819.017 665.505,819.712C664.443,820.408 663.646,821.302 663.115,822.396C662.74,823.833 662.552,825.708 662.552,828.021L662.552,840.419L656.411,840.419Z" style="fill:white;fill-rule:nonzero;"/>
                <path d="M696.068,840.771C694.318,840.771 692.861,840.564 691.697,840.15C690.532,839.736 689.622,839.083 688.966,838.193C688.31,837.302 687.845,836.251 687.572,835.04C687.298,833.83 687.161,832.333 687.161,830.552L687.161,818.388L682.943,818.388L683.177,815.06L687.583,814.662L689.552,807.677L693.302,807.654L693.302,814.662L699.7,814.662L699.7,818.388L693.302,818.388L693.302,830.669C693.302,832.622 693.583,834.013 694.146,834.841C694.708,835.669 695.747,836.083 697.263,836.083C698.154,836.083 699.107,836.005 700.122,835.849L700.286,840.255C700.255,840.255 700.064,840.29 699.712,840.361C699.361,840.431 699.025,840.494 698.704,840.548C698.384,840.603 697.974,840.654 697.474,840.701C696.974,840.747 696.505,840.771 696.068,840.771Z" style="fill:white;fill-rule:nonzero;"/>
            </g>
            <g transform="matrix(1,0,0,1,0,49.9792)">
                <g id="path106" transform="matrix(3.08452,0,0,3.08452,410.002,278.79)">
                    <path d="M61.598,23.132C40.133,23.132 22.733,40.533 22.733,61.997C22.733,83.462 40.133,100.863 61.598,100.863C83.063,100.863 100.463,83.462 100.463,61.997C100.463,40.533 83.063,23.132 61.598,23.132M123.195,61.997C123.195,96.017 95.618,123.595 61.598,123.595C27.578,123.595 0,96.017 0,61.997C0,27.978 27.578,0.399 61.598,0.399C95.618,0.399 123.195,27.978 123.195,61.997" style="fill:white;fill-rule:nonzero;"/>
                </g>
                <g id="path108" transform="matrix(3.08452,0,0,3.08452,410.002,278.79)">
                    <rect x="59.098" y="23.131" width="3.69" height="77.732" style="fill:white;fill-rule:nonzero;"/>
                </g>
                <g id="path110" transform="matrix(3.08452,0,0,3.08452,410.002,278.79)">
                    <rect x="21.859" y="61.403" width="78.605" height="3.69" style="fill:white;fill-rule:nonzero;"/>
                </g>
                <g id="path114" transform="matrix(3.08452,0,0,3.08452,410.002,278.79)">
                    <path d="M34.675,92.343L32.065,89.733L88.167,33.632L90.776,36.242L34.675,92.343Z" style="fill:white;fill-rule:nonzero;"/>
                </g>
                <g id="path118" transform="matrix(3.08452,0,0,3.08452,410.002,278.79)">
                    <path d="M89.957,88.914L87.347,91.524L32.066,36.241L34.675,33.631L89.957,88.914Z" style="fill:white;fill-rule:nonzero;"/>
                </g>
            </g>
        </g>
    </g>
</svg>
