<?xml version="1.0" encoding="utf-8"?>
<svg width="100%" height="100%" viewBox="0 0 1200 1080" version="1.1" xmlns="http://www.w3.org/2000/svg" style="fill-rule:evenodd;clip-rule:evenodd;stroke-linejoin:round;stroke-miterlimit:2;">
  <rect id="Artboard1" x="0" y="0" width="1200" height="1080" style="fill:none;"/>
  <rect width="1200" height="1080.001" style="fill:rgb(46,46,46);"/>
  <path d="M -98.576 842.013 L 574.553 168.883 L 574.553 1515.144 L -98.576 842.013 Z" style="fill: rgb(51, 51, 51); transform-box: fill-box; transform-origin: 50% 50%;" transform="matrix(0.707107, -0.707107, 0.707107, 0.707107, -0.000006, -0.000008)"/>
  <path d="M 486.258 798.743 L 486.258 764.407 L 493.758 764.407 L 504.141 789.204 L 514.594 764.407 L 522 764.407 L 522 798.743 L 516.141 798.743 L 516.141 781.775 L 516.328 772.048 L 515.461 774.626 L 506.672 796.4 L 501.234 796.4 L 492.633 774.509 L 491.766 771.931 L 491.977 781.868 L 491.977 798.743 L 486.258 798.743 Z" style="fill:white;fill-rule:nonzero;"/>
  <path d="M 540.047 794.571 C 542.125 794.571 543.687 793.814 544.734 792.298 C 545.781 790.782 546.305 788.611 546.305 785.782 C 546.305 782.923 545.781 780.743 544.734 779.243 C 543.687 777.743 542.109 776.993 540 776.993 C 537.922 776.993 536.355 777.747 535.301 779.255 C 534.246 780.763 533.719 782.946 533.719 785.806 C 533.719 788.618 534.25 790.782 535.312 792.298 C 536.375 793.814 537.953 794.571 540.047 794.571 Z M 539.883 799.236 C 536.07 799.236 533.07 798.001 530.883 795.532 C 528.695 793.064 527.602 789.814 527.602 785.782 C 527.602 781.626 528.695 778.349 530.883 775.95 C 533.07 773.552 536.156 772.353 540.141 772.353 C 543.984 772.353 546.996 773.575 549.176 776.021 C 551.355 778.466 552.445 781.72 552.445 785.782 C 552.445 789.892 551.344 793.161 549.141 795.591 C 546.937 798.021 543.852 799.236 539.883 799.236 Z" style="fill:white;fill-rule:nonzero;"/>
  <path d="M 568.687 794.571 C 570.766 794.571 572.328 793.814 573.375 792.298 C 574.422 790.782 574.945 788.611 574.945 785.782 C 574.945 782.923 574.422 780.743 573.375 779.243 C 572.328 777.743 570.75 776.993 568.641 776.993 C 566.562 776.993 564.996 777.747 563.941 779.255 C 562.887 780.763 562.359 782.946 562.359 785.806 C 562.359 788.618 562.891 790.782 563.953 792.298 C 565.016 793.814 566.594 794.571 568.687 794.571 Z M 568.523 799.236 C 564.711 799.236 561.711 798.001 559.523 795.532 C 557.336 793.064 556.242 789.814 556.242 785.782 C 556.242 781.626 557.336 778.349 559.523 775.95 C 561.711 773.552 564.797 772.353 568.781 772.353 C 572.625 772.353 575.637 773.575 577.816 776.021 C 579.996 778.466 581.086 781.72 581.086 785.782 C 581.086 789.892 579.984 793.161 577.781 795.591 C 575.578 798.021 572.492 799.236 568.523 799.236 Z" style="fill:white;fill-rule:nonzero;"/>
  <path d="M 586.102 798.743 L 586.102 772.986 L 591.047 772.986 L 591.727 776.243 C 594.352 773.65 597.266 772.353 600.469 772.353 C 603.469 772.353 605.715 773.216 607.207 774.943 C 608.699 776.669 609.445 779.173 609.445 782.454 L 609.445 798.743 L 603.281 798.743 L 603.281 783.204 C 603.266 781.126 602.93 779.571 602.273 778.54 C 601.617 777.509 600.437 776.993 598.734 776.993 C 597.406 776.993 596.191 777.333 595.09 778.013 C 593.988 778.693 593.187 779.548 592.687 780.579 C 592.391 781.798 592.242 783.673 592.242 786.204 L 592.242 798.743 L 586.102 798.743 Z" style="fill:white;fill-rule:nonzero;"/>
  <path d="M 624.516 799.095 C 622.75 799.095 621.285 798.888 620.121 798.474 C 618.957 798.06 618.039 797.4 617.367 796.493 C 616.695 795.587 616.227 794.509 615.961 793.259 C 615.695 792.009 615.562 790.454 615.562 788.595 L 615.562 763.493 L 621.703 763.095 L 621.703 788.478 C 621.703 790.79 621.977 792.357 622.523 793.177 C 623.07 793.997 624.133 794.407 625.711 794.407 C 626.492 794.407 627.484 794.321 628.687 794.15 L 628.852 798.532 C 628.836 798.532 628.644 798.571 628.277 798.65 C 627.91 798.728 627.559 798.794 627.223 798.849 C 626.887 798.904 626.461 798.958 625.945 799.013 C 625.43 799.068 624.953 799.095 624.516 799.095 Z" style="fill:white;fill-rule:nonzero;"/>
  <path d="M 632.039 798.743 L 632.039 772.986 L 638.18 772.986 L 638.18 798.743 L 632.039 798.743 Z M 632.039 769.236 L 632.039 763.986 L 638.203 763.986 L 638.203 769.236 L 632.039 769.236 Z" style="fill:white;fill-rule:nonzero;"/>
  <path d="M 649.734 810.275 L 649.383 805.306 L 652.5 805.306 C 656.109 805.306 658.633 804.825 660.07 803.864 C 661.508 802.904 662.227 801.142 662.227 798.579 C 662.227 797.532 662.18 796.4 662.086 795.181 C 661.68 795.743 661.293 796.208 660.926 796.575 C 660.559 796.943 660.098 797.306 659.543 797.665 C 658.988 798.025 658.324 798.294 657.551 798.474 C 656.777 798.654 655.898 798.743 654.914 798.743 C 651.508 798.743 648.707 797.517 646.512 795.064 C 644.316 792.611 643.219 789.446 643.219 785.571 C 643.219 783.509 643.523 781.63 644.133 779.935 C 644.742 778.239 645.57 776.845 646.617 775.751 C 647.664 774.657 648.871 773.818 650.238 773.232 C 651.605 772.646 653.062 772.353 654.609 772.353 C 658.062 772.353 660.633 773.611 662.32 776.126 L 662.742 772.986 L 668.227 772.986 L 668.227 796.915 C 668.227 798.196 668.164 799.349 668.039 800.372 C 667.914 801.396 667.695 802.38 667.383 803.325 C 667.07 804.271 666.66 805.095 666.152 805.798 C 665.644 806.501 665.008 807.142 664.242 807.72 C 663.477 808.298 662.574 808.771 661.535 809.138 C 660.496 809.505 659.289 809.786 657.914 809.982 C 656.539 810.177 654.992 810.275 653.273 810.275 L 649.734 810.275 Z M 655.898 794.454 C 660.133 794.454 662.273 791.618 662.32 785.946 L 662.32 785.056 C 662.289 782.509 661.758 780.54 660.727 779.15 C 659.695 777.759 658.187 777.056 656.203 777.04 C 653.953 777.04 652.25 777.81 651.094 779.349 C 649.937 780.888 649.359 782.962 649.359 785.571 C 649.359 788.087 649.941 790.196 651.105 791.9 C 652.269 793.603 653.867 794.454 655.898 794.454 Z" style="fill:white;fill-rule:nonzero;"/>
  <path d="M 674.273 798.743 L 674.273 763.493 L 680.414 763.095 L 680.414 770.525 C 680.414 770.884 680.391 771.88 680.344 773.513 C 680.297 775.146 680.273 775.978 680.273 776.009 C 682.32 773.571 685.07 772.353 688.523 772.353 C 691.398 772.353 693.629 773.177 695.215 774.825 C 696.801 776.474 697.594 779.009 697.594 782.431 L 697.594 798.743 L 691.453 798.743 L 691.453 783.111 C 691.453 781.001 691.117 779.454 690.445 778.47 C 689.773 777.486 688.633 776.993 687.023 776.993 C 685.648 776.993 684.43 777.341 683.367 778.036 C 682.305 778.732 681.508 779.626 680.977 780.72 C 680.602 782.157 680.414 784.032 680.414 786.345 L 680.414 798.743 L 674.273 798.743 Z" style="fill:white;fill-rule:nonzero;"/>
  <path d="M 713.93 799.095 C 712.18 799.095 710.723 798.888 709.559 798.474 C 708.394 798.06 707.484 797.407 706.828 796.517 C 706.172 795.626 705.707 794.575 705.434 793.364 C 705.16 792.154 705.023 790.657 705.023 788.876 L 705.023 776.712 L 700.805 776.712 L 701.039 773.384 L 705.445 772.986 L 707.414 766.001 L 711.164 765.978 L 711.164 772.986 L 717.562 772.986 L 717.562 776.712 L 711.164 776.712 L 711.164 788.993 C 711.164 790.946 711.445 792.337 712.008 793.165 C 712.57 793.993 713.609 794.407 715.125 794.407 C 716.016 794.407 716.969 794.329 717.984 794.173 L 718.148 798.579 C 718.117 798.579 717.926 798.614 717.574 798.685 C 717.223 798.755 716.887 798.818 716.566 798.872 C 716.246 798.927 715.836 798.978 715.336 799.025 C 714.836 799.071 714.367 799.095 713.93 799.095 Z" style="fill:white;fill-rule:nonzero;"/>
  <path d="M 600.002 400.12 C 533.793 400.12 480.122 453.794 480.122 520 C 480.122 586.209 533.793 639.883 600.002 639.883 C 666.212 639.883 719.882 586.209 719.882 520 C 719.882 453.794 666.212 400.12 600.002 400.12 M 789.999 520 C 789.999 624.936 704.938 710 600.002 710 C 495.067 710 410.002 624.936 410.002 520 C 410.002 415.068 495.067 330 600.002 330 C 704.938 330 789.999 415.068 789.999 520" style="fill:white;fill-rule:nonzero;"/>
  <rect x="592.291" y="400.117" width="11.382" height="239.766" style="fill:white;fill-rule:nonzero;"/>
  <rect x="477.427" y="518.168" width="242.459" height="11.382" style="fill:white;fill-rule:nonzero;"/>
  <path d="M 516.958 613.603 L 508.907 605.552 L 681.955 432.508 L 690.002 440.558 L 516.958 613.603 Z" style="fill:white;fill-rule:nonzero;"/>
  <path d="M 687.476 603.026 L 679.426 611.077 L 508.91 440.555 L 516.958 432.505 L 687.476 603.026 Z" style="fill:white;fill-rule:nonzero;"/>
</svg>