<?xml version="1.0" encoding="UTF-8" standalone="no"?>
<svg
   width="100%"
   height="100%"
   viewBox="0 0 1200 1080"
   version="1.1"
   xml:space="preserve"
   style="fill-rule:evenodd;clip-rule:evenodd;stroke-linejoin:round;stroke-miterlimit:2;"
   id="svg16"
   sodipodi:docname="nfs.svg"
   inkscape:version="1.3.2 (091e20ef0f, 2023-11-25)"
   inkscape:export-filename="nfs.svg"
   inkscape:export-xdpi="96"
   inkscape:export-ydpi="96"
   xmlns:inkscape="http://www.inkscape.org/namespaces/inkscape"
   xmlns:sodipodi="http://sodipodi.sourceforge.net/DTD/sodipodi-0.dtd"
   xmlns="http://www.w3.org/2000/svg"
   xmlns:svg="http://www.w3.org/2000/svg"><defs
   id="defs16"><rect
     x="194.4252"
     y="716.5337"
     width="619.27555"
     height="114.748"
     id="rect16" /></defs><sodipodi:namedview
   id="namedview16"
   pagecolor="#ffffff"
   bordercolor="#000000"
   borderopacity="0.25"
   inkscape:showpageshadow="2"
   inkscape:pageopacity="0.0"
   inkscape:pagecheckerboard="0"
   inkscape:deskcolor="#d1d1d1"
   inkscape:zoom="1.0720503"
   inkscape:cx="875.42535"
   inkscape:cy="562.00722"
   inkscape:window-width="2256"
   inkscape:window-height="1416"
   inkscape:window-x="0"
   inkscape:window-y="0"
   inkscape:window-maximized="1"
   inkscape:current-layer="svg16" />
    <g
   transform="matrix(1,0,0,1.09091,-720,207.273)"
   id="g1">
        <rect
   x="720"
   y="-190"
   width="1200"
   height="990"
   style="fill:rgb(46,46,46);"
   id="rect1" />
    </g>
    <g
   transform="matrix(0.707107,-0.707107,0.707107,0.707107,-575.938,-155.145)"
   id="g2">
        <path
   d="M-466.129,1280.63L207,607.5L207,1953.76L-466.129,1280.63Z"
   style="fill:rgb(51,51,51);"
   id="path1" />
    </g>
    
<path
   d="m 513.62765,240.90902 h 146.38006 v 39.92755 H 513.62765 Z m 97.5867,79.8153 h 48.79336 v 39.88774 h -48.79336 z m -50.11076,264.64446 c 3.90346,-2.3885 12.3447,1.55252 19.22458,8.8772 5.10135,7.13332 43.33035,38.19995 33.42344,47.05322 L 421.74976,758.89242 c -3.90346,2.34867 -12.3447,-1.55252 -19.27337,-8.91702 l -27.95858,-29.69687 c -6.87987,-7.3247 -9.27074,-14.96786 -5.41607,-17.31653 0,0 192.53857,-115.16493 192.00185,-117.59322 z m -48.83844,-60.43201 -0.58923,35.59173 H 336.3614 c -10.05142,0 -17.95595,8.16067 -17.95595,18.5904 v 42.117 c 0,10.42973 7.90453,18.59039 17.95595,18.59039 h 500.81497 c 10.05142,0 17.95595,-8.16066 17.95595,-18.59039 v -42.117 c 0,-10.42973 -7.90453,-18.5904 -17.95595,-18.5904 h -178.2909 l -0.80458,-35.54813 z M 455.07563,122.63905 c -46.40248,0 -87.82803,31.56785 -87.82803,69.505 v 263.25118 c 0,37.93714 41.42555,69.50499 91.14598,69.50499 h 256.8482 c 49.76922,0 91.14599,-31.56785 91.14599,-69.50499 V 192.14405 c 0,-37.93715 -41.42556,-69.505 -91.14599,-69.505 z m 9.75867,79.61627 h 243.96677 c 0,12.61917 0,-12.57937 0,0 V 441.10411 H 464.8343 c 0,0 0,1.75156 0,0 V 202.25532 c 0,-1.75156 0,0 0,0 z m 147.69747,383.11346 c -3.90346,-2.3885 -12.34471,1.55252 -19.22458,8.8772 l -27.95858,29.73668 c -6.92867,7.32469 -9.31954,14.92805 -5.46487,17.31654 l 192.00185,117.59322 c 3.90346,2.34867 12.34472,-1.55252 19.27337,-8.91702 l 27.95859,-29.69687 c 6.87987,-7.3247 9.27074,-14.96786 5.41607,-17.31653 0,0 -192.53857,-115.16493 -192.00185,-117.59322 z"
   style="fill:#b8b8b8;stroke-width:44.0724"
   id="path1-9"
   sodipodi:nodetypes="ccccccccccccccccccccccsssssssscscsssssssssccsccsccccccccc" /><path
   d="M 227.8841,794.17584 213.21744,746.3842 h -0.375 q 0.79167,14.58332 0.79167,19.45832 v 28.33332 H 202.09244 V 733.2592 h 17.58333 l 14.41666,46.58331 h 0.25 l 15.29166,-46.58331 h 17.58333 v 60.91664 h -12.04166 v -28.83332 q 0,-2.04166 0.0417,-4.70833 0.0833,-2.66667 0.58334,-14.16666 h -0.375 l -15.70833,47.70831 z"
   id="text24"
   style="-inkscape-font-specification:'Open Sans, Bold';fill:#ffffff"
   transform="translate(178,58)"
   aria-label="M" /><path
   d="m 291.67575,770.80085 q 0,6.91667 2.25,10.45833 2.29167,3.54167 7.41667,3.54167 5.08333,0 7.29166,-3.5 2.25,-3.54167 2.25,-10.5 0,-6.91666 -2.25,-10.37499 -2.25,-3.45834 -7.375,-3.45834 -5.08333,0 -7.33333,3.45834 -2.25,3.41666 -2.25,10.37499 z m 32.20832,0 q 0,11.375 -5.99999,17.79166 -6,6.41667 -16.70833,6.41667 -6.70833,0 -11.83333,-2.91667 -5.125,-2.95833 -7.875,-8.45833 -2.74999,-5.5 -2.74999,-12.83333 0,-11.41666 5.95833,-17.74999 5.95833,-6.33333 16.74999,-6.33333 6.70833,0 11.83333,2.91666 5.125,2.91667 7.87499,8.375 2.75,5.45833 2.75,12.79166 z"
   id="text23"
   style="-inkscape-font-specification:'Open Sans, Bold';fill:#ffffff"
   transform="translate(178,58)"
   aria-label="o" /><path
   d="m 367.38403,794.17584 -1.70834,-5.95833 h -0.66666 q -2.04167,3.25 -5.79167,5.04167 -3.74999,1.75 -8.54166,1.75 -8.20833,0 -12.37499,-4.375 -4.16667,-4.41667 -4.16667,-12.66666 v -30.37499 h 12.70833 v 27.20832 q 0,5.04166 1.79166,7.58333 1.79167,2.5 5.70834,2.5 5.33333,0 7.70833,-3.54167 2.37499,-3.58333 2.37499,-11.83332 v -21.91666 h 12.70833 v 46.58331 z"
   id="text22"
   style="-inkscape-font-specification:'Open Sans, Bold';fill:#ffffff"
   transform="translate(178,58)"
   aria-label="u" /><path
   d="m 433.46734,794.17584 h -12.70833 v -27.20832 q 0,-5.04166 -1.79167,-7.54166 -1.79166,-2.54167 -5.70833,-2.54167 -5.33333,0 -7.70833,3.58333 -2.375,3.54167 -2.375,11.79166 v 21.91666 h -12.70833 v -46.58331 h 9.70833 l 1.70834,5.95833 h 0.70833 q 2.125,-3.375 5.83333,-5.08333 3.75,-1.75 8.5,-1.75 8.12499,0 12.33332,4.41666 4.20834,4.375 4.20834,12.66666 z"
   id="text21"
   style="-inkscape-font-specification:'Open Sans, Bold';fill:#ffffff"
   transform="translate(178,58)"
   aria-label="n" /><path
   d="m 466.17566,784.88418 q 3.33333,0 8,-1.45833 v 9.45833 q -4.75,2.125 -11.66667,2.125 -7.62499,0 -11.12499,-3.83334 -3.45833,-3.87499 -3.45833,-11.58332 v -22.45833 h -6.08333 v -5.375 l 6.99999,-4.24999 3.66667,-9.83333 h 8.12499 v 9.91666 h 13.04167 v 9.54166 h -13.04167 v 22.45833 q 0,2.70833 1.5,3.99999 1.54167,1.29167 4.04167,1.29167 z"
   id="text20"
   style="-inkscape-font-specification:'Open Sans, Bold';fill:#ffffff"
   transform="translate(178,58)"
   aria-label="t" /><path
   d="m 560.80062,794.17584 h -16.41666 l -26.49999,-46.08331 h -0.375 q 0.79167,12.20833 0.79167,17.41666 v 28.66665 H 506.75898 V 733.2592 h 16.29166 l 26.45832,45.62498 h 0.29167 q -0.625,-11.87499 -0.625,-16.79166 V 733.2592 h 11.62499 z"
   id="text19"
   style="-inkscape-font-specification:'Open Sans, Bold';fill:#ffffff"
   transform="translate(178,58)"
   aria-label="N" /><path
   d="M 588.84228,794.17584 H 576.13395 V 733.2592 h 34.91665 v 10.58333 h -22.20832 v 15.70833 h 20.66665 v 10.54166 h -20.66665 z"
   id="text18"
   style="-inkscape-font-specification:'Open Sans, Bold';fill:#ffffff"
   transform="translate(178,58)"
   aria-label="F" /><path
   d="m 658.92558,777.25918 q 0,8.25 -5.95833,13 -5.91667,4.75 -16.49999,4.75 -9.75,0 -17.25,-3.66667 v -11.99999 q 6.16667,2.74999 10.41667,3.87499 4.29166,1.125 7.83333,1.125 4.24999,0 6.49999,-1.625 2.29167,-1.625 2.29167,-4.83333 0,-1.79166 -1,-3.16666 -1,-1.41667 -2.95833,-2.70834 -1.91667,-1.29166 -7.875,-4.12499 -5.58333,-2.625 -8.375,-5.04167 -2.79166,-2.41666 -4.45833,-5.625 -1.66666,-3.20833 -1.66666,-7.49999 0,-8.08333 5.45833,-12.70833 5.49999,-4.625 15.16666,-4.625 4.75,0 9.04166,1.125 4.33333,1.125 9.04166,3.16667 l -4.16666,10.04166 q -4.875,-2 -8.08333,-2.79167 -3.16667,-0.79166 -6.25,-0.79166 -3.66666,0 -5.625,1.70833 -1.95833,1.70833 -1.95833,4.45833 0,1.70833 0.79167,3 0.79166,1.25 2.5,2.45833 1.75,1.16667 8.20833,4.25 8.54166,4.08333 11.70832,8.20833 3.16667,4.08333 3.16667,10.04166 z"
   id="text17"
   style="-inkscape-font-specification:'Open Sans, Bold';fill:#ffffff"
   transform="translate(178,58)"
   aria-label="S" /></svg>
