<?xml version="1.0" encoding="utf-8"?>
<svg width="100%" height="100%" viewBox="0 0 1200 1080" version="1.1" xmlns="http://www.w3.org/2000/svg" style="fill-rule:evenodd;clip-rule:evenodd;stroke-linejoin:round;stroke-miterlimit:2;">
  <rect id="Artboard1" x="0" y="0" width="1200" height="1080" style="fill:none;"/>
  <rect width="1200" height="1080.001" style="fill:rgb(46,46,46);"/>
  <path d="M -98.576 842.013 L 574.553 168.883 L 574.553 1515.144 L -98.576 842.013 Z" style="fill: rgb(51, 51, 51); transform-box: fill-box; transform-origin: 50% 50%;" transform="matrix(0.707107, -0.707107, 0.707107, 0.707107, -0.000006, -0.000008)"/>
  <path d="M 479.613 798.743 L 479.613 764.407 L 487.113 764.407 L 497.496 789.204 L 507.949 764.407 L 515.355 764.407 L 515.355 798.743 L 509.496 798.743 L 509.496 781.775 L 509.684 772.048 L 508.816 774.626 L 500.027 796.4 L 494.59 796.4 L 485.988 774.509 L 485.121 771.931 L 485.332 781.868 L 485.332 798.743 L 479.613 798.743 Z" style="fill:white;fill-rule:nonzero;"/>
  <path d="M 533.402 794.571 C 535.48 794.571 537.043 793.814 538.09 792.298 C 539.137 790.782 539.66 788.611 539.66 785.782 C 539.66 782.923 539.137 780.743 538.09 779.243 C 537.043 777.743 535.465 776.993 533.355 776.993 C 531.277 776.993 529.711 777.747 528.656 779.255 C 527.602 780.763 527.074 782.946 527.074 785.806 C 527.074 788.618 527.605 790.782 528.668 792.298 C 529.73 793.814 531.309 794.571 533.402 794.571 Z M 533.238 799.236 C 529.426 799.236 526.426 798.001 524.238 795.532 C 522.051 793.064 520.957 789.814 520.957 785.782 C 520.957 781.626 522.051 778.349 524.238 775.95 C 526.426 773.552 529.512 772.353 533.496 772.353 C 537.34 772.353 540.352 773.575 542.531 776.021 C 544.711 778.466 545.801 781.72 545.801 785.782 C 545.801 789.892 544.699 793.161 542.496 795.591 C 540.293 798.021 537.207 799.236 533.238 799.236 Z" style="fill:white;fill-rule:nonzero;"/>
  <path d="M 569.402 796.728 C 567.355 798.4 564.66 799.236 561.316 799.236 C 557.973 799.236 555.281 798.4 553.242 796.728 C 551.203 795.056 550.184 792.603 550.184 789.368 L 550.184 772.986 L 556.348 772.986 L 556.348 789.134 C 556.348 791.056 556.75 792.446 557.555 793.306 C 558.359 794.165 559.637 794.595 561.387 794.595 C 563.105 794.595 564.359 794.169 565.148 793.318 C 565.937 792.466 566.332 791.071 566.332 789.134 L 566.332 772.986 L 572.473 772.986 L 572.473 789.368 C 572.473 792.587 571.449 795.04 569.402 796.728 Z" style="fill:white;fill-rule:nonzero;"/>
  <path d="M 578.074 798.743 L 578.074 772.986 L 583.019 772.986 L 583.699 776.243 C 586.324 773.65 589.238 772.353 592.441 772.353 C 595.441 772.353 597.687 773.216 599.18 774.943 C 600.672 776.669 601.418 779.173 601.418 782.454 L 601.418 798.743 L 595.254 798.743 L 595.254 783.204 C 595.238 781.126 594.902 779.571 594.246 778.54 C 593.59 777.509 592.41 776.993 590.707 776.993 C 589.379 776.993 588.164 777.333 587.062 778.013 C 585.961 778.693 585.16 779.548 584.66 780.579 C 584.363 781.798 584.215 783.673 584.215 786.204 L 584.215 798.743 L 578.074 798.743 Z" style="fill:white;fill-rule:nonzero;"/>
  <path d="M 617.754 799.095 C 616.004 799.095 614.547 798.888 613.383 798.474 C 612.219 798.06 611.309 797.407 610.652 796.517 C 609.996 795.626 609.531 794.575 609.258 793.364 C 608.984 792.154 608.848 790.657 608.848 788.876 L 608.848 776.712 L 604.629 776.712 L 604.863 773.384 L 609.269 772.986 L 611.238 766.001 L 614.988 765.978 L 614.988 772.986 L 621.387 772.986 L 621.387 776.712 L 614.988 776.712 L 614.988 788.993 C 614.988 790.946 615.269 792.337 615.832 793.165 C 616.394 793.993 617.434 794.407 618.949 794.407 C 619.84 794.407 620.793 794.329 621.809 794.173 L 621.973 798.579 C 621.941 798.579 621.75 798.614 621.398 798.685 C 621.047 798.755 620.711 798.818 620.391 798.872 C 620.07 798.927 619.66 798.978 619.16 799.025 C 618.66 799.071 618.191 799.095 617.754 799.095 Z" style="fill:white;fill-rule:nonzero;"/>
  <path d="M 639.551 798.743 L 639.551 764.407 L 646.301 764.407 C 647.519 766.314 649.996 770.157 653.73 775.939 C 657.465 781.72 659.738 785.236 660.551 786.486 C 660.785 786.845 661.187 787.45 661.758 788.302 C 662.328 789.154 662.73 789.759 662.965 790.118 C 662.855 784.759 662.801 781.978 662.801 781.775 L 662.801 764.407 L 668.59 764.407 L 668.59 798.743 L 661.746 798.743 L 646.254 774.603 L 645.129 772.751 C 645.254 776.876 645.316 779.775 645.316 781.446 L 645.316 798.743 L 639.551 798.743 Z" style="fill:white;fill-rule:nonzero;"/>
  <path d="M 675.973 798.743 L 675.973 764.407 L 696.293 764.407 L 696.059 769.446 L 682.277 769.446 L 682.277 779.196 L 695.379 779.196 L 695.379 784.189 L 682.277 784.189 L 682.277 798.743 L 675.973 798.743 Z" style="fill:white;fill-rule:nonzero;"/>
  <path d="M 711.457 799.212 C 707.316 799.212 703.605 798.259 700.324 796.353 L 701.871 791.314 C 703.34 792.126 704.937 792.782 706.664 793.282 C 708.391 793.782 710.074 794.032 711.715 794.032 C 713.73 794.032 715.254 793.599 716.285 792.732 C 717.316 791.864 717.832 790.618 717.832 788.993 C 717.832 786.837 716.394 785.345 713.519 784.517 C 713.316 784.454 712.746 784.286 711.809 784.013 C 710.871 783.739 709.992 783.474 709.172 783.216 C 708.352 782.958 707.762 782.759 707.402 782.618 C 702.793 780.993 700.488 777.962 700.488 773.525 C 700.488 770.415 701.594 768.017 703.805 766.329 C 706.016 764.642 708.949 763.798 712.605 763.798 C 716.746 763.798 720.316 764.65 723.316 766.353 L 721.394 770.993 C 718.332 769.618 715.488 768.931 712.863 768.931 C 710.973 768.931 709.547 769.263 708.586 769.927 C 707.625 770.591 707.113 771.696 707.051 773.243 C 707.051 775.15 707.996 776.392 709.887 776.97 C 710.262 777.111 711.184 777.415 712.652 777.884 C 714.121 778.353 715.074 778.657 715.512 778.798 C 718.652 779.829 720.898 781.111 722.25 782.642 C 723.602 784.173 724.277 786.306 724.277 789.04 C 724.277 792.306 723.121 794.818 720.809 796.575 C 718.496 798.333 715.379 799.212 711.457 799.212 Z" style="fill:white;fill-rule:nonzero;"/>
  <path d="M 700 495 C 741.406 495 775 461.406 775 420 C 775 378.594 741.406 345 700 345 C 658.594 345 625 378.594 625 420 C 625 423.125 625.156 426.25 625.547 429.297 L 552.031 466.016 C 538.594 452.969 520.234 445 500 445 C 458.594 445 425 478.594 425 520 C 425 561.406 458.594 595 500 595 C 520.234 595 538.594 587.031 552.031 573.984 L 625.547 610.703 C 625.156 613.75 625 616.797 625 620 C 625 661.406 658.594 695 700 695 C 741.406 695 775 661.406 775 620 C 775 578.594 741.406 545 700 545 C 679.766 545 661.406 552.969 647.969 566.016 L 574.453 529.297 C 574.844 526.25 575 523.203 575 520 C 575 516.797 574.844 513.75 574.453 510.703 L 647.969 473.984 C 661.406 487.031 679.766 495 700 495 Z" style="fill:white;fill-rule:nonzero;"/>
</svg>