<?xml version="1.0" encoding="UTF-8" standalone="no"?>
<!DOCTYPE svg PUBLIC "-//W3C//DTD SVG 1.1//EN" "http://www.w3.org/Graphics/SVG/1.1/DTD/svg11.dtd">
<svg width="100%" height="100%" viewBox="0 0 1200 1080" version="1.1" xmlns="http://www.w3.org/2000/svg" xmlns:xlink="http://www.w3.org/1999/xlink" xml:space="preserve" xmlns:serif="http://www.serif.com/" style="fill-rule:evenodd;clip-rule:evenodd;stroke-linejoin:round;stroke-miterlimit:2;">
    <rect id="Artboard1" x="0" y="0" width="1200" height="1080" style="fill:none;"/>
    <g id="Artboard11" serif:id="Artboard1">
        <g transform="matrix(1,0,0,1.09091,-720,207.273)">
            <rect x="720" y="-190" width="1200" height="990" style="fill:rgb(46,46,46);"/>
        </g>
        <g transform="matrix(0.707107,-0.707107,0.707107,0.707107,-575.938,-155.145)">
            <path d="M-466.129,1280.63L207,607.5L207,1953.76L-466.129,1280.63Z" style="fill:rgb(51,51,51);"/>
        </g>
        <g id="nfs.svg">
            <g transform="matrix(1,0,0,1,17.8621,-41.6765)">
                <path d="M461.751,840.419L461.751,806.083L469.251,806.083L479.634,830.88L490.087,806.083L497.493,806.083L497.493,840.419L491.634,840.419L491.634,823.451L491.822,813.724L490.954,816.302L482.165,838.076L476.728,838.076L468.126,816.185L467.259,813.607L467.47,823.544L467.47,840.419L461.751,840.419Z" style="fill:white;fill-rule:nonzero;"/>
                <path d="M515.54,836.247C517.618,836.247 519.181,835.49 520.228,833.974C521.275,832.458 521.798,830.287 521.798,827.458C521.798,824.599 521.275,822.419 520.228,820.919C519.181,819.419 517.603,818.669 515.493,818.669C513.415,818.669 511.849,819.423 510.794,820.931C509.74,822.439 509.212,824.622 509.212,827.482C509.212,830.294 509.743,832.458 510.806,833.974C511.868,835.49 513.447,836.247 515.54,836.247ZM515.376,840.912C511.564,840.912 508.564,839.677 506.376,837.208C504.189,834.74 503.095,831.49 503.095,827.458C503.095,823.302 504.189,820.025 506.376,817.626C508.564,815.228 511.65,814.029 515.634,814.029C519.478,814.029 522.49,815.251 524.669,817.697C526.849,820.142 527.939,823.396 527.939,827.458C527.939,831.568 526.837,834.837 524.634,837.267C522.431,839.697 519.345,840.912 515.376,840.912Z" style="fill:white;fill-rule:nonzero;"/>
                <path d="M551.54,838.404C549.493,840.076 546.798,840.912 543.454,840.912C540.111,840.912 537.419,840.076 535.38,838.404C533.341,836.732 532.322,834.279 532.322,831.044L532.322,814.662L538.486,814.662L538.486,830.81C538.486,832.732 538.888,834.122 539.693,834.982C540.497,835.841 541.775,836.271 543.525,836.271C545.243,836.271 546.497,835.845 547.286,834.994C548.075,834.142 548.47,832.747 548.47,830.81L548.47,814.662L554.611,814.662L554.611,831.044C554.611,834.263 553.587,836.716 551.54,838.404Z" style="fill:white;fill-rule:nonzero;"/>
                <path d="M560.212,840.419L560.212,814.662L565.157,814.662L565.837,817.919C568.462,815.326 571.376,814.029 574.579,814.029C577.579,814.029 579.825,814.892 581.318,816.619C582.81,818.345 583.556,820.849 583.556,824.13L583.556,840.419L577.392,840.419L577.392,824.88C577.376,822.802 577.04,821.247 576.384,820.216C575.728,819.185 574.548,818.669 572.845,818.669C571.517,818.669 570.302,819.009 569.2,819.689C568.099,820.369 567.298,821.224 566.798,822.255C566.501,823.474 566.353,825.349 566.353,827.88L566.353,840.419L560.212,840.419Z" style="fill:white;fill-rule:nonzero;"/>
                <path d="M599.892,840.771C598.142,840.771 596.685,840.564 595.521,840.15C594.357,839.736 593.447,839.083 592.79,838.193C592.134,837.302 591.669,836.251 591.396,835.04C591.122,833.83 590.986,832.333 590.986,830.552L590.986,818.388L586.767,818.388L587.001,815.06L591.407,814.662L593.376,807.677L597.126,807.654L597.126,814.662L603.525,814.662L603.525,818.388L597.126,818.388L597.126,830.669C597.126,832.622 597.407,834.013 597.97,834.841C598.532,835.669 599.572,836.083 601.087,836.083C601.978,836.083 602.931,836.005 603.947,835.849L604.111,840.255C604.079,840.255 603.888,840.29 603.536,840.361C603.185,840.431 602.849,840.494 602.529,840.548C602.208,840.603 601.798,840.654 601.298,840.701C600.798,840.747 600.329,840.771 599.892,840.771Z" style="fill:white;fill-rule:nonzero;"/>
                <path d="M621.689,840.419L621.689,806.083L628.439,806.083C629.657,807.99 632.134,811.833 635.868,817.615C639.603,823.396 641.876,826.912 642.689,828.162C642.923,828.521 643.325,829.126 643.896,829.978C644.466,830.83 644.868,831.435 645.103,831.794C644.993,826.435 644.939,823.654 644.939,823.451L644.939,806.083L650.728,806.083L650.728,840.419L643.884,840.419L628.392,816.279L627.267,814.427C627.392,818.552 627.454,821.451 627.454,823.122L627.454,840.419L621.689,840.419Z" style="fill:white;fill-rule:nonzero;"/>
                <path d="M658.111,840.419L658.111,806.083L678.431,806.083L678.197,811.122L664.415,811.122L664.415,820.872L677.517,820.872L677.517,825.865L664.415,825.865L664.415,840.419L658.111,840.419Z" style="fill:white;fill-rule:nonzero;"/>
                <path d="M693.595,840.888C689.454,840.888 685.743,839.935 682.462,838.029L684.009,832.99C685.478,833.802 687.075,834.458 688.802,834.958C690.529,835.458 692.212,835.708 693.853,835.708C695.868,835.708 697.392,835.275 698.423,834.408C699.454,833.54 699.97,832.294 699.97,830.669C699.97,828.513 698.532,827.021 695.657,826.193C695.454,826.13 694.884,825.962 693.947,825.689C693.009,825.415 692.13,825.15 691.31,824.892C690.49,824.634 689.9,824.435 689.54,824.294C684.931,822.669 682.626,819.638 682.626,815.201C682.626,812.091 683.732,809.693 685.943,808.005C688.154,806.318 691.087,805.474 694.743,805.474C698.884,805.474 702.454,806.326 705.454,808.029L703.532,812.669C700.47,811.294 697.626,810.607 695.001,810.607C693.111,810.607 691.685,810.939 690.724,811.603C689.763,812.267 689.251,813.372 689.189,814.919C689.189,816.826 690.134,818.068 692.025,818.646C692.4,818.787 693.322,819.091 694.79,819.56C696.259,820.029 697.212,820.333 697.65,820.474C700.79,821.505 703.036,822.787 704.388,824.318C705.74,825.849 706.415,827.982 706.415,830.716C706.415,833.982 705.259,836.494 702.947,838.251C700.634,840.009 697.517,840.888 693.595,840.888Z" style="fill:white;fill-rule:nonzero;"/>
            </g>
            <g transform="matrix(0.78125,0,0,0.78125,425,320)">
                <path d="M352,224C405,224 448,181 448,128C448,75 405,32 352,32C299,32 256,75 256,128C256,132 256.2,136 256.7,139.9L162.6,186.9C145.4,170.2 121.9,160 96,160C43,160 0,203 0,256C0,309 43,352 96,352C121.9,352 145.4,341.8 162.6,325.1L256.7,372.1C256.2,376 256,379.9 256,384C256,437 299,480 352,480C405,480 448,437 448,384C448,331 405,288 352,288C326.1,288 302.6,298.2 285.4,314.9L191.3,267.9C191.8,264 192,260.1 192,256C192,251.9 191.8,248 191.3,244.1L285.4,197.1C302.6,213.8 326.1,224 352,224Z" style="fill:white;fill-rule:nonzero;"/>
            </g>
        </g>
    </g>
</svg>
