<?xml version="1.0" encoding="utf-8"?>
<svg width="100%" height="100%" viewBox="0 0 1200 1080" version="1.1" xmlns="http://www.w3.org/2000/svg" style="fill-rule:evenodd;clip-rule:evenodd;stroke-linejoin:round;stroke-miterlimit:2;">
  <path d="M 0 0 H 1200 V 1080.001 H 0 V 0 Z" style="fill:rgb(46,46,46);"/>
  <path d="M -98.576 842.013 L 574.553 168.883 L 574.553 1515.144 L -98.576 842.013 Z" style="fill: rgb(51, 51, 51); transform-box: fill-box; transform-origin: 50% 50%;" transform="matrix(0.707107, -0.707107, 0.707107, 0.707107, -0.000006, -0.000008)"/>
  <path d="M 532.699 798.743 L 532.699 764.314 L 544.137 764.314 C 546.84 764.314 549.152 764.661 551.074 765.357 C 552.996 766.052 554.516 767.181 555.633 768.743 C 556.75 770.306 557.309 772.267 557.309 774.626 C 557.309 776.267 557.098 777.724 556.676 778.997 C 556.254 780.271 555.559 781.427 554.59 782.466 C 553.621 783.505 552.258 784.306 550.5 784.868 C 548.742 785.431 546.621 785.712 544.137 785.712 C 542.012 785.712 540.285 785.65 538.957 785.525 L 538.957 798.743 L 532.699 798.743 Z M 543.457 781.118 C 544.754 781.118 545.883 780.993 546.844 780.743 C 547.805 780.493 548.555 780.173 549.094 779.782 C 549.633 779.392 550.062 778.907 550.383 778.329 C 550.703 777.751 550.914 777.193 551.016 776.654 C 551.117 776.114 551.168 775.509 551.168 774.837 C 551.168 772.946 550.559 771.509 549.34 770.525 C 548.121 769.54 546.402 769.048 544.184 769.048 L 538.957 769.048 L 538.957 781.071 C 539.144 781.103 540.644 781.118 543.457 781.118 Z" style="fill:white;fill-rule:nonzero;"/>
  <path d="M 577.019 799.236 C 572.004 799.236 568.027 797.657 565.09 794.501 C 562.152 791.345 560.684 786.986 560.684 781.423 C 560.684 776.142 562.219 771.904 565.289 768.708 C 568.359 765.513 572.379 763.915 577.348 763.915 C 581.363 763.915 584.762 764.845 587.543 766.704 L 585.551 771.509 C 582.879 769.868 580.191 769.048 577.488 769.048 C 574.332 769.048 571.836 770.185 570 772.458 C 568.164 774.732 567.246 777.782 567.246 781.611 C 567.246 785.579 568.133 788.65 569.906 790.821 C 571.68 792.993 574.207 794.079 577.488 794.079 C 580.363 794.079 583.215 793.361 586.043 791.923 L 586.887 796.892 C 584.262 798.454 580.973 799.236 577.019 799.236 Z" style="fill:white;fill-rule:nonzero;"/>
  <path d="M 602.168 799.212 C 598.027 799.212 594.316 798.259 591.035 796.353 L 592.582 791.314 C 594.051 792.126 595.648 792.782 597.375 793.282 C 599.102 793.782 600.785 794.032 602.426 794.032 C 604.441 794.032 605.965 793.599 606.996 792.732 C 608.027 791.864 608.543 790.618 608.543 788.993 C 608.543 786.837 607.105 785.345 604.23 784.517 C 604.027 784.454 603.457 784.286 602.519 784.013 C 601.582 783.739 600.703 783.474 599.883 783.216 C 599.062 782.958 598.473 782.759 598.113 782.618 C 593.504 780.993 591.199 777.962 591.199 773.525 C 591.199 770.415 592.305 768.017 594.516 766.329 C 596.727 764.642 599.66 763.798 603.316 763.798 C 607.457 763.798 611.027 764.65 614.027 766.353 L 612.105 770.993 C 609.043 769.618 606.199 768.931 603.574 768.931 C 601.684 768.931 600.258 769.263 599.297 769.927 C 598.336 770.591 597.824 771.696 597.762 773.243 C 597.762 775.15 598.707 776.392 600.598 776.97 C 600.973 777.111 601.894 777.415 603.363 777.884 C 604.832 778.353 605.785 778.657 606.223 778.798 C 609.363 779.829 611.609 781.111 612.961 782.642 C 614.312 784.173 614.988 786.306 614.988 789.04 C 614.988 792.306 613.832 794.818 611.519 796.575 C 609.207 798.333 606.09 799.212 602.168 799.212 Z" style="fill:white;fill-rule:nonzero;"/>
  <path d="M 616.441 798.743 L 628.465 781.165 L 617.332 764.407 L 624.48 764.407 L 632.566 777.204 L 640.887 764.407 L 647.66 764.407 L 636.293 781.259 L 648.269 798.743 L 640.934 798.743 L 632.262 785.384 L 623.402 798.743 L 616.441 798.743 Z" style="fill:white;fill-rule:nonzero;"/>
  <path d="M 650.027 798.743 L 649.887 793.681 L 660.738 781.4 C 662.082 779.962 663.062 778.638 663.68 777.427 C 664.297 776.216 664.605 774.939 664.605 773.595 C 664.605 772.111 664.121 770.927 663.152 770.044 C 662.184 769.161 660.91 768.72 659.332 768.72 C 657.879 768.72 656.445 768.989 655.031 769.529 C 653.617 770.068 652.457 770.743 651.551 771.556 L 649.793 766.915 C 652.137 764.853 655.434 763.821 659.684 763.821 C 663.059 763.821 665.773 764.669 667.828 766.364 C 669.883 768.06 670.91 770.454 670.91 773.548 C 670.91 775.736 670.328 777.821 669.164 779.806 C 668 781.79 666.41 783.829 664.394 785.923 L 656.66 794.126 L 670.512 794.126 L 670.09 798.743 L 650.027 798.743 Z" style="fill:white;fill-rule:nonzero;"/>
  <path d="M 410 330 L 790.002 330 L 790.002 710.002 L 410 710.002 L 410 330 Z M 492.969 410.511 L 492.77 458.093 L 683.1 458.093 L 682.9 502.477 L 494.17 502.477 L 494.369 618.835 L 724.884 618.635 L 724.884 571.652 L 529.956 571.652 L 529.956 537.865 L 725.484 537.865 L 725.484 410.711 L 492.969 410.511 Z" style="fill:white;"/>
</svg>