<?xml version="1.0" encoding="UTF-8" standalone="no"?>
<!DOCTYPE svg PUBLIC "-//W3C//DTD SVG 1.1//EN" "http://www.w3.org/Graphics/SVG/1.1/DTD/svg11.dtd">
<svg width="100%" height="100%" viewBox="0 0 1200 1080" version="1.1" xmlns="http://www.w3.org/2000/svg" xmlns:xlink="http://www.w3.org/1999/xlink" xml:space="preserve" xmlns:serif="http://www.serif.com/" style="fill-rule:evenodd;clip-rule:evenodd;stroke-linejoin:round;stroke-miterlimit:2;">
    <rect id="Artboard1" x="0" y="0" width="1200" height="1080" style="fill:none;"/>
    <g id="Artboard11" serif:id="Artboard1">
        <g transform="matrix(1,0,0,1.09091,-720,207.273)">
            <rect x="720" y="-190" width="1200" height="990" style="fill:rgb(46,46,46);"/>
        </g>
        <g transform="matrix(0.707107,-0.707107,0.707107,0.707107,-575.938,-155.145)">
            <path d="M-466.129,1280.63L207,607.5L207,1953.76L-466.129,1280.63Z" style="fill:rgb(51,51,51);"/>
        </g>
        <g id="pcsx2.svg">
            <g transform="matrix(1,0,0,1,17.8621,-41.6765)">
                <path d="M514.837,840.419L514.837,805.99L526.275,805.99C528.978,805.99 531.29,806.337 533.212,807.033C535.134,807.728 536.654,808.857 537.771,810.419C538.888,811.982 539.447,813.943 539.447,816.302C539.447,817.943 539.236,819.4 538.814,820.673C538.392,821.947 537.697,823.103 536.728,824.142C535.759,825.181 534.396,825.982 532.638,826.544C530.88,827.107 528.759,827.388 526.275,827.388C524.15,827.388 522.423,827.326 521.095,827.201L521.095,840.419L514.837,840.419ZM525.595,822.794C526.892,822.794 528.021,822.669 528.982,822.419C529.943,822.169 530.693,821.849 531.232,821.458C531.771,821.068 532.2,820.583 532.521,820.005C532.841,819.427 533.052,818.869 533.154,818.33C533.255,817.79 533.306,817.185 533.306,816.513C533.306,814.622 532.697,813.185 531.478,812.201C530.259,811.216 528.54,810.724 526.322,810.724L521.095,810.724L521.095,822.747C521.282,822.779 522.782,822.794 525.595,822.794Z" style="fill:white;fill-rule:nonzero;"/>
                <path d="M559.157,840.912C554.142,840.912 550.165,839.333 547.228,836.177C544.29,833.021 542.822,828.662 542.822,823.099C542.822,817.818 544.357,813.58 547.427,810.384C550.497,807.189 554.517,805.591 559.486,805.591C563.501,805.591 566.9,806.521 569.681,808.38L567.689,813.185C565.017,811.544 562.329,810.724 559.626,810.724C556.47,810.724 553.974,811.861 552.138,814.134C550.302,816.408 549.384,819.458 549.384,823.287C549.384,827.255 550.271,830.326 552.044,832.497C553.818,834.669 556.345,835.755 559.626,835.755C562.501,835.755 565.353,835.037 568.181,833.599L569.025,838.568C566.4,840.13 563.111,840.912 559.157,840.912Z" style="fill:white;fill-rule:nonzero;"/>
                <path d="M584.306,840.888C580.165,840.888 576.454,839.935 573.173,838.029L574.72,832.99C576.189,833.802 577.786,834.458 579.513,834.958C581.24,835.458 582.923,835.708 584.564,835.708C586.579,835.708 588.103,835.275 589.134,834.408C590.165,833.54 590.681,832.294 590.681,830.669C590.681,828.513 589.243,827.021 586.368,826.193C586.165,826.13 585.595,825.962 584.657,825.689C583.72,825.415 582.841,825.15 582.021,824.892C581.2,824.634 580.611,824.435 580.251,824.294C575.642,822.669 573.337,819.638 573.337,815.201C573.337,812.091 574.443,809.693 576.654,808.005C578.865,806.318 581.798,805.474 585.454,805.474C589.595,805.474 593.165,806.326 596.165,808.029L594.243,812.669C591.181,811.294 588.337,810.607 585.712,810.607C583.822,810.607 582.396,810.939 581.435,811.603C580.474,812.267 579.962,813.372 579.9,814.919C579.9,816.826 580.845,818.068 582.736,818.646C583.111,818.787 584.032,819.091 585.501,819.56C586.97,820.029 587.923,820.333 588.361,820.474C591.501,821.505 593.747,822.787 595.099,824.318C596.45,825.849 597.126,827.982 597.126,830.716C597.126,833.982 595.97,836.494 593.657,838.251C591.345,840.009 588.228,840.888 584.306,840.888Z" style="fill:white;fill-rule:nonzero;"/>
                <path d="M598.579,840.419L610.603,822.841L599.47,806.083L606.618,806.083L614.704,818.88L623.025,806.083L629.798,806.083L618.431,822.935L630.407,840.419L623.072,840.419L614.4,827.06L605.54,840.419L598.579,840.419Z" style="fill:white;fill-rule:nonzero;"/>
                <path d="M632.165,840.419L632.025,835.357L642.876,823.076C644.22,821.638 645.2,820.314 645.818,819.103C646.435,817.892 646.743,816.615 646.743,815.271C646.743,813.787 646.259,812.603 645.29,811.72C644.322,810.837 643.048,810.396 641.47,810.396C640.017,810.396 638.583,810.665 637.169,811.205C635.755,811.744 634.595,812.419 633.689,813.232L631.931,808.591C634.275,806.529 637.572,805.497 641.822,805.497C645.197,805.497 647.911,806.345 649.966,808.04C652.021,809.736 653.048,812.13 653.048,815.224C653.048,817.412 652.466,819.497 651.302,821.482C650.138,823.466 648.548,825.505 646.532,827.599L638.798,835.802L652.65,835.802L652.228,840.419L632.165,840.419Z" style="fill:white;fill-rule:nonzero;"/>
            </g>
            <g transform="matrix(1.20167,0,0,1.20167,410,330)">
                <path d="M0,0L316.228,0L316.228,316.228L0,316.228L0,0ZM69.045,66.999L68.879,106.596L227.267,106.596L227.101,143.531L70.044,143.531L70.21,240.361L262.039,240.195L262.039,201.097L99.824,201.097L99.824,172.98L262.538,172.98L262.538,67.166L69.045,66.999Z" style="fill:white;"/>
            </g>
        </g>
    </g>
</svg>
