<?xml version="1.0" encoding="utf-8"?>
<svg width="100%" height="100%" viewBox="0 0 1200 1080" version="1.1" xmlns="http://www.w3.org/2000/svg" style="fill-rule:evenodd;clip-rule:evenodd;stroke-linejoin:round;stroke-miterlimit:2;">
  <path d="M 0 0 H 1200 V 1080.001 H 0 V 0 Z" style="fill:rgb(46,46,46);"/>
  <path d="M -98.576 842.013 L 574.553 168.883 L 574.553 1515.144 L -98.576 842.013 Z" style="fill: rgb(51, 51, 51); transform-box: fill-box; transform-origin: 50% 50%;" transform="matrix(0.707107, -0.707107, 0.707107, 0.707107, -0.000006, -0.000008)"/>
  <path d="M 477.445 798.743 L 477.445 764.314 L 488.883 764.314 C 491.586 764.314 493.898 764.661 495.82 765.357 C 497.742 766.052 499.262 767.181 500.379 768.743 C 501.496 770.306 502.055 772.267 502.055 774.626 C 502.055 776.267 501.844 777.724 501.422 778.997 C 501 780.271 500.305 781.427 499.336 782.466 C 498.367 783.505 497.004 784.306 495.246 784.868 C 493.488 785.431 491.367 785.712 488.883 785.712 C 486.758 785.712 485.031 785.65 483.703 785.525 L 483.703 798.743 L 477.445 798.743 Z M 488.203 781.118 C 489.5 781.118 490.629 780.993 491.59 780.743 C 492.551 780.493 493.301 780.173 493.84 779.782 C 494.379 779.392 494.809 778.907 495.129 778.329 C 495.449 777.751 495.66 777.193 495.762 776.654 C 495.863 776.114 495.914 775.509 495.914 774.837 C 495.914 772.946 495.305 771.509 494.086 770.525 C 492.867 769.54 491.148 769.048 488.93 769.048 L 483.703 769.048 L 483.703 781.071 C 483.891 781.103 485.391 781.118 488.203 781.118 Z" style="fill:white;fill-rule:nonzero;"/>
  <path d="M 517.102 794.571 C 519.18 794.571 520.742 793.814 521.789 792.298 C 522.836 790.782 523.359 788.611 523.359 785.782 C 523.359 782.923 522.836 780.743 521.789 779.243 C 520.742 777.743 519.164 776.993 517.055 776.993 C 514.977 776.993 513.41 777.747 512.355 779.255 C 511.301 780.763 510.773 782.946 510.773 785.806 C 510.773 788.618 511.305 790.782 512.367 792.298 C 513.43 793.814 515.008 794.571 517.102 794.571 Z M 516.937 799.236 C 513.125 799.236 510.125 798.001 507.937 795.532 C 505.75 793.064 504.656 789.814 504.656 785.782 C 504.656 781.626 505.75 778.349 507.937 775.95 C 510.125 773.552 513.211 772.353 517.195 772.353 C 521.039 772.353 524.051 773.575 526.23 776.021 C 528.41 778.466 529.5 781.72 529.5 785.782 C 529.5 789.892 528.398 793.161 526.195 795.591 C 523.992 798.021 520.906 799.236 516.937 799.236 Z" style="fill:white;fill-rule:nonzero;"/>
  <path d="M 534.539 798.743 L 534.539 772.986 L 539.695 772.986 L 540.492 776.923 C 542.18 774.22 544.625 772.868 547.828 772.868 C 548.5 772.868 549.047 772.9 549.469 772.962 L 549.375 778.095 C 548.75 778.001 548.102 777.954 547.43 777.954 C 545.164 777.954 543.473 778.556 542.355 779.759 C 541.238 780.962 540.68 782.634 540.68 784.775 L 540.68 798.743 L 534.539 798.743 Z" style="fill:white;fill-rule:nonzero;"/>
  <path d="M 563.508 799.095 C 561.758 799.095 560.301 798.888 559.137 798.474 C 557.973 798.06 557.062 797.407 556.406 796.517 C 555.75 795.626 555.285 794.575 555.012 793.364 C 554.738 792.154 554.602 790.657 554.602 788.876 L 554.602 776.712 L 550.383 776.712 L 550.617 773.384 L 555.023 772.986 L 556.992 766.001 L 560.742 765.978 L 560.742 772.986 L 567.141 772.986 L 567.141 776.712 L 560.742 776.712 L 560.742 788.993 C 560.742 790.946 561.023 792.337 561.586 793.165 C 562.148 793.993 563.187 794.407 564.703 794.407 C 565.594 794.407 566.547 794.329 567.562 794.173 L 567.727 798.579 C 567.695 798.579 567.504 798.614 567.152 798.685 C 566.801 798.755 566.465 798.818 566.144 798.872 C 565.824 798.927 565.414 798.978 564.914 799.025 C 564.414 799.071 563.945 799.095 563.508 799.095 Z" style="fill:white;fill-rule:nonzero;"/>
  <path d="M 572.039 798.743 L 572.039 772.986 L 577.008 772.986 L 577.711 776.267 C 578.023 775.876 578.324 775.529 578.613 775.224 C 578.902 774.919 579.301 774.575 579.809 774.193 C 580.316 773.81 580.855 773.493 581.426 773.243 C 581.996 772.993 582.699 772.782 583.535 772.611 C 584.371 772.439 585.266 772.353 586.219 772.353 C 588.266 772.353 589.902 772.767 591.129 773.595 C 592.355 774.423 593.219 775.392 593.719 776.501 C 594.641 775.173 595.836 774.15 597.305 773.431 C 598.773 772.712 600.406 772.353 602.203 772.353 C 605.156 772.353 607.324 773.189 608.707 774.861 C 610.09 776.532 610.781 779.009 610.781 782.29 L 610.781 798.743 L 604.617 798.743 L 604.617 784.118 C 604.617 781.603 604.34 779.786 603.785 778.669 C 603.23 777.552 602.172 776.993 600.609 776.993 C 598.219 776.993 596.5 778.071 595.453 780.228 C 595.016 781.181 594.719 782.329 594.562 783.673 L 594.562 798.743 L 588.422 798.743 L 588.422 783.837 C 588.422 781.54 588.117 779.829 587.508 778.704 C 586.898 777.579 585.797 777.017 584.203 777.017 C 582.906 777.017 581.789 777.345 580.852 778.001 C 579.914 778.657 579.203 779.517 578.719 780.579 C 578.359 782.157 578.18 784.048 578.18 786.251 L 578.18 798.743 L 572.039 798.743 Z" style="fill:white;fill-rule:nonzero;"/>
  <path d="M 623.625 799.236 C 621.234 799.236 619.301 798.575 617.824 797.255 C 616.348 795.935 615.609 794.032 615.609 791.548 C 615.609 788.876 616.484 786.896 618.234 785.607 C 619.984 784.318 622.625 783.501 626.156 783.157 C 626.641 783.095 627.164 783.032 627.727 782.97 C 628.289 782.907 628.922 782.845 629.625 782.782 C 630.328 782.72 630.883 782.665 631.289 782.618 L 631.289 781.259 C 631.289 779.696 630.93 778.56 630.211 777.849 C 629.492 777.138 628.398 776.782 626.93 776.782 C 624.836 776.782 622.25 777.368 619.172 778.54 C 619.156 778.493 618.898 777.782 618.398 776.407 C 617.898 775.032 617.641 774.329 617.625 774.298 C 620.656 773.001 623.937 772.353 627.469 772.353 C 630.937 772.353 633.461 773.107 635.039 774.614 C 636.617 776.122 637.406 778.564 637.406 781.939 L 637.406 798.743 L 632.859 798.743 C 632.844 798.681 632.672 798.157 632.344 797.173 C 632.016 796.189 631.852 795.665 631.852 795.603 C 630.57 796.853 629.316 797.771 628.09 798.357 C 626.863 798.943 625.375 799.236 623.625 799.236 Z M 625.289 794.876 C 626.711 794.876 627.949 794.536 629.004 793.857 C 630.059 793.177 630.812 792.353 631.266 791.384 L 631.266 786.415 C 631.219 786.415 630.809 786.446 630.035 786.509 C 629.262 786.571 628.844 786.603 628.781 786.603 C 626.297 786.821 624.477 787.29 623.32 788.009 C 622.164 788.728 621.586 789.884 621.586 791.478 C 621.586 792.571 621.906 793.411 622.547 793.997 C 623.187 794.583 624.102 794.876 625.289 794.876 Z" style="fill:white;fill-rule:nonzero;"/>
  <path d="M 651.82 799.212 C 648.023 799.212 644.984 798.564 642.703 797.267 L 643.336 792.65 C 644.367 793.212 645.68 793.716 647.273 794.161 C 648.867 794.607 650.32 794.829 651.633 794.829 C 652.992 794.829 654.051 794.575 654.809 794.068 C 655.566 793.56 655.953 792.814 655.969 791.829 C 655.969 790.939 655.613 790.236 654.902 789.72 C 654.191 789.204 652.836 788.564 650.836 787.798 C 650.148 787.548 649.703 787.384 649.5 787.306 C 647.125 786.384 645.414 785.357 644.367 784.224 C 643.32 783.091 642.797 781.556 642.797 779.618 C 642.797 777.275 643.644 775.478 645.34 774.228 C 647.035 772.978 649.398 772.353 652.43 772.353 C 655.711 772.353 658.594 772.97 661.078 774.204 L 659.555 778.446 C 657.102 777.306 654.766 776.736 652.547 776.736 C 651.312 776.736 650.348 776.943 649.652 777.357 C 648.957 777.771 648.609 778.4 648.609 779.243 C 648.609 780.04 648.945 780.661 649.617 781.107 C 650.289 781.552 651.602 782.134 653.555 782.853 C 653.617 782.868 653.82 782.939 654.164 783.064 C 654.508 783.189 654.773 783.29 654.961 783.368 C 657.32 784.228 659.055 785.255 660.164 786.45 C 661.273 787.646 661.828 789.204 661.828 791.126 C 661.812 793.704 660.937 795.696 659.203 797.103 C 657.469 798.509 655.008 799.212 651.82 799.212 Z" style="fill:white;fill-rule:nonzero;"/>
  <path d="M 676.969 799.095 C 675.219 799.095 673.762 798.888 672.598 798.474 C 671.434 798.06 670.523 797.407 669.867 796.517 C 669.211 795.626 668.746 794.575 668.473 793.364 C 668.199 792.154 668.062 790.657 668.062 788.876 L 668.062 776.712 L 663.844 776.712 L 664.078 773.384 L 668.484 772.986 L 670.453 766.001 L 674.203 765.978 L 674.203 772.986 L 680.602 772.986 L 680.602 776.712 L 674.203 776.712 L 674.203 788.993 C 674.203 790.946 674.484 792.337 675.047 793.165 C 675.609 793.993 676.648 794.407 678.164 794.407 C 679.055 794.407 680.008 794.329 681.023 794.173 L 681.187 798.579 C 681.156 798.579 680.965 798.614 680.613 798.685 C 680.262 798.755 679.926 798.818 679.605 798.872 C 679.285 798.927 678.875 798.978 678.375 799.025 C 677.875 799.071 677.406 799.095 676.969 799.095 Z" style="fill:white;fill-rule:nonzero;"/>
  <path d="M 697.195 799.236 C 693.055 799.236 689.832 798.044 687.527 795.661 C 685.223 793.279 684.07 789.986 684.07 785.782 C 684.07 781.689 685.156 778.431 687.328 776.009 C 689.5 773.587 692.461 772.368 696.211 772.353 C 699.758 772.353 702.512 773.462 704.473 775.681 C 706.434 777.9 707.414 780.845 707.414 784.517 C 707.414 784.782 707.41 785.212 707.402 785.806 C 707.394 786.4 707.391 786.837 707.391 787.118 L 690.258 787.118 C 690.32 789.525 690.98 791.388 692.238 792.708 C 693.496 794.029 695.227 794.689 697.43 794.689 C 700.242 794.689 702.945 793.954 705.539 792.486 L 706.406 796.845 C 703.828 798.439 700.758 799.236 697.195 799.236 Z M 690.375 783.251 L 701.625 783.251 C 701.625 781.157 701.148 779.548 700.195 778.423 C 699.242 777.298 697.922 776.736 696.234 776.736 C 694.656 776.736 693.324 777.282 692.238 778.376 C 691.152 779.47 690.531 781.095 690.375 783.251 Z" style="fill:white;fill-rule:nonzero;"/>
  <path d="M 712.43 798.743 L 712.43 772.986 L 717.586 772.986 L 718.383 776.923 C 720.07 774.22 722.516 772.868 725.719 772.868 C 726.391 772.868 726.937 772.9 727.359 772.962 L 727.266 778.095 C 726.641 778.001 725.992 777.954 725.32 777.954 C 723.055 777.954 721.363 778.556 720.246 779.759 C 719.129 780.962 718.57 782.634 718.57 784.775 L 718.57 798.743 L 712.43 798.743 Z" style="fill:white;fill-rule:nonzero;"/>
  <path d="M 526.674 364.398 C 526.674 352.104 536.607 342.171 548.901 342.171 L 637.809 342.171 C 650.103 342.171 660.036 352.104 660.036 364.398 L 660.036 386.625 L 693.376 386.625 C 711.783 386.625 726.717 401.559 726.717 419.965 L 726.717 508.873 L 757.557 519.153 C 773.602 524.502 778.047 545.201 765.545 556.592 L 695.391 620.911 C 684.138 627.44 671.288 631.4 660.036 631.4 C 646.422 631.4 631.696 626.051 618.916 617.299 C 603.565 606.533 583.075 606.533 567.724 617.299 C 555.847 625.496 541.33 631.4 526.604 631.4 C 515.352 631.4 502.502 627.44 491.25 620.911 L 421.096 556.592 C 408.593 545.131 413.038 524.502 429.084 519.153 L 459.993 508.873 L 459.993 419.965 C 459.993 401.559 474.927 386.625 493.333 386.625 L 526.674 386.625 L 526.674 364.398 Z M 504.447 494.079 L 579.324 469.143 C 588.423 466.086 598.286 466.086 607.455 469.143 L 682.263 494.079 L 682.263 431.079 L 504.447 431.079 L 504.447 494.079 Z M 606.205 635.22 C 621.833 645.986 640.935 653.349 660.036 653.349 C 678.72 653.349 698.516 645.847 713.797 635.22 C 722.063 629.316 733.315 629.802 741.025 636.401 C 751.028 644.666 763.6 650.987 776.172 653.904 C 788.119 656.683 795.551 668.63 792.773 680.577 C 789.994 692.524 778.047 699.956 766.1 697.178 C 749.083 693.218 734.913 685.717 725.675 679.813 C 705.532 690.648 682.957 697.803 660.036 697.803 C 637.878 697.803 617.943 690.926 604.191 684.675 C 600.162 682.8 596.481 680.994 593.355 679.327 C 590.229 680.994 586.617 682.869 582.519 684.675 C 568.766 690.926 548.831 697.803 526.674 697.803 C 503.752 697.803 481.178 690.648 461.035 679.882 C 451.727 685.717 437.627 693.288 420.61 697.247 C 408.663 700.025 396.716 692.593 393.937 680.646 C 391.159 668.699 398.591 656.752 410.538 653.974 C 423.11 651.057 435.682 644.736 445.684 636.47 C 453.394 629.941 464.647 629.455 472.912 635.289 C 488.263 645.847 507.989 653.349 526.674 653.349 C 545.775 653.349 564.877 645.986 580.505 635.22 C 588.215 629.733 598.495 629.733 606.205 635.22 Z" style="fill:white;fill-rule:nonzero;"/>
</svg>