<?xml version="1.0" encoding="UTF-8" standalone="no"?>
<!DOCTYPE svg PUBLIC "-//W3C//DTD SVG 1.1//EN" "http://www.w3.org/Graphics/SVG/1.1/DTD/svg11.dtd">
<svg width="100%" height="100%" viewBox="0 0 1200 1080" version="1.1" xmlns="http://www.w3.org/2000/svg" xmlns:xlink="http://www.w3.org/1999/xlink" xml:space="preserve" xmlns:serif="http://www.serif.com/" style="fill-rule:evenodd;clip-rule:evenodd;stroke-linejoin:round;stroke-miterlimit:2;">
    <rect id="Artboard1" x="0" y="0" width="1200" height="1080" style="fill:none;"/>
    <g id="Artboard11" serif:id="Artboard1">
        <g transform="matrix(1,0,0,1.09091,-720,207.273)">
            <rect x="720" y="-190" width="1200" height="990" style="fill:rgb(46,46,46);"/>
        </g>
        <g transform="matrix(0.707107,-0.707107,0.707107,0.707107,-575.938,-155.145)">
            <path d="M-466.129,1280.63L207,607.5L207,1953.76L-466.129,1280.63Z" style="fill:rgb(51,51,51);"/>
        </g>
        <g id="portmaster.svg">
            <g transform="matrix(1,0,0,1,17.8621,-41.6765)">
                <path d="M459.583,840.419L459.583,805.99L471.021,805.99C473.724,805.99 476.036,806.337 477.958,807.033C479.88,807.728 481.4,808.857 482.517,810.419C483.634,811.982 484.193,813.943 484.193,816.302C484.193,817.943 483.982,819.4 483.56,820.673C483.138,821.947 482.443,823.103 481.474,824.142C480.505,825.181 479.142,825.982 477.384,826.544C475.626,827.107 473.505,827.388 471.021,827.388C468.896,827.388 467.169,827.326 465.841,827.201L465.841,840.419L459.583,840.419ZM470.341,822.794C471.638,822.794 472.767,822.669 473.728,822.419C474.689,822.169 475.439,821.849 475.978,821.458C476.517,821.068 476.947,820.583 477.267,820.005C477.587,819.427 477.798,818.869 477.9,818.33C478.001,817.79 478.052,817.185 478.052,816.513C478.052,814.622 477.443,813.185 476.224,812.201C475.005,811.216 473.286,810.724 471.068,810.724L465.841,810.724L465.841,822.747C466.029,822.779 467.529,822.794 470.341,822.794Z" style="fill:white;fill-rule:nonzero;"/>
                <path d="M499.24,836.247C501.318,836.247 502.88,835.49 503.927,833.974C504.974,832.458 505.497,830.287 505.497,827.458C505.497,824.599 504.974,822.419 503.927,820.919C502.88,819.419 501.302,818.669 499.193,818.669C497.115,818.669 495.548,819.423 494.493,820.931C493.439,822.439 492.911,824.622 492.911,827.482C492.911,830.294 493.443,832.458 494.505,833.974C495.568,835.49 497.146,836.247 499.24,836.247ZM499.075,840.912C495.263,840.912 492.263,839.677 490.075,837.208C487.888,834.74 486.794,831.49 486.794,827.458C486.794,823.302 487.888,820.025 490.075,817.626C492.263,815.228 495.349,814.029 499.333,814.029C503.177,814.029 506.189,815.251 508.368,817.697C510.548,820.142 511.638,823.396 511.638,827.458C511.638,831.568 510.536,834.837 508.333,837.267C506.13,839.697 503.044,840.912 499.075,840.912Z" style="fill:white;fill-rule:nonzero;"/>
                <path d="M516.677,840.419L516.677,814.662L521.833,814.662L522.63,818.599C524.318,815.896 526.763,814.544 529.966,814.544C530.638,814.544 531.185,814.576 531.607,814.638L531.513,819.771C530.888,819.677 530.24,819.63 529.568,819.63C527.302,819.63 525.611,820.232 524.493,821.435C523.376,822.638 522.818,824.31 522.818,826.451L522.818,840.419L516.677,840.419Z" style="fill:white;fill-rule:nonzero;"/>
                <path d="M545.646,840.771C543.896,840.771 542.439,840.564 541.275,840.15C540.111,839.736 539.2,839.083 538.544,838.193C537.888,837.302 537.423,836.251 537.15,835.04C536.876,833.83 536.74,832.333 536.74,830.552L536.74,818.388L532.521,818.388L532.755,815.06L537.161,814.662L539.13,807.677L542.88,807.654L542.88,814.662L549.279,814.662L549.279,818.388L542.88,818.388L542.88,830.669C542.88,832.622 543.161,834.013 543.724,834.841C544.286,835.669 545.325,836.083 546.841,836.083C547.732,836.083 548.685,836.005 549.7,835.849L549.865,840.255C549.833,840.255 549.642,840.29 549.29,840.361C548.939,840.431 548.603,840.494 548.282,840.548C547.962,840.603 547.552,840.654 547.052,840.701C546.552,840.747 546.083,840.771 545.646,840.771Z" style="fill:white;fill-rule:nonzero;"/>
                <path d="M554.177,840.419L554.177,814.662L559.146,814.662L559.849,817.943C560.161,817.552 560.462,817.205 560.751,816.9C561.04,816.595 561.439,816.251 561.947,815.869C562.454,815.486 562.993,815.169 563.564,814.919C564.134,814.669 564.837,814.458 565.673,814.287C566.509,814.115 567.404,814.029 568.357,814.029C570.404,814.029 572.04,814.443 573.267,815.271C574.493,816.099 575.357,817.068 575.857,818.177C576.779,816.849 577.974,815.826 579.443,815.107C580.911,814.388 582.544,814.029 584.341,814.029C587.294,814.029 589.462,814.865 590.845,816.537C592.228,818.208 592.919,820.685 592.919,823.966L592.919,840.419L586.755,840.419L586.755,825.794C586.755,823.279 586.478,821.462 585.923,820.345C585.368,819.228 584.31,818.669 582.747,818.669C580.357,818.669 578.638,819.747 577.591,821.904C577.154,822.857 576.857,824.005 576.7,825.349L576.7,840.419L570.56,840.419L570.56,825.513C570.56,823.216 570.255,821.505 569.646,820.38C569.036,819.255 567.935,818.693 566.341,818.693C565.044,818.693 563.927,819.021 562.99,819.677C562.052,820.333 561.341,821.193 560.857,822.255C560.497,823.833 560.318,825.724 560.318,827.927L560.318,840.419L554.177,840.419Z" style="fill:white;fill-rule:nonzero;"/>
                <path d="M605.763,840.912C603.372,840.912 601.439,840.251 599.962,838.931C598.486,837.611 597.747,835.708 597.747,833.224C597.747,830.552 598.622,828.572 600.372,827.283C602.122,825.994 604.763,825.177 608.294,824.833C608.779,824.771 609.302,824.708 609.865,824.646C610.427,824.583 611.06,824.521 611.763,824.458C612.466,824.396 613.021,824.341 613.427,824.294L613.427,822.935C613.427,821.372 613.068,820.236 612.349,819.525C611.63,818.814 610.536,818.458 609.068,818.458C606.974,818.458 604.388,819.044 601.31,820.216C601.294,820.169 601.036,819.458 600.536,818.083C600.036,816.708 599.779,816.005 599.763,815.974C602.794,814.677 606.075,814.029 609.607,814.029C613.075,814.029 615.599,814.783 617.177,816.29C618.755,817.798 619.544,820.24 619.544,823.615L619.544,840.419L614.997,840.419C614.982,840.357 614.81,839.833 614.482,838.849C614.154,837.865 613.99,837.341 613.99,837.279C612.708,838.529 611.454,839.447 610.228,840.033C609.001,840.619 607.513,840.912 605.763,840.912ZM607.427,836.552C608.849,836.552 610.087,836.212 611.142,835.533C612.197,834.853 612.95,834.029 613.404,833.06L613.404,828.091C613.357,828.091 612.947,828.122 612.173,828.185C611.4,828.247 610.982,828.279 610.919,828.279C608.435,828.497 606.615,828.966 605.458,829.685C604.302,830.404 603.724,831.56 603.724,833.154C603.724,834.247 604.044,835.087 604.685,835.673C605.325,836.259 606.24,836.552 607.427,836.552Z" style="fill:white;fill-rule:nonzero;"/>
                <path d="M633.958,840.888C630.161,840.888 627.122,840.24 624.841,838.943L625.474,834.326C626.505,834.888 627.818,835.392 629.411,835.837C631.005,836.283 632.458,836.505 633.771,836.505C635.13,836.505 636.189,836.251 636.947,835.744C637.704,835.236 638.091,834.49 638.107,833.505C638.107,832.615 637.751,831.912 637.04,831.396C636.329,830.88 634.974,830.24 632.974,829.474C632.286,829.224 631.841,829.06 631.638,828.982C629.263,828.06 627.552,827.033 626.505,825.9C625.458,824.767 624.935,823.232 624.935,821.294C624.935,818.951 625.782,817.154 627.478,815.904C629.173,814.654 631.536,814.029 634.568,814.029C637.849,814.029 640.732,814.646 643.216,815.88L641.693,820.122C639.24,818.982 636.904,818.412 634.685,818.412C633.45,818.412 632.486,818.619 631.79,819.033C631.095,819.447 630.747,820.076 630.747,820.919C630.747,821.716 631.083,822.337 631.755,822.783C632.427,823.228 633.74,823.81 635.693,824.529C635.755,824.544 635.958,824.615 636.302,824.74C636.646,824.865 636.911,824.966 637.099,825.044C639.458,825.904 641.193,826.931 642.302,828.126C643.411,829.322 643.966,830.88 643.966,832.802C643.95,835.38 643.075,837.372 641.341,838.779C639.607,840.185 637.146,840.888 633.958,840.888Z" style="fill:white;fill-rule:nonzero;"/>
                <path d="M659.107,840.771C657.357,840.771 655.9,840.564 654.736,840.15C653.572,839.736 652.661,839.083 652.005,838.193C651.349,837.302 650.884,836.251 650.611,835.04C650.337,833.83 650.2,832.333 650.2,830.552L650.2,818.388L645.982,818.388L646.216,815.06L650.622,814.662L652.591,807.677L656.341,807.654L656.341,814.662L662.74,814.662L662.74,818.388L656.341,818.388L656.341,830.669C656.341,832.622 656.622,834.013 657.185,834.841C657.747,835.669 658.786,836.083 660.302,836.083C661.193,836.083 662.146,836.005 663.161,835.849L663.325,840.255C663.294,840.255 663.103,840.29 662.751,840.361C662.4,840.431 662.064,840.494 661.743,840.548C661.423,840.603 661.013,840.654 660.513,840.701C660.013,840.747 659.544,840.771 659.107,840.771Z" style="fill:white;fill-rule:nonzero;"/>
                <path d="M679.333,840.912C675.193,840.912 671.97,839.72 669.665,837.337C667.361,834.955 666.208,831.662 666.208,827.458C666.208,823.365 667.294,820.107 669.466,817.685C671.638,815.263 674.599,814.044 678.349,814.029C681.896,814.029 684.65,815.138 686.611,817.357C688.572,819.576 689.552,822.521 689.552,826.193C689.552,826.458 689.548,826.888 689.54,827.482C689.532,828.076 689.529,828.513 689.529,828.794L672.396,828.794C672.458,831.201 673.118,833.064 674.376,834.384C675.634,835.705 677.365,836.365 679.568,836.365C682.38,836.365 685.083,835.63 687.677,834.162L688.544,838.521C685.966,840.115 682.896,840.912 679.333,840.912ZM672.513,824.927L683.763,824.927C683.763,822.833 683.286,821.224 682.333,820.099C681.38,818.974 680.06,818.412 678.372,818.412C676.794,818.412 675.462,818.958 674.376,820.052C673.29,821.146 672.669,822.771 672.513,824.927Z" style="fill:white;fill-rule:nonzero;"/>
                <path d="M694.568,840.419L694.568,814.662L699.724,814.662L700.521,818.599C702.208,815.896 704.654,814.544 707.857,814.544C708.529,814.544 709.075,814.576 709.497,814.638L709.404,819.771C708.779,819.677 708.13,819.63 707.458,819.63C705.193,819.63 703.501,820.232 702.384,821.435C701.267,822.638 700.708,824.31 700.708,826.451L700.708,840.419L694.568,840.419Z" style="fill:white;fill-rule:nonzero;"/>
            </g>
            <g transform="matrix(0.694593,0,0,0.694593,393.312,342.171)">
                <path d="M192,32C192,14.3 206.3,0 224,0L352,0C369.7,0 384,14.3 384,32L384,64L432,64C458.5,64 480,85.5 480,112L480,240L524.4,254.8C547.5,262.5 553.9,292.3 535.9,308.7L434.9,401.3C418.7,410.7 400.2,416.4 384,416.4C364.4,416.4 343.2,408.7 324.8,396.1C302.7,380.6 273.2,380.6 251.1,396.1C234,407.9 213.1,416.4 191.9,416.4C175.7,416.4 157.2,410.7 141,401.3L40,308.7C22,292.2 28.4,262.5 51.5,254.8L96,240L96,112C96,85.5 117.5,64 144,64L192,64L192,32ZM160,218.7L267.8,182.8C280.9,178.4 295.1,178.4 308.3,182.8L416,218.7L416,128L160,128L160,218.7ZM306.5,421.9C329,437.4 356.5,448 384,448C410.9,448 439.4,437.2 461.4,421.9C473.3,413.4 489.5,414.1 500.6,423.6C515,435.5 533.1,444.6 551.2,448.8C568.4,452.8 579.1,470 575.1,487.2C571.1,504.4 553.9,515.1 536.7,511.1C512.2,505.4 491.8,494.6 478.5,486.1C449.5,501.7 417,512 384,512C352.1,512 323.4,502.1 303.6,493.1C297.8,490.4 292.5,487.8 288,485.4C283.5,487.8 278.3,490.5 272.4,493.1C252.6,502.1 223.9,512 192,512C159,512 126.5,501.7 97.5,486.2C84.1,494.6 63.8,505.5 39.3,511.2C22.1,515.2 4.9,504.5 0.9,487.3C-3.1,470.1 7.6,452.9 24.8,448.9C42.9,444.7 61,435.6 75.4,423.7C86.5,414.3 102.7,413.6 114.6,422C136.7,437.2 165.1,448 192,448C219.5,448 247,437.4 269.5,421.9C280.6,414 295.4,414 306.5,421.9Z" style="fill:white;fill-rule:nonzero;"/>
            </g>
        </g>
    </g>
</svg>
