<?xml version="1.0" encoding="UTF-8" standalone="no"?>
<!DOCTYPE svg PUBLIC "-//W3C//DTD SVG 1.1//EN" "http://www.w3.org/Graphics/SVG/1.1/DTD/svg11.dtd">
<svg width="100%" height="100%" viewBox="0 0 1200 1080" version="1.1" xmlns="http://www.w3.org/2000/svg" xmlns:xlink="http://www.w3.org/1999/xlink" xml:space="preserve" xmlns:serif="http://www.serif.com/" style="fill-rule:evenodd;clip-rule:evenodd;stroke-linejoin:round;stroke-miterlimit:2;">
    <rect id="Artboard1" x="0" y="0" width="1200" height="1080" style="fill:none;"/>
    <g id="Artboard11" serif:id="Artboard1">
        <g transform="matrix(1,0,0,1.09091,-720,207.273)">
            <rect x="720" y="-190" width="1200" height="990" style="fill:rgb(46,46,46);"/>
        </g>
        <g transform="matrix(0.707107,-0.707107,0.707107,0.707107,-575.938,-155.145)">
            <path d="M-466.129,1280.63L207,607.5L207,1953.76L-466.129,1280.63Z" style="fill:rgb(51,51,51);"/>
        </g>
        <g id="ppsspp.svg">
            <g transform="matrix(1,0,0,1,17.8621,-41.6765)">
                <path d="M500.4,840.419L500.4,805.99L511.837,805.99C514.54,805.99 516.853,806.337 518.775,807.033C520.697,807.728 522.216,808.857 523.333,810.419C524.45,811.982 525.009,813.943 525.009,816.302C525.009,817.943 524.798,819.4 524.376,820.673C523.954,821.947 523.259,823.103 522.29,824.142C521.322,825.181 519.958,825.982 518.2,826.544C516.443,827.107 514.322,827.388 511.837,827.388C509.712,827.388 507.986,827.326 506.657,827.201L506.657,840.419L500.4,840.419ZM511.157,822.794C512.454,822.794 513.583,822.669 514.544,822.419C515.505,822.169 516.255,821.849 516.794,821.458C517.333,821.068 517.763,820.583 518.083,820.005C518.404,819.427 518.615,818.869 518.716,818.33C518.818,817.79 518.868,817.185 518.868,816.513C518.868,814.622 518.259,813.185 517.04,812.201C515.822,811.216 514.103,810.724 511.884,810.724L506.657,810.724L506.657,822.747C506.845,822.779 508.345,822.794 511.157,822.794Z" style="fill:white;fill-rule:nonzero;"/>
                <path d="M529.579,840.419L529.579,805.99L541.017,805.99C543.72,805.99 546.032,806.337 547.954,807.033C549.876,807.728 551.396,808.857 552.513,810.419C553.63,811.982 554.189,813.943 554.189,816.302C554.189,817.943 553.978,819.4 553.556,820.673C553.134,821.947 552.439,823.103 551.47,824.142C550.501,825.181 549.138,825.982 547.38,826.544C545.622,827.107 543.501,827.388 541.017,827.388C538.892,827.388 537.165,827.326 535.837,827.201L535.837,840.419L529.579,840.419ZM540.337,822.794C541.634,822.794 542.763,822.669 543.724,822.419C544.685,822.169 545.435,821.849 545.974,821.458C546.513,821.068 546.943,820.583 547.263,820.005C547.583,819.427 547.794,818.869 547.896,818.33C547.997,817.79 548.048,817.185 548.048,816.513C548.048,814.622 547.439,813.185 546.22,812.201C545.001,811.216 543.282,810.724 541.064,810.724L535.837,810.724L535.837,822.747C536.025,822.779 537.525,822.794 540.337,822.794Z" style="fill:white;fill-rule:nonzero;"/>
                <path d="M568.556,840.888C564.415,840.888 560.704,839.935 557.423,838.029L558.97,832.99C560.439,833.802 562.036,834.458 563.763,834.958C565.49,835.458 567.173,835.708 568.814,835.708C570.829,835.708 572.353,835.275 573.384,834.408C574.415,833.54 574.931,832.294 574.931,830.669C574.931,828.513 573.493,827.021 570.618,826.193C570.415,826.13 569.845,825.962 568.907,825.689C567.97,825.415 567.091,825.15 566.271,824.892C565.45,824.634 564.861,824.435 564.501,824.294C559.892,822.669 557.587,819.638 557.587,815.201C557.587,812.091 558.693,809.693 560.904,808.005C563.115,806.318 566.048,805.474 569.704,805.474C573.845,805.474 577.415,806.326 580.415,808.029L578.493,812.669C575.431,811.294 572.587,810.607 569.962,810.607C568.072,810.607 566.646,810.939 565.685,811.603C564.724,812.267 564.212,813.372 564.15,814.919C564.15,816.826 565.095,818.068 566.986,818.646C567.361,818.787 568.282,819.091 569.751,819.56C571.22,820.029 572.173,820.333 572.611,820.474C575.751,821.505 577.997,822.787 579.349,824.318C580.7,825.849 581.376,827.982 581.376,830.716C581.376,833.982 580.22,836.494 577.907,838.251C575.595,840.009 572.478,840.888 568.556,840.888Z" style="fill:white;fill-rule:nonzero;"/>
                <path d="M596.423,840.888C592.282,840.888 588.572,839.935 585.29,838.029L586.837,832.99C588.306,833.802 589.904,834.458 591.63,834.958C593.357,835.458 595.04,835.708 596.681,835.708C598.697,835.708 600.22,835.275 601.251,834.408C602.282,833.54 602.798,832.294 602.798,830.669C602.798,828.513 601.361,827.021 598.486,826.193C598.282,826.13 597.712,825.962 596.775,825.689C595.837,825.415 594.958,825.15 594.138,824.892C593.318,824.634 592.728,824.435 592.368,824.294C587.759,822.669 585.454,819.638 585.454,815.201C585.454,812.091 586.56,809.693 588.771,808.005C590.982,806.318 593.915,805.474 597.572,805.474C601.712,805.474 605.282,806.326 608.282,808.029L606.361,812.669C603.298,811.294 600.454,810.607 597.829,810.607C595.939,810.607 594.513,810.939 593.552,811.603C592.591,812.267 592.079,813.372 592.017,814.919C592.017,816.826 592.962,818.068 594.853,818.646C595.228,818.787 596.15,819.091 597.618,819.56C599.087,820.029 600.04,820.333 600.478,820.474C603.618,821.505 605.865,822.787 607.216,824.318C608.568,825.849 609.243,827.982 609.243,830.716C609.243,833.982 608.087,836.494 605.775,838.251C603.462,840.009 600.345,840.888 596.423,840.888Z" style="fill:white;fill-rule:nonzero;"/>
                <path d="M614.493,840.419L614.493,805.99L625.931,805.99C628.634,805.99 630.947,806.337 632.868,807.033C634.79,807.728 636.31,808.857 637.427,810.419C638.544,811.982 639.103,813.943 639.103,816.302C639.103,817.943 638.892,819.4 638.47,820.673C638.048,821.947 637.353,823.103 636.384,824.142C635.415,825.181 634.052,825.982 632.294,826.544C630.536,827.107 628.415,827.388 625.931,827.388C623.806,827.388 622.079,827.326 620.751,827.201L620.751,840.419L614.493,840.419ZM625.251,822.794C626.548,822.794 627.677,822.669 628.638,822.419C629.599,822.169 630.349,821.849 630.888,821.458C631.427,821.068 631.857,820.583 632.177,820.005C632.497,819.427 632.708,818.869 632.81,818.33C632.911,817.79 632.962,817.185 632.962,816.513C632.962,814.622 632.353,813.185 631.134,812.201C629.915,811.216 628.197,810.724 625.978,810.724L620.751,810.724L620.751,822.747C620.939,822.779 622.439,822.794 625.251,822.794Z" style="fill:white;fill-rule:nonzero;"/>
                <path d="M643.673,840.419L643.673,805.99L655.111,805.99C657.814,805.99 660.126,806.337 662.048,807.033C663.97,807.728 665.49,808.857 666.607,810.419C667.724,811.982 668.282,813.943 668.282,816.302C668.282,817.943 668.072,819.4 667.65,820.673C667.228,821.947 666.532,823.103 665.564,824.142C664.595,825.181 663.232,825.982 661.474,826.544C659.716,827.107 657.595,827.388 655.111,827.388C652.986,827.388 651.259,827.326 649.931,827.201L649.931,840.419L643.673,840.419ZM654.431,822.794C655.728,822.794 656.857,822.669 657.818,822.419C658.779,822.169 659.529,821.849 660.068,821.458C660.607,821.068 661.036,820.583 661.357,820.005C661.677,819.427 661.888,818.869 661.99,818.33C662.091,817.79 662.142,817.185 662.142,816.513C662.142,814.622 661.532,813.185 660.314,812.201C659.095,811.216 657.376,810.724 655.157,810.724L649.931,810.724L649.931,822.747C650.118,822.779 651.618,822.794 654.431,822.794Z" style="fill:white;fill-rule:nonzero;"/>
            </g>
            <g id="PPSSPP" transform="matrix(0.740604,0,0,0.740604,410.113,329.195)">
                <g transform="matrix(1,0,0,1,0,-540)">
                    <path d="M272.44,577.6L294.88,675.94L245.05,753.6L166.73,705.09L144.29,606.75L272.44,577.6ZM123.46,592.65L152.72,721.35L251.94,784.6L314.2,684.5L284.94,555.8L123.46,592.65Z" style="fill:white;fill-rule:nonzero;"/>
                </g>
                <g transform="matrix(1,0,0,1,0,-540)">
                    <path d="M34.84,780L133.18,757.56L210.84,807.39L162.33,885.71L63.99,908.15L34.84,780ZM50.2,928.48L178.9,899.22L242.15,800L142.05,737.74L13.35,767L50.2,928.48Z" style="fill:white;fill-rule:nonzero;"/>
                </g>
                <g transform="matrix(1,0,0,1,0,-540)">
                    <path d="M238.34,1018.01L215.9,919.667L265.73,842.007L344.05,890.517L366.49,988.857L238.34,1018.01ZM387.02,1002.62L357.76,873.92L258.54,810.67L196.28,910.77L225.54,1039.47L387.02,1002.62Z" style="fill:white;fill-rule:nonzero;"/>
                </g>
                <g transform="matrix(1,0,0,1,0,-540)">
                    <path d="M478.14,815.2L379.8,837.64L302.14,787.81L350.65,709.49L448.99,687.05L478.14,815.2ZM462.59,666.02L333.89,695.28L270.64,794.5L370.74,856.76L499.44,827.5L462.59,666.02Z" style="fill:white;fill-rule:nonzero;"/>
                </g>
            </g>
        </g>
    </g>
</svg>
