<?xml version="1.0" encoding="utf-8"?>
<svg width="100%" height="100%" viewBox="0 0 1200 1080" version="1.1" xmlns="http://www.w3.org/2000/svg" style="fill-rule:evenodd;clip-rule:evenodd;stroke-linejoin:round;stroke-miterlimit:2;">
  <rect id="Artboard1" x="0" y="0" width="1200" height="1080" style="fill:none;"/>
  <rect width="1200" height="1080.001" style="fill:rgb(46,46,46);"/>
  <path d="M -98.576 842.013 L 574.553 168.883 L 574.553 1515.144 L -98.576 842.013 Z" style="fill: rgb(51, 51, 51); transform-box: fill-box; transform-origin: 50% 50%;" transform="matrix(0.707107, -0.707107, 0.707107, 0.707107, -0.000006, -0.000008)"/>
  <path d="M 518.262 798.743 L 518.262 764.314 L 529.699 764.314 C 532.402 764.314 534.715 764.661 536.637 765.357 C 538.559 766.052 540.078 767.181 541.195 768.743 C 542.312 770.306 542.871 772.267 542.871 774.626 C 542.871 776.267 542.66 777.724 542.238 778.997 C 541.816 780.271 541.121 781.427 540.152 782.466 C 539.184 783.505 537.82 784.306 536.062 784.868 C 534.305 785.431 532.184 785.712 529.699 785.712 C 527.574 785.712 525.848 785.65 524.519 785.525 L 524.519 798.743 L 518.262 798.743 Z M 529.019 781.118 C 530.316 781.118 531.445 780.993 532.406 780.743 C 533.367 780.493 534.117 780.173 534.656 779.782 C 535.195 779.392 535.625 778.907 535.945 778.329 C 536.266 777.751 536.477 777.193 536.578 776.654 C 536.68 776.114 536.73 775.509 536.73 774.837 C 536.73 772.946 536.121 771.509 534.902 770.525 C 533.684 769.54 531.965 769.048 529.746 769.048 L 524.519 769.048 L 524.519 781.071 C 524.707 781.103 526.207 781.118 529.019 781.118 Z" style="fill:white;fill-rule:nonzero;"/>
  <path d="M 547.441 798.743 L 547.441 764.314 L 558.879 764.314 C 561.582 764.314 563.894 764.661 565.816 765.357 C 567.738 766.052 569.258 767.181 570.375 768.743 C 571.492 770.306 572.051 772.267 572.051 774.626 C 572.051 776.267 571.84 777.724 571.418 778.997 C 570.996 780.271 570.301 781.427 569.332 782.466 C 568.363 783.505 567 784.306 565.242 784.868 C 563.484 785.431 561.363 785.712 558.879 785.712 C 556.754 785.712 555.027 785.65 553.699 785.525 L 553.699 798.743 L 547.441 798.743 Z M 558.199 781.118 C 559.496 781.118 560.625 780.993 561.586 780.743 C 562.547 780.493 563.297 780.173 563.836 779.782 C 564.375 779.392 564.805 778.907 565.125 778.329 C 565.445 777.751 565.656 777.193 565.758 776.654 C 565.859 776.114 565.91 775.509 565.91 774.837 C 565.91 772.946 565.301 771.509 564.082 770.525 C 562.863 769.54 561.144 769.048 558.926 769.048 L 553.699 769.048 L 553.699 781.071 C 553.887 781.103 555.387 781.118 558.199 781.118 Z" style="fill:white;fill-rule:nonzero;"/>
  <path d="M 586.418 799.212 C 582.277 799.212 578.566 798.259 575.285 796.353 L 576.832 791.314 C 578.301 792.126 579.898 792.782 581.625 793.282 C 583.352 793.782 585.035 794.032 586.676 794.032 C 588.691 794.032 590.215 793.599 591.246 792.732 C 592.277 791.864 592.793 790.618 592.793 788.993 C 592.793 786.837 591.355 785.345 588.48 784.517 C 588.277 784.454 587.707 784.286 586.769 784.013 C 585.832 783.739 584.953 783.474 584.133 783.216 C 583.312 782.958 582.723 782.759 582.363 782.618 C 577.754 780.993 575.449 777.962 575.449 773.525 C 575.449 770.415 576.555 768.017 578.766 766.329 C 580.977 764.642 583.91 763.798 587.566 763.798 C 591.707 763.798 595.277 764.65 598.277 766.353 L 596.355 770.993 C 593.293 769.618 590.449 768.931 587.824 768.931 C 585.934 768.931 584.508 769.263 583.547 769.927 C 582.586 770.591 582.074 771.696 582.012 773.243 C 582.012 775.15 582.957 776.392 584.848 776.97 C 585.223 777.111 586.144 777.415 587.613 777.884 C 589.082 778.353 590.035 778.657 590.473 778.798 C 593.613 779.829 595.859 781.111 597.211 782.642 C 598.562 784.173 599.238 786.306 599.238 789.04 C 599.238 792.306 598.082 794.818 595.769 796.575 C 593.457 798.333 590.34 799.212 586.418 799.212 Z" style="fill:white;fill-rule:nonzero;"/>
  <path d="M 614.285 799.212 C 610.144 799.212 606.434 798.259 603.152 796.353 L 604.699 791.314 C 606.168 792.126 607.766 792.782 609.492 793.282 C 611.219 793.782 612.902 794.032 614.543 794.032 C 616.559 794.032 618.082 793.599 619.113 792.732 C 620.144 791.864 620.66 790.618 620.66 788.993 C 620.66 786.837 619.223 785.345 616.348 784.517 C 616.144 784.454 615.574 784.286 614.637 784.013 C 613.699 783.739 612.82 783.474 612 783.216 C 611.18 782.958 610.59 782.759 610.23 782.618 C 605.621 780.993 603.316 777.962 603.316 773.525 C 603.316 770.415 604.422 768.017 606.633 766.329 C 608.844 764.642 611.777 763.798 615.434 763.798 C 619.574 763.798 623.144 764.65 626.144 766.353 L 624.223 770.993 C 621.16 769.618 618.316 768.931 615.691 768.931 C 613.801 768.931 612.375 769.263 611.414 769.927 C 610.453 770.591 609.941 771.696 609.879 773.243 C 609.879 775.15 610.824 776.392 612.715 776.97 C 613.09 777.111 614.012 777.415 615.48 777.884 C 616.949 778.353 617.902 778.657 618.34 778.798 C 621.48 779.829 623.727 781.111 625.078 782.642 C 626.43 784.173 627.105 786.306 627.105 789.04 C 627.105 792.306 625.949 794.818 623.637 796.575 C 621.324 798.333 618.207 799.212 614.285 799.212 Z" style="fill:white;fill-rule:nonzero;"/>
  <path d="M 632.355 798.743 L 632.355 764.314 L 643.793 764.314 C 646.496 764.314 648.809 764.661 650.73 765.357 C 652.652 766.052 654.172 767.181 655.289 768.743 C 656.406 770.306 656.965 772.267 656.965 774.626 C 656.965 776.267 656.754 777.724 656.332 778.997 C 655.91 780.271 655.215 781.427 654.246 782.466 C 653.277 783.505 651.914 784.306 650.156 784.868 C 648.398 785.431 646.277 785.712 643.793 785.712 C 641.668 785.712 639.941 785.65 638.613 785.525 L 638.613 798.743 L 632.355 798.743 Z M 643.113 781.118 C 644.41 781.118 645.539 780.993 646.5 780.743 C 647.461 780.493 648.211 780.173 648.75 779.782 C 649.289 779.392 649.719 778.907 650.039 778.329 C 650.359 777.751 650.57 777.193 650.672 776.654 C 650.773 776.114 650.824 775.509 650.824 774.837 C 650.824 772.946 650.215 771.509 648.996 770.525 C 647.777 769.54 646.059 769.048 643.84 769.048 L 638.613 769.048 L 638.613 781.071 C 638.801 781.103 640.301 781.118 643.113 781.118 Z" style="fill:white;fill-rule:nonzero;"/>
  <path d="M 661.535 798.743 L 661.535 764.314 L 672.973 764.314 C 675.676 764.314 677.988 764.661 679.91 765.357 C 681.832 766.052 683.352 767.181 684.469 768.743 C 685.586 770.306 686.144 772.267 686.144 774.626 C 686.144 776.267 685.934 777.724 685.512 778.997 C 685.09 780.271 684.394 781.427 683.426 782.466 C 682.457 783.505 681.094 784.306 679.336 784.868 C 677.578 785.431 675.457 785.712 672.973 785.712 C 670.848 785.712 669.121 785.65 667.793 785.525 L 667.793 798.743 L 661.535 798.743 Z M 672.293 781.118 C 673.59 781.118 674.719 780.993 675.68 780.743 C 676.641 780.493 677.391 780.173 677.93 779.782 C 678.469 779.392 678.898 778.907 679.219 778.329 C 679.539 777.751 679.75 777.193 679.852 776.654 C 679.953 776.114 680.004 775.509 680.004 774.837 C 680.004 772.946 679.394 771.509 678.176 770.525 C 676.957 769.54 675.238 769.048 673.019 769.048 L 667.793 769.048 L 667.793 781.071 C 667.98 781.103 669.48 781.118 672.293 781.118 Z" style="fill:white;fill-rule:nonzero;"/>
  <path d="M 611.883 357.042 L 628.502 429.873 L 591.598 487.388 L 533.594 451.461 L 516.975 378.63 L 611.883 357.042 Z M 501.548 368.188 L 523.218 463.503 L 596.701 510.347 L 642.811 436.212 L 621.141 340.896 L 501.548 368.188 Z" style="fill:white;fill-rule:nonzero;"/>
  <path d="M 435.916 506.94 L 508.747 490.321 L 566.262 527.225 L 530.335 585.229 L 457.504 601.848 L 435.916 506.94 Z M 447.291 616.905 L 542.607 595.235 L 589.45 521.752 L 515.316 475.642 L 420 497.312 L 447.291 616.905 Z" style="fill:white;fill-rule:nonzero;"/>
  <path d="M 586.629 683.211 L 570.009 610.378 L 606.914 552.862 L 664.918 588.789 L 681.537 661.62 L 586.629 683.211 Z M 696.741 671.813 L 675.071 576.497 L 601.589 529.654 L 555.479 603.789 L 577.149 699.104 L 696.741 671.813 Z" style="fill:white;fill-rule:nonzero;"/>
  <path d="M 764.225 533.009 L 691.394 549.628 L 633.879 512.724 L 669.806 454.72 L 742.637 438.101 L 764.225 533.009 Z M 752.709 422.526 L 657.393 444.196 L 610.55 517.679 L 684.684 563.789 L 780 542.119 L 752.709 422.526 Z" style="fill:white;fill-rule:nonzero;"/>
</svg>