<?xml version="1.0" encoding="utf-8"?>
<svg width="100%" height="100%" viewBox="0 0 1200 1080" version="1.1" xmlns="http://www.w3.org/2000/svg" style="fill-rule:evenodd;clip-rule:evenodd;stroke-linejoin:round;stroke-miterlimit:2;">
  <rect id="Artboard1" x="0" y="0" width="1200" height="1080" style="fill:none;"/>
  <rect width="1200" height="1080.001" style="fill:rgb(46,46,46);"/>
  <path d="M -98.576 842.013 L 574.553 168.883 L 574.553 1515.144 L -98.576 842.013 Z" style="fill: rgb(51, 51, 51); transform-box: fill-box; transform-origin: 50% 50%;" transform="matrix(0.707107, -0.707107, 0.707107, 0.707107, -0.000006, -0.000008)"/>
  <path d="M 420.387 798.743 L 420.387 764.314 L 433.113 764.314 C 434.848 764.314 436.352 764.392 437.625 764.548 C 438.898 764.704 440.109 764.989 441.258 765.404 C 442.406 765.818 443.336 766.376 444.047 767.079 C 444.758 767.782 445.32 768.7 445.734 769.833 C 446.148 770.966 446.355 772.306 446.355 773.853 C 446.355 778.415 444.285 781.415 440.144 782.853 C 440.988 783.806 442.035 785.571 443.285 788.15 L 448.394 798.743 L 441.457 798.743 L 437.449 789.767 C 435.934 786.548 434.996 784.642 434.637 784.048 C 434.371 784.032 433.488 784.025 431.988 784.025 L 426.668 783.978 L 426.668 798.743 L 420.387 798.743 Z M 433.676 779.431 C 436.113 779.431 437.863 778.997 438.926 778.13 C 439.988 777.263 440.519 775.868 440.519 773.946 C 440.519 772.259 439.98 771.017 438.902 770.22 C 437.824 769.423 436.176 769.025 433.957 769.025 L 426.668 769.025 L 426.668 779.407 C 426.902 779.407 428.066 779.411 430.16 779.419 C 432.254 779.427 433.426 779.431 433.676 779.431 Z" style="fill:white;fill-rule:nonzero;"/>
  <path d="M 468.105 799.236 C 463.09 799.236 459.113 797.657 456.176 794.501 C 453.238 791.345 451.769 786.986 451.769 781.423 C 451.769 776.142 453.305 771.904 456.375 768.708 C 459.445 765.513 463.465 763.915 468.434 763.915 C 472.449 763.915 475.848 764.845 478.629 766.704 L 476.637 771.509 C 473.965 769.868 471.277 769.048 468.574 769.048 C 465.418 769.048 462.922 770.185 461.086 772.458 C 459.25 774.732 458.332 777.782 458.332 781.611 C 458.332 785.579 459.219 788.65 460.992 790.821 C 462.766 792.993 465.293 794.079 468.574 794.079 C 471.449 794.079 474.301 793.361 477.129 791.923 L 477.973 796.892 C 475.348 798.454 472.059 799.236 468.105 799.236 Z" style="fill:white;fill-rule:nonzero;"/>
  <path d="M 483.621 798.743 L 483.621 764.407 L 489.973 764.407 L 489.973 793.681 L 504.34 793.681 L 504.152 798.743 L 483.621 798.743 Z" style="fill:white;fill-rule:nonzero;"/>
  <path d="M 516.551 790.798 C 518.254 792.97 520.769 794.056 524.098 794.056 C 527.426 794.056 529.937 792.974 531.633 790.81 C 533.328 788.646 534.176 785.587 534.176 781.634 C 534.176 777.634 533.328 774.532 531.633 772.329 C 529.937 770.126 527.434 769.025 524.121 769.025 C 520.793 769.025 518.273 770.13 516.562 772.341 C 514.852 774.552 513.996 777.65 513.996 781.634 C 513.996 785.571 514.848 788.626 516.551 790.798 Z M 524.074 799.236 C 518.902 799.236 514.82 797.669 511.828 794.536 C 508.836 791.404 507.34 787.079 507.34 781.564 C 507.34 776.017 508.84 771.689 511.84 768.579 C 514.84 765.47 518.926 763.915 524.098 763.915 C 529.269 763.915 533.348 765.474 536.332 768.591 C 539.316 771.708 540.809 776.04 540.809 781.587 C 540.809 787.071 539.309 791.384 536.309 794.525 C 533.309 797.665 529.23 799.236 524.074 799.236 Z" style="fill:white;fill-rule:nonzero;"/>
  <path d="M 546.832 798.743 L 546.832 764.407 L 553.582 764.407 C 554.801 766.314 557.277 770.157 561.012 775.939 C 564.746 781.72 567.019 785.236 567.832 786.486 C 568.066 786.845 568.469 787.45 569.039 788.302 C 569.609 789.154 570.012 789.759 570.246 790.118 C 570.137 784.759 570.082 781.978 570.082 781.775 L 570.082 764.407 L 575.871 764.407 L 575.871 798.743 L 569.027 798.743 L 553.535 774.603 L 552.41 772.751 C 552.535 776.876 552.598 779.775 552.598 781.446 L 552.598 798.743 L 546.832 798.743 Z" style="fill:white;fill-rule:nonzero;"/>
  <path d="M 583.254 798.743 L 583.254 764.407 L 604.066 764.407 L 603.809 769.446 L 589.605 769.446 L 589.605 778.306 L 603.105 778.306 L 603.105 783.345 L 589.605 783.345 L 589.605 793.681 L 604.324 793.681 L 604.113 798.743 L 583.254 798.743 Z" style="fill:white;fill-rule:nonzero;"/>
  <path d="M 622.934 798.743 L 622.934 764.407 L 633.644 764.407 C 638.191 764.407 641.582 765.071 643.816 766.4 C 646.051 767.728 647.168 769.939 647.168 773.032 C 647.168 773.532 647.137 774.025 647.074 774.509 C 647.012 774.993 646.871 775.544 646.652 776.161 C 646.434 776.779 646.144 777.337 645.785 777.837 C 645.426 778.337 644.926 778.825 644.285 779.302 C 643.644 779.779 642.894 780.15 642.035 780.415 C 644.16 780.931 645.785 781.919 646.91 783.38 C 648.035 784.841 648.598 786.642 648.598 788.782 C 648.598 792.017 647.453 794.486 645.164 796.189 C 642.875 797.892 639.707 798.743 635.66 798.743 L 622.934 798.743 Z M 629.285 794.15 L 634.793 794.15 C 639.668 794.15 642.105 792.243 642.105 788.431 C 642.105 786.509 641.496 785.126 640.277 784.282 C 639.059 783.439 637.176 783.017 634.629 783.017 L 629.285 783.017 L 629.285 794.15 Z M 629.285 778.587 L 634.723 778.587 C 638.926 778.587 641.027 776.986 641.027 773.782 C 641.027 771.986 640.422 770.751 639.211 770.079 C 638 769.407 636.074 769.071 633.434 769.071 L 629.285 769.071 L 629.285 778.587 Z" style="fill:white;fill-rule:nonzero;"/>
  <path d="M 660.387 799.236 C 657.996 799.236 656.062 798.575 654.586 797.255 C 653.109 795.935 652.371 794.032 652.371 791.548 C 652.371 788.876 653.246 786.896 654.996 785.607 C 656.746 784.318 659.387 783.501 662.918 783.157 C 663.402 783.095 663.926 783.032 664.488 782.97 C 665.051 782.907 665.684 782.845 666.387 782.782 C 667.09 782.72 667.644 782.665 668.051 782.618 L 668.051 781.259 C 668.051 779.696 667.691 778.56 666.973 777.849 C 666.254 777.138 665.16 776.782 663.691 776.782 C 661.598 776.782 659.012 777.368 655.934 778.54 C 655.918 778.493 655.66 777.782 655.16 776.407 C 654.66 775.032 654.402 774.329 654.387 774.298 C 657.418 773.001 660.699 772.353 664.23 772.353 C 667.699 772.353 670.223 773.107 671.801 774.614 C 673.379 776.122 674.168 778.564 674.168 781.939 L 674.168 798.743 L 669.621 798.743 C 669.605 798.681 669.434 798.157 669.105 797.173 C 668.777 796.189 668.613 795.665 668.613 795.603 C 667.332 796.853 666.078 797.771 664.852 798.357 C 663.625 798.943 662.137 799.236 660.387 799.236 Z M 662.051 794.876 C 663.473 794.876 664.711 794.536 665.766 793.857 C 666.82 793.177 667.574 792.353 668.027 791.384 L 668.027 786.415 C 667.98 786.415 667.57 786.446 666.797 786.509 C 666.023 786.571 665.605 786.603 665.543 786.603 C 663.059 786.821 661.238 787.29 660.082 788.009 C 658.926 788.728 658.348 789.884 658.348 791.478 C 658.348 792.571 658.668 793.411 659.309 793.997 C 659.949 794.583 660.863 794.876 662.051 794.876 Z" style="fill:white;fill-rule:nonzero;"/>
  <path d="M 691.629 799.236 C 687.691 799.236 684.625 798.064 682.43 795.72 C 680.234 793.376 679.137 790.025 679.137 785.665 C 679.137 781.446 680.289 778.173 682.594 775.845 C 684.898 773.517 687.934 772.353 691.699 772.353 C 694.715 772.353 697.262 773.001 699.34 774.298 L 697.887 778.681 C 695.762 777.571 693.785 777.017 691.957 777.017 C 689.879 777.017 688.242 777.759 687.047 779.243 C 685.852 780.728 685.254 782.892 685.254 785.736 C 685.254 788.611 685.844 790.798 687.023 792.298 C 688.203 793.798 689.871 794.548 692.027 794.548 C 694.277 794.548 696.441 793.884 698.519 792.556 L 699.105 797.22 C 698.027 797.939 696.91 798.454 695.754 798.767 C 694.598 799.079 693.223 799.236 691.629 799.236 Z" style="fill:white;fill-rule:nonzero;"/>
  <path d="M 703.98 798.743 L 703.98 763.493 L 710.121 763.095 L 710.121 778.915 L 709.98 784.118 C 709.996 784.103 710.156 783.946 710.461 783.65 C 710.766 783.353 710.934 783.189 710.965 783.157 C 711.824 782.142 712.758 781.095 713.766 780.017 C 714.773 778.939 716.047 777.618 717.586 776.056 C 719.125 774.493 720.129 773.47 720.598 772.986 L 727.91 772.986 L 717.316 783.954 L 728.59 798.743 L 721.16 798.743 L 712.676 787.048 L 710.121 789.064 L 710.121 798.743 L 703.98 798.743 Z" style="fill:white;fill-rule:nonzero;"/>
  <path d="M 750.059 796.728 C 748.012 798.4 745.316 799.236 741.973 799.236 C 738.629 799.236 735.937 798.4 733.898 796.728 C 731.859 795.056 730.84 792.603 730.84 789.368 L 730.84 772.986 L 737.004 772.986 L 737.004 789.134 C 737.004 791.056 737.406 792.446 738.211 793.306 C 739.016 794.165 740.293 794.595 742.043 794.595 C 743.762 794.595 745.016 794.169 745.805 793.318 C 746.594 792.466 746.988 791.071 746.988 789.134 L 746.988 772.986 L 753.129 772.986 L 753.129 789.368 C 753.129 792.587 752.105 795.04 750.059 796.728 Z" style="fill:white;fill-rule:nonzero;"/>
  <path d="M 758.73 809.454 L 758.73 772.986 L 764.004 772.986 L 764.66 776.595 C 765.504 775.236 766.625 774.185 768.023 773.443 C 769.422 772.7 770.98 772.329 772.699 772.329 C 774.809 772.329 776.664 772.915 778.266 774.087 C 779.867 775.259 781.082 776.857 781.91 778.88 C 782.738 780.904 783.152 783.189 783.152 785.736 C 783.152 789.72 782.187 792.966 780.258 795.474 C 778.328 797.982 775.715 799.236 772.418 799.236 C 770.793 799.236 769.32 798.911 768 798.263 C 766.68 797.614 765.574 796.736 764.684 795.626 C 764.809 797.876 764.871 799.142 764.871 799.423 L 764.871 809.15 L 758.73 809.454 Z M 771.105 794.548 C 772.934 794.548 774.375 793.782 775.43 792.251 C 776.484 790.72 777.012 788.532 777.012 785.689 C 777.012 782.798 776.48 780.626 775.418 779.173 C 774.355 777.72 772.879 776.993 770.988 776.993 C 766.926 776.993 764.871 779.759 764.824 785.29 C 764.824 788.478 765.352 790.818 766.406 792.31 C 767.461 793.802 769.027 794.548 771.105 794.548 Z" style="fill:white;fill-rule:nonzero;"/>
  <path d="M 774.419 525.856 C 762.404 505.045 744.921 489.359 724.829 479.566 C 722.258 493.292 717.394 506.821 710.025 519.587 L 698.397 539.767 C 706.142 544.07 712.884 550.404 717.639 558.639 C 731.61 582.833 723.315 613.78 699.116 627.75 C 674.922 641.72 643.975 633.431 630.005 609.232 L 606.541 568.655 L 568.677 568.655 L 549.744 601.443 L 573.224 642.015 C 605.305 697.575 676.344 716.61 731.904 684.53 C 787.458 652.456 806.494 581.416 774.419 525.856" style="fill:white;fill-rule:nonzero;"/>
  <path d="M 658.059 355.466 C 602.499 323.391 531.46 342.427 499.386 397.981 C 487.365 418.792 482.529 441.777 484.092 464.075 C 497.261 459.44 511.412 456.885 526.155 456.885 L 549.439 456.864 C 549.292 448.008 551.411 438.999 556.16 430.769 C 570.136 406.57 601.078 398.275 625.277 412.251 C 649.476 426.222 657.765 457.163 643.795 481.362 L 620.391 521.972 L 639.318 554.765 L 677.182 554.76 L 700.575 514.139 C 732.655 458.585 713.62 387.54 658.059 355.466" style="fill:white;fill-rule:nonzero;"/>
  <path d="M 563.788 647.465 L 552.122 627.307 C 544.524 631.866 535.668 634.535 526.164 634.535 C 498.218 634.535 475.565 611.883 475.565 583.936 C 475.565 555.996 498.218 533.344 526.164 533.344 L 573.031 533.311 L 591.969 500.523 L 573.031 467.735 L 526.158 467.778 C 462.004 467.778 410 519.787 410 583.936 C 410 648.091 462.004 700.1 526.158 700.1 C 550.183 700.1 572.497 692.802 591.021 680.313 C 580.422 671.222 571.157 660.226 563.788 647.465" style="fill:white;fill-rule:nonzero;"/>
</svg>