<?xml version="1.0" encoding="UTF-8" standalone="no"?>
<!DOCTYPE svg PUBLIC "-//W3C//DTD SVG 1.1//EN" "http://www.w3.org/Graphics/SVG/1.1/DTD/svg11.dtd">
<svg width="100%" height="100%" viewBox="0 0 1200 1080" version="1.1" xmlns="http://www.w3.org/2000/svg" xmlns:xlink="http://www.w3.org/1999/xlink" xml:space="preserve" xmlns:serif="http://www.serif.com/" style="fill-rule:evenodd;clip-rule:evenodd;stroke-linejoin:round;stroke-miterlimit:2;">
    <rect id="Artboard1" x="0" y="0" width="1200" height="1080" style="fill:none;"/>
    <g id="Artboard11" serif:id="Artboard1">
        <g transform="matrix(1,0,0,1.09091,-720,207.273)">
            <rect x="720" y="-190" width="1200" height="990" style="fill:rgb(46,46,46);"/>
        </g>
        <g transform="matrix(0.707107,-0.707107,0.707107,0.707107,-575.938,-155.145)">
            <path d="M-466.129,1280.63L207,607.5L207,1953.76L-466.129,1280.63Z" style="fill:rgb(51,51,51);"/>
        </g>
        <g id="rclone-backup.svg">
            <g transform="matrix(1,0,0,1,17.8621,-41.6765)">
                <path d="M402.525,840.419L402.525,805.99L415.251,805.99C416.986,805.99 418.49,806.068 419.763,806.224C421.036,806.38 422.247,806.665 423.396,807.08C424.544,807.494 425.474,808.052 426.185,808.755C426.896,809.458 427.458,810.376 427.872,811.509C428.286,812.642 428.493,813.982 428.493,815.529C428.493,820.091 426.423,823.091 422.282,824.529C423.126,825.482 424.173,827.247 425.423,829.826L430.532,840.419L423.595,840.419L419.587,831.443C418.072,828.224 417.134,826.318 416.775,825.724C416.509,825.708 415.626,825.701 414.126,825.701L408.806,825.654L408.806,840.419L402.525,840.419ZM415.814,821.107C418.251,821.107 420.001,820.673 421.064,819.806C422.126,818.939 422.657,817.544 422.657,815.622C422.657,813.935 422.118,812.693 421.04,811.896C419.962,811.099 418.314,810.701 416.095,810.701L408.806,810.701L408.806,821.083C409.04,821.083 410.204,821.087 412.298,821.095C414.392,821.103 415.564,821.107 415.814,821.107Z" style="fill:white;fill-rule:nonzero;"/>
                <path d="M450.243,840.912C445.228,840.912 441.251,839.333 438.314,836.177C435.376,833.021 433.907,828.662 433.907,823.099C433.907,817.818 435.443,813.58 438.513,810.384C441.583,807.189 445.603,805.591 450.572,805.591C454.587,805.591 457.986,806.521 460.767,808.38L458.775,813.185C456.103,811.544 453.415,810.724 450.712,810.724C447.556,810.724 445.06,811.861 443.224,814.134C441.388,816.408 440.47,819.458 440.47,823.287C440.47,827.255 441.357,830.326 443.13,832.497C444.904,834.669 447.431,835.755 450.712,835.755C453.587,835.755 456.439,835.037 459.267,833.599L460.111,838.568C457.486,840.13 454.197,840.912 450.243,840.912Z" style="fill:white;fill-rule:nonzero;"/>
                <path d="M465.759,840.419L465.759,806.083L472.111,806.083L472.111,835.357L486.478,835.357L486.29,840.419L465.759,840.419Z" style="fill:white;fill-rule:nonzero;"/>
                <path d="M498.689,832.474C500.392,834.646 502.907,835.732 506.236,835.732C509.564,835.732 512.075,834.65 513.771,832.486C515.466,830.322 516.314,827.263 516.314,823.31C516.314,819.31 515.466,816.208 513.771,814.005C512.075,811.802 509.572,810.701 506.259,810.701C502.931,810.701 500.411,811.806 498.7,814.017C496.99,816.228 496.134,819.326 496.134,823.31C496.134,827.247 496.986,830.302 498.689,832.474ZM506.212,840.912C501.04,840.912 496.958,839.345 493.966,836.212C490.974,833.08 489.478,828.755 489.478,823.24C489.478,817.693 490.978,813.365 493.978,810.255C496.978,807.146 501.064,805.591 506.236,805.591C511.407,805.591 515.486,807.15 518.47,810.267C521.454,813.384 522.947,817.716 522.947,823.263C522.947,828.747 521.447,833.06 518.447,836.201C515.447,839.341 511.368,840.912 506.212,840.912Z" style="fill:white;fill-rule:nonzero;"/>
                <path d="M528.97,840.419L528.97,806.083L535.72,806.083C536.939,807.99 539.415,811.833 543.15,817.615C546.884,823.396 549.157,826.912 549.97,828.162C550.204,828.521 550.607,829.126 551.177,829.978C551.747,830.83 552.15,831.435 552.384,831.794C552.275,826.435 552.22,823.654 552.22,823.451L552.22,806.083L558.009,806.083L558.009,840.419L551.165,840.419L535.673,816.279L534.548,814.427C534.673,818.552 534.736,821.451 534.736,823.122L534.736,840.419L528.97,840.419Z" style="fill:white;fill-rule:nonzero;"/>
                <path d="M565.392,840.419L565.392,806.083L586.204,806.083L585.947,811.122L571.743,811.122L571.743,819.982L585.243,819.982L585.243,825.021L571.743,825.021L571.743,835.357L586.462,835.357L586.251,840.419L565.392,840.419Z" style="fill:white;fill-rule:nonzero;"/>
                <path d="M605.072,840.419L605.072,806.083L615.782,806.083C620.329,806.083 623.72,806.747 625.954,808.076C628.189,809.404 629.306,811.615 629.306,814.708C629.306,815.208 629.275,815.701 629.212,816.185C629.15,816.669 629.009,817.22 628.79,817.837C628.572,818.455 628.282,819.013 627.923,819.513C627.564,820.013 627.064,820.501 626.423,820.978C625.782,821.455 625.032,821.826 624.173,822.091C626.298,822.607 627.923,823.595 629.048,825.056C630.173,826.517 630.736,828.318 630.736,830.458C630.736,833.693 629.591,836.162 627.302,837.865C625.013,839.568 621.845,840.419 617.798,840.419L605.072,840.419ZM611.423,835.826L616.931,835.826C621.806,835.826 624.243,833.919 624.243,830.107C624.243,828.185 623.634,826.802 622.415,825.958C621.197,825.115 619.314,824.693 616.767,824.693L611.423,824.693L611.423,835.826ZM611.423,820.263L616.861,820.263C621.064,820.263 623.165,818.662 623.165,815.458C623.165,813.662 622.56,812.427 621.349,811.755C620.138,811.083 618.212,810.747 615.572,810.747L611.423,810.747L611.423,820.263Z" style="fill:white;fill-rule:nonzero;"/>
                <path d="M642.525,840.912C640.134,840.912 638.2,840.251 636.724,838.931C635.247,837.611 634.509,835.708 634.509,833.224C634.509,830.552 635.384,828.572 637.134,827.283C638.884,825.994 641.525,825.177 645.056,824.833C645.54,824.771 646.064,824.708 646.626,824.646C647.189,824.583 647.822,824.521 648.525,824.458C649.228,824.396 649.782,824.341 650.189,824.294L650.189,822.935C650.189,821.372 649.829,820.236 649.111,819.525C648.392,818.814 647.298,818.458 645.829,818.458C643.736,818.458 641.15,819.044 638.072,820.216C638.056,820.169 637.798,819.458 637.298,818.083C636.798,816.708 636.54,816.005 636.525,815.974C639.556,814.677 642.837,814.029 646.368,814.029C649.837,814.029 652.361,814.783 653.939,816.29C655.517,817.798 656.306,820.24 656.306,823.615L656.306,840.419L651.759,840.419C651.743,840.357 651.572,839.833 651.243,838.849C650.915,837.865 650.751,837.341 650.751,837.279C649.47,838.529 648.216,839.447 646.99,840.033C645.763,840.619 644.275,840.912 642.525,840.912ZM644.189,836.552C645.611,836.552 646.849,836.212 647.904,835.533C648.958,834.853 649.712,834.029 650.165,833.06L650.165,828.091C650.118,828.091 649.708,828.122 648.935,828.185C648.161,828.247 647.743,828.279 647.681,828.279C645.197,828.497 643.376,828.966 642.22,829.685C641.064,830.404 640.486,831.56 640.486,833.154C640.486,834.247 640.806,835.087 641.447,835.673C642.087,836.259 643.001,836.552 644.189,836.552Z" style="fill:white;fill-rule:nonzero;"/>
                <path d="M673.767,840.912C669.829,840.912 666.763,839.74 664.568,837.396C662.372,835.052 661.275,831.701 661.275,827.341C661.275,823.122 662.427,819.849 664.732,817.521C667.036,815.193 670.072,814.029 673.837,814.029C676.853,814.029 679.4,814.677 681.478,815.974L680.025,820.357C677.9,819.247 675.923,818.693 674.095,818.693C672.017,818.693 670.38,819.435 669.185,820.919C667.99,822.404 667.392,824.568 667.392,827.412C667.392,830.287 667.982,832.474 669.161,833.974C670.341,835.474 672.009,836.224 674.165,836.224C676.415,836.224 678.579,835.56 680.657,834.232L681.243,838.896C680.165,839.615 679.048,840.13 677.892,840.443C676.736,840.755 675.361,840.912 673.767,840.912Z" style="fill:white;fill-rule:nonzero;"/>
                <path d="M686.118,840.419L686.118,805.169L692.259,804.771L692.259,820.591L692.118,825.794C692.134,825.779 692.294,825.622 692.599,825.326C692.904,825.029 693.072,824.865 693.103,824.833C693.962,823.818 694.896,822.771 695.904,821.693C696.911,820.615 698.185,819.294 699.724,817.732C701.263,816.169 702.267,815.146 702.736,814.662L710.048,814.662L699.454,825.63L710.728,840.419L703.298,840.419L694.814,828.724L692.259,830.74L692.259,840.419L686.118,840.419Z" style="fill:white;fill-rule:nonzero;"/>
                <path d="M732.197,838.404C730.15,840.076 727.454,840.912 724.111,840.912C720.767,840.912 718.075,840.076 716.036,838.404C713.997,836.732 712.978,834.279 712.978,831.044L712.978,814.662L719.142,814.662L719.142,830.81C719.142,832.732 719.544,834.122 720.349,834.982C721.154,835.841 722.431,836.271 724.181,836.271C725.9,836.271 727.154,835.845 727.943,834.994C728.732,834.142 729.126,832.747 729.126,830.81L729.126,814.662L735.267,814.662L735.267,831.044C735.267,834.263 734.243,836.716 732.197,838.404Z" style="fill:white;fill-rule:nonzero;"/>
                <path d="M740.868,851.13L740.868,814.662L746.142,814.662L746.798,818.271C747.642,816.912 748.763,815.861 750.161,815.119C751.56,814.376 753.118,814.005 754.837,814.005C756.947,814.005 758.802,814.591 760.404,815.763C762.005,816.935 763.22,818.533 764.048,820.556C764.876,822.58 765.29,824.865 765.29,827.412C765.29,831.396 764.325,834.642 762.396,837.15C760.466,839.658 757.853,840.912 754.556,840.912C752.931,840.912 751.458,840.587 750.138,839.939C748.818,839.29 747.712,838.412 746.822,837.302C746.947,839.552 747.009,840.818 747.009,841.099L747.009,850.826L740.868,851.13ZM753.243,836.224C755.072,836.224 756.513,835.458 757.568,833.927C758.622,832.396 759.15,830.208 759.15,827.365C759.15,824.474 758.618,822.302 757.556,820.849C756.493,819.396 755.017,818.669 753.126,818.669C749.064,818.669 747.009,821.435 746.962,826.966C746.962,830.154 747.49,832.494 748.544,833.986C749.599,835.478 751.165,836.224 753.243,836.224Z" style="fill:white;fill-rule:nonzero;"/>
            </g>
            <g transform="matrix(0.947973,0,0,0.947973,31.2161,74.4329)">
                <g transform="matrix(5.74545,0,0,5.74545,783.992,628.591)">
                    <path d="M0,-26.524C-2.206,-30.345 -5.416,-33.225 -9.105,-35.023C-9.577,-32.503 -10.47,-30.019 -11.823,-27.675L-13.958,-23.97C-12.536,-23.18 -11.298,-22.017 -10.425,-20.505C-7.86,-16.063 -9.383,-10.381 -13.826,-7.816C-18.268,-5.251 -23.95,-6.773 -26.515,-11.216L-30.823,-18.666L-37.775,-18.666L-41.251,-12.646L-36.94,-5.197C-31.05,5.004 -18.007,8.499 -7.806,2.609C2.394,-3.28 5.889,-16.323 0,-26.524" style="fill:white;fill-rule:nonzero;"/>
                </g>
                <g transform="matrix(5.74545,0,0,5.74545,661.246,472.859)">
                    <path d="M0,-30.703C-10.201,-36.592 -23.244,-33.097 -29.133,-22.897C-31.34,-19.076 -32.228,-14.856 -31.941,-10.762C-29.523,-11.613 -26.925,-12.082 -24.218,-12.082L-19.943,-12.086C-19.97,-13.712 -19.581,-15.366 -18.709,-16.877C-16.143,-21.32 -10.462,-22.843 -6.019,-20.277C-1.576,-17.712 -0.054,-12.031 -2.619,-7.588L-6.916,-0.132L-3.441,5.889L3.511,5.888L7.806,-1.57C13.696,-11.77 10.201,-24.814 0,-30.703" style="fill:white;fill-rule:nonzero;"/>
                </g>
                <g transform="matrix(5.74545,0,0,5.74545,561.801,470.411)">
                    <path d="M0,23.335L-2.142,19.634C-3.537,20.471 -5.163,20.961 -6.908,20.961C-12.039,20.961 -16.198,16.802 -16.198,11.671C-16.198,6.541 -12.039,2.382 -6.908,2.382L1.697,2.376L5.174,-3.644L1.697,-9.664L-6.909,-9.656C-18.688,-9.656 -28.236,-0.107 -28.236,11.671C-28.236,23.45 -18.688,32.999 -6.909,32.999C-2.498,32.999 1.599,31.659 5,29.366C3.054,27.697 1.353,25.678 0,23.335" style="fill:white;fill-rule:nonzero;"/>
                </g>
            </g>
        </g>
    </g>
</svg>
