<?xml version="1.0" encoding="utf-8"?>
<svg width="100%" height="100%" viewBox="0 0 1200 1080" version="1.1" xmlns="http://www.w3.org/2000/svg" style="fill-rule:evenodd;clip-rule:evenodd;stroke-linejoin:round;stroke-miterlimit:2;">
  <path d="M 0 0 H 1200 V 1080.001 H 0 V 0 Z" style="fill:rgb(46,46,46);"/>
  <path d="M -98.576 842.013 L 574.553 168.883 L 574.553 1515.144 L -98.576 842.013 Z" style="fill: rgb(51, 51, 51); transform-box: fill-box; transform-origin: 50% 50%;" transform="matrix(0.707107, -0.707107, 0.707107, 0.707107, -0.000006, -0.000008)"/>
  <path d="M 415.441 798.743 L 415.441 764.314 L 428.168 764.314 C 429.902 764.314 431.406 764.392 432.68 764.548 C 433.953 764.704 435.164 764.989 436.312 765.404 C 437.461 765.818 438.391 766.376 439.102 767.079 C 439.812 767.782 440.375 768.7 440.789 769.833 C 441.203 770.966 441.41 772.306 441.41 773.853 C 441.41 778.415 439.34 781.415 435.199 782.853 C 436.043 783.806 437.09 785.571 438.34 788.15 L 443.449 798.743 L 436.512 798.743 L 432.504 789.767 C 430.988 786.548 430.051 784.642 429.691 784.048 C 429.426 784.032 428.543 784.025 427.043 784.025 L 421.723 783.978 L 421.723 798.743 L 415.441 798.743 Z M 428.73 779.431 C 431.168 779.431 432.918 778.997 433.98 778.13 C 435.043 777.263 435.574 775.868 435.574 773.946 C 435.574 772.259 435.035 771.017 433.957 770.22 C 432.879 769.423 431.23 769.025 429.012 769.025 L 421.723 769.025 L 421.723 779.407 C 421.957 779.407 423.121 779.411 425.215 779.419 C 427.309 779.427 428.48 779.431 428.73 779.431 Z" style="fill:white;fill-rule:nonzero;"/>
  <path d="M 463.16 799.236 C 458.144 799.236 454.168 797.657 451.23 794.501 C 448.293 791.345 446.824 786.986 446.824 781.423 C 446.824 776.142 448.359 771.904 451.43 768.708 C 454.5 765.513 458.519 763.915 463.488 763.915 C 467.504 763.915 470.902 764.845 473.684 766.704 L 471.691 771.509 C 469.019 769.868 466.332 769.048 463.629 769.048 C 460.473 769.048 457.977 770.185 456.141 772.458 C 454.305 774.732 453.387 777.782 453.387 781.611 C 453.387 785.579 454.273 788.65 456.047 790.821 C 457.82 792.993 460.348 794.079 463.629 794.079 C 466.504 794.079 469.355 793.361 472.184 791.923 L 473.027 796.892 C 470.402 798.454 467.113 799.236 463.16 799.236 Z" style="fill:white;fill-rule:nonzero;"/>
  <path d="M 478.676 798.743 L 478.676 764.407 L 485.027 764.407 L 485.027 793.681 L 499.394 793.681 L 499.207 798.743 L 478.676 798.743 Z" style="fill:white;fill-rule:nonzero;"/>
  <path d="M 511.605 790.798 C 513.309 792.97 515.824 794.056 519.152 794.056 C 522.48 794.056 524.992 792.974 526.687 790.81 C 528.383 788.646 529.23 785.587 529.23 781.634 C 529.23 777.634 528.383 774.532 526.687 772.329 C 524.992 770.126 522.488 769.025 519.176 769.025 C 515.848 769.025 513.328 770.13 511.617 772.341 C 509.906 774.552 509.051 777.65 509.051 781.634 C 509.051 785.571 509.902 788.626 511.605 790.798 Z M 519.129 799.236 C 513.957 799.236 509.875 797.669 506.883 794.536 C 503.891 791.404 502.394 787.079 502.394 781.564 C 502.394 776.017 503.894 771.689 506.894 768.579 C 509.894 765.47 513.98 763.915 519.152 763.915 C 524.324 763.915 528.402 765.474 531.387 768.591 C 534.371 771.708 535.863 776.04 535.863 781.587 C 535.863 787.071 534.363 791.384 531.363 794.525 C 528.363 797.665 524.285 799.236 519.129 799.236 Z" style="fill:white;fill-rule:nonzero;"/>
  <path d="M 541.887 798.743 L 541.887 764.407 L 548.637 764.407 C 549.855 766.314 552.332 770.157 556.066 775.939 C 559.801 781.72 562.074 785.236 562.887 786.486 C 563.121 786.845 563.523 787.45 564.094 788.302 C 564.664 789.154 565.066 789.759 565.301 790.118 C 565.191 784.759 565.137 781.978 565.137 781.775 L 565.137 764.407 L 570.926 764.407 L 570.926 798.743 L 564.082 798.743 L 548.59 774.603 L 547.465 772.751 C 547.59 776.876 547.652 779.775 547.652 781.446 L 547.652 798.743 L 541.887 798.743 Z" style="fill:white;fill-rule:nonzero;"/>
  <path d="M 578.309 798.743 L 578.309 764.407 L 599.121 764.407 L 598.863 769.446 L 584.66 769.446 L 584.66 778.306 L 598.16 778.306 L 598.16 783.345 L 584.66 783.345 L 584.66 793.681 L 599.379 793.681 L 599.168 798.743 L 578.309 798.743 Z" style="fill:white;fill-rule:nonzero;"/>
  <path d="M 617.824 798.743 L 617.824 764.314 L 630.551 764.314 C 632.285 764.314 633.789 764.392 635.062 764.548 C 636.336 764.704 637.547 764.989 638.695 765.404 C 639.844 765.818 640.773 766.376 641.484 767.079 C 642.195 767.782 642.758 768.7 643.172 769.833 C 643.586 770.966 643.793 772.306 643.793 773.853 C 643.793 778.415 641.723 781.415 637.582 782.853 C 638.426 783.806 639.473 785.571 640.723 788.15 L 645.832 798.743 L 638.894 798.743 L 634.887 789.767 C 633.371 786.548 632.434 784.642 632.074 784.048 C 631.809 784.032 630.926 784.025 629.426 784.025 L 624.105 783.978 L 624.105 798.743 L 617.824 798.743 Z M 631.113 779.431 C 633.551 779.431 635.301 778.997 636.363 778.13 C 637.426 777.263 637.957 775.868 637.957 773.946 C 637.957 772.259 637.418 771.017 636.34 770.22 C 635.262 769.423 633.613 769.025 631.394 769.025 L 624.105 769.025 L 624.105 779.407 C 624.34 779.407 625.504 779.411 627.598 779.419 C 629.691 779.427 630.863 779.431 631.113 779.431 Z" style="fill:white;fill-rule:nonzero;"/>
  <path d="M 661.98 799.236 C 657.84 799.236 654.617 798.044 652.312 795.661 C 650.008 793.279 648.855 789.986 648.855 785.782 C 648.855 781.689 649.941 778.431 652.113 776.009 C 654.285 773.587 657.246 772.368 660.996 772.353 C 664.543 772.353 667.297 773.462 669.258 775.681 C 671.219 777.9 672.199 780.845 672.199 784.517 C 672.199 784.782 672.195 785.212 672.187 785.806 C 672.18 786.4 672.176 786.837 672.176 787.118 L 655.043 787.118 C 655.105 789.525 655.766 791.388 657.023 792.708 C 658.281 794.029 660.012 794.689 662.215 794.689 C 665.027 794.689 667.73 793.954 670.324 792.486 L 671.191 796.845 C 668.613 798.439 665.543 799.236 661.98 799.236 Z M 655.16 783.251 L 666.41 783.251 C 666.41 781.157 665.934 779.548 664.98 778.423 C 664.027 777.298 662.707 776.736 661.019 776.736 C 659.441 776.736 658.109 777.282 657.023 778.376 C 655.937 779.47 655.316 781.095 655.16 783.251 Z" style="fill:white;fill-rule:nonzero;"/>
  <path d="M 685.418 799.212 C 681.621 799.212 678.582 798.564 676.301 797.267 L 676.934 792.65 C 677.965 793.212 679.277 793.716 680.871 794.161 C 682.465 794.607 683.918 794.829 685.23 794.829 C 686.59 794.829 687.648 794.575 688.406 794.068 C 689.164 793.56 689.551 792.814 689.566 791.829 C 689.566 790.939 689.211 790.236 688.5 789.72 C 687.789 789.204 686.434 788.564 684.434 787.798 C 683.746 787.548 683.301 787.384 683.098 787.306 C 680.723 786.384 679.012 785.357 677.965 784.224 C 676.918 783.091 676.394 781.556 676.394 779.618 C 676.394 777.275 677.242 775.478 678.937 774.228 C 680.633 772.978 682.996 772.353 686.027 772.353 C 689.309 772.353 692.191 772.97 694.676 774.204 L 693.152 778.446 C 690.699 777.306 688.363 776.736 686.144 776.736 C 684.91 776.736 683.945 776.943 683.25 777.357 C 682.555 777.771 682.207 778.4 682.207 779.243 C 682.207 780.04 682.543 780.661 683.215 781.107 C 683.887 781.552 685.199 782.134 687.152 782.853 C 687.215 782.868 687.418 782.939 687.762 783.064 C 688.105 783.189 688.371 783.29 688.559 783.368 C 690.918 784.228 692.652 785.255 693.762 786.45 C 694.871 787.646 695.426 789.204 695.426 791.126 C 695.41 793.704 694.535 795.696 692.801 797.103 C 691.066 798.509 688.605 799.212 685.418 799.212 Z" style="fill:white;fill-rule:nonzero;"/>
  <path d="M 710.566 799.095 C 708.816 799.095 707.359 798.888 706.195 798.474 C 705.031 798.06 704.121 797.407 703.465 796.517 C 702.809 795.626 702.344 794.575 702.07 793.364 C 701.797 792.154 701.66 790.657 701.66 788.876 L 701.66 776.712 L 697.441 776.712 L 697.676 773.384 L 702.082 772.986 L 704.051 766.001 L 707.801 765.978 L 707.801 772.986 L 714.199 772.986 L 714.199 776.712 L 707.801 776.712 L 707.801 788.993 C 707.801 790.946 708.082 792.337 708.644 793.165 C 709.207 793.993 710.246 794.407 711.762 794.407 C 712.652 794.407 713.605 794.329 714.621 794.173 L 714.785 798.579 C 714.754 798.579 714.562 798.614 714.211 798.685 C 713.859 798.755 713.523 798.818 713.203 798.872 C 712.883 798.927 712.473 798.978 711.973 799.025 C 711.473 799.071 711.004 799.095 710.566 799.095 Z" style="fill:white;fill-rule:nonzero;"/>
  <path d="M 730.113 794.571 C 732.191 794.571 733.754 793.814 734.801 792.298 C 735.848 790.782 736.371 788.611 736.371 785.782 C 736.371 782.923 735.848 780.743 734.801 779.243 C 733.754 777.743 732.176 776.993 730.066 776.993 C 727.988 776.993 726.422 777.747 725.367 779.255 C 724.312 780.763 723.785 782.946 723.785 785.806 C 723.785 788.618 724.316 790.782 725.379 792.298 C 726.441 793.814 728.019 794.571 730.113 794.571 Z M 729.949 799.236 C 726.137 799.236 723.137 798.001 720.949 795.532 C 718.762 793.064 717.668 789.814 717.668 785.782 C 717.668 781.626 718.762 778.349 720.949 775.95 C 723.137 773.552 726.223 772.353 730.207 772.353 C 734.051 772.353 737.062 773.575 739.242 776.021 C 741.422 778.466 742.512 781.72 742.512 785.782 C 742.512 789.892 741.41 793.161 739.207 795.591 C 737.004 798.021 733.918 799.236 729.949 799.236 Z" style="fill:white;fill-rule:nonzero;"/>
  <path d="M 747.551 798.743 L 747.551 772.986 L 752.707 772.986 L 753.504 776.923 C 755.191 774.22 757.637 772.868 760.84 772.868 C 761.512 772.868 762.059 772.9 762.48 772.962 L 762.387 778.095 C 761.762 778.001 761.113 777.954 760.441 777.954 C 758.176 777.954 756.484 778.556 755.367 779.759 C 754.25 780.962 753.691 782.634 753.691 784.775 L 753.691 798.743 L 747.551 798.743 Z" style="fill:white;fill-rule:nonzero;"/>
  <path d="M 777.902 799.236 C 773.762 799.236 770.539 798.044 768.234 795.661 C 765.93 793.279 764.777 789.986 764.777 785.782 C 764.777 781.689 765.863 778.431 768.035 776.009 C 770.207 773.587 773.168 772.368 776.918 772.353 C 780.465 772.353 783.219 773.462 785.18 775.681 C 787.141 777.9 788.121 780.845 788.121 784.517 C 788.121 784.782 788.117 785.212 788.109 785.806 C 788.102 786.4 788.098 786.837 788.098 787.118 L 770.965 787.118 C 771.027 789.525 771.687 791.388 772.945 792.708 C 774.203 794.029 775.934 794.689 778.137 794.689 C 780.949 794.689 783.652 793.954 786.246 792.486 L 787.113 796.845 C 784.535 798.439 781.465 799.236 777.902 799.236 Z M 771.082 783.251 L 782.332 783.251 C 782.332 781.157 781.855 779.548 780.902 778.423 C 779.949 777.298 778.629 776.736 776.941 776.736 C 775.363 776.736 774.031 777.282 772.945 778.376 C 771.859 779.47 771.238 781.095 771.082 783.251 Z" style="fill:white;fill-rule:nonzero;"/>
  <path d="M 774.419 525.856 C 762.404 505.045 744.921 489.359 724.829 479.566 C 722.258 493.292 717.394 506.821 710.025 519.587 L 698.397 539.767 C 706.142 544.07 712.884 550.404 717.639 558.639 C 731.61 582.833 723.315 613.78 699.116 627.75 C 674.922 641.72 643.975 633.431 630.005 609.232 L 606.541 568.655 L 568.677 568.655 L 549.744 601.443 L 573.224 642.015 C 605.305 697.575 676.344 716.61 731.904 684.53 C 787.458 652.456 806.494 581.416 774.419 525.856" style="fill:white;fill-rule:nonzero;"/>
  <path d="M 658.059 355.466 C 602.499 323.391 531.46 342.427 499.386 397.981 C 487.365 418.792 482.529 441.777 484.092 464.075 C 497.261 459.44 511.412 456.885 526.155 456.885 L 549.439 456.864 C 549.292 448.008 551.411 438.999 556.16 430.769 C 570.136 406.57 601.078 398.275 625.277 412.251 C 649.476 426.222 657.765 457.163 643.795 481.362 L 620.391 521.972 L 639.318 554.765 L 677.182 554.76 L 700.575 514.139 C 732.655 458.585 713.62 387.54 658.059 355.466" style="fill:white;fill-rule:nonzero;"/>
  <path d="M 563.788 647.465 L 552.122 627.307 C 544.524 631.866 535.668 634.535 526.164 634.535 C 498.218 634.535 475.565 611.883 475.565 583.936 C 475.565 555.996 498.218 533.344 526.164 533.344 L 573.031 533.311 L 591.969 500.523 L 573.031 467.735 L 526.158 467.778 C 462.004 467.778 410 519.787 410 583.936 C 410 648.091 462.004 700.1 526.158 700.1 C 550.183 700.1 572.497 692.802 591.021 680.313 C 580.422 671.222 571.157 660.226 563.788 647.465" style="fill:white;fill-rule:nonzero;"/>
</svg>