<?xml version="1.0" encoding="UTF-8" standalone="no"?>
<!DOCTYPE svg PUBLIC "-//W3C//DTD SVG 1.1//EN" "http://www.w3.org/Graphics/SVG/1.1/DTD/svg11.dtd">
<svg width="100%" height="100%" viewBox="0 0 1200 1080" version="1.1" xmlns="http://www.w3.org/2000/svg" xmlns:xlink="http://www.w3.org/1999/xlink" xml:space="preserve" xmlns:serif="http://www.serif.com/" style="fill-rule:evenodd;clip-rule:evenodd;stroke-linejoin:round;stroke-miterlimit:2;">
    <rect id="Artboard1" x="0" y="0" width="1200" height="1080" style="fill:none;"/>
    <g id="Artboard11" serif:id="Artboard1">
        <g transform="matrix(1,0,0,1.09091,-720,207.273)">
            <rect x="720" y="-190" width="1200" height="990" style="fill:rgb(46,46,46);"/>
        </g>
        <g transform="matrix(0.707107,-0.707107,0.707107,0.707107,-575.938,-155.145)">
            <path d="M-466.129,1280.63L207,607.5L207,1953.76L-466.129,1280.63Z" style="fill:rgb(51,51,51);"/>
        </g>
        <g id="rclone-restore.svg">
            <g transform="matrix(1,0,0,1,17.8621,-41.6765)">
                <path d="M397.579,840.419L397.579,805.99L410.306,805.99C412.04,805.99 413.544,806.068 414.818,806.224C416.091,806.38 417.302,806.665 418.45,807.08C419.599,807.494 420.529,808.052 421.24,808.755C421.95,809.458 422.513,810.376 422.927,811.509C423.341,812.642 423.548,813.982 423.548,815.529C423.548,820.091 421.478,823.091 417.337,824.529C418.181,825.482 419.228,827.247 420.478,829.826L425.587,840.419L418.65,840.419L414.642,831.443C413.126,828.224 412.189,826.318 411.829,825.724C411.564,825.708 410.681,825.701 409.181,825.701L403.861,825.654L403.861,840.419L397.579,840.419ZM410.868,821.107C413.306,821.107 415.056,820.673 416.118,819.806C417.181,818.939 417.712,817.544 417.712,815.622C417.712,813.935 417.173,812.693 416.095,811.896C415.017,811.099 413.368,810.701 411.15,810.701L403.861,810.701L403.861,821.083C404.095,821.083 405.259,821.087 407.353,821.095C409.447,821.103 410.618,821.107 410.868,821.107Z" style="fill:white;fill-rule:nonzero;"/>
                <path d="M445.298,840.912C440.282,840.912 436.306,839.333 433.368,836.177C430.431,833.021 428.962,828.662 428.962,823.099C428.962,817.818 430.497,813.58 433.568,810.384C436.638,807.189 440.657,805.591 445.626,805.591C449.642,805.591 453.04,806.521 455.822,808.38L453.829,813.185C451.157,811.544 448.47,810.724 445.767,810.724C442.611,810.724 440.115,811.861 438.279,814.134C436.443,816.408 435.525,819.458 435.525,823.287C435.525,827.255 436.411,830.326 438.185,832.497C439.958,834.669 442.486,835.755 445.767,835.755C448.642,835.755 451.493,835.037 454.322,833.599L455.165,838.568C452.54,840.13 449.251,840.912 445.298,840.912Z" style="fill:white;fill-rule:nonzero;"/>
                <path d="M460.814,840.419L460.814,806.083L467.165,806.083L467.165,835.357L481.532,835.357L481.345,840.419L460.814,840.419Z" style="fill:white;fill-rule:nonzero;"/>
                <path d="M493.743,832.474C495.447,834.646 497.962,835.732 501.29,835.732C504.618,835.732 507.13,834.65 508.825,832.486C510.521,830.322 511.368,827.263 511.368,823.31C511.368,819.31 510.521,816.208 508.825,814.005C507.13,811.802 504.626,810.701 501.314,810.701C497.986,810.701 495.466,811.806 493.755,814.017C492.044,816.228 491.189,819.326 491.189,823.31C491.189,827.247 492.04,830.302 493.743,832.474ZM501.267,840.912C496.095,840.912 492.013,839.345 489.021,836.212C486.029,833.08 484.532,828.755 484.532,823.24C484.532,817.693 486.032,813.365 489.032,810.255C492.032,807.146 496.118,805.591 501.29,805.591C506.462,805.591 510.54,807.15 513.525,810.267C516.509,813.384 518.001,817.716 518.001,823.263C518.001,828.747 516.501,833.06 513.501,836.201C510.501,839.341 506.423,840.912 501.267,840.912Z" style="fill:white;fill-rule:nonzero;"/>
                <path d="M524.025,840.419L524.025,806.083L530.775,806.083C531.993,807.99 534.47,811.833 538.204,817.615C541.939,823.396 544.212,826.912 545.025,828.162C545.259,828.521 545.661,829.126 546.232,829.978C546.802,830.83 547.204,831.435 547.439,831.794C547.329,826.435 547.275,823.654 547.275,823.451L547.275,806.083L553.064,806.083L553.064,840.419L546.22,840.419L530.728,816.279L529.603,814.427C529.728,818.552 529.79,821.451 529.79,823.122L529.79,840.419L524.025,840.419Z" style="fill:white;fill-rule:nonzero;"/>
                <path d="M560.447,840.419L560.447,806.083L581.259,806.083L581.001,811.122L566.798,811.122L566.798,819.982L580.298,819.982L580.298,825.021L566.798,825.021L566.798,835.357L581.517,835.357L581.306,840.419L560.447,840.419Z" style="fill:white;fill-rule:nonzero;"/>
                <path d="M599.962,840.419L599.962,805.99L612.689,805.99C614.423,805.99 615.927,806.068 617.2,806.224C618.474,806.38 619.685,806.665 620.833,807.08C621.982,807.494 622.911,808.052 623.622,808.755C624.333,809.458 624.896,810.376 625.31,811.509C625.724,812.642 625.931,813.982 625.931,815.529C625.931,820.091 623.861,823.091 619.72,824.529C620.564,825.482 621.611,827.247 622.861,829.826L627.97,840.419L621.032,840.419L617.025,831.443C615.509,828.224 614.572,826.318 614.212,825.724C613.947,825.708 613.064,825.701 611.564,825.701L606.243,825.654L606.243,840.419L599.962,840.419ZM613.251,821.107C615.689,821.107 617.439,820.673 618.501,819.806C619.564,818.939 620.095,817.544 620.095,815.622C620.095,813.935 619.556,812.693 618.478,811.896C617.4,811.099 615.751,810.701 613.532,810.701L606.243,810.701L606.243,821.083C606.478,821.083 607.642,821.087 609.736,821.095C611.829,821.103 613.001,821.107 613.251,821.107Z" style="fill:white;fill-rule:nonzero;"/>
                <path d="M644.118,840.912C639.978,840.912 636.755,839.72 634.45,837.337C632.146,834.955 630.993,831.662 630.993,827.458C630.993,823.365 632.079,820.107 634.251,817.685C636.423,815.263 639.384,814.044 643.134,814.029C646.681,814.029 649.435,815.138 651.396,817.357C653.357,819.576 654.337,822.521 654.337,826.193C654.337,826.458 654.333,826.888 654.325,827.482C654.318,828.076 654.314,828.513 654.314,828.794L637.181,828.794C637.243,831.201 637.904,833.064 639.161,834.384C640.419,835.705 642.15,836.365 644.353,836.365C647.165,836.365 649.868,835.63 652.462,834.162L653.329,838.521C650.751,840.115 647.681,840.912 644.118,840.912ZM637.298,824.927L648.548,824.927C648.548,822.833 648.072,821.224 647.118,820.099C646.165,818.974 644.845,818.412 643.157,818.412C641.579,818.412 640.247,818.958 639.161,820.052C638.075,821.146 637.454,822.771 637.298,824.927Z" style="fill:white;fill-rule:nonzero;"/>
                <path d="M667.556,840.888C663.759,840.888 660.72,840.24 658.439,838.943L659.072,834.326C660.103,834.888 661.415,835.392 663.009,835.837C664.603,836.283 666.056,836.505 667.368,836.505C668.728,836.505 669.786,836.251 670.544,835.744C671.302,835.236 671.689,834.49 671.704,833.505C671.704,832.615 671.349,831.912 670.638,831.396C669.927,830.88 668.572,830.24 666.572,829.474C665.884,829.224 665.439,829.06 665.236,828.982C662.861,828.06 661.15,827.033 660.103,825.9C659.056,824.767 658.532,823.232 658.532,821.294C658.532,818.951 659.38,817.154 661.075,815.904C662.771,814.654 665.134,814.029 668.165,814.029C671.447,814.029 674.329,814.646 676.814,815.88L675.29,820.122C672.837,818.982 670.501,818.412 668.282,818.412C667.048,818.412 666.083,818.619 665.388,819.033C664.693,819.447 664.345,820.076 664.345,820.919C664.345,821.716 664.681,822.337 665.353,822.783C666.025,823.228 667.337,823.81 669.29,824.529C669.353,824.544 669.556,824.615 669.9,824.74C670.243,824.865 670.509,824.966 670.697,825.044C673.056,825.904 674.79,826.931 675.9,828.126C677.009,829.322 677.564,830.88 677.564,832.802C677.548,835.38 676.673,837.372 674.939,838.779C673.204,840.185 670.743,840.888 667.556,840.888Z" style="fill:white;fill-rule:nonzero;"/>
                <path d="M692.704,840.771C690.954,840.771 689.497,840.564 688.333,840.15C687.169,839.736 686.259,839.083 685.603,838.193C684.947,837.302 684.482,836.251 684.208,835.04C683.935,833.83 683.798,832.333 683.798,830.552L683.798,818.388L679.579,818.388L679.814,815.06L684.22,814.662L686.189,807.677L689.939,807.654L689.939,814.662L696.337,814.662L696.337,818.388L689.939,818.388L689.939,830.669C689.939,832.622 690.22,834.013 690.782,834.841C691.345,835.669 692.384,836.083 693.9,836.083C694.79,836.083 695.743,836.005 696.759,835.849L696.923,840.255C696.892,840.255 696.7,840.29 696.349,840.361C695.997,840.431 695.661,840.494 695.341,840.548C695.021,840.603 694.611,840.654 694.111,840.701C693.611,840.747 693.142,840.771 692.704,840.771Z" style="fill:white;fill-rule:nonzero;"/>
                <path d="M712.251,836.247C714.329,836.247 715.892,835.49 716.939,833.974C717.986,832.458 718.509,830.287 718.509,827.458C718.509,824.599 717.986,822.419 716.939,820.919C715.892,819.419 714.314,818.669 712.204,818.669C710.126,818.669 708.56,819.423 707.505,820.931C706.45,822.439 705.923,824.622 705.923,827.482C705.923,830.294 706.454,832.458 707.517,833.974C708.579,835.49 710.157,836.247 712.251,836.247ZM712.087,840.912C708.275,840.912 705.275,839.677 703.087,837.208C700.9,834.74 699.806,831.49 699.806,827.458C699.806,823.302 700.9,820.025 703.087,817.626C705.275,815.228 708.361,814.029 712.345,814.029C716.189,814.029 719.2,815.251 721.38,817.697C723.56,820.142 724.65,823.396 724.65,827.458C724.65,831.568 723.548,834.837 721.345,837.267C719.142,839.697 716.056,840.912 712.087,840.912Z" style="fill:white;fill-rule:nonzero;"/>
                <path d="M729.689,840.419L729.689,814.662L734.845,814.662L735.642,818.599C737.329,815.896 739.775,814.544 742.978,814.544C743.65,814.544 744.197,814.576 744.618,814.638L744.525,819.771C743.9,819.677 743.251,819.63 742.579,819.63C740.314,819.63 738.622,820.232 737.505,821.435C736.388,822.638 735.829,824.31 735.829,826.451L735.829,840.419L729.689,840.419Z" style="fill:white;fill-rule:nonzero;"/>
                <path d="M760.04,840.912C755.9,840.912 752.677,839.72 750.372,837.337C748.068,834.955 746.915,831.662 746.915,827.458C746.915,823.365 748.001,820.107 750.173,817.685C752.345,815.263 755.306,814.044 759.056,814.029C762.603,814.029 765.357,815.138 767.318,817.357C769.279,819.576 770.259,822.521 770.259,826.193C770.259,826.458 770.255,826.888 770.247,827.482C770.24,828.076 770.236,828.513 770.236,828.794L753.103,828.794C753.165,831.201 753.825,833.064 755.083,834.384C756.341,835.705 758.072,836.365 760.275,836.365C763.087,836.365 765.79,835.63 768.384,834.162L769.251,838.521C766.673,840.115 763.603,840.912 760.04,840.912ZM753.22,824.927L764.47,824.927C764.47,822.833 763.993,821.224 763.04,820.099C762.087,818.974 760.767,818.412 759.079,818.412C757.501,818.412 756.169,818.958 755.083,820.052C753.997,821.146 753.376,822.771 753.22,824.927Z" style="fill:white;fill-rule:nonzero;"/>
            </g>
            <g transform="matrix(0.947973,0,0,0.947973,31.2161,74.4329)">
                <g transform="matrix(5.74545,0,0,5.74545,783.992,628.591)">
                    <path d="M0,-26.524C-2.206,-30.345 -5.416,-33.225 -9.105,-35.023C-9.577,-32.503 -10.47,-30.019 -11.823,-27.675L-13.958,-23.97C-12.536,-23.18 -11.298,-22.017 -10.425,-20.505C-7.86,-16.063 -9.383,-10.381 -13.826,-7.816C-18.268,-5.251 -23.95,-6.773 -26.515,-11.216L-30.823,-18.666L-37.775,-18.666L-41.251,-12.646L-36.94,-5.197C-31.05,5.004 -18.007,8.499 -7.806,2.609C2.394,-3.28 5.889,-16.323 0,-26.524" style="fill:white;fill-rule:nonzero;"/>
                </g>
                <g transform="matrix(5.74545,0,0,5.74545,661.246,472.859)">
                    <path d="M0,-30.703C-10.201,-36.592 -23.244,-33.097 -29.133,-22.897C-31.34,-19.076 -32.228,-14.856 -31.941,-10.762C-29.523,-11.613 -26.925,-12.082 -24.218,-12.082L-19.943,-12.086C-19.97,-13.712 -19.581,-15.366 -18.709,-16.877C-16.143,-21.32 -10.462,-22.843 -6.019,-20.277C-1.576,-17.712 -0.054,-12.031 -2.619,-7.588L-6.916,-0.132L-3.441,5.889L3.511,5.888L7.806,-1.57C13.696,-11.77 10.201,-24.814 0,-30.703" style="fill:white;fill-rule:nonzero;"/>
                </g>
                <g transform="matrix(5.74545,0,0,5.74545,561.801,470.411)">
                    <path d="M0,23.335L-2.142,19.634C-3.537,20.471 -5.163,20.961 -6.908,20.961C-12.039,20.961 -16.198,16.802 -16.198,11.671C-16.198,6.541 -12.039,2.382 -6.908,2.382L1.697,2.376L5.174,-3.644L1.697,-9.664L-6.909,-9.656C-18.688,-9.656 -28.236,-0.107 -28.236,11.671C-28.236,23.45 -18.688,32.999 -6.909,32.999C-2.498,32.999 1.599,31.659 5,29.366C3.054,27.697 1.353,25.678 0,23.335" style="fill:white;fill-rule:nonzero;"/>
                </g>
            </g>
        </g>
    </g>
</svg>
