<?xml version="1.0" encoding="UTF-8" standalone="no"?>
<!DOCTYPE svg PUBLIC "-//W3C//DTD SVG 1.1//EN" "http://www.w3.org/Graphics/SVG/1.1/DTD/svg11.dtd">
<svg width="100%" height="100%" viewBox="0 0 1200 1080" version="1.1" xmlns="http://www.w3.org/2000/svg" xmlns:xlink="http://www.w3.org/1999/xlink" xml:space="preserve" xmlns:serif="http://www.serif.com/" style="fill-rule:evenodd;clip-rule:evenodd;stroke-linejoin:round;stroke-miterlimit:2;">
    <rect id="Artboard1" x="0" y="0" width="1200" height="1080" style="fill:none;"/>
    <g id="Artboard11" serif:id="Artboard1">
        <g transform="matrix(1,0,0,1.09091,-720,207.273)">
            <rect x="720" y="-190" width="1200" height="990" style="fill:rgb(46,46,46);"/>
        </g>
        <g transform="matrix(0.707107,-0.707107,0.707107,0.707107,-575.938,-155.145)">
            <path d="M-466.129,1280.63L207,607.5L207,1953.76L-466.129,1280.63Z" style="fill:rgb(51,51,51);"/>
        </g>
        <g id="remove-mac-files.svg">
            <g transform="matrix(1,0,0,1,17.8621,-41.6765)">
                <path d="M409.286,840.419L409.286,805.99L422.013,805.99C423.747,805.99 425.251,806.068 426.525,806.224C427.798,806.38 429.009,806.665 430.157,807.08C431.306,807.494 432.236,808.052 432.947,808.755C433.657,809.458 434.22,810.376 434.634,811.509C435.048,812.642 435.255,813.982 435.255,815.529C435.255,820.091 433.185,823.091 429.044,824.529C429.888,825.482 430.935,827.247 432.185,829.826L437.294,840.419L430.357,840.419L426.349,831.443C424.833,828.224 423.896,826.318 423.536,825.724C423.271,825.708 422.388,825.701 420.888,825.701L415.568,825.654L415.568,840.419L409.286,840.419ZM422.575,821.107C425.013,821.107 426.763,820.673 427.825,819.806C428.888,818.939 429.419,817.544 429.419,815.622C429.419,813.935 428.88,812.693 427.802,811.896C426.724,811.099 425.075,810.701 422.857,810.701L415.568,810.701L415.568,821.083C415.802,821.083 416.966,821.087 419.06,821.095C421.154,821.103 422.325,821.107 422.575,821.107Z" style="fill:white;fill-rule:nonzero;"/>
                <path d="M453.443,840.912C449.302,840.912 446.079,839.72 443.775,837.337C441.47,834.955 440.318,831.662 440.318,827.458C440.318,823.365 441.404,820.107 443.575,817.685C445.747,815.263 448.708,814.044 452.458,814.029C456.005,814.029 458.759,815.138 460.72,817.357C462.681,819.576 463.661,822.521 463.661,826.193C463.661,826.458 463.657,826.888 463.65,827.482C463.642,828.076 463.638,828.513 463.638,828.794L446.505,828.794C446.568,831.201 447.228,833.064 448.486,834.384C449.743,835.705 451.474,836.365 453.677,836.365C456.49,836.365 459.193,835.63 461.786,834.162L462.654,838.521C460.075,840.115 457.005,840.912 453.443,840.912ZM446.622,824.927L457.872,824.927C457.872,822.833 457.396,821.224 456.443,820.099C455.49,818.974 454.169,818.412 452.482,818.412C450.904,818.412 449.572,818.958 448.486,820.052C447.4,821.146 446.779,822.771 446.622,824.927Z" style="fill:white;fill-rule:nonzero;"/>
                <path d="M468.654,840.419L468.654,814.662L473.622,814.662L474.325,817.943C474.638,817.552 474.939,817.205 475.228,816.9C475.517,816.595 475.915,816.251 476.423,815.869C476.931,815.486 477.47,815.169 478.04,814.919C478.611,814.669 479.314,814.458 480.15,814.287C480.986,814.115 481.88,814.029 482.833,814.029C484.88,814.029 486.517,814.443 487.743,815.271C488.97,816.099 489.833,817.068 490.333,818.177C491.255,816.849 492.45,815.826 493.919,815.107C495.388,814.388 497.021,814.029 498.818,814.029C501.771,814.029 503.939,814.865 505.322,816.537C506.704,818.208 507.396,820.685 507.396,823.966L507.396,840.419L501.232,840.419L501.232,825.794C501.232,823.279 500.954,821.462 500.4,820.345C499.845,819.228 498.786,818.669 497.224,818.669C494.833,818.669 493.115,819.747 492.068,821.904C491.63,822.857 491.333,824.005 491.177,825.349L491.177,840.419L485.036,840.419L485.036,825.513C485.036,823.216 484.732,821.505 484.122,820.38C483.513,819.255 482.411,818.693 480.818,818.693C479.521,818.693 478.404,819.021 477.466,819.677C476.529,820.333 475.818,821.193 475.333,822.255C474.974,823.833 474.794,825.724 474.794,827.927L474.794,840.419L468.654,840.419Z" style="fill:white;fill-rule:nonzero;"/>
                <path d="M524.669,836.247C526.747,836.247 528.31,835.49 529.357,833.974C530.404,832.458 530.927,830.287 530.927,827.458C530.927,824.599 530.404,822.419 529.357,820.919C528.31,819.419 526.732,818.669 524.622,818.669C522.544,818.669 520.978,819.423 519.923,820.931C518.868,822.439 518.341,824.622 518.341,827.482C518.341,830.294 518.872,832.458 519.935,833.974C520.997,835.49 522.575,836.247 524.669,836.247ZM524.505,840.912C520.693,840.912 517.693,839.677 515.505,837.208C513.318,834.74 512.224,831.49 512.224,827.458C512.224,823.302 513.318,820.025 515.505,817.626C517.693,815.228 520.779,814.029 524.763,814.029C528.607,814.029 531.618,815.251 533.798,817.697C535.978,820.142 537.068,823.396 537.068,827.458C537.068,831.568 535.966,834.837 533.763,837.267C531.56,839.697 528.474,840.912 524.505,840.912Z" style="fill:white;fill-rule:nonzero;"/>
                <path d="M548.927,840.419L538.661,814.662L545.177,814.662C545.427,815.365 546.22,817.548 547.556,821.212C548.892,824.876 549.779,827.372 550.216,828.701C551.107,831.294 551.747,833.255 552.138,834.583C552.138,834.568 552.271,834.06 552.536,833.06C552.802,832.06 553.056,831.119 553.298,830.236C553.54,829.353 553.693,828.818 553.755,828.63C553.771,828.599 554.486,826.443 555.9,822.162C557.314,817.88 558.154,815.38 558.419,814.662L564.888,814.662L555.138,840.419L548.927,840.419Z" style="fill:white;fill-rule:nonzero;"/>
                <path d="M579.818,840.912C575.677,840.912 572.454,839.72 570.15,837.337C567.845,834.955 566.693,831.662 566.693,827.458C566.693,823.365 567.779,820.107 569.95,817.685C572.122,815.263 575.083,814.044 578.833,814.029C582.38,814.029 585.134,815.138 587.095,817.357C589.056,819.576 590.036,822.521 590.036,826.193C590.036,826.458 590.032,826.888 590.025,827.482C590.017,828.076 590.013,828.513 590.013,828.794L572.88,828.794C572.943,831.201 573.603,833.064 574.861,834.384C576.118,835.705 577.849,836.365 580.052,836.365C582.865,836.365 585.568,835.63 588.161,834.162L589.029,838.521C586.45,840.115 583.38,840.912 579.818,840.912ZM572.997,824.927L584.247,824.927C584.247,822.833 583.771,821.224 582.818,820.099C581.865,818.974 580.544,818.412 578.857,818.412C577.279,818.412 575.947,818.958 574.861,820.052C573.775,821.146 573.154,822.771 572.997,824.927Z" style="fill:white;fill-rule:nonzero;"/>
                <path d="M610.333,840.841C609.318,840.841 608.458,840.49 607.755,839.787C607.052,839.083 606.7,838.247 606.7,837.279C606.7,836.294 607.048,835.443 607.743,834.724C608.439,834.005 609.302,833.646 610.333,833.646C611.333,833.646 612.177,834.005 612.865,834.724C613.552,835.443 613.896,836.294 613.896,837.279C613.896,838.247 613.552,839.083 612.865,839.787C612.177,840.49 611.333,840.841 610.333,840.841Z" style="fill:white;fill-rule:nonzero;"/>
                <rect x="617.365" y="843.794" width="23.766" height="4.078" style="fill:white;fill-rule:nonzero;"/>
                <path d="M659.13,840.419L659.13,806.083L679.45,806.083L679.216,811.122L665.435,811.122L665.435,820.872L678.536,820.872L678.536,825.865L665.435,825.865L665.435,840.419L659.13,840.419Z" style="fill:white;fill-rule:nonzero;"/>
                <path d="M684.536,840.419L684.536,814.662L690.677,814.662L690.677,840.419L684.536,840.419ZM684.536,810.912L684.536,805.662L690.7,805.662L690.7,810.912L684.536,810.912Z" style="fill:white;fill-rule:nonzero;"/>
                <path d="M706.099,840.771C704.333,840.771 702.868,840.564 701.704,840.15C700.54,839.736 699.622,839.076 698.95,838.169C698.279,837.263 697.81,836.185 697.544,834.935C697.279,833.685 697.146,832.13 697.146,830.271L697.146,805.169L703.286,804.771L703.286,830.154C703.286,832.466 703.56,834.033 704.107,834.853C704.654,835.673 705.716,836.083 707.294,836.083C708.075,836.083 709.068,835.997 710.271,835.826L710.435,840.208C710.419,840.208 710.228,840.247 709.861,840.326C709.493,840.404 709.142,840.47 708.806,840.525C708.47,840.58 708.044,840.634 707.529,840.689C707.013,840.744 706.536,840.771 706.099,840.771Z" style="fill:white;fill-rule:nonzero;"/>
                <path d="M725.247,840.912C721.107,840.912 717.884,839.72 715.579,837.337C713.275,834.955 712.122,831.662 712.122,827.458C712.122,823.365 713.208,820.107 715.38,817.685C717.552,815.263 720.513,814.044 724.263,814.029C727.81,814.029 730.564,815.138 732.525,817.357C734.486,819.576 735.466,822.521 735.466,826.193C735.466,826.458 735.462,826.888 735.454,827.482C735.447,828.076 735.443,828.513 735.443,828.794L718.31,828.794C718.372,831.201 719.032,833.064 720.29,834.384C721.548,835.705 723.279,836.365 725.482,836.365C728.294,836.365 730.997,835.63 733.591,834.162L734.458,838.521C731.88,840.115 728.81,840.912 725.247,840.912ZM718.427,824.927L729.677,824.927C729.677,822.833 729.2,821.224 728.247,820.099C727.294,818.974 725.974,818.412 724.286,818.412C722.708,818.412 721.376,818.958 720.29,820.052C719.204,821.146 718.583,822.771 718.427,824.927Z" style="fill:white;fill-rule:nonzero;"/>
                <path d="M748.685,840.888C744.888,840.888 741.849,840.24 739.568,838.943L740.2,834.326C741.232,834.888 742.544,835.392 744.138,835.837C745.732,836.283 747.185,836.505 748.497,836.505C749.857,836.505 750.915,836.251 751.673,835.744C752.431,835.236 752.818,834.49 752.833,833.505C752.833,832.615 752.478,831.912 751.767,831.396C751.056,830.88 749.7,830.24 747.7,829.474C747.013,829.224 746.568,829.06 746.365,828.982C743.99,828.06 742.279,827.033 741.232,825.9C740.185,824.767 739.661,823.232 739.661,821.294C739.661,818.951 740.509,817.154 742.204,815.904C743.9,814.654 746.263,814.029 749.294,814.029C752.575,814.029 755.458,814.646 757.943,815.88L756.419,820.122C753.966,818.982 751.63,818.412 749.411,818.412C748.177,818.412 747.212,818.619 746.517,819.033C745.822,819.447 745.474,820.076 745.474,820.919C745.474,821.716 745.81,822.337 746.482,822.783C747.154,823.228 748.466,823.81 750.419,824.529C750.482,824.544 750.685,824.615 751.029,824.74C751.372,824.865 751.638,824.966 751.825,825.044C754.185,825.904 755.919,826.931 757.029,828.126C758.138,829.322 758.693,830.88 758.693,832.802C758.677,835.38 757.802,837.372 756.068,838.779C754.333,840.185 751.872,840.888 748.685,840.888Z" style="fill:white;fill-rule:nonzero;"/>
            </g>
            <g id="Cleanup-Tool" serif:id="Cleanup Tool" transform="matrix(0.703125,0,0,0.703125,442.5,340)">
                <path d="M135.2,17.7C140.6,6.8 151.7,0 163.8,0L284.2,0C296.3,0 307.4,6.8 312.8,17.7L320,32L416,32C433.7,32 448,46.3 448,64C448,81.7 433.7,96 416,96L32,96C14.3,96 0,81.7 0,64C0,46.3 14.3,32 32,32L128,32L135.2,17.7ZM32,128L416,128L416,448C416,483.3 387.3,512 352,512L96,512C60.7,512 32,483.3 32,448L32,128ZM128,192C119.2,192 112,199.2 112,208L112,432C112,440.8 119.2,448 128,448C136.8,448 144,440.8 144,432L144,208C144,199.2 136.8,192 128,192ZM224,192C215.2,192 208,199.2 208,208L208,432C208,440.8 215.2,448 224,448C232.8,448 240,440.8 240,432L240,208C240,199.2 232.8,192 224,192ZM320,192C311.2,192 304,199.2 304,208L304,432C304,440.8 311.2,448 320,448C328.8,448 336,440.8 336,432L336,208C336,199.2 328.8,192 320,192Z" style="fill:white;fill-rule:nonzero;"/>
            </g>
        </g>
    </g>
</svg>
