<?xml version="1.0" encoding="utf-8"?>
<svg width="100%" height="100%" viewBox="0 0 1200 1080" version="1.1" xmlns="http://www.w3.org/2000/svg" style="fill-rule:evenodd;clip-rule:evenodd;stroke-linejoin:round;stroke-miterlimit:2;">
  <path d="M 0 0 H 1200 V 1080.001 H 0 V 0 Z" style="fill:rgb(46,46,46);"/>
  <path d="M -98.576 842.013 L 574.553 168.883 L 574.553 1515.144 L -98.576 842.013 Z" style="fill: rgb(51, 51, 51); transform-box: fill-box; transform-origin: 50% 50%;" transform="matrix(0.707107, -0.707107, 0.707107, 0.707107, -0.000006, -0.000008)"/>
  <path d="M 427.148 798.743 L 427.148 764.314 L 439.875 764.314 C 441.609 764.314 443.113 764.392 444.387 764.548 C 445.66 764.704 446.871 764.989 448.019 765.404 C 449.168 765.818 450.098 766.376 450.809 767.079 C 451.519 767.782 452.082 768.7 452.496 769.833 C 452.91 770.966 453.117 772.306 453.117 773.853 C 453.117 778.415 451.047 781.415 446.906 782.853 C 447.75 783.806 448.797 785.571 450.047 788.15 L 455.156 798.743 L 448.219 798.743 L 444.211 789.767 C 442.695 786.548 441.758 784.642 441.398 784.048 C 441.133 784.032 440.25 784.025 438.75 784.025 L 433.43 783.978 L 433.43 798.743 L 427.148 798.743 Z M 440.437 779.431 C 442.875 779.431 444.625 778.997 445.687 778.13 C 446.75 777.263 447.281 775.868 447.281 773.946 C 447.281 772.259 446.742 771.017 445.664 770.22 C 444.586 769.423 442.937 769.025 440.719 769.025 L 433.43 769.025 L 433.43 779.407 C 433.664 779.407 434.828 779.411 436.922 779.419 C 439.016 779.427 440.187 779.431 440.437 779.431 Z" style="fill:white;fill-rule:nonzero;"/>
  <path d="M 471.305 799.236 C 467.164 799.236 463.941 798.044 461.637 795.661 C 459.332 793.279 458.18 789.986 458.18 785.782 C 458.18 781.689 459.266 778.431 461.437 776.009 C 463.609 773.587 466.57 772.368 470.32 772.353 C 473.867 772.353 476.621 773.462 478.582 775.681 C 480.543 777.9 481.523 780.845 481.523 784.517 C 481.523 784.782 481.519 785.212 481.512 785.806 C 481.504 786.4 481.5 786.837 481.5 787.118 L 464.367 787.118 C 464.43 789.525 465.09 791.388 466.348 792.708 C 467.605 794.029 469.336 794.689 471.539 794.689 C 474.352 794.689 477.055 793.954 479.648 792.486 L 480.516 796.845 C 477.937 798.439 474.867 799.236 471.305 799.236 Z M 464.484 783.251 L 475.734 783.251 C 475.734 781.157 475.258 779.548 474.305 778.423 C 473.352 777.298 472.031 776.736 470.344 776.736 C 468.766 776.736 467.434 777.282 466.348 778.376 C 465.262 779.47 464.641 781.095 464.484 783.251 Z" style="fill:white;fill-rule:nonzero;"/>
  <path d="M 486.516 798.743 L 486.516 772.986 L 491.484 772.986 L 492.187 776.267 C 492.5 775.876 492.801 775.529 493.09 775.224 C 493.379 774.919 493.777 774.575 494.285 774.193 C 494.793 773.81 495.332 773.493 495.902 773.243 C 496.473 772.993 497.176 772.782 498.012 772.611 C 498.848 772.439 499.742 772.353 500.695 772.353 C 502.742 772.353 504.379 772.767 505.605 773.595 C 506.832 774.423 507.695 775.392 508.195 776.501 C 509.117 775.173 510.312 774.15 511.781 773.431 C 513.25 772.712 514.883 772.353 516.68 772.353 C 519.633 772.353 521.801 773.189 523.184 774.861 C 524.566 776.532 525.258 779.009 525.258 782.29 L 525.258 798.743 L 519.094 798.743 L 519.094 784.118 C 519.094 781.603 518.816 779.786 518.262 778.669 C 517.707 777.552 516.648 776.993 515.086 776.993 C 512.695 776.993 510.977 778.071 509.93 780.228 C 509.492 781.181 509.195 782.329 509.039 783.673 L 509.039 798.743 L 502.898 798.743 L 502.898 783.837 C 502.898 781.54 502.594 779.829 501.984 778.704 C 501.375 777.579 500.273 777.017 498.68 777.017 C 497.383 777.017 496.266 777.345 495.328 778.001 C 494.391 778.657 493.68 779.517 493.195 780.579 C 492.836 782.157 492.656 784.048 492.656 786.251 L 492.656 798.743 L 486.516 798.743 Z" style="fill:white;fill-rule:nonzero;"/>
  <path d="M 542.531 794.571 C 544.609 794.571 546.172 793.814 547.219 792.298 C 548.266 790.782 548.789 788.611 548.789 785.782 C 548.789 782.923 548.266 780.743 547.219 779.243 C 546.172 777.743 544.594 776.993 542.484 776.993 C 540.406 776.993 538.84 777.747 537.785 779.255 C 536.73 780.763 536.203 782.946 536.203 785.806 C 536.203 788.618 536.734 790.782 537.797 792.298 C 538.859 793.814 540.437 794.571 542.531 794.571 Z M 542.367 799.236 C 538.555 799.236 535.555 798.001 533.367 795.532 C 531.18 793.064 530.086 789.814 530.086 785.782 C 530.086 781.626 531.18 778.349 533.367 775.95 C 535.555 773.552 538.641 772.353 542.625 772.353 C 546.469 772.353 549.48 773.575 551.66 776.021 C 553.84 778.466 554.93 781.72 554.93 785.782 C 554.93 789.892 553.828 793.161 551.625 795.591 C 549.422 798.021 546.336 799.236 542.367 799.236 Z" style="fill:white;fill-rule:nonzero;"/>
  <path d="M 566.789 798.743 L 556.523 772.986 L 563.039 772.986 C 563.289 773.689 564.082 775.872 565.418 779.536 C 566.754 783.2 567.641 785.696 568.078 787.025 C 568.969 789.618 569.609 791.579 570 792.907 C 570 792.892 570.133 792.384 570.398 791.384 C 570.664 790.384 570.918 789.443 571.16 788.56 C 571.402 787.677 571.555 787.142 571.617 786.954 C 571.633 786.923 572.348 784.767 573.762 780.486 C 575.176 776.204 576.016 773.704 576.281 772.986 L 582.75 772.986 L 573 798.743 L 566.789 798.743 Z" style="fill:white;fill-rule:nonzero;"/>
  <path d="M 597.68 799.236 C 593.539 799.236 590.316 798.044 588.012 795.661 C 585.707 793.279 584.555 789.986 584.555 785.782 C 584.555 781.689 585.641 778.431 587.812 776.009 C 589.984 773.587 592.945 772.368 596.695 772.353 C 600.242 772.353 602.996 773.462 604.957 775.681 C 606.918 777.9 607.898 780.845 607.898 784.517 C 607.898 784.782 607.894 785.212 607.887 785.806 C 607.879 786.4 607.875 786.837 607.875 787.118 L 590.742 787.118 C 590.805 789.525 591.465 791.388 592.723 792.708 C 593.98 794.029 595.711 794.689 597.914 794.689 C 600.727 794.689 603.43 793.954 606.023 792.486 L 606.891 796.845 C 604.312 798.439 601.242 799.236 597.68 799.236 Z M 590.859 783.251 L 602.109 783.251 C 602.109 781.157 601.633 779.548 600.68 778.423 C 599.727 777.298 598.406 776.736 596.719 776.736 C 595.141 776.736 593.809 777.282 592.723 778.376 C 591.637 779.47 591.016 781.095 590.859 783.251 Z" style="fill:white;fill-rule:nonzero;"/>
  <path d="M 628.195 799.165 C 627.18 799.165 626.32 798.814 625.617 798.111 C 624.914 797.407 624.562 796.571 624.562 795.603 C 624.562 794.618 624.91 793.767 625.605 793.048 C 626.301 792.329 627.164 791.97 628.195 791.97 C 629.195 791.97 630.039 792.329 630.727 793.048 C 631.414 793.767 631.758 794.618 631.758 795.603 C 631.758 796.571 631.414 797.407 630.727 798.111 C 630.039 798.814 629.195 799.165 628.195 799.165 Z" style="fill:white;fill-rule:nonzero;"/>
  <path d="M 635.227 802.118 H 658.993 V 806.196 H 635.227 V 802.118 Z" style="fill:white;fill-rule:nonzero;"/>
  <path d="M 676.992 798.743 L 676.992 764.407 L 697.312 764.407 L 697.078 769.446 L 683.297 769.446 L 683.297 779.196 L 696.398 779.196 L 696.398 784.189 L 683.297 784.189 L 683.297 798.743 L 676.992 798.743 Z" style="fill:white;fill-rule:nonzero;"/>
  <path d="M 702.398 798.743 L 702.398 772.986 L 708.539 772.986 L 708.539 798.743 L 702.398 798.743 Z M 702.398 769.236 L 702.398 763.986 L 708.562 763.986 L 708.562 769.236 L 702.398 769.236 Z" style="fill:white;fill-rule:nonzero;"/>
  <path d="M 723.961 799.095 C 722.195 799.095 720.73 798.888 719.566 798.474 C 718.402 798.06 717.484 797.4 716.812 796.493 C 716.141 795.587 715.672 794.509 715.406 793.259 C 715.141 792.009 715.008 790.454 715.008 788.595 L 715.008 763.493 L 721.148 763.095 L 721.148 788.478 C 721.148 790.79 721.422 792.357 721.969 793.177 C 722.516 793.997 723.578 794.407 725.156 794.407 C 725.937 794.407 726.93 794.321 728.133 794.15 L 728.297 798.532 C 728.281 798.532 728.09 798.571 727.723 798.65 C 727.355 798.728 727.004 798.794 726.668 798.849 C 726.332 798.904 725.906 798.958 725.391 799.013 C 724.875 799.068 724.398 799.095 723.961 799.095 Z" style="fill:white;fill-rule:nonzero;"/>
  <path d="M 743.109 799.236 C 738.969 799.236 735.746 798.044 733.441 795.661 C 731.137 793.279 729.984 789.986 729.984 785.782 C 729.984 781.689 731.07 778.431 733.242 776.009 C 735.414 773.587 738.375 772.368 742.125 772.353 C 745.672 772.353 748.426 773.462 750.387 775.681 C 752.348 777.9 753.328 780.845 753.328 784.517 C 753.328 784.782 753.324 785.212 753.316 785.806 C 753.309 786.4 753.305 786.837 753.305 787.118 L 736.172 787.118 C 736.234 789.525 736.894 791.388 738.152 792.708 C 739.41 794.029 741.141 794.689 743.344 794.689 C 746.156 794.689 748.859 793.954 751.453 792.486 L 752.32 796.845 C 749.742 798.439 746.672 799.236 743.109 799.236 Z M 736.289 783.251 L 747.539 783.251 C 747.539 781.157 747.062 779.548 746.109 778.423 C 745.156 777.298 743.836 776.736 742.148 776.736 C 740.57 776.736 739.238 777.282 738.152 778.376 C 737.066 779.47 736.445 781.095 736.289 783.251 Z" style="fill:white;fill-rule:nonzero;"/>
  <path d="M 766.547 799.212 C 762.75 799.212 759.711 798.564 757.43 797.267 L 758.062 792.65 C 759.094 793.212 760.406 793.716 762 794.161 C 763.594 794.607 765.047 794.829 766.359 794.829 C 767.719 794.829 768.777 794.575 769.535 794.068 C 770.293 793.56 770.68 792.814 770.695 791.829 C 770.695 790.939 770.34 790.236 769.629 789.72 C 768.918 789.204 767.562 788.564 765.562 787.798 C 764.875 787.548 764.43 787.384 764.227 787.306 C 761.852 786.384 760.141 785.357 759.094 784.224 C 758.047 783.091 757.523 781.556 757.523 779.618 C 757.523 777.275 758.371 775.478 760.066 774.228 C 761.762 772.978 764.125 772.353 767.156 772.353 C 770.437 772.353 773.32 772.97 775.805 774.204 L 774.281 778.446 C 771.828 777.306 769.492 776.736 767.273 776.736 C 766.039 776.736 765.074 776.943 764.379 777.357 C 763.684 777.771 763.336 778.4 763.336 779.243 C 763.336 780.04 763.672 780.661 764.344 781.107 C 765.016 781.552 766.328 782.134 768.281 782.853 C 768.344 782.868 768.547 782.939 768.891 783.064 C 769.234 783.189 769.5 783.29 769.687 783.368 C 772.047 784.228 773.781 785.255 774.891 786.45 C 776 787.646 776.555 789.204 776.555 791.126 C 776.539 793.704 775.664 795.696 773.93 797.103 C 772.195 798.509 769.734 799.212 766.547 799.212 Z" style="fill:white;fill-rule:nonzero;"/>
  <path d="M 537.563 352.445 C 541.359 344.781 549.164 340 557.672 340 L 642.328 340 C 650.836 340 658.641 344.781 662.438 352.445 L 667.5 362.5 L 735 362.5 C 747.445 362.5 757.5 372.555 757.5 385 C 757.5 397.445 747.445 407.5 735 407.5 L 465 407.5 C 452.555 407.5 442.5 397.445 442.5 385 C 442.5 372.555 452.555 362.5 465 362.5 L 532.5 362.5 L 537.563 352.445 Z M 465 430 L 735 430 L 735 655 C 735 679.82 714.82 700 690 700 L 510 700 C 485.18 700 465 679.82 465 655 L 465 430 Z M 532.5 475 C 526.313 475 521.25 480.063 521.25 486.25 L 521.25 643.75 C 521.25 649.938 526.313 655 532.5 655 C 538.688 655 543.75 649.938 543.75 643.75 L 543.75 486.25 C 543.75 480.063 538.688 475 532.5 475 Z M 600 475 C 593.813 475 588.75 480.063 588.75 486.25 L 588.75 643.75 C 588.75 649.938 593.813 655 600 655 C 606.188 655 611.25 649.938 611.25 643.75 L 611.25 486.25 C 611.25 480.063 606.188 475 600 475 Z M 667.5 475 C 661.313 475 656.25 480.063 656.25 486.25 L 656.25 643.75 C 656.25 649.938 661.313 655 667.5 655 C 673.688 655 678.75 649.938 678.75 643.75 L 678.75 486.25 C 678.75 480.063 673.688 475 667.5 475 Z" style="fill:white;fill-rule:nonzero;"/>
</svg>