<?xml version="1.0" encoding="utf-8"?>
<svg width="100%" height="100%" viewBox="0 0 1200 1080" version="1.1" xmlns="http://www.w3.org/2000/svg" style="fill-rule:evenodd;clip-rule:evenodd;stroke-linejoin:round;stroke-miterlimit:2;">
  <path d="M 0 0 H 1200 V 1080.001 H 0 V 0 Z" style="fill:rgb(46,46,46);"/>
  <path d="M -98.576 842.013 L 574.553 168.883 L 574.553 1515.144 L -98.576 842.013 Z" style="fill: rgb(51, 51, 51); transform-box: fill-box; transform-origin: 50% 50%;" transform="matrix(0.707107, -0.707107, 0.707107, 0.707107, -0.000006, -0.000008)"/>
  <path d="M 419.344 748.743 L 419.344 714.314 L 432.07 714.314 C 433.805 714.314 435.309 714.392 436.582 714.548 C 437.855 714.704 439.066 714.989 440.215 715.404 C 441.363 715.818 442.293 716.376 443.004 717.079 C 443.715 717.782 444.277 718.7 444.691 719.833 C 445.105 720.966 445.312 722.306 445.312 723.853 C 445.312 728.415 443.242 731.415 439.102 732.853 C 439.945 733.806 440.992 735.571 442.242 738.15 L 447.352 748.743 L 440.414 748.743 L 436.406 739.767 C 434.891 736.548 433.953 734.642 433.594 734.048 C 433.328 734.032 432.445 734.025 430.945 734.025 L 425.625 733.978 L 425.625 748.743 L 419.344 748.743 Z M 432.633 729.431 C 435.07 729.431 436.82 728.997 437.883 728.13 C 438.945 727.263 439.477 725.868 439.477 723.946 C 439.477 722.259 438.937 721.017 437.859 720.22 C 436.781 719.423 435.133 719.025 432.914 719.025 L 425.625 719.025 L 425.625 729.407 C 425.859 729.407 427.023 729.411 429.117 729.419 C 431.211 729.427 432.383 729.431 432.633 729.431 Z" style="fill:white;fill-rule:nonzero;"/>
  <path d="M 463.5 749.236 C 459.359 749.236 456.137 748.044 453.832 745.661 C 451.527 743.279 450.375 739.986 450.375 735.782 C 450.375 731.689 451.461 728.431 453.633 726.009 C 455.805 723.587 458.766 722.368 462.516 722.353 C 466.062 722.353 468.816 723.462 470.777 725.681 C 472.738 727.9 473.719 730.845 473.719 734.517 C 473.719 734.782 473.715 735.212 473.707 735.806 C 473.699 736.4 473.695 736.837 473.695 737.118 L 456.562 737.118 C 456.625 739.525 457.285 741.388 458.543 742.708 C 459.801 744.029 461.531 744.689 463.734 744.689 C 466.547 744.689 469.25 743.954 471.844 742.486 L 472.711 746.845 C 470.133 748.439 467.062 749.236 463.5 749.236 Z M 456.68 733.251 L 467.93 733.251 C 467.93 731.157 467.453 729.548 466.5 728.423 C 465.547 727.298 464.227 726.736 462.539 726.736 C 460.961 726.736 459.629 727.282 458.543 728.376 C 457.457 729.47 456.836 731.095 456.68 733.251 Z" style="fill:white;fill-rule:nonzero;"/>
  <path d="M 489 749.095 C 487.25 749.095 485.793 748.888 484.629 748.474 C 483.465 748.06 482.555 747.407 481.898 746.517 C 481.242 745.626 480.777 744.575 480.504 743.364 C 480.23 742.154 480.094 740.657 480.094 738.876 L 480.094 726.712 L 475.875 726.712 L 476.109 723.384 L 480.516 722.986 L 482.484 716.001 L 486.234 715.978 L 486.234 722.986 L 492.633 722.986 L 492.633 726.712 L 486.234 726.712 L 486.234 738.993 C 486.234 740.946 486.516 742.337 487.078 743.165 C 487.641 743.993 488.68 744.407 490.195 744.407 C 491.086 744.407 492.039 744.329 493.055 744.173 L 493.219 748.579 C 493.187 748.579 492.996 748.614 492.644 748.685 C 492.293 748.755 491.957 748.818 491.637 748.872 C 491.316 748.927 490.906 748.978 490.406 749.025 C 489.906 749.071 489.437 749.095 489 749.095 Z" style="fill:white;fill-rule:nonzero;"/>
  <path d="M 497.555 748.743 L 497.555 722.986 L 502.711 722.986 L 503.508 726.923 C 505.195 724.22 507.641 722.868 510.844 722.868 C 511.516 722.868 512.062 722.9 512.484 722.962 L 512.391 728.095 C 511.766 728.001 511.117 727.954 510.445 727.954 C 508.18 727.954 506.488 728.556 505.371 729.759 C 504.254 730.962 503.695 732.634 503.695 734.775 L 503.695 748.743 L 497.555 748.743 Z" style="fill:white;fill-rule:nonzero;"/>
  <path d="M 527.227 744.571 C 529.305 744.571 530.867 743.814 531.914 742.298 C 532.961 740.782 533.484 738.611 533.484 735.782 C 533.484 732.923 532.961 730.743 531.914 729.243 C 530.867 727.743 529.289 726.993 527.18 726.993 C 525.102 726.993 523.535 727.747 522.48 729.255 C 521.426 730.763 520.898 732.946 520.898 735.806 C 520.898 738.618 521.43 740.782 522.492 742.298 C 523.555 743.814 525.133 744.571 527.227 744.571 Z M 527.062 749.236 C 523.25 749.236 520.25 748.001 518.062 745.532 C 515.875 743.064 514.781 739.814 514.781 735.782 C 514.781 731.626 515.875 728.349 518.062 725.95 C 520.25 723.552 523.336 722.353 527.32 722.353 C 531.164 722.353 534.176 723.575 536.355 726.021 C 538.535 728.466 539.625 731.72 539.625 735.782 C 539.625 739.892 538.523 743.161 536.32 745.591 C 534.117 748.021 531.031 749.236 527.062 749.236 Z" style="fill:white;fill-rule:nonzero;"/>
  <path d="M 541.453 748.743 L 554.086 714.384 L 561 714.384 L 573.445 748.743 L 566.93 748.743 L 563.531 739.04 L 551.508 739.04 L 548.086 748.743 L 541.453 748.743 Z M 553.102 734.306 L 561.914 734.306 C 559.102 725.29 557.656 720.634 557.578 720.337 L 553.102 734.306 Z" style="fill:white;fill-rule:nonzero;"/>
  <path d="M 576.516 748.743 L 576.516 722.986 L 581.672 722.986 L 582.469 726.923 C 584.156 724.22 586.602 722.868 589.805 722.868 C 590.477 722.868 591.023 722.9 591.445 722.962 L 591.352 728.095 C 590.727 728.001 590.078 727.954 589.406 727.954 C 587.141 727.954 585.449 728.556 584.332 729.759 C 583.215 730.962 582.656 732.634 582.656 734.775 L 582.656 748.743 L 576.516 748.743 Z" style="fill:white;fill-rule:nonzero;"/>
  <path d="M 606.234 749.236 C 602.297 749.236 599.23 748.064 597.035 745.72 C 594.84 743.376 593.742 740.025 593.742 735.665 C 593.742 731.446 594.894 728.173 597.199 725.845 C 599.504 723.517 602.539 722.353 606.305 722.353 C 609.32 722.353 611.867 723.001 613.945 724.298 L 612.492 728.681 C 610.367 727.571 608.391 727.017 606.562 727.017 C 604.484 727.017 602.848 727.759 601.652 729.243 C 600.457 730.728 599.859 732.892 599.859 735.736 C 599.859 738.611 600.449 740.798 601.629 742.298 C 602.809 743.798 604.477 744.548 606.633 744.548 C 608.883 744.548 611.047 743.884 613.125 742.556 L 613.711 747.22 C 612.633 747.939 611.516 748.454 610.359 748.767 C 609.203 749.079 607.828 749.236 606.234 749.236 Z" style="fill:white;fill-rule:nonzero;"/>
  <path d="M 618.586 748.743 L 618.586 713.493 L 624.727 713.095 L 624.727 720.525 C 624.727 720.884 624.703 721.88 624.656 723.513 C 624.609 725.146 624.586 725.978 624.586 726.009 C 626.633 723.571 629.383 722.353 632.836 722.353 C 635.711 722.353 637.941 723.177 639.527 724.825 C 641.113 726.474 641.906 729.009 641.906 732.431 L 641.906 748.743 L 635.766 748.743 L 635.766 733.111 C 635.766 731.001 635.43 729.454 634.758 728.47 C 634.086 727.486 632.945 726.993 631.336 726.993 C 629.961 726.993 628.742 727.341 627.68 728.036 C 626.617 728.732 625.82 729.626 625.289 730.72 C 624.914 732.157 624.727 734.032 624.727 736.345 L 624.727 748.743 L 618.586 748.743 Z" style="fill:white;fill-rule:nonzero;"/>
  <path d="M 668.883 749.236 C 666.867 749.236 664.973 748.974 663.199 748.45 C 661.426 747.927 660.023 747.22 658.992 746.329 L 660.68 741.9 C 661.539 742.618 662.727 743.208 664.242 743.669 C 665.758 744.13 667.312 744.361 668.906 744.361 C 670.703 744.361 672.152 743.876 673.254 742.907 C 674.355 741.939 674.906 740.673 674.906 739.111 C 674.906 738.142 674.754 737.306 674.449 736.603 C 674.144 735.9 673.742 735.337 673.242 734.915 C 672.742 734.493 672.074 734.154 671.238 733.896 C 670.402 733.638 669.547 733.462 668.672 733.368 C 667.797 733.275 666.742 733.22 665.508 733.204 C 665.461 733.204 665.234 733.2 664.828 733.193 C 664.422 733.185 664.195 733.181 664.148 733.181 L 664.148 728.446 L 665.461 728.446 C 666.82 728.446 667.988 728.376 668.965 728.236 C 669.941 728.095 670.848 727.853 671.684 727.509 C 672.519 727.165 673.152 726.657 673.582 725.986 C 674.012 725.314 674.227 724.486 674.227 723.501 C 674.227 722.173 673.727 721.04 672.727 720.103 C 671.727 719.165 670.32 718.696 668.508 718.696 C 665.57 718.696 662.953 719.431 660.656 720.9 L 658.969 716.446 C 661.812 714.696 665.187 713.821 669.094 713.821 C 672.359 713.821 675.027 714.681 677.098 716.4 C 679.168 718.118 680.203 720.321 680.203 723.009 C 680.203 724.884 679.723 726.482 678.762 727.802 C 677.801 729.122 676.406 730.087 674.578 730.696 C 676.672 731.103 678.293 732.111 679.441 733.72 C 680.59 735.329 681.164 737.228 681.164 739.415 C 681.164 741.493 680.609 743.286 679.5 744.794 C 678.391 746.302 676.922 747.419 675.094 748.146 C 673.266 748.872 671.195 749.236 668.883 749.236 Z" style="fill:white;fill-rule:nonzero;"/>
  <path d="M 684.773 748.743 L 684.633 743.681 L 695.484 731.4 C 696.828 729.962 697.809 728.638 698.426 727.427 C 699.043 726.216 699.352 724.939 699.352 723.595 C 699.352 722.111 698.867 720.927 697.898 720.044 C 696.93 719.161 695.656 718.72 694.078 718.72 C 692.625 718.72 691.191 718.989 689.777 719.529 C 688.363 720.068 687.203 720.743 686.297 721.556 L 684.539 716.915 C 686.883 714.853 690.18 713.821 694.43 713.821 C 697.805 713.821 700.519 714.669 702.574 716.364 C 704.629 718.06 705.656 720.454 705.656 723.548 C 705.656 725.736 705.074 727.821 703.91 729.806 C 702.746 731.79 701.156 733.829 699.141 735.923 L 691.406 744.126 L 705.258 744.126 L 704.836 748.743 L 684.773 748.743 Z" style="fill:white;fill-rule:nonzero;"/>
  <path d="M 691.263 825.208 H 703.826 V 829.989 H 691.263 V 825.208 Z" style="fill:white;fill-rule:nonzero;" transform="matrix(1, 0, 0, 1, 17.862101, -91.676498)"/>
  <path d="M 727.055 748.743 L 727.055 714.407 L 737.766 714.407 C 742.312 714.407 745.703 715.071 747.937 716.4 C 750.172 717.728 751.289 719.939 751.289 723.032 C 751.289 723.532 751.258 724.025 751.195 724.509 C 751.133 724.993 750.992 725.544 750.773 726.161 C 750.555 726.779 750.266 727.337 749.906 727.837 C 749.547 728.337 749.047 728.825 748.406 729.302 C 747.766 729.779 747.016 730.15 746.156 730.415 C 748.281 730.931 749.906 731.919 751.031 733.38 C 752.156 734.841 752.719 736.642 752.719 738.782 C 752.719 742.017 751.574 744.486 749.285 746.189 C 746.996 747.892 743.828 748.743 739.781 748.743 L 727.055 748.743 Z M 733.406 744.15 L 738.914 744.15 C 743.789 744.15 746.227 742.243 746.227 738.431 C 746.227 736.509 745.617 735.126 744.398 734.282 C 743.18 733.439 741.297 733.017 738.75 733.017 L 733.406 733.017 L 733.406 744.15 Z M 733.406 728.587 L 738.844 728.587 C 743.047 728.587 745.148 726.986 745.148 723.782 C 745.148 721.986 744.543 720.751 743.332 720.079 C 742.121 719.407 740.195 719.071 737.555 719.071 L 733.406 719.071 L 733.406 728.587 Z" style="fill:white;fill-rule:nonzero;"/>
  <path d="M 757.852 748.743 L 757.852 722.986 L 763.992 722.986 L 763.992 748.743 L 757.852 748.743 Z M 757.852 719.236 L 757.852 713.986 L 764.016 713.986 L 764.016 719.236 L 757.852 719.236 Z" style="fill:white;fill-rule:nonzero;"/>
  <path d="M 780.68 749.095 C 778.93 749.095 777.473 748.888 776.309 748.474 C 775.144 748.06 774.234 747.407 773.578 746.517 C 772.922 745.626 772.457 744.575 772.184 743.364 C 771.91 742.154 771.773 740.657 771.773 738.876 L 771.773 726.712 L 767.555 726.712 L 767.789 723.384 L 772.195 722.986 L 774.164 716.001 L 777.914 715.978 L 777.914 722.986 L 784.312 722.986 L 784.312 726.712 L 777.914 726.712 L 777.914 738.993 C 777.914 740.946 778.195 742.337 778.758 743.165 C 779.32 743.993 780.359 744.407 781.875 744.407 C 782.766 744.407 783.719 744.329 784.734 744.173 L 784.898 748.579 C 784.867 748.579 784.676 748.614 784.324 748.685 C 783.973 748.755 783.637 748.818 783.316 748.872 C 782.996 748.927 782.586 748.978 782.086 749.025 C 781.586 749.071 781.117 749.095 780.68 749.095 Z" style="fill:white;fill-rule:nonzero;"/>
  <path d="M 509.7 410.8 L 537 444.4 L 482.4 444.4 L 469.8 494.8 L 436.2 494.8 L 448.8 444.4 L 415.2 444.4 L 390 545.2 L 457.2 545.2 L 448.8 578.8 L 507.6 578.8 L 463.5 629.2 L 512.85 629.2 L 553.8 578.8 L 646.2 578.8 L 687.15 629.2 L 736.5 629.2 L 692.4 578.8 L 751.2 578.8 L 742.8 545.2 L 810 545.2 L 784.8 444.4 L 751.2 444.4 L 763.8 494.8 L 730.2 494.8 L 717.6 444.4 L 663 444.4 L 690.3 410.8 L 654.6 410.8 L 625.2 444.4 L 574.8 444.4 L 545.4 410.8 L 509.7 410.8 Z M 513.9 478 L 547.5 478 L 547.5 511.6 L 513.9 511.6 L 513.9 478 Z M 652.588 478 L 686.188 478 L 686.188 511.6 L 652.588 511.6 L 652.588 478 Z" style="fill:white;fill-rule:nonzero;"/>
</svg>