<?xml version="1.0" encoding="UTF-8" standalone="no"?>
<!DOCTYPE svg PUBLIC "-//W3C//DTD SVG 1.1//EN" "http://www.w3.org/Graphics/SVG/1.1/DTD/svg11.dtd">
<svg width="100%" height="100%" viewBox="0 0 1200 1080" version="1.1" xmlns="http://www.w3.org/2000/svg" xmlns:xlink="http://www.w3.org/1999/xlink" xml:space="preserve" xmlns:serif="http://www.serif.com/" style="fill-rule:evenodd;clip-rule:evenodd;stroke-linejoin:round;stroke-miterlimit:2;">
    <rect id="Artboard1" x="0" y="0" width="1200" height="1080" style="fill:none;"/>
    <g id="Artboard11" serif:id="Artboard1">
        <g transform="matrix(1,0,0,1.09091,-720,207.273)">
            <rect x="720" y="-190" width="1200" height="990" style="fill:rgb(46,46,46);"/>
        </g>
        <g transform="matrix(0.707107,-0.707107,0.707107,0.707107,-575.938,-155.145)">
            <path d="M-466.129,1280.63L207,607.5L207,1953.76L-466.129,1280.63Z" style="fill:rgb(51,51,51);"/>
        </g>
        <g id="retroarch-64.svg">
            <g transform="matrix(1,0,0,1,17.8621,-91.6765)">
                <path d="M397.661,840.419L397.661,805.99L410.388,805.99C412.122,805.99 413.626,806.068 414.9,806.224C416.173,806.38 417.384,806.665 418.532,807.08C419.681,807.494 420.611,808.052 421.322,808.755C422.032,809.458 422.595,810.376 423.009,811.509C423.423,812.642 423.63,813.982 423.63,815.529C423.63,820.091 421.56,823.091 417.419,824.529C418.263,825.482 419.31,827.247 420.56,829.826L425.669,840.419L418.732,840.419L414.724,831.443C413.208,828.224 412.271,826.318 411.911,825.724C411.646,825.708 410.763,825.701 409.263,825.701L403.943,825.654L403.943,840.419L397.661,840.419ZM410.95,821.107C413.388,821.107 415.138,820.673 416.2,819.806C417.263,818.939 417.794,817.544 417.794,815.622C417.794,813.935 417.255,812.693 416.177,811.896C415.099,811.099 413.45,810.701 411.232,810.701L403.943,810.701L403.943,821.083C404.177,821.083 405.341,821.087 407.435,821.095C409.529,821.103 410.7,821.107 410.95,821.107Z" style="fill:white;fill-rule:nonzero;"/>
                <path d="M441.818,840.912C437.677,840.912 434.454,839.72 432.15,837.337C429.845,834.955 428.693,831.662 428.693,827.458C428.693,823.365 429.779,820.107 431.95,817.685C434.122,815.263 437.083,814.044 440.833,814.029C444.38,814.029 447.134,815.138 449.095,817.357C451.056,819.576 452.036,822.521 452.036,826.193C452.036,826.458 452.032,826.888 452.025,827.482C452.017,828.076 452.013,828.513 452.013,828.794L434.88,828.794C434.943,831.201 435.603,833.064 436.861,834.384C438.118,835.705 439.849,836.365 442.052,836.365C444.865,836.365 447.568,835.63 450.161,834.162L451.029,838.521C448.45,840.115 445.38,840.912 441.818,840.912ZM434.997,824.927L446.247,824.927C446.247,822.833 445.771,821.224 444.818,820.099C443.865,818.974 442.544,818.412 440.857,818.412C439.279,818.412 437.947,818.958 436.861,820.052C435.775,821.146 435.154,822.771 434.997,824.927Z" style="fill:white;fill-rule:nonzero;"/>
                <path d="M467.318,840.771C465.568,840.771 464.111,840.564 462.947,840.15C461.782,839.736 460.872,839.083 460.216,838.193C459.56,837.302 459.095,836.251 458.822,835.04C458.548,833.83 458.411,832.333 458.411,830.552L458.411,818.388L454.193,818.388L454.427,815.06L458.833,814.662L460.802,807.677L464.552,807.654L464.552,814.662L470.95,814.662L470.95,818.388L464.552,818.388L464.552,830.669C464.552,832.622 464.833,834.013 465.396,834.841C465.958,835.669 466.997,836.083 468.513,836.083C469.404,836.083 470.357,836.005 471.372,835.849L471.536,840.255C471.505,840.255 471.314,840.29 470.962,840.361C470.611,840.431 470.275,840.494 469.954,840.548C469.634,840.603 469.224,840.654 468.724,840.701C468.224,840.747 467.755,840.771 467.318,840.771Z" style="fill:white;fill-rule:nonzero;"/>
                <path d="M475.872,840.419L475.872,814.662L481.029,814.662L481.825,818.599C483.513,815.896 485.958,814.544 489.161,814.544C489.833,814.544 490.38,814.576 490.802,814.638L490.708,819.771C490.083,819.677 489.435,819.63 488.763,819.63C486.497,819.63 484.806,820.232 483.689,821.435C482.572,822.638 482.013,824.31 482.013,826.451L482.013,840.419L475.872,840.419Z" style="fill:white;fill-rule:nonzero;"/>
                <path d="M505.544,836.247C507.622,836.247 509.185,835.49 510.232,833.974C511.279,832.458 511.802,830.287 511.802,827.458C511.802,824.599 511.279,822.419 510.232,820.919C509.185,819.419 507.607,818.669 505.497,818.669C503.419,818.669 501.853,819.423 500.798,820.931C499.743,822.439 499.216,824.622 499.216,827.482C499.216,830.294 499.747,832.458 500.81,833.974C501.872,835.49 503.45,836.247 505.544,836.247ZM505.38,840.912C501.568,840.912 498.568,839.677 496.38,837.208C494.193,834.74 493.099,831.49 493.099,827.458C493.099,823.302 494.193,820.025 496.38,817.626C498.568,815.228 501.654,814.029 505.638,814.029C509.482,814.029 512.493,815.251 514.673,817.697C516.853,820.142 517.943,823.396 517.943,827.458C517.943,831.568 516.841,834.837 514.638,837.267C512.435,839.697 509.349,840.912 505.38,840.912Z" style="fill:white;fill-rule:nonzero;"/>
                <path d="M519.771,840.419L532.404,806.06L539.318,806.06L551.763,840.419L545.247,840.419L541.849,830.716L529.825,830.716L526.404,840.419L519.771,840.419ZM531.419,825.982L540.232,825.982C537.419,816.966 535.974,812.31 535.896,812.013L531.419,825.982Z" style="fill:white;fill-rule:nonzero;"/>
                <path d="M554.833,840.419L554.833,814.662L559.99,814.662L560.786,818.599C562.474,815.896 564.919,814.544 568.122,814.544C568.794,814.544 569.341,814.576 569.763,814.638L569.669,819.771C569.044,819.677 568.396,819.63 567.724,819.63C565.458,819.63 563.767,820.232 562.65,821.435C561.532,822.638 560.974,824.31 560.974,826.451L560.974,840.419L554.833,840.419Z" style="fill:white;fill-rule:nonzero;"/>
                <path d="M584.552,840.912C580.615,840.912 577.548,839.74 575.353,837.396C573.157,835.052 572.06,831.701 572.06,827.341C572.06,823.122 573.212,819.849 575.517,817.521C577.822,815.193 580.857,814.029 584.622,814.029C587.638,814.029 590.185,814.677 592.263,815.974L590.81,820.357C588.685,819.247 586.708,818.693 584.88,818.693C582.802,818.693 581.165,819.435 579.97,820.919C578.775,822.404 578.177,824.568 578.177,827.412C578.177,830.287 578.767,832.474 579.947,833.974C581.126,835.474 582.794,836.224 584.95,836.224C587.2,836.224 589.365,835.56 591.443,834.232L592.029,838.896C590.95,839.615 589.833,840.13 588.677,840.443C587.521,840.755 586.146,840.912 584.552,840.912Z" style="fill:white;fill-rule:nonzero;"/>
                <path d="M596.904,840.419L596.904,805.169L603.044,804.771L603.044,812.201C603.044,812.56 603.021,813.556 602.974,815.189C602.927,816.822 602.904,817.654 602.904,817.685C604.95,815.247 607.7,814.029 611.154,814.029C614.029,814.029 616.259,814.853 617.845,816.501C619.431,818.15 620.224,820.685 620.224,824.107L620.224,840.419L614.083,840.419L614.083,824.787C614.083,822.677 613.747,821.13 613.075,820.146C612.404,819.162 611.263,818.669 609.654,818.669C608.279,818.669 607.06,819.017 605.997,819.712C604.935,820.408 604.138,821.302 603.607,822.396C603.232,823.833 603.044,825.708 603.044,828.021L603.044,840.419L596.904,840.419Z" style="fill:white;fill-rule:nonzero;"/>
                <path d="M650.247,840.912C646.435,840.912 643.333,839.872 640.943,837.794C638.552,835.716 637.357,832.974 637.357,829.568C637.357,828.474 637.474,827.427 637.708,826.427C637.943,825.427 638.302,824.451 638.786,823.497C639.271,822.544 639.755,821.701 640.24,820.966C640.724,820.232 641.349,819.357 642.115,818.341L651.865,806.037L659.13,806.037L648.49,819.466C649.63,819.076 650.583,818.88 651.349,818.88C654.708,818.88 657.458,819.884 659.599,821.892C661.74,823.9 662.81,826.513 662.81,829.732C662.81,833.076 661.638,835.775 659.294,837.83C656.95,839.884 653.935,840.912 650.247,840.912ZM649.966,836.224C652.029,836.224 653.642,835.634 654.806,834.455C655.97,833.275 656.552,831.724 656.552,829.802C656.552,827.787 656.005,826.197 654.911,825.033C653.818,823.869 652.193,823.287 650.036,823.287C647.849,823.287 646.24,823.872 645.208,825.044C644.177,826.216 643.661,827.818 643.661,829.849C643.661,831.771 644.208,833.314 645.302,834.478C646.396,835.642 647.95,836.224 649.966,836.224Z" style="fill:white;fill-rule:nonzero;"/>
                <path d="M681.724,840.419L681.724,832.802L666.232,832.802L666.232,828.63L680.13,806.247L687.935,806.247L687.935,828.162L692.154,828.162L691.849,832.802L687.935,832.802L687.935,840.419L681.724,840.419ZM672.325,828.185L681.724,828.185L681.724,812.247L672.325,828.185Z" style="fill:white;fill-rule:nonzero;"/>
                <rect x="695.083" y="825.208" width="12.563" height="4.781" style="fill:white;fill-rule:nonzero;"/>
                <path d="M713.013,840.419L713.013,806.083L723.724,806.083C728.271,806.083 731.661,806.747 733.896,808.076C736.13,809.404 737.247,811.615 737.247,814.708C737.247,815.208 737.216,815.701 737.154,816.185C737.091,816.669 736.95,817.22 736.732,817.837C736.513,818.455 736.224,819.013 735.865,819.513C735.505,820.013 735.005,820.501 734.365,820.978C733.724,821.455 732.974,821.826 732.115,822.091C734.24,822.607 735.865,823.595 736.99,825.056C738.115,826.517 738.677,828.318 738.677,830.458C738.677,833.693 737.532,836.162 735.243,837.865C732.954,839.568 729.786,840.419 725.74,840.419L713.013,840.419ZM719.365,835.826L724.872,835.826C729.747,835.826 732.185,833.919 732.185,830.107C732.185,828.185 731.575,826.802 730.357,825.958C729.138,825.115 727.255,824.693 724.708,824.693L719.365,824.693L719.365,835.826ZM719.365,820.263L724.802,820.263C729.005,820.263 731.107,818.662 731.107,815.458C731.107,813.662 730.501,812.427 729.29,811.755C728.079,811.083 726.154,810.747 723.513,810.747L719.365,810.747L719.365,820.263Z" style="fill:white;fill-rule:nonzero;"/>
                <path d="M743.81,840.419L743.81,814.662L749.95,814.662L749.95,840.419L743.81,840.419ZM743.81,810.912L743.81,805.662L749.974,805.662L749.974,810.912L743.81,810.912Z" style="fill:white;fill-rule:nonzero;"/>
                <path d="M766.638,840.771C764.888,840.771 763.431,840.564 762.267,840.15C761.103,839.736 760.193,839.083 759.536,838.193C758.88,837.302 758.415,836.251 758.142,835.04C757.868,833.83 757.732,832.333 757.732,830.552L757.732,818.388L753.513,818.388L753.747,815.06L758.154,814.662L760.122,807.677L763.872,807.654L763.872,814.662L770.271,814.662L770.271,818.388L763.872,818.388L763.872,830.669C763.872,832.622 764.154,834.013 764.716,834.841C765.279,835.669 766.318,836.083 767.833,836.083C768.724,836.083 769.677,836.005 770.693,835.849L770.857,840.255C770.825,840.255 770.634,840.29 770.282,840.361C769.931,840.431 769.595,840.494 769.275,840.548C768.954,840.603 768.544,840.654 768.044,840.701C767.544,840.747 767.075,840.771 766.638,840.771Z" style="fill:white;fill-rule:nonzero;"/>
            </g>
            <g transform="matrix(17.5,0,0,17.5,390,310)">
                <path d="M6.84,5.76L8.4,7.68L5.28,7.68L4.56,10.56L2.64,10.56L3.36,7.68L1.44,7.68L0,13.44L3.84,13.44L3.36,15.36L6.72,15.36L4.2,18.24L7.02,18.24L9.36,15.36L14.64,15.36L16.98,18.24L19.8,18.24L17.28,15.36L20.64,15.36L20.16,13.44L24,13.44L22.56,7.68L20.64,7.68L21.36,10.56L19.44,10.56L18.72,7.68L15.6,7.68L17.16,5.76L15.12,5.76L13.44,7.68L10.56,7.68L8.88,5.76L6.84,5.76ZM7.08,9.6L9,9.6L9,11.52L7.08,11.52L7.08,9.6ZM15.005,9.6L16.925,9.6L16.925,11.52L15.005,11.52L15.005,9.6Z" style="fill:white;fill-rule:nonzero;"/>
            </g>
        </g>
    </g>
</svg>
