<?xml version="1.0" encoding="utf-8"?>
<svg width="100%" height="100%" viewBox="0 0 1200 1080" version="1.1" xmlns="http://www.w3.org/2000/svg" style="fill-rule:evenodd;clip-rule:evenodd;stroke-linejoin:round;stroke-miterlimit:2;">
  <path d="M 0 0 H 1200 V 1080.001 H 0 V 0 Z" style="fill:rgb(46,46,46);"/>
  <path d="M -98.576 842.013 L 574.553 168.883 L 574.553 1515.144 L -98.576 842.013 Z" style="fill: rgb(51, 51, 51); transform-box: fill-box; transform-origin: 50% 50%;" transform="matrix(0.707107, -0.707107, 0.707107, 0.707107, -0.000006, -0.000008)"/>
  <path d="M 415.523 748.743 L 415.523 714.314 L 428.25 714.314 C 429.984 714.314 431.488 714.392 432.762 714.548 C 434.035 714.704 435.246 714.989 436.394 715.404 C 437.543 715.818 438.473 716.376 439.184 717.079 C 439.894 717.782 440.457 718.7 440.871 719.833 C 441.285 720.966 441.492 722.306 441.492 723.853 C 441.492 728.415 439.422 731.415 435.281 732.853 C 436.125 733.806 437.172 735.571 438.422 738.15 L 443.531 748.743 L 436.594 748.743 L 432.586 739.767 C 431.07 736.548 430.133 734.642 429.773 734.048 C 429.508 734.032 428.625 734.025 427.125 734.025 L 421.805 733.978 L 421.805 748.743 L 415.523 748.743 Z M 428.812 729.431 C 431.25 729.431 433 728.997 434.062 728.13 C 435.125 727.263 435.656 725.868 435.656 723.946 C 435.656 722.259 435.117 721.017 434.039 720.22 C 432.961 719.423 431.312 719.025 429.094 719.025 L 421.805 719.025 L 421.805 729.407 C 422.039 729.407 423.203 729.411 425.297 729.419 C 427.391 729.427 428.562 729.431 428.812 729.431 Z" style="fill:white;fill-rule:nonzero;"/>
  <path d="M 459.68 749.236 C 455.539 749.236 452.316 748.044 450.012 745.661 C 447.707 743.279 446.555 739.986 446.555 735.782 C 446.555 731.689 447.641 728.431 449.812 726.009 C 451.984 723.587 454.945 722.368 458.695 722.353 C 462.242 722.353 464.996 723.462 466.957 725.681 C 468.918 727.9 469.898 730.845 469.898 734.517 C 469.898 734.782 469.894 735.212 469.887 735.806 C 469.879 736.4 469.875 736.837 469.875 737.118 L 452.742 737.118 C 452.805 739.525 453.465 741.388 454.723 742.708 C 455.98 744.029 457.711 744.689 459.914 744.689 C 462.727 744.689 465.43 743.954 468.023 742.486 L 468.891 746.845 C 466.312 748.439 463.242 749.236 459.68 749.236 Z M 452.859 733.251 L 464.109 733.251 C 464.109 731.157 463.633 729.548 462.68 728.423 C 461.727 727.298 460.406 726.736 458.719 726.736 C 457.141 726.736 455.809 727.282 454.723 728.376 C 453.637 729.47 453.016 731.095 452.859 733.251 Z" style="fill:white;fill-rule:nonzero;"/>
  <path d="M 485.18 749.095 C 483.43 749.095 481.973 748.888 480.809 748.474 C 479.644 748.06 478.734 747.407 478.078 746.517 C 477.422 745.626 476.957 744.575 476.684 743.364 C 476.41 742.154 476.273 740.657 476.273 738.876 L 476.273 726.712 L 472.055 726.712 L 472.289 723.384 L 476.695 722.986 L 478.664 716.001 L 482.414 715.978 L 482.414 722.986 L 488.812 722.986 L 488.812 726.712 L 482.414 726.712 L 482.414 738.993 C 482.414 740.946 482.695 742.337 483.258 743.165 C 483.82 743.993 484.859 744.407 486.375 744.407 C 487.266 744.407 488.219 744.329 489.234 744.173 L 489.398 748.579 C 489.367 748.579 489.176 748.614 488.824 748.685 C 488.473 748.755 488.137 748.818 487.816 748.872 C 487.496 748.927 487.086 748.978 486.586 749.025 C 486.086 749.071 485.617 749.095 485.18 749.095 Z" style="fill:white;fill-rule:nonzero;"/>
  <path d="M 493.734 748.743 L 493.734 722.986 L 498.891 722.986 L 499.687 726.923 C 501.375 724.22 503.82 722.868 507.023 722.868 C 507.695 722.868 508.242 722.9 508.664 722.962 L 508.57 728.095 C 507.945 728.001 507.297 727.954 506.625 727.954 C 504.359 727.954 502.668 728.556 501.551 729.759 C 500.434 730.962 499.875 732.634 499.875 734.775 L 499.875 748.743 L 493.734 748.743 Z" style="fill:white;fill-rule:nonzero;"/>
  <path d="M 523.406 744.571 C 525.484 744.571 527.047 743.814 528.094 742.298 C 529.141 740.782 529.664 738.611 529.664 735.782 C 529.664 732.923 529.141 730.743 528.094 729.243 C 527.047 727.743 525.469 726.993 523.359 726.993 C 521.281 726.993 519.715 727.747 518.66 729.255 C 517.605 730.763 517.078 732.946 517.078 735.806 C 517.078 738.618 517.609 740.782 518.672 742.298 C 519.734 743.814 521.312 744.571 523.406 744.571 Z M 523.242 749.236 C 519.43 749.236 516.43 748.001 514.242 745.532 C 512.055 743.064 510.961 739.814 510.961 735.782 C 510.961 731.626 512.055 728.349 514.242 725.95 C 516.43 723.552 519.516 722.353 523.5 722.353 C 527.344 722.353 530.355 723.575 532.535 726.021 C 534.715 728.466 535.805 731.72 535.805 735.782 C 535.805 739.892 534.703 743.161 532.5 745.591 C 530.297 748.021 527.211 749.236 523.242 749.236 Z" style="fill:white;fill-rule:nonzero;"/>
  <path d="M 537.633 748.743 L 550.266 714.384 L 557.18 714.384 L 569.625 748.743 L 563.109 748.743 L 559.711 739.04 L 547.687 739.04 L 544.266 748.743 L 537.633 748.743 Z M 549.281 734.306 L 558.094 734.306 C 555.281 725.29 553.836 720.634 553.758 720.337 L 549.281 734.306 Z" style="fill:white;fill-rule:nonzero;"/>
  <path d="M 572.695 748.743 L 572.695 722.986 L 577.852 722.986 L 578.648 726.923 C 580.336 724.22 582.781 722.868 585.984 722.868 C 586.656 722.868 587.203 722.9 587.625 722.962 L 587.531 728.095 C 586.906 728.001 586.258 727.954 585.586 727.954 C 583.32 727.954 581.629 728.556 580.512 729.759 C 579.394 730.962 578.836 732.634 578.836 734.775 L 578.836 748.743 L 572.695 748.743 Z" style="fill:white;fill-rule:nonzero;"/>
  <path d="M 602.414 749.236 C 598.477 749.236 595.41 748.064 593.215 745.72 C 591.019 743.376 589.922 740.025 589.922 735.665 C 589.922 731.446 591.074 728.173 593.379 725.845 C 595.684 723.517 598.719 722.353 602.484 722.353 C 605.5 722.353 608.047 723.001 610.125 724.298 L 608.672 728.681 C 606.547 727.571 604.57 727.017 602.742 727.017 C 600.664 727.017 599.027 727.759 597.832 729.243 C 596.637 730.728 596.039 732.892 596.039 735.736 C 596.039 738.611 596.629 740.798 597.809 742.298 C 598.988 743.798 600.656 744.548 602.812 744.548 C 605.062 744.548 607.227 743.884 609.305 742.556 L 609.891 747.22 C 608.812 747.939 607.695 748.454 606.539 748.767 C 605.383 749.079 604.008 749.236 602.414 749.236 Z" style="fill:white;fill-rule:nonzero;"/>
  <path d="M 614.766 748.743 L 614.766 713.493 L 620.906 713.095 L 620.906 720.525 C 620.906 720.884 620.883 721.88 620.836 723.513 C 620.789 725.146 620.766 725.978 620.766 726.009 C 622.812 723.571 625.562 722.353 629.016 722.353 C 631.891 722.353 634.121 723.177 635.707 724.825 C 637.293 726.474 638.086 729.009 638.086 732.431 L 638.086 748.743 L 631.945 748.743 L 631.945 733.111 C 631.945 731.001 631.609 729.454 630.937 728.47 C 630.266 727.486 629.125 726.993 627.516 726.993 C 626.141 726.993 624.922 727.341 623.859 728.036 C 622.797 728.732 622 729.626 621.469 730.72 C 621.094 732.157 620.906 734.032 620.906 736.345 L 620.906 748.743 L 614.766 748.743 Z" style="fill:white;fill-rule:nonzero;"/>
  <path d="M 668.109 749.236 C 664.297 749.236 661.195 748.196 658.805 746.118 C 656.414 744.04 655.219 741.298 655.219 737.892 C 655.219 736.798 655.336 735.751 655.57 734.751 C 655.805 733.751 656.164 732.775 656.648 731.821 C 657.133 730.868 657.617 730.025 658.102 729.29 C 658.586 728.556 659.211 727.681 659.977 726.665 L 669.727 714.361 L 676.992 714.361 L 666.352 727.79 C 667.492 727.4 668.445 727.204 669.211 727.204 C 672.57 727.204 675.32 728.208 677.461 730.216 C 679.602 732.224 680.672 734.837 680.672 738.056 C 680.672 741.4 679.5 744.099 677.156 746.154 C 674.812 748.208 671.797 749.236 668.109 749.236 Z M 667.828 744.548 C 669.891 744.548 671.504 743.958 672.668 742.779 C 673.832 741.599 674.414 740.048 674.414 738.126 C 674.414 736.111 673.867 734.521 672.773 733.357 C 671.68 732.193 670.055 731.611 667.898 731.611 C 665.711 731.611 664.102 732.196 663.07 733.368 C 662.039 734.54 661.523 736.142 661.523 738.173 C 661.523 740.095 662.07 741.638 663.164 742.802 C 664.258 743.966 665.812 744.548 667.828 744.548 Z" style="fill:white;fill-rule:nonzero;"/>
  <path d="M 699.586 748.743 L 699.586 741.126 L 684.094 741.126 L 684.094 736.954 L 697.992 714.571 L 705.797 714.571 L 705.797 736.486 L 710.016 736.486 L 709.711 741.126 L 705.797 741.126 L 705.797 748.743 L 699.586 748.743 Z M 690.187 736.509 L 699.586 736.509 L 699.586 720.571 L 690.187 736.509 Z" style="fill:white;fill-rule:nonzero;"/>
  <path d="M 695.083 825.208 H 707.646 V 829.989 H 695.083 V 825.208 Z" style="fill:white;fill-rule:nonzero;" transform="matrix(1, 0, 0, 1, 17.862101, -91.676498)"/>
  <path d="M 730.875 748.743 L 730.875 714.407 L 741.586 714.407 C 746.133 714.407 749.523 715.071 751.758 716.4 C 753.992 717.728 755.109 719.939 755.109 723.032 C 755.109 723.532 755.078 724.025 755.016 724.509 C 754.953 724.993 754.812 725.544 754.594 726.161 C 754.375 726.779 754.086 727.337 753.727 727.837 C 753.367 728.337 752.867 728.825 752.227 729.302 C 751.586 729.779 750.836 730.15 749.977 730.415 C 752.102 730.931 753.727 731.919 754.852 733.38 C 755.977 734.841 756.539 736.642 756.539 738.782 C 756.539 742.017 755.394 744.486 753.105 746.189 C 750.816 747.892 747.648 748.743 743.602 748.743 L 730.875 748.743 Z M 737.227 744.15 L 742.734 744.15 C 747.609 744.15 750.047 742.243 750.047 738.431 C 750.047 736.509 749.437 735.126 748.219 734.282 C 747 733.439 745.117 733.017 742.57 733.017 L 737.227 733.017 L 737.227 744.15 Z M 737.227 728.587 L 742.664 728.587 C 746.867 728.587 748.969 726.986 748.969 723.782 C 748.969 721.986 748.363 720.751 747.152 720.079 C 745.941 719.407 744.016 719.071 741.375 719.071 L 737.227 719.071 L 737.227 728.587 Z" style="fill:white;fill-rule:nonzero;"/>
  <path d="M 761.672 748.743 L 761.672 722.986 L 767.812 722.986 L 767.812 748.743 L 761.672 748.743 Z M 761.672 719.236 L 761.672 713.986 L 767.836 713.986 L 767.836 719.236 L 761.672 719.236 Z" style="fill:white;fill-rule:nonzero;"/>
  <path d="M 784.5 749.095 C 782.75 749.095 781.293 748.888 780.129 748.474 C 778.965 748.06 778.055 747.407 777.398 746.517 C 776.742 745.626 776.277 744.575 776.004 743.364 C 775.73 742.154 775.594 740.657 775.594 738.876 L 775.594 726.712 L 771.375 726.712 L 771.609 723.384 L 776.016 722.986 L 777.984 716.001 L 781.734 715.978 L 781.734 722.986 L 788.133 722.986 L 788.133 726.712 L 781.734 726.712 L 781.734 738.993 C 781.734 740.946 782.016 742.337 782.578 743.165 C 783.141 743.993 784.18 744.407 785.695 744.407 C 786.586 744.407 787.539 744.329 788.555 744.173 L 788.719 748.579 C 788.687 748.579 788.496 748.614 788.144 748.685 C 787.793 748.755 787.457 748.818 787.137 748.872 C 786.816 748.927 786.406 748.978 785.906 749.025 C 785.406 749.071 784.937 749.095 784.5 749.095 Z" style="fill:white;fill-rule:nonzero;"/>
  <path d="M 509.7 410.8 L 537 444.4 L 482.4 444.4 L 469.8 494.8 L 436.2 494.8 L 448.8 444.4 L 415.2 444.4 L 390 545.2 L 457.2 545.2 L 448.8 578.8 L 507.6 578.8 L 463.5 629.2 L 512.85 629.2 L 553.8 578.8 L 646.2 578.8 L 687.15 629.2 L 736.5 629.2 L 692.4 578.8 L 751.2 578.8 L 742.8 545.2 L 810 545.2 L 784.8 444.4 L 751.2 444.4 L 763.8 494.8 L 730.2 494.8 L 717.6 444.4 L 663 444.4 L 690.3 410.8 L 654.6 410.8 L 625.2 444.4 L 574.8 444.4 L 545.4 410.8 L 509.7 410.8 Z M 513.9 478 L 547.5 478 L 547.5 511.6 L 513.9 511.6 L 513.9 478 Z M 652.588 478 L 686.188 478 L 686.188 511.6 L 652.588 511.6 L 652.588 478 Z" style="fill:white;fill-rule:nonzero;"/>
</svg>