<?xml version="1.0" encoding="UTF-8" standalone="no"?>
<!DOCTYPE svg PUBLIC "-//W3C//DTD SVG 1.1//EN" "http://www.w3.org/Graphics/SVG/1.1/DTD/svg11.dtd">
<svg width="100%" height="100%" viewBox="0 0 1200 1080" version="1.1" xmlns="http://www.w3.org/2000/svg" xmlns:xlink="http://www.w3.org/1999/xlink" xml:space="preserve" xmlns:serif="http://www.serif.com/" style="fill-rule:evenodd;clip-rule:evenodd;stroke-linejoin:round;stroke-miterlimit:2;">
    <rect id="Artboard1" x="0" y="0" width="1200" height="1080" style="fill:none;"/>
    <g id="Artboard11" serif:id="Artboard1">
        <g transform="matrix(1,0,0,1.09091,-720,207.273)">
            <rect x="720" y="-190" width="1200" height="990" style="fill:rgb(46,46,46);"/>
        </g>
        <g transform="matrix(0.707107,-0.707107,0.707107,0.707107,-575.938,-155.145)">
            <path d="M-466.129,1280.63L207,607.5L207,1953.76L-466.129,1280.63Z" style="fill:rgb(51,51,51);"/>
        </g>
        <g id="retroarch-32.svg">
            <g transform="matrix(1,0,0,1,17.8621,-91.6765)">
                <path d="M401.482,840.419L401.482,805.99L414.208,805.99C415.943,805.99 417.447,806.068 418.72,806.224C419.993,806.38 421.204,806.665 422.353,807.08C423.501,807.494 424.431,808.052 425.142,808.755C425.853,809.458 426.415,810.376 426.829,811.509C427.243,812.642 427.45,813.982 427.45,815.529C427.45,820.091 425.38,823.091 421.24,824.529C422.083,825.482 423.13,827.247 424.38,829.826L429.49,840.419L422.552,840.419L418.544,831.443C417.029,828.224 416.091,826.318 415.732,825.724C415.466,825.708 414.583,825.701 413.083,825.701L407.763,825.654L407.763,840.419L401.482,840.419ZM414.771,821.107C417.208,821.107 418.958,820.673 420.021,819.806C421.083,818.939 421.615,817.544 421.615,815.622C421.615,813.935 421.075,812.693 419.997,811.896C418.919,811.099 417.271,810.701 415.052,810.701L407.763,810.701L407.763,821.083C407.997,821.083 409.161,821.087 411.255,821.095C413.349,821.103 414.521,821.107 414.771,821.107Z" style="fill:white;fill-rule:nonzero;"/>
                <path d="M445.638,840.912C441.497,840.912 438.275,839.72 435.97,837.337C433.665,834.955 432.513,831.662 432.513,827.458C432.513,823.365 433.599,820.107 435.771,817.685C437.943,815.263 440.904,814.044 444.654,814.029C448.2,814.029 450.954,815.138 452.915,817.357C454.876,819.576 455.857,822.521 455.857,826.193C455.857,826.458 455.853,826.888 455.845,827.482C455.837,828.076 455.833,828.513 455.833,828.794L438.7,828.794C438.763,831.201 439.423,833.064 440.681,834.384C441.939,835.705 443.669,836.365 445.872,836.365C448.685,836.365 451.388,835.63 453.982,834.162L454.849,838.521C452.271,840.115 449.2,840.912 445.638,840.912ZM438.818,824.927L450.068,824.927C450.068,822.833 449.591,821.224 448.638,820.099C447.685,818.974 446.365,818.412 444.677,818.412C443.099,818.412 441.767,818.958 440.681,820.052C439.595,821.146 438.974,822.771 438.818,824.927Z" style="fill:white;fill-rule:nonzero;"/>
                <path d="M471.138,840.771C469.388,840.771 467.931,840.564 466.767,840.15C465.603,839.736 464.693,839.083 464.036,838.193C463.38,837.302 462.915,836.251 462.642,835.04C462.368,833.83 462.232,832.333 462.232,830.552L462.232,818.388L458.013,818.388L458.247,815.06L462.654,814.662L464.622,807.677L468.372,807.654L468.372,814.662L474.771,814.662L474.771,818.388L468.372,818.388L468.372,830.669C468.372,832.622 468.654,834.013 469.216,834.841C469.779,835.669 470.818,836.083 472.333,836.083C473.224,836.083 474.177,836.005 475.193,835.849L475.357,840.255C475.325,840.255 475.134,840.29 474.782,840.361C474.431,840.431 474.095,840.494 473.775,840.548C473.454,840.603 473.044,840.654 472.544,840.701C472.044,840.747 471.575,840.771 471.138,840.771Z" style="fill:white;fill-rule:nonzero;"/>
                <path d="M479.693,840.419L479.693,814.662L484.849,814.662L485.646,818.599C487.333,815.896 489.779,814.544 492.982,814.544C493.654,814.544 494.2,814.576 494.622,814.638L494.529,819.771C493.904,819.677 493.255,819.63 492.583,819.63C490.318,819.63 488.626,820.232 487.509,821.435C486.392,822.638 485.833,824.31 485.833,826.451L485.833,840.419L479.693,840.419Z" style="fill:white;fill-rule:nonzero;"/>
                <path d="M509.365,836.247C511.443,836.247 513.005,835.49 514.052,833.974C515.099,832.458 515.622,830.287 515.622,827.458C515.622,824.599 515.099,822.419 514.052,820.919C513.005,819.419 511.427,818.669 509.318,818.669C507.24,818.669 505.673,819.423 504.618,820.931C503.564,822.439 503.036,824.622 503.036,827.482C503.036,830.294 503.568,832.458 504.63,833.974C505.693,835.49 507.271,836.247 509.365,836.247ZM509.2,840.912C505.388,840.912 502.388,839.677 500.2,837.208C498.013,834.74 496.919,831.49 496.919,827.458C496.919,823.302 498.013,820.025 500.2,817.626C502.388,815.228 505.474,814.029 509.458,814.029C513.302,814.029 516.314,815.251 518.493,817.697C520.673,820.142 521.763,823.396 521.763,827.458C521.763,831.568 520.661,834.837 518.458,837.267C516.255,839.697 513.169,840.912 509.2,840.912Z" style="fill:white;fill-rule:nonzero;"/>
                <path d="M523.591,840.419L536.224,806.06L543.138,806.06L555.583,840.419L549.068,840.419L545.669,830.716L533.646,830.716L530.224,840.419L523.591,840.419ZM535.24,825.982L544.052,825.982C541.24,816.966 539.794,812.31 539.716,812.013L535.24,825.982Z" style="fill:white;fill-rule:nonzero;"/>
                <path d="M558.654,840.419L558.654,814.662L563.81,814.662L564.607,818.599C566.294,815.896 568.74,814.544 571.943,814.544C572.615,814.544 573.161,814.576 573.583,814.638L573.49,819.771C572.865,819.677 572.216,819.63 571.544,819.63C569.279,819.63 567.587,820.232 566.47,821.435C565.353,822.638 564.794,824.31 564.794,826.451L564.794,840.419L558.654,840.419Z" style="fill:white;fill-rule:nonzero;"/>
                <path d="M588.372,840.912C584.435,840.912 581.368,839.74 579.173,837.396C576.978,835.052 575.88,831.701 575.88,827.341C575.88,823.122 577.032,819.849 579.337,817.521C581.642,815.193 584.677,814.029 588.443,814.029C591.458,814.029 594.005,814.677 596.083,815.974L594.63,820.357C592.505,819.247 590.529,818.693 588.7,818.693C586.622,818.693 584.986,819.435 583.79,820.919C582.595,822.404 581.997,824.568 581.997,827.412C581.997,830.287 582.587,832.474 583.767,833.974C584.947,835.474 586.615,836.224 588.771,836.224C591.021,836.224 593.185,835.56 595.263,834.232L595.849,838.896C594.771,839.615 593.654,840.13 592.497,840.443C591.341,840.755 589.966,840.912 588.372,840.912Z" style="fill:white;fill-rule:nonzero;"/>
                <path d="M600.724,840.419L600.724,805.169L606.865,804.771L606.865,812.201C606.865,812.56 606.841,813.556 606.794,815.189C606.747,816.822 606.724,817.654 606.724,817.685C608.771,815.247 611.521,814.029 614.974,814.029C617.849,814.029 620.079,814.853 621.665,816.501C623.251,818.15 624.044,820.685 624.044,824.107L624.044,840.419L617.904,840.419L617.904,824.787C617.904,822.677 617.568,821.13 616.896,820.146C616.224,819.162 615.083,818.669 613.474,818.669C612.099,818.669 610.88,819.017 609.818,819.712C608.755,820.408 607.958,821.302 607.427,822.396C607.052,823.833 606.865,825.708 606.865,828.021L606.865,840.419L600.724,840.419Z" style="fill:white;fill-rule:nonzero;"/>
                <path d="M651.021,840.912C649.005,840.912 647.111,840.65 645.337,840.126C643.564,839.603 642.161,838.896 641.13,838.005L642.818,833.576C643.677,834.294 644.865,834.884 646.38,835.345C647.896,835.806 649.45,836.037 651.044,836.037C652.841,836.037 654.29,835.552 655.392,834.583C656.493,833.615 657.044,832.349 657.044,830.787C657.044,829.818 656.892,828.982 656.587,828.279C656.282,827.576 655.88,827.013 655.38,826.591C654.88,826.169 654.212,825.83 653.376,825.572C652.54,825.314 651.685,825.138 650.81,825.044C649.935,824.951 648.88,824.896 647.646,824.88C647.599,824.88 647.372,824.876 646.966,824.869C646.56,824.861 646.333,824.857 646.286,824.857L646.286,820.122L647.599,820.122C648.958,820.122 650.126,820.052 651.103,819.912C652.079,819.771 652.986,819.529 653.822,819.185C654.657,818.841 655.29,818.333 655.72,817.662C656.15,816.99 656.365,816.162 656.365,815.177C656.365,813.849 655.865,812.716 654.865,811.779C653.865,810.841 652.458,810.372 650.646,810.372C647.708,810.372 645.091,811.107 642.794,812.576L641.107,808.122C643.95,806.372 647.325,805.497 651.232,805.497C654.497,805.497 657.165,806.357 659.236,808.076C661.306,809.794 662.341,811.997 662.341,814.685C662.341,816.56 661.861,818.158 660.9,819.478C659.939,820.798 658.544,821.763 656.716,822.372C658.81,822.779 660.431,823.787 661.579,825.396C662.728,827.005 663.302,828.904 663.302,831.091C663.302,833.169 662.747,834.962 661.638,836.47C660.529,837.978 659.06,839.095 657.232,839.822C655.404,840.548 653.333,840.912 651.021,840.912Z" style="fill:white;fill-rule:nonzero;"/>
                <path d="M666.911,840.419L666.771,835.357L677.622,823.076C678.966,821.638 679.947,820.314 680.564,819.103C681.181,817.892 681.49,816.615 681.49,815.271C681.49,813.787 681.005,812.603 680.036,811.72C679.068,810.837 677.794,810.396 676.216,810.396C674.763,810.396 673.329,810.665 671.915,811.205C670.501,811.744 669.341,812.419 668.435,813.232L666.677,808.591C669.021,806.529 672.318,805.497 676.568,805.497C679.943,805.497 682.657,806.345 684.712,808.04C686.767,809.736 687.794,812.13 687.794,815.224C687.794,817.412 687.212,819.497 686.048,821.482C684.884,823.466 683.294,825.505 681.279,827.599L673.544,835.802L687.396,835.802L686.974,840.419L666.911,840.419Z" style="fill:white;fill-rule:nonzero;"/>
                <rect x="691.263" y="825.208" width="12.563" height="4.781" style="fill:white;fill-rule:nonzero;"/>
                <path d="M709.193,840.419L709.193,806.083L719.904,806.083C724.45,806.083 727.841,806.747 730.075,808.076C732.31,809.404 733.427,811.615 733.427,814.708C733.427,815.208 733.396,815.701 733.333,816.185C733.271,816.669 733.13,817.22 732.911,817.837C732.693,818.455 732.404,819.013 732.044,819.513C731.685,820.013 731.185,820.501 730.544,820.978C729.904,821.455 729.154,821.826 728.294,822.091C730.419,822.607 732.044,823.595 733.169,825.056C734.294,826.517 734.857,828.318 734.857,830.458C734.857,833.693 733.712,836.162 731.423,837.865C729.134,839.568 725.966,840.419 721.919,840.419L709.193,840.419ZM715.544,835.826L721.052,835.826C725.927,835.826 728.365,833.919 728.365,830.107C728.365,828.185 727.755,826.802 726.536,825.958C725.318,825.115 723.435,824.693 720.888,824.693L715.544,824.693L715.544,835.826ZM715.544,820.263L720.982,820.263C725.185,820.263 727.286,818.662 727.286,815.458C727.286,813.662 726.681,812.427 725.47,811.755C724.259,811.083 722.333,810.747 719.693,810.747L715.544,810.747L715.544,820.263Z" style="fill:white;fill-rule:nonzero;"/>
                <path d="M739.99,840.419L739.99,814.662L746.13,814.662L746.13,840.419L739.99,840.419ZM739.99,810.912L739.99,805.662L746.154,805.662L746.154,810.912L739.99,810.912Z" style="fill:white;fill-rule:nonzero;"/>
                <path d="M762.818,840.771C761.068,840.771 759.611,840.564 758.447,840.15C757.282,839.736 756.372,839.083 755.716,838.193C755.06,837.302 754.595,836.251 754.322,835.04C754.048,833.83 753.911,832.333 753.911,830.552L753.911,818.388L749.693,818.388L749.927,815.06L754.333,814.662L756.302,807.677L760.052,807.654L760.052,814.662L766.45,814.662L766.45,818.388L760.052,818.388L760.052,830.669C760.052,832.622 760.333,834.013 760.896,834.841C761.458,835.669 762.497,836.083 764.013,836.083C764.904,836.083 765.857,836.005 766.872,835.849L767.036,840.255C767.005,840.255 766.814,840.29 766.462,840.361C766.111,840.431 765.775,840.494 765.454,840.548C765.134,840.603 764.724,840.654 764.224,840.701C763.724,840.747 763.255,840.771 762.818,840.771Z" style="fill:white;fill-rule:nonzero;"/>
            </g>
            <g transform="matrix(17.5,0,0,17.5,390,310)">
                <path d="M6.84,5.76L8.4,7.68L5.28,7.68L4.56,10.56L2.64,10.56L3.36,7.68L1.44,7.68L0,13.44L3.84,13.44L3.36,15.36L6.72,15.36L4.2,18.24L7.02,18.24L9.36,15.36L14.64,15.36L16.98,18.24L19.8,18.24L17.28,15.36L20.64,15.36L20.16,13.44L24,13.44L22.56,7.68L20.64,7.68L21.36,10.56L19.44,10.56L18.72,7.68L15.6,7.68L17.16,5.76L15.12,5.76L13.44,7.68L10.56,7.68L8.88,5.76L6.84,5.76ZM7.08,9.6L9,9.6L9,11.52L7.08,11.52L7.08,9.6ZM15.005,9.6L16.925,9.6L16.925,11.52L15.005,11.52L15.005,9.6Z" style="fill:white;fill-rule:nonzero;"/>
            </g>
        </g>
    </g>
</svg>
