<?xml version="1.0" encoding="utf-8"?>
<svg width="100%" height="100%" viewBox="0 0 1200 1080" version="1.1" xmlns="http://www.w3.org/2000/svg" style="fill-rule:evenodd;clip-rule:evenodd;stroke-linejoin:round;stroke-miterlimit:2;">
  <rect id="Artboard1" x="0" y="0" width="1200" height="1080" style="fill:none;"/>
  <rect width="1200" height="1080.001" style="fill:rgb(46,46,46);"/>
  <path d="M -98.576 842.013 L 574.553 168.883 L 574.553 1515.144 L -98.576 842.013 Z" style="fill: rgb(51, 51, 51); transform-box: fill-box; transform-origin: 50% 50%;" transform="matrix(0.707107, -0.707107, 0.707107, 0.707107, -0.000006, -0.000008)"/>
  <path d="M 531.879 798.743 L 531.879 764.314 L 544.605 764.314 C 546.34 764.314 547.844 764.392 549.117 764.548 C 550.391 764.704 551.602 764.989 552.75 765.404 C 553.898 765.818 554.828 766.376 555.539 767.079 C 556.25 767.782 556.812 768.7 557.227 769.833 C 557.641 770.966 557.848 772.306 557.848 773.853 C 557.848 778.415 555.777 781.415 551.637 782.853 C 552.48 783.806 553.527 785.571 554.777 788.15 L 559.887 798.743 L 552.949 798.743 L 548.941 789.767 C 547.426 786.548 546.488 784.642 546.129 784.048 C 545.863 784.032 544.98 784.025 543.48 784.025 L 538.16 783.978 L 538.16 798.743 L 531.879 798.743 Z M 545.168 779.431 C 547.605 779.431 549.355 778.997 550.418 778.13 C 551.48 777.263 552.012 775.868 552.012 773.946 C 552.012 772.259 551.473 771.017 550.394 770.22 C 549.316 769.423 547.668 769.025 545.449 769.025 L 538.16 769.025 L 538.16 779.407 C 538.394 779.407 539.559 779.411 541.652 779.419 C 543.746 779.427 544.918 779.431 545.168 779.431 Z" style="fill:white;fill-rule:nonzero;"/>
  <path d="M 564.293 798.743 L 564.293 764.314 L 575.73 764.314 C 578.434 764.314 580.746 764.661 582.668 765.357 C 584.59 766.052 586.109 767.181 587.227 768.743 C 588.344 770.306 588.902 772.267 588.902 774.626 C 588.902 776.267 588.691 777.724 588.269 778.997 C 587.848 780.271 587.152 781.427 586.184 782.466 C 585.215 783.505 583.852 784.306 582.094 784.868 C 580.336 785.431 578.215 785.712 575.73 785.712 C 573.605 785.712 571.879 785.65 570.551 785.525 L 570.551 798.743 L 564.293 798.743 Z M 575.051 781.118 C 576.348 781.118 577.477 780.993 578.437 780.743 C 579.398 780.493 580.148 780.173 580.687 779.782 C 581.227 779.392 581.656 778.907 581.977 778.329 C 582.297 777.751 582.508 777.193 582.609 776.654 C 582.711 776.114 582.762 775.509 582.762 774.837 C 582.762 772.946 582.152 771.509 580.934 770.525 C 579.715 769.54 577.996 769.048 575.777 769.048 L 570.551 769.048 L 570.551 781.071 C 570.738 781.103 572.238 781.118 575.051 781.118 Z" style="fill:white;fill-rule:nonzero;"/>
  <path d="M 608.613 799.236 C 603.598 799.236 599.621 797.657 596.684 794.501 C 593.746 791.345 592.277 786.986 592.277 781.423 C 592.277 776.142 593.812 771.904 596.883 768.708 C 599.953 765.513 603.973 763.915 608.941 763.915 C 612.957 763.915 616.355 764.845 619.137 766.704 L 617.144 771.509 C 614.473 769.868 611.785 769.048 609.082 769.048 C 605.926 769.048 603.43 770.185 601.594 772.458 C 599.758 774.732 598.84 777.782 598.84 781.611 C 598.84 785.579 599.727 788.65 601.5 790.821 C 603.273 792.993 605.801 794.079 609.082 794.079 C 611.957 794.079 614.809 793.361 617.637 791.923 L 618.48 796.892 C 615.855 798.454 612.566 799.236 608.613 799.236 Z" style="fill:white;fill-rule:nonzero;"/>
  <path d="M 633.762 799.212 C 629.621 799.212 625.91 798.259 622.629 796.353 L 624.176 791.314 C 625.644 792.126 627.242 792.782 628.969 793.282 C 630.695 793.782 632.379 794.032 634.019 794.032 C 636.035 794.032 637.559 793.599 638.59 792.732 C 639.621 791.864 640.137 790.618 640.137 788.993 C 640.137 786.837 638.699 785.345 635.824 784.517 C 635.621 784.454 635.051 784.286 634.113 784.013 C 633.176 783.739 632.297 783.474 631.477 783.216 C 630.656 782.958 630.066 782.759 629.707 782.618 C 625.098 780.993 622.793 777.962 622.793 773.525 C 622.793 770.415 623.898 768.017 626.109 766.329 C 628.32 764.642 631.254 763.798 634.91 763.798 C 639.051 763.798 642.621 764.65 645.621 766.353 L 643.699 770.993 C 640.637 769.618 637.793 768.931 635.168 768.931 C 633.277 768.931 631.852 769.263 630.891 769.927 C 629.93 770.591 629.418 771.696 629.355 773.243 C 629.355 775.15 630.301 776.392 632.191 776.97 C 632.566 777.111 633.488 777.415 634.957 777.884 C 636.426 778.353 637.379 778.657 637.816 778.798 C 640.957 779.829 643.203 781.111 644.555 782.642 C 645.906 784.173 646.582 786.306 646.582 789.04 C 646.582 792.306 645.426 794.818 643.113 796.575 C 640.801 798.333 637.684 799.212 633.762 799.212 Z" style="fill:white;fill-rule:nonzero;"/>
  <path d="M 659.66 799.236 C 657.644 799.236 655.75 798.974 653.977 798.45 C 652.203 797.927 650.801 797.22 649.769 796.329 L 651.457 791.9 C 652.316 792.618 653.504 793.208 655.019 793.669 C 656.535 794.13 658.09 794.361 659.684 794.361 C 661.48 794.361 662.93 793.876 664.031 792.907 C 665.133 791.939 665.684 790.673 665.684 789.111 C 665.684 788.142 665.531 787.306 665.227 786.603 C 664.922 785.9 664.519 785.337 664.019 784.915 C 663.519 784.493 662.852 784.154 662.016 783.896 C 661.18 783.638 660.324 783.462 659.449 783.368 C 658.574 783.275 657.519 783.22 656.285 783.204 C 656.238 783.204 656.012 783.2 655.605 783.193 C 655.199 783.185 654.973 783.181 654.926 783.181 L 654.926 778.446 L 656.238 778.446 C 657.598 778.446 658.766 778.376 659.742 778.236 C 660.719 778.095 661.625 777.853 662.461 777.509 C 663.297 777.165 663.93 776.657 664.359 775.986 C 664.789 775.314 665.004 774.486 665.004 773.501 C 665.004 772.173 664.504 771.04 663.504 770.103 C 662.504 769.165 661.098 768.696 659.285 768.696 C 656.348 768.696 653.73 769.431 651.434 770.9 L 649.746 766.446 C 652.59 764.696 655.965 763.821 659.871 763.821 C 663.137 763.821 665.805 764.681 667.875 766.4 C 669.945 768.118 670.98 770.321 670.98 773.009 C 670.98 774.884 670.5 776.482 669.539 777.802 C 668.578 779.122 667.184 780.087 665.355 780.696 C 667.449 781.103 669.07 782.111 670.219 783.72 C 671.367 785.329 671.941 787.228 671.941 789.415 C 671.941 791.493 671.387 793.286 670.277 794.794 C 669.168 796.302 667.699 797.419 665.871 798.146 C 664.043 798.872 661.973 799.236 659.66 799.236 Z" style="fill:white;fill-rule:nonzero;"/>
  <path d="M 468.526 340.334 C 465.807 340.527 464.327 340.728 461.656 341.295 C 459.61 341.728 458.764 341.939 457.477 342.342 C 456.843 342.544 456.064 342.784 455.747 342.871 C 455.43 342.957 454.652 343.246 454.008 343.505 C 453.364 343.764 452.788 343.976 452.721 343.976 C 452.653 343.976 452.058 344.235 451.404 344.552 C 450.741 344.869 450.155 345.129 450.107 345.129 C 449.963 345.129 446.475 346.945 446.024 347.252 C 445.803 347.406 445.582 347.531 445.534 347.531 C 445.486 347.531 445.226 347.675 444.977 347.848 C 444.717 348.03 444.141 348.395 443.689 348.665 C 443.238 348.934 442.776 349.241 442.651 349.356 C 442.527 349.472 442.267 349.654 442.075 349.769 C 441.037 350.375 437.944 352.844 436.579 354.16 C 436.329 354.4 435.791 354.919 435.369 355.313 C 434.581 356.053 433.457 357.235 432.544 358.282 C 432.256 358.618 431.842 359.089 431.622 359.339 C 431.132 359.896 429.623 361.847 429.489 362.097 C 429.431 362.202 429.21 362.5 428.999 362.759 C 428.778 363.019 428.537 363.374 428.46 363.547 C 428.374 363.711 428.211 363.98 428.086 364.124 C 427.97 364.268 427.634 364.777 427.356 365.258 C 427.077 365.728 426.789 366.19 426.721 366.266 C 426.577 366.449 425.415 368.543 425.078 369.245 C 424.934 369.533 424.617 370.186 424.367 370.686 C 424.118 371.186 423.81 371.877 423.676 372.223 C 423.541 372.569 423.32 373.107 423.176 373.424 C 422.869 374.097 421.975 376.595 421.581 377.892 C 421.178 379.247 420.361 382.456 420.246 383.176 C 419.688 386.683 419.535 387.894 419.381 389.748 C 419.314 390.584 419.285 432.898 419.285 520.033 C 419.285 659.205 419.256 650.116 419.756 653.546 C 420.102 655.938 420.159 656.284 420.342 657.235 C 420.803 659.627 422.302 664.528 423.186 666.536 C 423.426 667.083 423.666 667.669 423.714 667.842 C 423.772 668.006 424.041 668.611 424.329 669.168 C 424.617 669.735 424.857 670.235 424.857 670.273 C 424.857 670.321 425.059 670.715 425.309 671.147 C 425.549 671.589 425.876 672.185 426.02 672.473 C 426.174 672.762 426.491 673.3 426.731 673.674 C 426.962 674.039 427.202 674.453 427.259 674.578 C 427.317 674.702 427.586 675.135 427.865 675.538 C 428.134 675.942 428.412 676.336 428.46 676.422 C 428.518 676.509 428.749 676.855 428.989 677.181 C 429.229 677.518 429.556 677.979 429.719 678.219 C 429.892 678.459 430.132 678.767 430.267 678.901 C 430.401 679.045 430.613 679.314 430.738 679.497 C 431.208 680.189 434.139 683.465 435.244 684.541 C 436.589 685.838 439.356 688.259 439.702 688.442 C 439.808 688.5 440.029 688.663 440.182 688.807 C 440.499 689.095 442.901 690.825 442.988 690.825 C 443.017 690.825 443.305 691.017 443.632 691.238 C 443.949 691.468 444.41 691.766 444.65 691.901 C 444.89 692.035 445.476 692.381 445.957 692.679 C 446.437 692.986 446.889 693.227 446.956 693.227 C 447.023 693.227 447.158 693.284 447.235 693.352 C 447.504 693.592 451.443 695.533 451.635 695.533 C 451.693 695.533 452.221 695.744 452.826 696.003 C 453.432 696.263 454.162 696.551 454.45 696.638 C 454.738 696.734 455.68 697.041 456.535 697.329 C 457.39 697.618 458.293 697.887 458.553 697.935 C 458.803 697.983 459.686 698.194 460.503 698.396 C 462.482 698.895 463.107 699.001 467.325 699.549 C 468.42 699.693 479.796 699.702 598.426 699.731 C 690.067 699.76 728.739 699.741 729.719 699.664 C 732.669 699.453 736.022 698.934 738.319 698.357 C 739.058 698.165 739.923 697.954 740.24 697.887 C 740.557 697.819 741.403 697.56 742.114 697.31 C 742.825 697.07 743.641 696.801 743.92 696.724 C 744.208 696.647 744.89 696.388 745.448 696.147 C 746.005 695.907 746.726 695.619 747.043 695.494 C 748.205 695.043 751.818 693.227 752.923 692.525 C 753.24 692.324 753.807 691.987 754.172 691.766 C 754.546 691.555 754.931 691.295 755.036 691.209 C 755.142 691.113 755.402 690.94 755.613 690.825 C 755.824 690.709 756.218 690.45 756.478 690.258 C 758.716 688.605 759.985 687.625 759.985 687.548 C 759.985 687.51 760.1 687.414 760.234 687.337 C 760.984 686.943 764.462 683.532 766.355 681.332 C 766.681 680.957 767.133 680.438 767.344 680.179 C 767.834 679.622 769.16 677.863 769.535 677.277 C 769.689 677.037 769.938 676.701 770.092 676.518 C 770.246 676.345 770.428 676.086 770.486 675.942 C 770.553 675.807 770.851 675.327 771.159 674.885 C 771.457 674.433 771.706 674.03 771.706 673.991 C 771.706 673.943 771.898 673.617 772.119 673.261 C 772.907 672.06 774.973 667.871 775.357 666.709 C 775.473 666.363 775.598 666.036 775.636 665.988 C 775.895 665.642 777.365 661.194 777.654 659.887 C 777.75 659.435 777.98 658.398 778.173 657.581 C 778.672 655.39 778.912 653.642 779.201 650.183 C 779.258 649.481 779.297 601.951 779.297 519.946 C 779.297 406.524 779.277 390.613 779.153 389.181 C 779.076 388.278 778.989 387.442 778.96 387.308 C 778.932 387.173 778.874 386.607 778.816 386.04 C 778.72 384.944 778.422 383.349 777.952 381.351 C 777.788 380.688 777.615 379.929 777.558 379.67 C 777.5 379.401 777.212 378.478 776.933 377.613 C 776.645 376.758 776.414 376.009 776.414 375.961 C 776.414 375.855 775.761 374.203 775.463 373.549 C 775.357 373.299 775.261 373.04 775.261 372.973 C 775.261 372.857 774.377 370.907 773.868 369.917 C 772.984 368.188 772.552 367.391 772.225 366.852 C 772.023 366.516 771.726 366.017 771.562 365.738 C 771.12 364.979 770.553 364.105 770.025 363.365 C 769.766 362.99 769.468 362.548 769.372 362.385 C 769.266 362.221 769.074 361.952 768.93 361.799 C 768.776 361.635 768.478 361.261 768.257 360.953 C 766.499 358.532 763.136 354.996 760.513 352.825 C 760.033 352.431 759.408 351.902 759.12 351.662 C 758.832 351.422 758.438 351.124 758.255 351.018 C 758.073 350.903 757.823 350.721 757.698 350.605 C 757.583 350.49 757.217 350.221 756.881 349.99 C 756.555 349.76 755.997 349.376 755.651 349.135 C 755.296 348.885 754.979 348.684 754.94 348.684 C 754.902 348.684 754.594 348.492 754.258 348.251 C 753.922 348.011 753.48 347.733 753.288 347.646 C 753.086 347.55 752.731 347.348 752.49 347.204 C 752.25 347.05 751.558 346.666 750.953 346.349 C 750.348 346.032 749.608 345.657 749.32 345.503 C 748.57 345.11 746.322 344.13 745.525 343.841 C 745.159 343.716 744.4 343.428 743.843 343.226 C 742.748 342.813 739.942 341.958 738.943 341.728 C 734.831 340.796 733.14 340.536 729.912 340.325 C 728.086 340.209 470.275 340.219 468.526 340.334 Z M 667.748 438.307 C 671.533 438.403 672.033 438.442 675.963 438.961 C 680.584 439.566 682.659 439.941 686.051 440.786 C 692.45 442.391 698.09 444.783 702.99 447.992 C 711.973 453.882 717.93 462.596 720.438 473.559 C 720.784 475.058 721.303 478.036 721.572 480.025 C 721.783 481.63 721.793 481.976 721.793 487.519 C 721.793 492.554 721.774 493.505 721.62 494.629 C 720.669 501.778 719.372 506.486 716.998 511.299 C 715.375 514.585 713.29 517.669 711.051 520.129 L 710.292 520.946 L 711.272 522.031 C 716.47 527.796 719.814 535.406 721.255 544.735 C 721.793 548.223 721.793 548.194 721.793 554.391 C 721.793 560.588 721.793 560.569 721.255 564.047 C 720.342 569.937 718.766 574.885 716.355 579.362 C 714.356 583.1 712.252 585.896 709.197 588.884 C 706.372 591.651 703.835 593.534 700.223 595.581 C 694.698 598.694 687.886 600.999 680.43 602.277 C 678.019 602.69 675.031 603.084 671.879 603.411 C 669.929 603.603 669.583 603.613 626.914 603.68 C 603.268 603.719 561.147 603.757 533.322 603.767 C 483.015 603.776 482.726 603.776 481.977 603.584 C 481.112 603.363 480.622 603.094 479.95 602.498 C 479.325 601.931 478.816 601.172 478.547 600.413 L 478.326 599.789 L 478.297 588.115 C 478.268 575.231 478.249 575.673 478.864 574.491 C 479.508 573.261 480.911 572.214 482.304 571.916 C 482.842 571.801 495.14 571.782 565.999 571.772 C 611.685 571.772 652.711 571.733 657.179 571.685 L 665.298 571.609 L 666.691 571.32 C 673.186 569.937 676.164 567.391 677.846 561.789 C 678.538 559.474 678.749 557.667 678.739 554.247 C 678.73 551.941 678.691 551.23 678.528 550.144 C 677.807 545.417 676.116 542.093 673.407 540.075 C 671.793 538.874 669.746 538.057 666.768 537.423 L 665.106 537.068 L 574.166 536.991 C 514.827 536.933 482.967 536.876 482.477 536.818 C 481.429 536.683 480.632 536.28 479.815 535.473 C 479.018 534.685 478.71 534.166 478.47 533.186 C 478.278 532.446 478.278 532.168 478.297 520.715 L 478.326 508.993 L 478.547 508.369 C 479.114 506.735 480.632 505.409 482.265 505.112 C 482.678 505.035 506.9 504.987 567.536 504.948 C 614.116 504.919 655.219 504.862 658.86 504.814 L 665.49 504.737 L 666.912 504.439 C 674.262 502.892 677.529 499.183 678.614 491.122 C 678.701 490.488 678.739 489.22 678.739 487.423 C 678.73 485.117 678.701 484.464 678.528 483.273 C 678.067 480.198 677.192 477.71 675.905 475.826 C 673.858 472.848 670.275 471.003 665.154 470.311 C 664.673 470.254 633.88 470.187 573.733 470.129 C 510.715 470.062 482.832 470.004 482.371 469.937 C 480.69 469.677 479.143 468.351 478.547 466.67 L 478.326 466.045 L 478.297 454.324 C 478.278 442.871 478.278 442.592 478.47 441.853 C 478.71 440.873 479.018 440.354 479.815 439.566 C 480.517 438.874 481.237 438.471 482.102 438.269 C 482.554 438.163 499.319 438.153 573.301 438.182 C 626.827 438.201 665.509 438.259 667.748 438.307 Z" style="fill:white;fill-rule:nonzero;"/>
</svg>