<?xml version="1.0" encoding="UTF-8" standalone="no"?>
<!DOCTYPE svg PUBLIC "-//W3C//DTD SVG 1.1//EN" "http://www.w3.org/Graphics/SVG/1.1/DTD/svg11.dtd">
<svg width="100%" height="100%" viewBox="0 0 1200 1080" version="1.1" xmlns="http://www.w3.org/2000/svg" xmlns:xlink="http://www.w3.org/1999/xlink" xml:space="preserve" xmlns:serif="http://www.serif.com/" style="fill-rule:evenodd;clip-rule:evenodd;stroke-linejoin:round;stroke-miterlimit:2;">
    <rect id="Artboard1" x="0" y="0" width="1200" height="1080" style="fill:none;"/>
    <g id="Artboard11" serif:id="Artboard1">
        <g transform="matrix(1,0,0,1.09091,-720,207.273)">
            <rect x="720" y="-190" width="1200" height="990" style="fill:rgb(46,46,46);"/>
        </g>
        <g transform="matrix(0.707107,-0.707107,0.707107,0.707107,-575.938,-155.145)">
            <path d="M-466.129,1280.63L207,607.5L207,1953.76L-466.129,1280.63Z" style="fill:rgb(51,51,51);"/>
        </g>
        <g id="rpcs3.svg">
            <g transform="matrix(1,0,0,1,17.8621,-41.6765)">
                <path d="M514.017,840.419L514.017,805.99L526.743,805.99C528.478,805.99 529.982,806.068 531.255,806.224C532.529,806.38 533.74,806.665 534.888,807.08C536.036,807.494 536.966,808.052 537.677,808.755C538.388,809.458 538.95,810.376 539.365,811.509C539.779,812.642 539.986,813.982 539.986,815.529C539.986,820.091 537.915,823.091 533.775,824.529C534.618,825.482 535.665,827.247 536.915,829.826L542.025,840.419L535.087,840.419L531.079,831.443C529.564,828.224 528.626,826.318 528.267,825.724C528.001,825.708 527.118,825.701 525.618,825.701L520.298,825.654L520.298,840.419L514.017,840.419ZM527.306,821.107C529.743,821.107 531.493,820.673 532.556,819.806C533.618,818.939 534.15,817.544 534.15,815.622C534.15,813.935 533.611,812.693 532.532,811.896C531.454,811.099 529.806,810.701 527.587,810.701L520.298,810.701L520.298,821.083C520.532,821.083 521.697,821.087 523.79,821.095C525.884,821.103 527.056,821.107 527.306,821.107Z" style="fill:white;fill-rule:nonzero;"/>
                <path d="M546.431,840.419L546.431,805.99L557.868,805.99C560.572,805.99 562.884,806.337 564.806,807.033C566.728,807.728 568.247,808.857 569.365,810.419C570.482,811.982 571.04,813.943 571.04,816.302C571.04,817.943 570.829,819.4 570.407,820.673C569.986,821.947 569.29,823.103 568.322,824.142C567.353,825.181 565.99,825.982 564.232,826.544C562.474,827.107 560.353,827.388 557.868,827.388C555.743,827.388 554.017,827.326 552.689,827.201L552.689,840.419L546.431,840.419ZM557.189,822.794C558.486,822.794 559.615,822.669 560.575,822.419C561.536,822.169 562.286,821.849 562.825,821.458C563.365,821.068 563.794,820.583 564.115,820.005C564.435,819.427 564.646,818.869 564.747,818.33C564.849,817.79 564.9,817.185 564.9,816.513C564.9,814.622 564.29,813.185 563.072,812.201C561.853,811.216 560.134,810.724 557.915,810.724L552.689,810.724L552.689,822.747C552.876,822.779 554.376,822.794 557.189,822.794Z" style="fill:white;fill-rule:nonzero;"/>
                <path d="M590.751,840.912C585.736,840.912 581.759,839.333 578.822,836.177C575.884,833.021 574.415,828.662 574.415,823.099C574.415,817.818 575.95,813.58 579.021,810.384C582.091,807.189 586.111,805.591 591.079,805.591C595.095,805.591 598.493,806.521 601.275,808.38L599.282,813.185C596.611,811.544 593.923,810.724 591.22,810.724C588.064,810.724 585.568,811.861 583.732,814.134C581.896,816.408 580.978,819.458 580.978,823.287C580.978,827.255 581.865,830.326 583.638,832.497C585.411,834.669 587.939,835.755 591.22,835.755C594.095,835.755 596.947,835.037 599.775,833.599L600.618,838.568C597.993,840.13 594.704,840.912 590.751,840.912Z" style="fill:white;fill-rule:nonzero;"/>
                <path d="M615.9,840.888C611.759,840.888 608.048,839.935 604.767,838.029L606.314,832.99C607.782,833.802 609.38,834.458 611.107,834.958C612.833,835.458 614.517,835.708 616.157,835.708C618.173,835.708 619.697,835.275 620.728,834.408C621.759,833.54 622.275,832.294 622.275,830.669C622.275,828.513 620.837,827.021 617.962,826.193C617.759,826.13 617.189,825.962 616.251,825.689C615.314,825.415 614.435,825.15 613.615,824.892C612.794,824.634 612.204,824.435 611.845,824.294C607.236,822.669 604.931,819.638 604.931,815.201C604.931,812.091 606.036,809.693 608.247,808.005C610.458,806.318 613.392,805.474 617.048,805.474C621.189,805.474 624.759,806.326 627.759,808.029L625.837,812.669C622.775,811.294 619.931,810.607 617.306,810.607C615.415,810.607 613.99,810.939 613.029,811.603C612.068,812.267 611.556,813.372 611.493,814.919C611.493,816.826 612.439,818.068 614.329,818.646C614.704,818.787 615.626,819.091 617.095,819.56C618.564,820.029 619.517,820.333 619.954,820.474C623.095,821.505 625.341,822.787 626.693,824.318C628.044,825.849 628.72,827.982 628.72,830.716C628.72,833.982 627.564,836.494 625.251,838.251C622.939,840.009 619.822,840.888 615.9,840.888Z" style="fill:white;fill-rule:nonzero;"/>
                <path d="M641.798,840.912C639.782,840.912 637.888,840.65 636.115,840.126C634.341,839.603 632.939,838.896 631.907,838.005L633.595,833.576C634.454,834.294 635.642,834.884 637.157,835.345C638.673,835.806 640.228,836.037 641.822,836.037C643.618,836.037 645.068,835.552 646.169,834.583C647.271,833.615 647.822,832.349 647.822,830.787C647.822,829.818 647.669,828.982 647.365,828.279C647.06,827.576 646.657,827.013 646.157,826.591C645.657,826.169 644.99,825.83 644.154,825.572C643.318,825.314 642.462,825.138 641.587,825.044C640.712,824.951 639.657,824.896 638.423,824.88C638.376,824.88 638.15,824.876 637.743,824.869C637.337,824.861 637.111,824.857 637.064,824.857L637.064,820.122L638.376,820.122C639.736,820.122 640.904,820.052 641.88,819.912C642.857,819.771 643.763,819.529 644.599,819.185C645.435,818.841 646.068,818.333 646.497,817.662C646.927,816.99 647.142,816.162 647.142,815.177C647.142,813.849 646.642,812.716 645.642,811.779C644.642,810.841 643.236,810.372 641.423,810.372C638.486,810.372 635.868,811.107 633.572,812.576L631.884,808.122C634.728,806.372 638.103,805.497 642.009,805.497C645.275,805.497 647.943,806.357 650.013,808.076C652.083,809.794 653.118,811.997 653.118,814.685C653.118,816.56 652.638,818.158 651.677,819.478C650.716,820.798 649.322,821.763 647.493,822.372C649.587,822.779 651.208,823.787 652.357,825.396C653.505,827.005 654.079,828.904 654.079,831.091C654.079,833.169 653.525,834.962 652.415,836.47C651.306,837.978 649.837,839.095 648.009,839.822C646.181,840.548 644.111,840.912 641.798,840.912Z" style="fill:white;fill-rule:nonzero;"/>
            </g>
            <g id="RPCS3" transform="matrix(0.00960768,-4.99319e-34,4.99319e-34,-0.00960768,402.663,716.478)">
                <path d="M6855,39149C6572,39129 6418,39108 6140,39049C5927,39004 5839,38982 5705,38940C5639,38919 5558,38894 5525,38885C5492,38876 5411,38846 5344,38819C5277,38792 5217,38770 5210,38770C5203,38770 5141,38743 5073,38710C5004,38677 4943,38650 4938,38650C4923,38650 4560,38461 4513,38429C4490,38413 4467,38400 4462,38400C4457,38400 4430,38385 4404,38367C4377,38348 4317,38310 4270,38282C4223,38254 4175,38222 4162,38210C4149,38198 4122,38179 4102,38167C3994,38104 3672,37847 3530,37710C3504,37685 3448,37631 3404,37590C3322,37513 3205,37390 3110,37281C3080,37246 3037,37197 3014,37171C2963,37113 2806,36910 2792,36884C2786,36873 2763,36842 2741,36815C2718,36788 2693,36751 2685,36733C2676,36716 2659,36688 2646,36673C2634,36658 2599,36605 2570,36555C2541,36506 2511,36458 2504,36450C2489,36431 2368,36213 2333,36140C2318,36110 2285,36042 2259,35990C2233,35938 2201,35866 2187,35830C2173,35794 2150,35738 2135,35705C2103,35635 2010,35375 1969,35240C1927,35099 1842,34765 1830,34690C1772,34325 1756,34199 1740,34006C1733,33919 1730,29515 1730,20446C1730,5961 1727,6907 1779,6550C1815,6301 1821,6265 1840,6166C1888,5917 2044,5407 2136,5198C2161,5141 2186,5080 2191,5062C2197,5045 2225,4982 2255,4924C2285,4865 2310,4813 2310,4809C2310,4804 2331,4763 2357,4718C2382,4672 2416,4610 2431,4580C2447,4550 2480,4494 2505,4455C2529,4417 2554,4374 2560,4361C2566,4348 2594,4303 2623,4261C2651,4219 2680,4178 2685,4169C2691,4160 2715,4124 2740,4090C2765,4055 2799,4007 2816,3982C2834,3957 2859,3925 2873,3911C2887,3896 2909,3868 2922,3849C2971,3777 3276,3436 3391,3324C3531,3189 3819,2937 3855,2918C3866,2912 3889,2895 3905,2880C3938,2850 4188,2670 4197,2670C4200,2670 4230,2650 4264,2627C4297,2603 4345,2572 4370,2558C4395,2544 4456,2508 4506,2477C4556,2445 4603,2420 4610,2420C4617,2420 4631,2414 4639,2407C4667,2382 5077,2180 5097,2180C5103,2180 5158,2158 5221,2131C5284,2104 5360,2074 5390,2065C5420,2055 5518,2023 5607,1993C5696,1963 5790,1935 5817,1930C5843,1925 5935,1903 6020,1882C6226,1830 6291,1819 6730,1762C6844,1747 8028,1746 20375,1743C29913,1740 33938,1742 34040,1750C34347,1772 34696,1826 34935,1886C35012,1906 35102,1928 35135,1935C35168,1942 35256,1969 35330,1995C35404,2020 35489,2048 35518,2056C35548,2064 35619,2091 35677,2116C35735,2141 35810,2171 35843,2184C35964,2231 36340,2420 36455,2493C36488,2514 36547,2549 36585,2572C36624,2594 36664,2621 36675,2630C36686,2640 36713,2658 36735,2670C36757,2682 36798,2709 36825,2729C37058,2901 37190,3003 37190,3011C37190,3015 37202,3025 37216,3033C37294,3074 37656,3429 37853,3658C37887,3697 37934,3751 37956,3778C38007,3836 38145,4019 38184,4080C38200,4105 38226,4140 38242,4159C38258,4177 38277,4204 38283,4219C38290,4233 38321,4283 38353,4329C38384,4376 38410,4418 38410,4422C38410,4427 38430,4461 38453,4498C38535,4623 38750,5059 38790,5180C38802,5216 38815,5250 38819,5255C38846,5291 38999,5754 39029,5890C39039,5937 39063,6045 39083,6130C39135,6358 39160,6540 39190,6900C39196,6973 39200,11920 39200,20455C39200,32260 39198,33916 39185,34065C39177,34159 39168,34246 39165,34260C39162,34274 39156,34333 39150,34392C39140,34506 39109,34672 39060,34880C39043,34949 39025,35028 39019,35055C39013,35083 38983,35179 38954,35269C38924,35358 38900,35436 38900,35441C38900,35452 38832,35624 38801,35692C38790,35718 38780,35745 38780,35752C38780,35764 38688,35967 38635,36070C38543,36250 38498,36333 38464,36389C38443,36424 38412,36476 38395,36505C38349,36584 38290,36675 38235,36752C38208,36791 38177,36837 38167,36854C38156,36871 38136,36899 38121,36915C38105,36932 38074,36971 38051,37003C37868,37255 37518,37623 37245,37849C37195,37890 37130,37945 37100,37970C37070,37995 37029,38026 37010,38037C36991,38049 36965,38068 36952,38080C36940,38092 36902,38120 36867,38144C36833,38168 36775,38208 36739,38233C36702,38259 36669,38280 36665,38280C36661,38280 36629,38300 36594,38325C36559,38350 36513,38379 36493,38388C36472,38398 36435,38419 36410,38434C36385,38450 36313,38490 36250,38523C36187,38556 36110,38595 36080,38611C36002,38652 35768,38754 35685,38784C35647,38797 35568,38827 35510,38848C35396,38891 35104,38980 35000,39004C34572,39101 34396,39128 34060,39150C33870,39162 7037,39161 6855,39149ZM27590,28952C27984,28942 28036,28938 28445,28884C28926,28821 29142,28782 29495,28694C30161,28527 30748,28278 31258,27944C32193,27331 32813,26424 33074,25283C33110,25127 33164,24817 33192,24610C33214,24443 33215,24407 33215,23830C33215,23306 33213,23207 33197,23090C33098,22346 32963,21856 32716,21355C32547,21013 32330,20692 32097,20436L32018,20351L32120,20238C32661,19638 33009,18846 33159,17875C33215,17512 33215,17515 33215,16870C33215,16225 33215,16227 33159,15865C33064,15252 32900,14737 32649,14271C32441,13882 32222,13591 31904,13280C31610,12992 31346,12796 30970,12583C30395,12259 29686,12019 28910,11886C28659,11843 28348,11802 28020,11768C27817,11748 27781,11747 23340,11740C20879,11736 16495,11732 13599,11731C8363,11730 8333,11730 8255,11750C8165,11773 8114,11801 8044,11863C7979,11922 7926,12001 7898,12080L7875,12145L7872,13360C7869,14701 7867,14655 7931,14778C7998,14906 8144,15015 8289,15046C8345,15058 9625,15060 17000,15061C21755,15061 26025,15065 26490,15070L27335,15078L27480,15108C28156,15252 28466,15517 28641,16100C28713,16341 28735,16529 28734,16885C28733,17125 28729,17199 28712,17312C28637,17804 28461,18150 28179,18360C28011,18485 27798,18570 27488,18636L27315,18673L17850,18681C11674,18687 8358,18693 8307,18699C8198,18713 8115,18755 8030,18839C7947,18921 7915,18975 7890,19077C7870,19154 7870,19183 7872,20375L7875,21595L7898,21660C7957,21830 8115,21968 8285,21999C8328,22007 10849,22012 17160,22016C22008,22019 26286,22025 26665,22030L27355,22038L27503,22069C28268,22230 28608,22616 28721,23455C28730,23521 28734,23653 28734,23840C28733,24080 28730,24148 28712,24272C28664,24592 28573,24851 28439,25047C28226,25357 27853,25549 27320,25621C27270,25627 24065,25634 17805,25640C11246,25647 8344,25653 8296,25660C8121,25687 7960,25825 7898,26000L7875,26065L7872,27285C7870,28477 7870,28506 7890,28583C7915,28685 7947,28739 8030,28821C8103,28893 8178,28935 8268,28956C8315,28967 10060,28968 17760,28965C23331,28963 27357,28957 27590,28952Z" style="fill:white;fill-rule:nonzero;"/>
            </g>
        </g>
    </g>
</svg>
