<?xml version="1.0" encoding="UTF-8" standalone="no"?>
<!DOCTYPE svg PUBLIC "-//W3C//DTD SVG 1.1//EN" "http://www.w3.org/Graphics/SVG/1.1/DTD/svg11.dtd">
<svg width="100%" height="100%" viewBox="0 0 1200 1080" version="1.1" xmlns="http://www.w3.org/2000/svg" xmlns:xlink="http://www.w3.org/1999/xlink" xml:space="preserve" xmlns:serif="http://www.serif.com/" style="fill-rule:evenodd;clip-rule:evenodd;stroke-linejoin:round;stroke-miterlimit:2;">
    <rect id="Artboard1" x="0" y="0" width="1200" height="1080" style="fill:none;"/>
    <g id="Artboard11" serif:id="Artboard1">
        <g transform="matrix(1,0,0,1.09091,-720,207.273)">
            <rect x="720" y="-190" width="1200" height="990" style="fill:rgb(46,46,46);"/>
        </g>
        <g transform="matrix(0.707107,-0.707107,0.707107,0.707107,-575.938,-155.145)">
            <path d="M-466.129,1280.63L207,607.5L207,1953.76L-466.129,1280.63Z" style="fill:rgb(51,51,51);"/>
        </g>
        <g id="scummvm.svg">
            <g id="path300" transform="matrix(0.706381,0,0,0.706381,365.517,279.096)">
                <path d="M326.052,72.063C367.932,72.063 405.504,79.661 438.756,94.836C472.008,110.021 503.556,132.534 533.4,162.362L488.22,230.904C485.592,234.893 481.507,236.982 477.311,236.982C474.284,236.982 471.199,235.894 468.564,233.646C467.996,233.162 457.212,223.98 444.648,215.99C432.083,208.025 419.772,201.218 407.736,195.545C395.688,189.897 384.432,185.642 373.956,182.818C363.48,179.993 354.324,178.564 346.475,178.564C337.044,178.564 330.096,180.88 325.656,185.512C321.204,190.145 318.984,196.054 318.984,203.262C318.984,212.516 324.348,221.144 335.087,229.12C345.803,237.097 359.292,245.321 375.527,253.818C393.096,263.048 410.52,272.562 427.764,282.37C446.34,292.924 463.751,305.662 479.988,320.577C496.224,335.514 509.712,353.394 520.452,374.229C531.18,395.064 536.556,419.893 536.556,448.704C536.556,476.488 530.664,500.549 518.88,520.862C507.096,541.201 491.784,557.912 472.932,571.041C454.092,584.158 432.732,593.932 408.924,600.373C385.092,606.789 361.128,610.016 337.056,610.016C288.876,610.016 248.424,601.258 215.7,583.781C182.976,566.29 153.528,539.784 127.344,504.284L183.144,434.913C185.816,431.597 189.447,429.925 193.097,429.925C196.511,429.925 199.941,431.388 202.62,434.334C202.94,434.686 209.028,441.377 220.032,449.874C231.168,458.465 243.144,465.957 255.768,472.245C268.38,478.604 281.508,483.897 295.032,488.069C308.388,492.205 320.82,494.249 332.34,494.249C343.848,494.249 352.632,492.193 358.656,488.069C364.668,483.956 367.691,476.24 367.691,464.918C367.691,455.145 362.303,445.892 351.587,437.134C340.848,428.39 327.492,419.266 311.52,409.729C295.548,400.217 278.268,389.936 259.68,378.849C241.032,367.741 223.644,354.682 207.852,339.888C191.868,324.973 178.524,307.849 167.784,288.562C157.056,269.264 151.692,247.012 151.692,221.793C151.692,197.093 156.396,175.49 165.828,156.973C175.248,138.442 187.944,122.891 203.916,110.269C219.888,97.672 238.344,88.159 259.284,81.719C280.224,75.289 302.484,72.063 326.052,72.063" style="fill:white;fill-rule:nonzero;"/>
            </g>
            <g transform="matrix(1,0,0,1,17.8621,-41.6765)">
                <path d="M475.333,840.888C471.193,840.888 467.482,839.935 464.2,838.029L465.747,832.99C467.216,833.802 468.814,834.458 470.54,834.958C472.267,835.458 473.95,835.708 475.591,835.708C477.607,835.708 479.13,835.275 480.161,834.408C481.193,833.54 481.708,832.294 481.708,830.669C481.708,828.513 480.271,827.021 477.396,826.193C477.193,826.13 476.622,825.962 475.685,825.689C474.747,825.415 473.868,825.15 473.048,824.892C472.228,824.634 471.638,824.435 471.279,824.294C466.669,822.669 464.365,819.638 464.365,815.201C464.365,812.091 465.47,809.693 467.681,808.005C469.892,806.318 472.825,805.474 476.482,805.474C480.622,805.474 484.193,806.326 487.193,808.029L485.271,812.669C482.208,811.294 479.365,810.607 476.74,810.607C474.849,810.607 473.423,810.939 472.462,811.603C471.501,812.267 470.99,813.372 470.927,814.919C470.927,816.826 471.872,818.068 473.763,818.646C474.138,818.787 475.06,819.091 476.529,819.56C477.997,820.029 478.95,820.333 479.388,820.474C482.529,821.505 484.775,822.787 486.126,824.318C487.478,825.849 488.154,827.982 488.154,830.716C488.154,833.982 486.997,836.494 484.685,838.251C482.372,840.009 479.255,840.888 475.333,840.888Z" style="fill:white;fill-rule:nonzero;"/>
                <path d="M504.255,840.912C500.318,840.912 497.251,839.74 495.056,837.396C492.861,835.052 491.763,831.701 491.763,827.341C491.763,823.122 492.915,819.849 495.22,817.521C497.525,815.193 500.56,814.029 504.325,814.029C507.341,814.029 509.888,814.677 511.966,815.974L510.513,820.357C508.388,819.247 506.411,818.693 504.583,818.693C502.505,818.693 500.868,819.435 499.673,820.919C498.478,822.404 497.88,824.568 497.88,827.412C497.88,830.287 498.47,832.474 499.65,833.974C500.829,835.474 502.497,836.224 504.654,836.224C506.904,836.224 509.068,835.56 511.146,834.232L511.732,838.896C510.654,839.615 509.536,840.13 508.38,840.443C507.224,840.755 505.849,840.912 504.255,840.912Z" style="fill:white;fill-rule:nonzero;"/>
                <path d="M535.193,838.404C533.146,840.076 530.45,840.912 527.107,840.912C523.763,840.912 521.072,840.076 519.032,838.404C516.993,836.732 515.974,834.279 515.974,831.044L515.974,814.662L522.138,814.662L522.138,830.81C522.138,832.732 522.54,834.122 523.345,834.982C524.15,835.841 525.427,836.271 527.177,836.271C528.896,836.271 530.15,835.845 530.939,834.994C531.728,834.142 532.122,832.747 532.122,830.81L532.122,814.662L538.263,814.662L538.263,831.044C538.263,834.263 537.24,836.716 535.193,838.404Z" style="fill:white;fill-rule:nonzero;"/>
                <path d="M543.865,840.419L543.865,814.662L548.833,814.662L549.536,817.943C549.849,817.552 550.15,817.205 550.439,816.9C550.728,816.595 551.126,816.251 551.634,815.869C552.142,815.486 552.681,815.169 553.251,814.919C553.822,814.669 554.525,814.458 555.361,814.287C556.197,814.115 557.091,814.029 558.044,814.029C560.091,814.029 561.728,814.443 562.954,815.271C564.181,816.099 565.044,817.068 565.544,818.177C566.466,816.849 567.661,815.826 569.13,815.107C570.599,814.388 572.232,814.029 574.029,814.029C576.982,814.029 579.15,814.865 580.532,816.537C581.915,818.208 582.607,820.685 582.607,823.966L582.607,840.419L576.443,840.419L576.443,825.794C576.443,823.279 576.165,821.462 575.611,820.345C575.056,819.228 573.997,818.669 572.435,818.669C570.044,818.669 568.325,819.747 567.279,821.904C566.841,822.857 566.544,824.005 566.388,825.349L566.388,840.419L560.247,840.419L560.247,825.513C560.247,823.216 559.943,821.505 559.333,820.38C558.724,819.255 557.622,818.693 556.029,818.693C554.732,818.693 553.615,819.021 552.677,819.677C551.74,820.333 551.029,821.193 550.544,822.255C550.185,823.833 550.005,825.724 550.005,827.927L550.005,840.419L543.865,840.419Z" style="fill:white;fill-rule:nonzero;"/>
                <path d="M588.654,840.419L588.654,814.662L593.622,814.662L594.325,817.943C594.638,817.552 594.939,817.205 595.228,816.9C595.517,816.595 595.915,816.251 596.423,815.869C596.931,815.486 597.47,815.169 598.04,814.919C598.611,814.669 599.314,814.458 600.15,814.287C600.986,814.115 601.88,814.029 602.833,814.029C604.88,814.029 606.517,814.443 607.743,815.271C608.97,816.099 609.833,817.068 610.333,818.177C611.255,816.849 612.45,815.826 613.919,815.107C615.388,814.388 617.021,814.029 618.818,814.029C621.771,814.029 623.939,814.865 625.322,816.537C626.704,818.208 627.396,820.685 627.396,823.966L627.396,840.419L621.232,840.419L621.232,825.794C621.232,823.279 620.954,821.462 620.4,820.345C619.845,819.228 618.786,818.669 617.224,818.669C614.833,818.669 613.115,819.747 612.068,821.904C611.63,822.857 611.333,824.005 611.177,825.349L611.177,840.419L605.036,840.419L605.036,825.513C605.036,823.216 604.732,821.505 604.122,820.38C603.513,819.255 602.411,818.693 600.818,818.693C599.521,818.693 598.404,819.021 597.466,819.677C596.529,820.333 595.818,821.193 595.333,822.255C594.974,823.833 594.794,825.724 594.794,827.927L594.794,840.419L588.654,840.419Z" style="fill:white;fill-rule:nonzero;"/>
                <path d="M642.677,840.419L630.185,806.083L636.724,806.083L643.99,827.294C644.271,828.029 644.919,830.177 645.935,833.74C645.997,833.49 646.286,832.462 646.802,830.658C647.318,828.853 647.654,827.747 647.81,827.341C647.997,826.81 649.185,823.283 651.372,816.759C653.56,810.236 654.755,806.677 654.958,806.083L661.427,806.083L649.099,840.419L642.677,840.419Z" style="fill:white;fill-rule:nonzero;"/>
                <path d="M664.732,840.419L664.732,806.083L672.232,806.083L682.615,830.88L693.068,806.083L700.474,806.083L700.474,840.419L694.615,840.419L694.615,823.451L694.802,813.724L693.935,816.302L685.146,838.076L679.708,838.076L671.107,816.185L670.24,813.607L670.45,823.544L670.45,840.419L664.732,840.419Z" style="fill:white;fill-rule:nonzero;"/>
            </g>
        </g>
    </g>
</svg>
