<?xml version="1.0" encoding="utf-8"?>
<svg width="100%" height="100%" viewBox="0 0 1200 1080" version="1.1" xmlns="http://www.w3.org/2000/svg" style="fill-rule:evenodd;clip-rule:evenodd;stroke-linejoin:round;stroke-miterlimit:2;">
  <path d="M 0 0 H 1200 V 1080.001 H 0 V 0 Z" style="fill:rgb(46,46,46);"/>
  <path d="M -98.576 842.013 L 574.553 168.883 L 574.553 1515.144 L -98.576 842.013 Z" style="fill: rgb(51, 51, 51); transform-box: fill-box; transform-origin: 50% 50%;" transform="matrix(0.707107, -0.707107, 0.707107, 0.707107, -0.000006, -0.000008)"/>
  <path d="M 595.834 330 C 625.417 330 651.957 335.367 675.446 346.086 C 698.934 356.813 721.219 372.715 742.301 393.785 L 710.386 442.202 C 708.53 445.02 705.644 446.496 702.68 446.496 C 700.542 446.496 698.363 445.727 696.502 444.139 C 696.1 443.797 688.483 437.311 679.608 431.667 C 670.732 426.041 662.036 421.233 653.534 417.225 C 645.023 413.236 637.072 410.23 629.672 408.235 C 622.272 406.24 615.805 405.23 610.26 405.23 C 603.598 405.23 598.69 406.866 595.554 410.138 C 592.409 413.411 590.841 417.585 590.841 422.676 C 590.841 429.213 594.63 435.308 602.216 440.942 C 609.786 446.577 619.314 452.386 630.782 458.388 C 643.192 464.908 655.5 471.629 667.681 478.557 C 680.803 486.012 693.102 495.01 704.571 505.545 C 716.04 516.097 725.568 528.727 733.154 543.444 C 740.732 558.162 744.53 575.7 744.53 596.052 C 744.53 615.678 740.368 632.674 732.044 647.023 C 723.72 661.39 712.904 673.194 699.587 682.468 C 686.279 691.734 671.191 698.638 654.373 703.188 C 637.539 707.72 620.611 710 603.607 710 C 569.573 710 540.999 703.813 517.883 691.468 C 494.768 679.112 473.966 660.389 455.47 635.313 L 494.886 586.31 C 496.774 583.968 499.339 582.787 501.917 582.787 C 504.329 582.787 506.751 583.82 508.644 585.901 C 508.87 586.15 513.17 590.876 520.943 596.878 C 528.81 602.947 537.269 608.239 546.187 612.681 C 555.095 617.173 564.369 620.912 573.922 623.859 C 583.356 626.78 592.138 628.224 600.276 628.224 C 608.405 628.224 614.609 626.772 618.865 623.859 C 623.111 620.953 625.247 615.503 625.247 607.505 C 625.247 600.602 621.441 594.066 613.871 587.879 C 606.285 581.702 596.851 575.257 585.569 568.521 C 574.286 561.802 562.08 554.539 548.95 546.708 C 535.777 538.861 523.495 529.637 512.34 519.186 C 501.049 508.651 491.623 496.555 484.036 482.931 C 476.458 469.299 472.669 453.581 472.669 435.766 C 472.669 418.319 475.992 403.059 482.655 389.979 C 489.309 376.889 498.277 365.904 509.559 356.988 C 520.842 348.09 533.879 341.37 548.67 336.821 C 563.462 332.279 579.186 330 595.834 330" style="fill:white;fill-rule:nonzero;"/>
  <path d="M 493.195 799.212 C 489.055 799.212 485.344 798.259 482.062 796.353 L 483.609 791.314 C 485.078 792.126 486.676 792.782 488.402 793.282 C 490.129 793.782 491.812 794.032 493.453 794.032 C 495.469 794.032 496.992 793.599 498.023 792.732 C 499.055 791.864 499.57 790.618 499.57 788.993 C 499.57 786.837 498.133 785.345 495.258 784.517 C 495.055 784.454 494.484 784.286 493.547 784.013 C 492.609 783.739 491.73 783.474 490.91 783.216 C 490.09 782.958 489.5 782.759 489.141 782.618 C 484.531 780.993 482.227 777.962 482.227 773.525 C 482.227 770.415 483.332 768.017 485.543 766.329 C 487.754 764.642 490.687 763.798 494.344 763.798 C 498.484 763.798 502.055 764.65 505.055 766.353 L 503.133 770.993 C 500.07 769.618 497.227 768.931 494.602 768.931 C 492.711 768.931 491.285 769.263 490.324 769.927 C 489.363 770.591 488.852 771.696 488.789 773.243 C 488.789 775.15 489.734 776.392 491.625 776.97 C 492 777.111 492.922 777.415 494.391 777.884 C 495.859 778.353 496.812 778.657 497.25 778.798 C 500.391 779.829 502.637 781.111 503.988 782.642 C 505.34 784.173 506.016 786.306 506.016 789.04 C 506.016 792.306 504.859 794.818 502.547 796.575 C 500.234 798.333 497.117 799.212 493.195 799.212 Z" style="fill:white;fill-rule:nonzero;"/>
  <path d="M 522.117 799.236 C 518.18 799.236 515.113 798.064 512.918 795.72 C 510.723 793.376 509.625 790.025 509.625 785.665 C 509.625 781.446 510.777 778.173 513.082 775.845 C 515.387 773.517 518.422 772.353 522.187 772.353 C 525.203 772.353 527.75 773.001 529.828 774.298 L 528.375 778.681 C 526.25 777.571 524.273 777.017 522.445 777.017 C 520.367 777.017 518.73 777.759 517.535 779.243 C 516.34 780.728 515.742 782.892 515.742 785.736 C 515.742 788.611 516.332 790.798 517.512 792.298 C 518.691 793.798 520.359 794.548 522.516 794.548 C 524.766 794.548 526.93 793.884 529.008 792.556 L 529.594 797.22 C 528.516 797.939 527.398 798.454 526.242 798.767 C 525.086 799.079 523.711 799.236 522.117 799.236 Z" style="fill:white;fill-rule:nonzero;"/>
  <path d="M 553.055 796.728 C 551.008 798.4 548.312 799.236 544.969 799.236 C 541.625 799.236 538.934 798.4 536.894 796.728 C 534.855 795.056 533.836 792.603 533.836 789.368 L 533.836 772.986 L 540 772.986 L 540 789.134 C 540 791.056 540.402 792.446 541.207 793.306 C 542.012 794.165 543.289 794.595 545.039 794.595 C 546.758 794.595 548.012 794.169 548.801 793.318 C 549.59 792.466 549.984 791.071 549.984 789.134 L 549.984 772.986 L 556.125 772.986 L 556.125 789.368 C 556.125 792.587 555.102 795.04 553.055 796.728 Z" style="fill:white;fill-rule:nonzero;"/>
  <path d="M 561.727 798.743 L 561.727 772.986 L 566.695 772.986 L 567.398 776.267 C 567.711 775.876 568.012 775.529 568.301 775.224 C 568.59 774.919 568.988 774.575 569.496 774.193 C 570.004 773.81 570.543 773.493 571.113 773.243 C 571.684 772.993 572.387 772.782 573.223 772.611 C 574.059 772.439 574.953 772.353 575.906 772.353 C 577.953 772.353 579.59 772.767 580.816 773.595 C 582.043 774.423 582.906 775.392 583.406 776.501 C 584.328 775.173 585.523 774.15 586.992 773.431 C 588.461 772.712 590.094 772.353 591.891 772.353 C 594.844 772.353 597.012 773.189 598.394 774.861 C 599.777 776.532 600.469 779.009 600.469 782.29 L 600.469 798.743 L 594.305 798.743 L 594.305 784.118 C 594.305 781.603 594.027 779.786 593.473 778.669 C 592.918 777.552 591.859 776.993 590.297 776.993 C 587.906 776.993 586.187 778.071 585.141 780.228 C 584.703 781.181 584.406 782.329 584.25 783.673 L 584.25 798.743 L 578.109 798.743 L 578.109 783.837 C 578.109 781.54 577.805 779.829 577.195 778.704 C 576.586 777.579 575.484 777.017 573.891 777.017 C 572.594 777.017 571.477 777.345 570.539 778.001 C 569.602 778.657 568.891 779.517 568.406 780.579 C 568.047 782.157 567.867 784.048 567.867 786.251 L 567.867 798.743 L 561.727 798.743 Z" style="fill:white;fill-rule:nonzero;"/>
  <path d="M 606.516 798.743 L 606.516 772.986 L 611.484 772.986 L 612.187 776.267 C 612.5 775.876 612.801 775.529 613.09 775.224 C 613.379 774.919 613.777 774.575 614.285 774.193 C 614.793 773.81 615.332 773.493 615.902 773.243 C 616.473 772.993 617.176 772.782 618.012 772.611 C 618.848 772.439 619.742 772.353 620.695 772.353 C 622.742 772.353 624.379 772.767 625.605 773.595 C 626.832 774.423 627.695 775.392 628.195 776.501 C 629.117 775.173 630.312 774.15 631.781 773.431 C 633.25 772.712 634.883 772.353 636.68 772.353 C 639.633 772.353 641.801 773.189 643.184 774.861 C 644.566 776.532 645.258 779.009 645.258 782.29 L 645.258 798.743 L 639.094 798.743 L 639.094 784.118 C 639.094 781.603 638.816 779.786 638.262 778.669 C 637.707 777.552 636.648 776.993 635.086 776.993 C 632.695 776.993 630.977 778.071 629.93 780.228 C 629.492 781.181 629.195 782.329 629.039 783.673 L 629.039 798.743 L 622.898 798.743 L 622.898 783.837 C 622.898 781.54 622.594 779.829 621.984 778.704 C 621.375 777.579 620.273 777.017 618.68 777.017 C 617.383 777.017 616.266 777.345 615.328 778.001 C 614.391 778.657 613.68 779.517 613.195 780.579 C 612.836 782.157 612.656 784.048 612.656 786.251 L 612.656 798.743 L 606.516 798.743 Z" style="fill:white;fill-rule:nonzero;"/>
  <path d="M 660.539 798.743 L 648.047 764.407 L 654.586 764.407 L 661.852 785.618 C 662.133 786.353 662.781 788.501 663.797 792.064 C 663.859 791.814 664.148 790.786 664.664 788.982 C 665.18 787.177 665.516 786.071 665.672 785.665 C 665.859 785.134 667.047 781.607 669.234 775.083 C 671.422 768.56 672.617 765.001 672.82 764.407 L 679.289 764.407 L 666.961 798.743 L 660.539 798.743 Z" style="fill:white;fill-rule:nonzero;"/>
  <path d="M 682.594 798.743 L 682.594 764.407 L 690.094 764.407 L 700.477 789.204 L 710.93 764.407 L 718.336 764.407 L 718.336 798.743 L 712.477 798.743 L 712.477 781.775 L 712.664 772.048 L 711.797 774.626 L 703.008 796.4 L 697.57 796.4 L 688.969 774.509 L 688.102 771.931 L 688.312 781.868 L 688.312 798.743 L 682.594 798.743 Z" style="fill:white;fill-rule:nonzero;"/>
</svg>