<?xml version="1.0" encoding="utf-8"?>
<svg width="100%" height="100%" viewBox="0 0 1200 1080" version="1.1" xmlns="http://www.w3.org/2000/svg" style="fill-rule:evenodd;clip-rule:evenodd;stroke-linejoin:round;stroke-miterlimit:2;">
  <path d="M 0 0 H 1200 V 1080.001 H 0 V 0 Z" style="fill:rgb(46,46,46);"/>
  <path d="M -98.576 842.013 L 574.553 168.883 L 574.553 1515.144 L -98.576 842.013 Z" style="fill: rgb(51, 51, 51); transform-box: fill-box; transform-origin: 50% 50%;" transform="matrix(0.707107, -0.707107, 0.707107, 0.707107, -0.000006, -0.000008)"/>
  <path d="M 430.546 498.226 L 430.552 498.226 L 577.438 370.947 C 577.493 370.894 577.529 370.846 577.621 370.791 C 582.523 368.949 591.627 369.777 597.623 368.644 C 606.887 366.925 607.525 364.426 613.854 358.635 C 634.059 356.719 659.459 359.126 684.679 366.341 L 714.37 374.835 C 737.791 381.536 757.859 391.138 771.759 401.726 C 768.669 406.338 762.465 413.403 765.802 419.646 C 769.159 426.503 784.651 432.909 789.146 442.082 L 705.475 628.855 C 688.317 638.262 664.491 629.619 650.046 636.898 C 635.342 643.795 626.917 667.546 619.967 681.792 C 583.592 683.612 542.817 673.19 507.532 651.106 L 464.396 624.107 C 429.042 601.979 410.683 573.066 409.146 546.91 C 423.989 533.194 430.812 529.792 431.988 518.826 C 432.77 512.032 427.26 504.433 430.318 498.43 C 430.391 498.362 430.455 498.29 430.546 498.226 Z M 649.687 365.947 C 645.325 364.682 640.619 364.851 639.134 366.326 C 637.637 367.813 639.963 370.079 644.373 371.383 C 648.817 372.698 653.628 372.522 655.076 370.994 C 656.512 369.479 654.081 367.22 649.687 365.947 Z M 722.84 388.695 C 713.951 386.094 704.992 386.436 702.679 389.469 C 700.326 392.553 705.67 397.302 714.771 400.066 C 724.011 402.873 733.36 402.501 735.494 399.249 C 737.592 396.053 731.858 391.333 722.84 388.695 Z M 509.713 568.965 L 497.417 569.111 L 494.008 572.948 L 498.168 582.289 L 513.026 590.547 C 515.211 591.761 519.207 590.013 521.951 586.658 L 523.439 584.838 C 526.133 581.544 526.538 577.987 524.382 576.831 L 509.713 568.965 Z M 480.485 553.292 L 467.034 546.079 C 465.12 545.053 461.291 546.536 458.412 549.429 L 456.822 551.027 C 453.894 553.97 453.064 557.225 454.998 558.299 L 468.595 565.855 L 480.817 565.711 L 484.272 561.973 L 480.485 553.292 Z M 487.287 552.934 L 489.827 561.694 L 495.81 564.923 L 507.626 563.758 L 515.225 555.108 C 516.303 553.881 513.207 550.851 508.33 548.332 L 505.679 546.962 C 500.873 544.48 496.129 543.432 495.052 544.624 L 487.287 552.934 Z M 685.226 376.248 C 680.594 374.906 675.759 375.084 674.385 376.649 C 672.998 378.228 675.639 380.635 680.326 382.022 C 685.051 383.42 689.996 383.234 691.327 381.61 C 692.644 380 689.894 377.601 685.226 376.248 Z M 470.312 571.099 L 461.739 580.274 C 460.451 581.611 463.432 585.018 468.417 587.902 L 471.168 589.494 C 476.233 592.424 481.35 593.665 482.59 592.255 L 490.997 582.686 L 488.306 573.277 L 482.277 569.949 L 470.312 571.099 Z M 678.287 370.151 C 679.619 368.642 677.041 366.394 672.57 365.126 C 668.132 363.868 663.445 364.035 662.061 365.503 C 660.666 366.984 663.139 369.239 667.628 370.538 C 672.152 371.847 676.943 371.673 678.287 370.151 Z M 586.303 584.34 C 574.505 578.163 560.897 578.932 555.555 586.096 C 550.076 593.445 555.168 604.933 567.311 611.721 C 579.741 618.67 594.291 617.793 599.414 609.809 C 604.402 602.035 598.369 590.656 586.303 584.34 Z M 591.237 384.272 L 462.128 505.368 C 525.045 536.903 585.219 567.072 648.135 598.609 C 649.22 599.156 650.52 599 650.877 598.368 C 682.272 542.901 712.619 489.279 744.014 433.813 L 592.844 384.209 C 592.213 384.006 591.496 384.033 591.237 384.272 Z M 667.371 382.507 C 668.799 380.89 666.205 378.48 661.619 377.121 C 657.069 375.772 652.214 375.951 650.732 377.523 C 649.236 379.109 651.72 381.527 656.323 382.921 C 660.964 384.326 665.93 384.139 667.371 382.507 Z" style="fill:white;"/>
  <path d="M 542.32 798.743 L 529.828 764.407 L 536.367 764.407 L 543.633 785.618 C 543.914 786.353 544.562 788.501 545.578 792.064 C 545.641 791.814 545.93 790.786 546.445 788.982 C 546.961 787.177 547.297 786.071 547.453 785.665 C 547.641 785.134 548.828 781.607 551.016 775.083 C 553.203 768.56 554.398 765.001 554.602 764.407 L 561.07 764.407 L 548.742 798.743 L 542.32 798.743 Z" style="fill:white;fill-rule:nonzero;"/>
  <path d="M 564.187 798.743 L 564.187 772.986 L 570.328 772.986 L 570.328 798.743 L 564.187 798.743 Z M 564.187 769.236 L 564.187 763.986 L 570.352 763.986 L 570.352 769.236 L 564.187 769.236 Z" style="fill:white;fill-rule:nonzero;"/>
  <path d="M 587.016 799.095 C 585.266 799.095 583.809 798.888 582.644 798.474 C 581.48 798.06 580.57 797.407 579.914 796.517 C 579.258 795.626 578.793 794.575 578.519 793.364 C 578.246 792.154 578.109 790.657 578.109 788.876 L 578.109 776.712 L 573.891 776.712 L 574.125 773.384 L 578.531 772.986 L 580.5 766.001 L 584.25 765.978 L 584.25 772.986 L 590.648 772.986 L 590.648 776.712 L 584.25 776.712 L 584.25 788.993 C 584.25 790.946 584.531 792.337 585.094 793.165 C 585.656 793.993 586.695 794.407 588.211 794.407 C 589.102 794.407 590.055 794.329 591.07 794.173 L 591.234 798.579 C 591.203 798.579 591.012 798.614 590.66 798.685 C 590.309 798.755 589.973 798.818 589.652 798.872 C 589.332 798.927 588.922 798.978 588.422 799.025 C 587.922 799.071 587.453 799.095 587.016 799.095 Z" style="fill:white;fill-rule:nonzero;"/>
  <path d="M 602.32 799.236 C 599.93 799.236 597.996 798.575 596.519 797.255 C 595.043 795.935 594.305 794.032 594.305 791.548 C 594.305 788.876 595.18 786.896 596.93 785.607 C 598.68 784.318 601.32 783.501 604.852 783.157 C 605.336 783.095 605.859 783.032 606.422 782.97 C 606.984 782.907 607.617 782.845 608.32 782.782 C 609.023 782.72 609.578 782.665 609.984 782.618 L 609.984 781.259 C 609.984 779.696 609.625 778.56 608.906 777.849 C 608.187 777.138 607.094 776.782 605.625 776.782 C 603.531 776.782 600.945 777.368 597.867 778.54 C 597.852 778.493 597.594 777.782 597.094 776.407 C 596.594 775.032 596.336 774.329 596.32 774.298 C 599.352 773.001 602.633 772.353 606.164 772.353 C 609.633 772.353 612.156 773.107 613.734 774.614 C 615.312 776.122 616.102 778.564 616.102 781.939 L 616.102 798.743 L 611.555 798.743 C 611.539 798.681 611.367 798.157 611.039 797.173 C 610.711 796.189 610.547 795.665 610.547 795.603 C 609.266 796.853 608.012 797.771 606.785 798.357 C 605.559 798.943 604.07 799.236 602.32 799.236 Z M 603.984 794.876 C 605.406 794.876 606.644 794.536 607.699 793.857 C 608.754 793.177 609.508 792.353 609.961 791.384 L 609.961 786.415 C 609.914 786.415 609.504 786.446 608.73 786.509 C 607.957 786.571 607.539 786.603 607.477 786.603 C 604.992 786.821 603.172 787.29 602.016 788.009 C 600.859 788.728 600.281 789.884 600.281 791.478 C 600.281 792.571 600.602 793.411 601.242 793.997 C 601.883 794.583 602.797 794.876 603.984 794.876 Z" style="fill:white;fill-rule:nonzero;"/>
  <path d="M 630.539 799.236 C 628.523 799.236 626.629 798.974 624.855 798.45 C 623.082 797.927 621.68 797.22 620.648 796.329 L 622.336 791.9 C 623.195 792.618 624.383 793.208 625.898 793.669 C 627.414 794.13 628.969 794.361 630.562 794.361 C 632.359 794.361 633.809 793.876 634.91 792.907 C 636.012 791.939 636.562 790.673 636.562 789.111 C 636.562 788.142 636.41 787.306 636.105 786.603 C 635.801 785.9 635.398 785.337 634.898 784.915 C 634.398 784.493 633.73 784.154 632.894 783.896 C 632.059 783.638 631.203 783.462 630.328 783.368 C 629.453 783.275 628.398 783.22 627.164 783.204 C 627.117 783.204 626.891 783.2 626.484 783.193 C 626.078 783.185 625.852 783.181 625.805 783.181 L 625.805 778.446 L 627.117 778.446 C 628.477 778.446 629.644 778.376 630.621 778.236 C 631.598 778.095 632.504 777.853 633.34 777.509 C 634.176 777.165 634.809 776.657 635.238 775.986 C 635.668 775.314 635.883 774.486 635.883 773.501 C 635.883 772.173 635.383 771.04 634.383 770.103 C 633.383 769.165 631.977 768.696 630.164 768.696 C 627.227 768.696 624.609 769.431 622.312 770.9 L 620.625 766.446 C 623.469 764.696 626.844 763.821 630.75 763.821 C 634.016 763.821 636.684 764.681 638.754 766.4 C 640.824 768.118 641.859 770.321 641.859 773.009 C 641.859 774.884 641.379 776.482 640.418 777.802 C 639.457 779.122 638.062 780.087 636.234 780.696 C 638.328 781.103 639.949 782.111 641.098 783.72 C 642.246 785.329 642.82 787.228 642.82 789.415 C 642.82 791.493 642.266 793.286 641.156 794.794 C 640.047 796.302 638.578 797.419 636.75 798.146 C 634.922 798.872 632.852 799.236 630.539 799.236 Z" style="fill:white;fill-rule:nonzero;"/>
  <path d="M 647.555 798.743 L 647.555 763.493 L 653.695 763.095 L 653.695 778.915 L 653.555 784.118 C 653.57 784.103 653.73 783.946 654.035 783.65 C 654.34 783.353 654.508 783.189 654.539 783.157 C 655.398 782.142 656.332 781.095 657.34 780.017 C 658.348 778.939 659.621 777.618 661.16 776.056 C 662.699 774.493 663.703 773.47 664.172 772.986 L 671.484 772.986 L 660.891 783.954 L 672.164 798.743 L 664.734 798.743 L 656.25 787.048 L 653.695 789.064 L 653.695 798.743 L 647.555 798.743 Z" style="fill:white;fill-rule:nonzero;"/>
</svg>