<?xml version="1.0" encoding="UTF-8" standalone="no"?>
<!DOCTYPE svg PUBLIC "-//W3C//DTD SVG 1.1//EN" "http://www.w3.org/Graphics/SVG/1.1/DTD/svg11.dtd">
<svg width="100%" height="100%" viewBox="0 0 1200 1080" version="1.1" xmlns="http://www.w3.org/2000/svg" xmlns:xlink="http://www.w3.org/1999/xlink" xml:space="preserve" xmlns:serif="http://www.serif.com/" style="fill-rule:evenodd;clip-rule:evenodd;stroke-linejoin:round;stroke-miterlimit:2;">
    <rect id="Artboard1" x="0" y="0" width="1200" height="1080" style="fill:none;"/>
    <g id="Artboard11" serif:id="Artboard1">
        <g transform="matrix(1,0,0,1.09091,-720,207.273)">
            <rect x="720" y="-190" width="1200" height="990" style="fill:rgb(46,46,46);"/>
        </g>
        <g transform="matrix(0.707107,-0.707107,0.707107,0.707107,-575.938,-155.145)">
            <path d="M-466.129,1280.63L207,607.5L207,1953.76L-466.129,1280.63Z" style="fill:rgb(51,51,51);"/>
        </g>
        <g id="vita3k.svg">
            <g id="face" transform="matrix(0.398165,0,0,0.398165,319.069,629.372)">
                <path d="M279.978,-329.377L279.992,-329.376L648.899,-649.041C649.037,-649.174 649.129,-649.295 649.359,-649.433C661.67,-654.057 684.535,-651.978 699.594,-654.824C722.862,-659.141 724.463,-665.419 740.358,-679.961C791.105,-684.773 854.897,-678.728 918.237,-660.608L992.806,-639.275C1051.63,-622.446 1102.03,-598.331 1136.94,-571.739C1129.18,-560.156 1113.6,-542.411 1121.98,-526.732C1130.41,-509.509 1169.32,-493.422 1180.61,-470.383L970.468,-1.298C927.374,22.327 867.535,0.621 831.257,18.901C794.326,36.224 773.166,95.876 755.711,131.654C664.356,136.225 561.947,110.051 473.329,54.585L364.992,-13.223C276.199,-68.798 230.09,-141.413 226.231,-207.104C263.509,-241.553 280.646,-250.097 283.598,-277.638C285.562,-294.703 271.725,-313.786 279.404,-328.865C279.588,-329.035 279.748,-329.216 279.978,-329.377ZM830.354,-661.599C819.399,-664.774 807.579,-664.351 803.85,-660.647C800.091,-656.912 805.933,-651.221 817.009,-647.944C828.169,-644.643 840.252,-645.084 843.89,-648.923C847.496,-652.728 841.389,-658.4 830.354,-661.599ZM1014.08,-604.466C991.756,-610.997 969.253,-610.139 963.444,-602.521C957.536,-594.776 970.957,-582.849 993.814,-575.906C1017.02,-568.858 1040.5,-569.791 1045.86,-577.958C1051.13,-585.987 1036.73,-597.84 1014.08,-604.466ZM478.806,-151.714L447.926,-151.348L439.363,-141.709L449.81,-118.249L487.128,-97.51C492.614,-94.462 502.652,-98.852 509.542,-107.276L513.281,-111.848C520.046,-120.12 521.062,-129.055 515.649,-131.957L478.806,-151.714ZM405.401,-191.076L371.617,-209.192C366.811,-211.769 357.193,-208.044 349.962,-200.778L345.969,-196.765C338.617,-189.374 336.531,-181.2 341.389,-178.502L375.537,-159.525L406.233,-159.885L414.912,-169.273L405.401,-191.076ZM422.482,-191.977L428.863,-169.974L443.889,-161.865L473.565,-164.791L492.649,-186.515C495.358,-189.597 487.582,-197.207 475.333,-203.535L468.674,-206.975C456.604,-213.209 444.691,-215.841 441.984,-212.847L422.482,-191.977ZM919.611,-635.726C907.977,-639.098 895.836,-638.65 892.384,-634.719C888.901,-630.754 895.533,-624.709 907.306,-621.225C919.171,-617.715 931.592,-618.182 934.933,-622.261C938.243,-626.303 931.334,-632.328 919.611,-635.726ZM379.849,-146.353L358.319,-123.31C355.084,-119.953 362.571,-111.396 375.09,-104.154L382.001,-100.155C394.722,-92.797 407.573,-89.678 410.687,-93.22L431.8,-117.254L425.042,-140.883L409.901,-149.243L379.849,-146.353ZM902.184,-651.04C905.53,-654.828 899.054,-660.474 887.825,-663.659C876.679,-666.82 864.908,-666.399 861.433,-662.712C857.928,-658.993 864.14,-653.329 875.414,-650.067C886.775,-646.78 898.808,-647.218 902.184,-651.04ZM671.165,-113.1C641.532,-128.612 607.356,-126.682 593.941,-108.689C580.178,-90.231 592.968,-61.38 623.466,-44.331C654.683,-26.879 691.227,-29.08 704.092,-49.132C716.621,-68.657 701.467,-97.237 671.165,-113.1ZM683.557,-615.573L359.296,-311.439C517.313,-232.237 668.442,-156.467 826.457,-77.262C829.181,-75.888 832.447,-76.281 833.343,-77.868C912.192,-217.173 988.409,-351.846 1067.26,-491.15L687.593,-615.733C686.008,-616.241 684.207,-616.174 683.557,-615.573ZM874.768,-620.006C878.355,-624.067 871.839,-630.121 860.321,-633.535C848.894,-636.922 836.7,-636.473 832.978,-632.524C829.223,-628.54 835.461,-622.467 847.021,-618.967C858.676,-615.438 871.148,-615.908 874.768,-620.006Z" style="fill:white;"/>
            </g>
            <g transform="matrix(1,0,0,1,17.8621,-41.6765)">
                <path d="M524.458,840.419L511.966,806.083L518.505,806.083L525.771,827.294C526.052,828.029 526.7,830.177 527.716,833.74C527.779,833.49 528.068,832.462 528.583,830.658C529.099,828.853 529.435,827.747 529.591,827.341C529.779,826.81 530.966,823.283 533.154,816.759C535.341,810.236 536.536,806.677 536.74,806.083L543.208,806.083L530.88,840.419L524.458,840.419Z" style="fill:white;fill-rule:nonzero;"/>
                <path d="M546.325,840.419L546.325,814.662L552.466,814.662L552.466,840.419L546.325,840.419ZM546.325,810.912L546.325,805.662L552.49,805.662L552.49,810.912L546.325,810.912Z" style="fill:white;fill-rule:nonzero;"/>
                <path d="M569.154,840.771C567.404,840.771 565.947,840.564 564.782,840.15C563.618,839.736 562.708,839.083 562.052,838.193C561.396,837.302 560.931,836.251 560.657,835.04C560.384,833.83 560.247,832.333 560.247,830.552L560.247,818.388L556.029,818.388L556.263,815.06L560.669,814.662L562.638,807.677L566.388,807.654L566.388,814.662L572.786,814.662L572.786,818.388L566.388,818.388L566.388,830.669C566.388,832.622 566.669,834.013 567.232,834.841C567.794,835.669 568.833,836.083 570.349,836.083C571.24,836.083 572.193,836.005 573.208,835.849L573.372,840.255C573.341,840.255 573.15,840.29 572.798,840.361C572.447,840.431 572.111,840.494 571.79,840.548C571.47,840.603 571.06,840.654 570.56,840.701C570.06,840.747 569.591,840.771 569.154,840.771Z" style="fill:white;fill-rule:nonzero;"/>
                <path d="M584.458,840.912C582.068,840.912 580.134,840.251 578.657,838.931C577.181,837.611 576.443,835.708 576.443,833.224C576.443,830.552 577.318,828.572 579.068,827.283C580.818,825.994 583.458,825.177 586.99,824.833C587.474,824.771 587.997,824.708 588.56,824.646C589.122,824.583 589.755,824.521 590.458,824.458C591.161,824.396 591.716,824.341 592.122,824.294L592.122,822.935C592.122,821.372 591.763,820.236 591.044,819.525C590.325,818.814 589.232,818.458 587.763,818.458C585.669,818.458 583.083,819.044 580.005,820.216C579.99,820.169 579.732,819.458 579.232,818.083C578.732,816.708 578.474,816.005 578.458,815.974C581.49,814.677 584.771,814.029 588.302,814.029C591.771,814.029 594.294,814.783 595.872,816.29C597.45,817.798 598.24,820.24 598.24,823.615L598.24,840.419L593.693,840.419C593.677,840.357 593.505,839.833 593.177,838.849C592.849,837.865 592.685,837.341 592.685,837.279C591.404,838.529 590.15,839.447 588.923,840.033C587.697,840.619 586.208,840.912 584.458,840.912ZM586.122,836.552C587.544,836.552 588.782,836.212 589.837,835.533C590.892,834.853 591.646,834.029 592.099,833.06L592.099,828.091C592.052,828.091 591.642,828.122 590.868,828.185C590.095,828.247 589.677,828.279 589.615,828.279C587.13,828.497 585.31,828.966 584.154,829.685C582.997,830.404 582.419,831.56 582.419,833.154C582.419,834.247 582.74,835.087 583.38,835.673C584.021,836.259 584.935,836.552 586.122,836.552Z" style="fill:white;fill-rule:nonzero;"/>
                <path d="M612.677,840.912C610.661,840.912 608.767,840.65 606.993,840.126C605.22,839.603 603.818,838.896 602.786,838.005L604.474,833.576C605.333,834.294 606.521,834.884 608.036,835.345C609.552,835.806 611.107,836.037 612.7,836.037C614.497,836.037 615.947,835.552 617.048,834.583C618.15,833.615 618.7,832.349 618.7,830.787C618.7,829.818 618.548,828.982 618.243,828.279C617.939,827.576 617.536,827.013 617.036,826.591C616.536,826.169 615.868,825.83 615.032,825.572C614.197,825.314 613.341,825.138 612.466,825.044C611.591,824.951 610.536,824.896 609.302,824.88C609.255,824.88 609.029,824.876 608.622,824.869C608.216,824.861 607.99,824.857 607.943,824.857L607.943,820.122L609.255,820.122C610.615,820.122 611.782,820.052 612.759,819.912C613.736,819.771 614.642,819.529 615.478,819.185C616.314,818.841 616.947,818.333 617.376,817.662C617.806,816.99 618.021,816.162 618.021,815.177C618.021,813.849 617.521,812.716 616.521,811.779C615.521,810.841 614.115,810.372 612.302,810.372C609.365,810.372 606.747,811.107 604.45,812.576L602.763,808.122C605.607,806.372 608.982,805.497 612.888,805.497C616.154,805.497 618.822,806.357 620.892,808.076C622.962,809.794 623.997,811.997 623.997,814.685C623.997,816.56 623.517,818.158 622.556,819.478C621.595,820.798 620.2,821.763 618.372,822.372C620.466,822.779 622.087,823.787 623.236,825.396C624.384,827.005 624.958,828.904 624.958,831.091C624.958,833.169 624.404,834.962 623.294,836.47C622.185,837.978 620.716,839.095 618.888,839.822C617.06,840.548 614.99,840.912 612.677,840.912Z" style="fill:white;fill-rule:nonzero;"/>
                <path d="M629.693,840.419L629.693,805.169L635.833,804.771L635.833,820.591L635.693,825.794C635.708,825.779 635.868,825.622 636.173,825.326C636.478,825.029 636.646,824.865 636.677,824.833C637.536,823.818 638.47,822.771 639.478,821.693C640.486,820.615 641.759,819.294 643.298,817.732C644.837,816.169 645.841,815.146 646.31,814.662L653.622,814.662L643.029,825.63L654.302,840.419L646.872,840.419L638.388,828.724L635.833,830.74L635.833,840.419L629.693,840.419Z" style="fill:white;fill-rule:nonzero;"/>
            </g>
        </g>
    </g>
</svg>
