<?xml version="1.0" encoding="UTF-8" standalone="no"?>
<!DOCTYPE svg PUBLIC "-//W3C//DTD SVG 1.1//EN" "http://www.w3.org/Graphics/SVG/1.1/DTD/svg11.dtd">
<svg width="100%" height="100%" viewBox="0 0 1200 1080" version="1.1" xmlns="http://www.w3.org/2000/svg" xmlns:xlink="http://www.w3.org/1999/xlink" xml:space="preserve" xmlns:serif="http://www.serif.com/" style="fill-rule:evenodd;clip-rule:evenodd;stroke-linejoin:round;stroke-miterlimit:2;">
    <rect id="Artboard1" x="0" y="0" width="1200" height="1080" style="fill:none;"/>
    <g id="Artboard11" serif:id="Artboard1">
        <g transform="matrix(1,0,0,1.09091,-720,207.273)">
            <rect x="720" y="-190" width="1200" height="990" style="fill:rgb(46,46,46);"/>
        </g>
        <g transform="matrix(0.707107,-0.707107,0.707107,0.707107,-575.938,-155.145)">
            <path d="M-466.129,1280.63L207,607.5L207,1953.76L-466.129,1280.63Z" style="fill:rgb(51,51,51);"/>
        </g>
        <g id="xemu.svg">
            <g transform="matrix(4.18413,0,0,4.18413,415.92,335.717)">
                <path d="M39.73,86.91C33.102,86.275 26.392,83.895 20.628,80.134C15.798,76.984 14.708,75.687 14.708,73.102C14.708,67.909 20.418,58.812 30.188,48.444C35.735,42.554 43.463,35.654 44.298,35.84C45.924,36.203 58.914,48.874 63.778,54.84C71.468,64.27 75.002,71.994 73.206,75.437C71.841,78.054 63.369,83.17 57.146,85.135C52.016,86.755 45.279,87.441 39.73,86.91ZM8.184,67.703C4.17,61.545 2.142,55.483 1.164,46.715C0.84,43.82 0.954,42.165 1.897,36.221C3.07,28.821 7.287,20.251 12.357,14.981C14.515,12.741 14.707,12.681 17.339,13.571C20.529,14.651 23.939,17.007 29.229,21.791L32.319,24.585L30.629,26.655C22.801,36.265 14.539,49.895 11.429,58.325C9.739,62.905 9.059,67.505 9.789,69.42C10.279,70.714 9.829,70.232 8.179,67.706L8.184,67.703ZM78.637,68.75C79.034,66.814 78.532,63.26 77.357,59.674C74.812,51.909 66.303,37.464 58.49,27.642L56.03,24.55L58.692,22.107C62.166,18.917 64.578,17.007 67.182,15.384C69.235,14.104 72.17,12.971 73.432,12.971C74.209,12.971 76.948,15.821 79.158,18.921C82.582,23.721 85.1,29.551 86.376,35.611C87.201,39.531 87.27,47.911 86.509,51.821C85.879,55.029 84.559,59.187 83.279,62.008C82.309,64.121 79.919,68.226 78.869,69.562C78.329,70.249 78.329,70.248 78.629,68.766L78.637,68.75ZM40.44,11.505C36.834,9.675 31.272,7.71 28.2,7.18C27.124,6.995 25.287,6.89 24.12,6.95C21.584,7.078 21.697,6.946 25.763,5.025C29.143,3.428 31.963,2.489 35.793,1.685C40.098,0.78 48.193,0.77 52.43,1.663C57.005,2.628 62.394,4.633 65.43,6.503L66.334,7.057L64.264,6.953C60.148,6.745 54.15,8.408 47.71,11.54C45.768,12.486 44.08,13.24 43.956,13.22C43.833,13.196 42.25,12.425 40.436,11.505L40.44,11.505Z" style="fill:white;fill-rule:nonzero;"/>
            </g>
            <g transform="matrix(1,0,0,1,17.8621,-41.6765)">
                <path d="M514.884,840.419L526.907,822.841L515.775,806.083L522.923,806.083L531.009,818.88L539.329,806.083L546.103,806.083L534.736,822.935L546.712,840.419L539.376,840.419L530.704,827.06L521.845,840.419L514.884,840.419Z" style="fill:white;fill-rule:nonzero;"/>
                <path d="M550.181,840.419L550.181,806.083L570.993,806.083L570.736,811.122L556.532,811.122L556.532,819.982L570.032,819.982L570.032,825.021L556.532,825.021L556.532,835.357L571.251,835.357L571.04,840.419L550.181,840.419Z" style="fill:white;fill-rule:nonzero;"/>
                <path d="M577.181,840.419L577.181,806.083L584.681,806.083L595.064,830.88L605.517,806.083L612.923,806.083L612.923,840.419L607.064,840.419L607.064,823.451L607.251,813.724L606.384,816.302L597.595,838.076L592.157,838.076L583.556,816.185L582.689,813.607L582.9,823.544L582.9,840.419L577.181,840.419Z" style="fill:white;fill-rule:nonzero;"/>
                <path d="M633.736,840.912C629.236,840.912 625.822,839.79 623.493,837.548C621.165,835.306 620.001,832.146 620.001,828.068L620.001,806.083L626.376,806.083L626.376,827.529C626.376,830.388 626.958,832.474 628.122,833.787C629.286,835.099 631.197,835.755 633.853,835.755C636.462,835.755 638.353,835.095 639.525,833.775C640.697,832.455 641.282,830.365 641.282,827.505L641.282,806.083L647.634,806.083L647.634,828.115C647.634,832.162 646.447,835.306 644.072,837.548C641.697,839.79 638.251,840.912 633.736,840.912Z" style="fill:white;fill-rule:nonzero;"/>
            </g>
        </g>
    </g>
</svg>
