<?xml version="1.0" encoding="utf-8"?>
<svg width="100%" height="100%" viewBox="0 0 1200 1080" version="1.1" xmlns="http://www.w3.org/2000/svg" style="fill-rule:evenodd;clip-rule:evenodd;stroke-linejoin:round;stroke-miterlimit:2;">
  <rect id="Artboard1" x="0" y="0" width="1200" height="1080" style="fill:none;"/>
  <rect width="1200" height="1080.001" style="fill:rgb(46,46,46);"/>
  <path d="M -98.576 842.013 L 574.553 168.883 L 574.553 1515.144 L -98.576 842.013 Z" style="fill: rgb(51, 51, 51); transform-box: fill-box; transform-origin: 50% 50%;" transform="matrix(0.707107, -0.707107, 0.707107, 0.707107, -0.000006, -0.000008)"/>
  <path d="M 582.156 699.36 C 554.423 696.703 526.348 686.745 502.23 671.008 C 482.021 657.828 477.46 652.401 477.46 641.585 C 477.46 619.857 501.352 581.794 542.231 538.413 C 565.44 513.768 597.775 484.898 601.269 485.676 C 608.072 487.195 662.424 540.212 682.775 565.175 C 714.951 604.631 729.738 636.949 722.223 651.355 C 716.512 662.305 681.064 683.711 655.026 691.933 C 633.562 698.711 605.373 701.582 582.156 699.36 Z M 450.163 618.995 C 433.368 593.229 424.882 567.865 420.79 531.179 C 419.435 519.066 419.912 512.141 423.857 487.27 C 428.765 456.308 446.41 420.45 467.623 398.399 C 476.653 389.027 477.456 388.776 488.469 392.5 C 501.816 397.019 516.084 406.877 538.218 426.893 L 551.147 438.584 L 544.076 447.245 C 511.322 487.454 476.753 544.484 463.74 579.756 C 456.669 598.92 453.824 618.167 456.878 626.179 C 458.929 631.594 457.046 629.577 450.142 619.008 L 450.163 618.995 Z M 744.947 623.376 C 746.609 615.275 744.508 600.405 739.592 585.401 C 728.943 552.911 693.34 492.471 660.65 451.375 L 650.357 438.437 L 661.495 428.216 C 676.031 414.868 686.123 406.877 697.018 400.086 C 705.608 394.73 717.889 389.989 723.169 389.989 C 726.42 389.989 737.88 401.914 747.127 414.885 C 761.454 434.969 771.989 459.362 777.328 484.718 C 780.78 501.12 781.069 536.183 777.885 552.543 C 775.249 565.966 769.726 583.363 764.37 595.167 C 760.312 604.008 750.312 621.183 745.918 626.773 C 743.659 629.648 743.659 629.644 744.914 623.443 L 744.947 623.376 Z M 585.126 383.855 C 570.038 376.198 546.766 367.977 533.912 365.759 C 529.41 364.985 521.724 364.546 516.841 364.797 C 506.23 365.332 506.703 364.78 523.716 356.742 C 537.858 350.06 549.657 346.131 565.683 342.767 C 583.695 338.981 617.566 338.939 635.294 342.675 C 654.436 346.713 676.985 355.102 689.688 362.926 L 693.47 365.244 L 684.809 364.809 C 667.587 363.939 642.491 370.897 615.545 384.002 C 607.419 387.96 600.356 391.115 599.838 391.031 C 599.323 390.931 592.7 387.705 585.11 383.855 L 585.126 383.855 Z" style="fill:white;fill-rule:nonzero;"/>
  <path d="M 532.746 798.743 L 544.769 781.165 L 533.637 764.407 L 540.785 764.407 L 548.871 777.204 L 557.191 764.407 L 563.965 764.407 L 552.598 781.259 L 564.574 798.743 L 557.238 798.743 L 548.566 785.384 L 539.707 798.743 L 532.746 798.743 Z" style="fill:white;fill-rule:nonzero;"/>
  <path d="M 568.043 798.743 L 568.043 764.407 L 588.855 764.407 L 588.598 769.446 L 574.394 769.446 L 574.394 778.306 L 587.894 778.306 L 587.894 783.345 L 574.394 783.345 L 574.394 793.681 L 589.113 793.681 L 588.902 798.743 L 568.043 798.743 Z" style="fill:white;fill-rule:nonzero;"/>
  <path d="M 595.043 798.743 L 595.043 764.407 L 602.543 764.407 L 612.926 789.204 L 623.379 764.407 L 630.785 764.407 L 630.785 798.743 L 624.926 798.743 L 624.926 781.775 L 625.113 772.048 L 624.246 774.626 L 615.457 796.4 L 610.019 796.4 L 601.418 774.509 L 600.551 771.931 L 600.762 781.868 L 600.762 798.743 L 595.043 798.743 Z" style="fill:white;fill-rule:nonzero;"/>
  <path d="M 651.598 799.236 C 647.098 799.236 643.684 798.114 641.355 795.872 C 639.027 793.63 637.863 790.47 637.863 786.392 L 637.863 764.407 L 644.238 764.407 L 644.238 785.853 C 644.238 788.712 644.82 790.798 645.984 792.111 C 647.148 793.423 649.059 794.079 651.715 794.079 C 654.324 794.079 656.215 793.419 657.387 792.099 C 658.559 790.779 659.144 788.689 659.144 785.829 L 659.144 764.407 L 665.496 764.407 L 665.496 786.439 C 665.496 790.486 664.309 793.63 661.934 795.872 C 659.559 798.114 656.113 799.236 651.598 799.236 Z" style="fill:white;fill-rule:nonzero;"/>
</svg>